<?xml version="1.0" encoding="utf-8"?>
<!-- Generator: Adobe Illustrator 27.9.0, SVG Export Plug-In . SVG Version: 6.00 Build 0)  -->
<svg version="1.1" xmlns="http://www.w3.org/2000/svg" xmlns:xlink="http://www.w3.org/1999/xlink" x="0px" y="0px"
	 viewBox="0 0 503.272 50.91" style="enable-background:new 0 0 503.272 50.91;" xml:space="preserve">
<style type="text/css">
	.st0{opacity:0.9771;}
	.st1{fill:#791122;}
	.st2{opacity:0.5149;}
	.st3{opacity:0.8738;}
	.st4{opacity:0.8457;}
	.st5{opacity:0.4389;}
	.st6{opacity:0.8536;}
	.st7{opacity:0.4572;}
	.st8{opacity:0.9343;}
	.st9{opacity:0.8662;}
</style>
<g id="Guides">
</g>
<g id="Layer_3">
	<g>
		<g class="st0">
			<path class="st1" d="M469.859,31.39c-0.036,0.127,0.015,0.263,0.125,0.336c0.025,0.016,0.052,0.029,0.079,0.037
				c0.094,0.029,0.199,0.011,0.279-0.053c0.473-0.378,1.885-1.302,2.726-1.044c0.068,0.021,0.131,0.049,0.188,0.084
				c0.326,0.201,0.692,0.528,1.117,0.907c0.91,0.812,2.042,1.822,3.567,2.293l0.022,0.007c0,0,0,0,0,0
				c2.055,0.628,4.247,0.428,6.172-0.563c0.073-0.038,0.128-0.103,0.152-0.182s0.015-0.164-0.024-0.236
				c-1.03-1.877-2.742-3.271-4.821-3.924l-0.04-0.012c-1.274-0.39-2.441-0.234-3.569-0.083c-0.715,0.096-1.391,0.186-2.052,0.129
				c-0.038-0.003-0.078-0.011-0.119-0.024c-0.759-0.232-1.544-1.829-1.782-2.424c-0.048-0.12-0.166-0.196-0.296-0.191
				c-0.129,0.005-0.241,0.092-0.279,0.215c-0.019,0.062-0.431,1.436-0.082,2.541C470.301,29.844,469.878,31.322,469.859,31.39z
				 M471.876,29.206c-0.203-0.447-0.208-1.013-0.158-1.48c0.389,0.733,1.022,1.69,1.765,1.917c0.081,0.025,0.164,0.041,0.245,0.048
				c0.727,0.063,1.468-0.036,2.185-0.132c1.064-0.142,2.163-0.289,3.311,0.062l0.036,0.011c1.825,0.574,3.344,1.761,4.31,3.359
				c-1.712,0.795-3.628,0.932-5.428,0.382l-0.02-0.006c-1.398-0.432-2.475-1.393-3.341-2.165c-0.446-0.398-0.831-0.741-1.202-0.97
				c-0.102-0.063-0.213-0.113-0.33-0.149c-0.779-0.238-1.755,0.183-2.44,0.582c0.224-0.43,0.538-0.872,0.925-1.059
				C471.88,29.534,471.944,29.357,471.876,29.206z"/>
			<path class="st1" d="M481.025,32.533c0.076,0.023,0.161,0.016,0.232-0.023c0.07-0.037,0.125-0.102,0.149-0.179
				c0.024-0.077,0.014-0.161-0.023-0.232c-0.076-0.143-0.27-0.202-0.412-0.126c-0.07,0.037-0.124,0.102-0.147,0.18
				c-0.024,0.077-0.016,0.161,0.022,0.231C480.882,32.455,480.948,32.509,481.025,32.533z"/>
			<path class="st1" d="M489.18,25.673l-0.04-0.012c-1.274-0.39-2.441-0.234-3.569-0.083c-0.715,0.096-1.391,0.186-2.052,0.129
				c-0.038-0.003-0.078-0.011-0.119-0.024c-0.759-0.232-1.544-1.829-1.782-2.424c-0.048-0.12-0.166-0.196-0.296-0.191
				c-0.129,0.005-0.241,0.092-0.279,0.215c-0.019,0.062-0.431,1.436-0.082,2.541c-0.922,0.643-1.345,2.121-1.364,2.189
				c-0.036,0.127,0.015,0.263,0.125,0.336c0.025,0.016,0.051,0.029,0.079,0.037c0.094,0.029,0.199,0.011,0.279-0.053
				c0.473-0.378,1.885-1.302,2.726-1.044c0.068,0.021,0.131,0.049,0.188,0.085c0.326,0.201,0.692,0.528,1.117,0.907
				c0.91,0.812,2.042,1.822,3.567,2.293l0.022,0.007c0,0,0,0,0,0c2.055,0.628,4.247,0.428,6.172-0.563
				c0.073-0.038,0.128-0.103,0.152-0.182c0.024-0.079,0.015-0.164-0.024-0.236C492.971,27.72,491.259,26.326,489.18,25.673z
				 M487.879,29.995l-0.02-0.006c-1.398-0.432-2.475-1.393-3.341-2.165c-0.446-0.398-0.831-0.741-1.202-0.97
				c-0.102-0.063-0.213-0.113-0.33-0.149c-0.779-0.238-1.754,0.183-2.439,0.581c0.225-0.43,0.538-0.872,0.923-1.058
				c0.149-0.072,0.213-0.25,0.145-0.4c-0.203-0.447-0.208-1.013-0.158-1.48c0.389,0.733,1.022,1.69,1.765,1.917
				c0.081,0.025,0.164,0.041,0.245,0.048c0.727,0.063,1.468-0.036,2.185-0.132c1.064-0.142,2.163-0.289,3.311,0.062l0.036,0.011
				c1.825,0.574,3.344,1.761,4.31,3.359C491.595,30.409,489.68,30.546,487.879,29.995z"/>
			<path class="st1" d="M490.763,29.154c0.077,0.024,0.161,0.014,0.232-0.023c0.072-0.037,0.125-0.102,0.149-0.179
				c0.024-0.077,0.016-0.162-0.023-0.233c-0.075-0.141-0.27-0.2-0.412-0.126c-0.071,0.039-0.124,0.104-0.148,0.181
				c-0.023,0.076-0.016,0.161,0.023,0.232C490.621,29.076,490.686,29.131,490.763,29.154z"/>
			<path class="st1" d="M470.054,22.908c0.247,0.152,0.526,0.381,0.85,0.645c0.763,0.624,1.713,1.401,2.981,1.792l0.018,0.005
				c0,0,0,0,0,0c1.67,0.511,3.452,0.348,5.016-0.458c0.073-0.038,0.128-0.103,0.152-0.182c0.024-0.079,0.015-0.164-0.024-0.236
				c-0.837-1.525-2.228-2.658-3.917-3.189l-0.038-0.012c-1.054-0.322-2.001-0.239-2.918-0.159c-0.546,0.048-1.061,0.093-1.573,0.049
				c-0.031-0.003-0.064-0.009-0.097-0.019c-0.528-0.161-1.16-1.179-1.434-1.782c-0.052-0.115-0.171-0.186-0.297-0.178
				c-0.126,0.008-0.235,0.094-0.272,0.215c-0.015,0.05-0.342,1.14-0.078,2.04c-0.736,0.544-1.071,1.716-1.087,1.77
				c-0.035,0.125,0.013,0.259,0.12,0.333c0.026,0.018,0.055,0.032,0.084,0.041c0.09,0.028,0.19,0.012,0.269-0.046
				c0.358-0.263,1.432-0.901,2.089-0.701C469.954,22.855,470.007,22.879,470.054,22.908z M468.269,22.559
				c0.169-0.299,0.392-0.586,0.658-0.715c0.149-0.072,0.213-0.25,0.145-0.4c-0.142-0.313-0.16-0.703-0.133-1.046
				c0.331,0.53,0.826,1.159,1.387,1.331c0.074,0.023,0.149,0.038,0.223,0.044c0.564,0.049,1.131-0.001,1.678-0.049
				c0.858-0.075,1.745-0.153,2.686,0.135l0.033,0.01c1.434,0.451,2.632,1.376,3.404,2.623c-1.35,0.61-2.854,0.709-4.27,0.277
				l-0.016-0.005c-1.154-0.356-2.053-1.091-2.775-1.682c-0.34-0.278-0.634-0.519-0.915-0.692c-0.092-0.057-0.192-0.102-0.298-0.134
				C469.49,22.076,468.797,22.301,468.269,22.559z"/>
			<path class="st1" d="M476.369,24.204c0.076,0.023,0.161,0.014,0.233-0.023c0.07-0.037,0.124-0.104,0.147-0.18
				c0.024-0.077,0.016-0.161-0.021-0.233c-0.076-0.141-0.27-0.2-0.412-0.126c-0.072,0.038-0.126,0.103-0.149,0.181
				c-0.023,0.076-0.016,0.161,0.023,0.232C476.227,24.126,476.293,24.181,476.369,24.204z"/>
			<path class="st1" d="M476.05,20.117c-0.035,0.125,0.013,0.258,0.119,0.332c0.027,0.019,0.055,0.032,0.085,0.041
				c0.089,0.027,0.189,0.013,0.267-0.044c0.276-0.199,1.184-0.73,1.72-0.567c0.045,0.014,0.087,0.032,0.124,0.056
				c0.204,0.126,0.437,0.313,0.706,0.53c0.654,0.526,1.468,1.181,2.555,1.516c0,0,0.015,0.005,0.015,0.005c0,0,0,0,0,0
				c1.426,0.436,2.947,0.297,4.283-0.391c0.073-0.038,0.128-0.103,0.152-0.182c0.024-0.079,0.015-0.164-0.024-0.236
				c-0.714-1.302-1.902-2.269-3.344-2.722l-0.033-0.01c-0.904-0.276-1.711-0.212-2.492-0.15c-0.455,0.036-0.886,0.07-1.312,0.033
				c-0.024-0.002-0.049-0.007-0.075-0.015c-0.433-0.132-0.961-0.968-1.191-1.464c-0.053-0.114-0.171-0.184-0.297-0.176
				c-0.126,0.009-0.233,0.094-0.27,0.215c-0.013,0.043-0.286,0.953-0.075,1.723C476.357,19.075,476.083,20.001,476.05,20.117z
				 M477.607,18.614c-0.096-0.212-0.122-0.477-0.114-0.732c0.283,0.42,0.679,0.878,1.125,1.014c0.067,0.02,0.134,0.034,0.201,0.039
				c0.477,0.041,0.952,0.003,1.413-0.033c0.724-0.057,1.472-0.117,2.266,0.126l0.029,0.009c1.186,0.373,2.18,1.133,2.829,2.156
				c-1.12,0.492-2.364,0.568-3.547,0.206c-0.976-0.301-1.739-0.916-2.353-1.409c-0.285-0.23-0.532-0.428-0.768-0.574
				c-0.082-0.051-0.171-0.091-0.266-0.12c-0.46-0.141-0.992,0-1.424,0.187c0.128-0.202,0.286-0.383,0.467-0.47
				C477.611,18.942,477.676,18.764,477.607,18.614z"/>
			<path class="st1" d="M483.731,21.016c0.077,0.024,0.161,0.014,0.232-0.023c0.072-0.037,0.126-0.103,0.149-0.179
				c0.024-0.077,0.016-0.162-0.023-0.233c-0.075-0.141-0.27-0.2-0.411-0.126c-0.072,0.037-0.126,0.103-0.149,0.181
				c-0.023,0.076-0.016,0.161,0.023,0.232C483.589,20.937,483.654,20.992,483.731,21.016z"/>
		</g>
		<g class="st2">
			<path class="st1" d="M419.885,41.175c0.041,0.213,0.215,0.374,0.43,0.4c0.048,0.006,0.097,0.005,0.143-0.003
				c0.159-0.027,0.299-0.131,0.37-0.283c0.415-0.9,1.805-3.288,3.225-3.529c0.114-0.019,0.228-0.024,0.338-0.015
				c0.624,0.055,1.401,0.265,2.3,0.508c1.927,0.521,4.326,1.169,6.904,0.74l0.037-0.006c0,0,0,0,0.001,0
				c3.469-0.588,6.531-2.489,8.623-5.353c0.079-0.109,0.111-0.245,0.089-0.378c-0.022-0.133-0.098-0.251-0.208-0.327
				c-2.885-1.992-6.414-2.777-9.937-2.208l-0.068,0.011c-2.152,0.365-3.745,1.449-5.287,2.497c-0.977,0.665-1.9,1.292-2.909,1.694
				c-0.058,0.023-0.123,0.041-0.191,0.053c-1.282,0.218-3.602-1.545-4.388-2.242c-0.158-0.14-0.388-0.166-0.573-0.063
				c-0.185,0.103-0.285,0.311-0.25,0.52c0.018,0.105,0.423,2.419,1.744,3.779C419.397,38.588,419.863,41.062,419.885,41.175z
				 M421.235,36.498c-0.625-0.506-1.047-1.331-1.317-2.05c1.108,0.788,2.736,1.725,3.991,1.512c0.138-0.023,0.27-0.06,0.393-0.109
				c1.111-0.442,2.123-1.13,3.101-1.796c1.453-0.988,2.955-2.01,4.892-2.338l0.06-0.01c3.092-0.499,6.187,0.124,8.775,1.756
				c-1.923,2.421-4.627,4.026-7.667,4.541l-0.034,0.006c-2.363,0.394-4.646-0.223-6.48-0.719c-0.945-0.255-1.76-0.476-2.472-0.539
				c-0.195-0.017-0.395-0.009-0.592,0.024c-1.316,0.223-2.435,1.556-3.146,2.643c0.013-0.795,0.148-1.672,0.577-2.229
				C421.482,36.975,421.445,36.668,421.235,36.498z"/>
			<path class="st1" d="M437.07,34.655c0.128-0.022,0.247-0.095,0.322-0.204c0.075-0.106,0.108-0.241,0.086-0.371
				c-0.022-0.13-0.097-0.247-0.204-0.322c-0.216-0.153-0.543-0.098-0.696,0.118c-0.076,0.106-0.106,0.241-0.084,0.371
				c0.022,0.13,0.095,0.247,0.201,0.323C436.803,34.647,436.94,34.677,437.07,34.655z"/>
			<path class="st1" d="M443.975,18.63l-0.068,0.011c-2.151,0.365-3.745,1.449-5.287,2.497c-0.977,0.665-1.9,1.292-2.909,1.694
				c-0.058,0.023-0.123,0.041-0.191,0.053c-1.282,0.217-3.602-1.545-4.388-2.242c-0.158-0.14-0.388-0.166-0.573-0.063
				c-0.185,0.103-0.285,0.311-0.25,0.52c0.018,0.105,0.423,2.419,1.744,3.779c-0.878,1.618-0.413,4.092-0.391,4.205
				c0.041,0.213,0.215,0.374,0.43,0.4c0.048,0.006,0.097,0.005,0.143-0.003c0.159-0.027,0.3-0.131,0.37-0.283
				c0.415-0.9,1.805-3.288,3.225-3.529c0.114-0.019,0.228-0.024,0.338-0.014c0.624,0.055,1.401,0.265,2.3,0.508
				c1.927,0.521,4.326,1.169,6.904,0.74l0.037-0.006c0,0,0,0,0.001,0c3.469-0.588,6.532-2.489,8.623-5.353
				c0.079-0.109,0.111-0.245,0.089-0.378c-0.022-0.133-0.098-0.251-0.208-0.327C451.028,18.846,447.499,18.062,443.975,18.63z
				 M445.242,25.912l-0.034,0.006c-2.363,0.394-4.646-0.223-6.48-0.719c-0.945-0.255-1.76-0.476-2.472-0.539
				c-0.195-0.017-0.394-0.009-0.592,0.025c-1.315,0.223-2.433,1.554-3.144,2.641c0.013-0.795,0.149-1.671,0.576-2.227
				c0.165-0.215,0.129-0.522-0.082-0.692c-0.625-0.506-1.047-1.331-1.317-2.051c1.108,0.788,2.736,1.725,3.991,1.512
				c0.138-0.023,0.27-0.06,0.393-0.109c1.111-0.442,2.123-1.13,3.101-1.796c1.453-0.988,2.955-2.01,4.892-2.338l0.06-0.01
				c3.092-0.499,6.187,0.124,8.775,1.756C450.986,23.792,448.282,25.397,445.242,25.912z"/>
			<path class="st1" d="M448.847,22.566c0.13-0.022,0.247-0.097,0.322-0.204c0.078-0.107,0.108-0.241,0.086-0.371
				c-0.022-0.13-0.095-0.249-0.204-0.325c-0.213-0.151-0.542-0.095-0.696,0.118c-0.075,0.109-0.106,0.243-0.083,0.373
				c0.022,0.128,0.095,0.247,0.204,0.322C448.582,22.555,448.717,22.588,448.847,22.566z"/>
			<path class="st1" d="M413.947,28.613c0.473,0.042,1.049,0.171,1.717,0.321c1.575,0.353,3.535,0.794,5.679,0.437l0.03-0.005
				c0,0,0,0,0,0c2.82-0.478,5.309-2.023,7.008-4.35c0.079-0.109,0.111-0.245,0.089-0.378c-0.022-0.133-0.098-0.251-0.208-0.327
				c-2.345-1.619-5.212-2.256-8.075-1.794l-0.064,0.01c-1.78,0.302-3.106,1.118-4.388,1.908c-0.764,0.47-1.485,0.915-2.266,1.226
				c-0.047,0.019-0.1,0.033-0.156,0.043c-0.891,0.151-2.563-0.875-3.407-1.557c-0.161-0.13-0.386-0.147-0.566-0.043
				c-0.179,0.105-0.275,0.309-0.24,0.514c0.014,0.085,0.336,1.92,1.382,3.044c-0.679,1.336-0.31,3.298-0.292,3.389
				c0.041,0.209,0.209,0.369,0.42,0.399c0.052,0.008,0.103,0.006,0.153-0.002c0.152-0.026,0.288-0.122,0.361-0.264
				c0.332-0.648,1.435-2.37,2.544-2.558C413.763,28.61,413.857,28.606,413.947,28.613z M411.077,29.412
				c0.028-0.562,0.144-1.146,0.439-1.53c0.165-0.215,0.129-0.522-0.082-0.692c-0.438-0.354-0.75-0.913-0.962-1.433
				c0.874,0.534,2.059,1.091,3.007,0.93c0.125-0.021,0.246-0.055,0.359-0.099c0.862-0.343,1.654-0.831,2.421-1.303
				c1.201-0.74,2.443-1.504,4.031-1.774l0.056-0.009c2.43-0.392,4.863,0.084,6.908,1.343c-1.529,1.884-3.658,3.133-6.048,3.538
				l-0.027,0.005c-1.951,0.325-3.806-0.091-5.296-0.426c-0.702-0.157-1.309-0.294-1.848-0.341c-0.176-0.016-0.355-0.008-0.534,0.022
				C412.511,27.81,411.662,28.648,411.077,29.412z"/>
			<path class="st1" d="M424.143,25.879c0.128-0.022,0.247-0.097,0.325-0.204c0.076-0.106,0.105-0.243,0.084-0.371
				c-0.022-0.13-0.095-0.247-0.202-0.325c-0.215-0.151-0.542-0.095-0.696,0.118c-0.078,0.109-0.108,0.244-0.086,0.374
				c0.022,0.128,0.095,0.247,0.204,0.322C423.878,25.868,424.015,25.9,424.143,25.879z"/>
			<path class="st1" d="M420.678,20.129c0.04,0.208,0.208,0.368,0.418,0.399c0.053,0.008,0.105,0.007,0.155-0.002
				c0.151-0.026,0.285-0.12,0.359-0.261c0.258-0.494,1.198-1.938,2.102-2.091c0.076-0.013,0.151-0.016,0.223-0.01
				c0.392,0.035,0.869,0.138,1.423,0.258c1.343,0.29,3.015,0.652,4.853,0.346c0,0,0.025-0.004,0.025-0.004c0,0,0,0,0,0
				c2.408-0.408,4.533-1.727,5.983-3.714c0.079-0.109,0.111-0.245,0.089-0.378c-0.022-0.133-0.098-0.251-0.208-0.327
				c-2.001-1.382-4.45-1.926-6.893-1.532l-0.057,0.009c-1.526,0.259-2.661,0.945-3.759,1.608c-0.64,0.387-1.245,0.753-1.896,1.012
				c-0.036,0.015-0.077,0.026-0.121,0.033c-0.731,0.124-2.116-0.712-2.818-1.269c-0.162-0.128-0.386-0.144-0.564-0.039
				c-0.178,0.105-0.273,0.309-0.238,0.513c0.012,0.072,0.281,1.605,1.153,2.577C420.363,18.379,420.64,19.935,420.678,20.129z
				 M421.854,16.786c-0.296-0.239-0.529-0.609-0.704-0.988c0.723,0.408,1.639,0.787,2.391,0.66c0.113-0.019,0.222-0.049,0.323-0.09
				c0.728-0.29,1.397-0.694,2.044-1.085c1.018-0.615,2.07-1.251,3.409-1.478l0.049-0.008c2.01-0.324,4.022,0.059,5.723,1.081
				c-1.279,1.543-3.044,2.566-5.042,2.905c-1.65,0.275-3.218-0.064-4.478-0.337c-0.586-0.127-1.092-0.236-1.546-0.276
				c-0.157-0.014-0.318-0.007-0.477,0.02c-0.777,0.132-1.452,0.728-1.948,1.319c0.04-0.39,0.138-0.77,0.339-1.032
				C422.101,17.263,422.065,16.956,421.854,16.786z"/>
			<path class="st1" d="M432.581,15.809c0.13-0.022,0.247-0.098,0.322-0.204c0.078-0.107,0.108-0.244,0.086-0.371
				c-0.022-0.13-0.095-0.249-0.204-0.325c-0.213-0.151-0.542-0.095-0.694,0.118c-0.078,0.107-0.108,0.243-0.086,0.374
				c0.022,0.128,0.095,0.247,0.204,0.322C432.316,15.799,432.451,15.832,432.581,15.809z"/>
		</g>
		<g class="st3">
			<path class="st1" d="M364.56,36.341c0.067,0.151,0.223,0.241,0.387,0.224c0.037-0.004,0.072-0.013,0.106-0.027
				c0.114-0.047,0.2-0.148,0.226-0.272c0.155-0.738,0.781-2.743,1.793-3.163c0.081-0.034,0.165-0.057,0.248-0.068
				c0.472-0.065,1.083-0.041,1.791-0.013c1.517,0.06,3.405,0.134,5.243-0.621l0.026-0.011c0,0,0,0,0,0
				c2.472-1.024,4.42-2.952,5.486-5.43c0.04-0.094,0.041-0.2,0.002-0.295c-0.039-0.095-0.115-0.169-0.21-0.207
				c-2.476-0.988-5.226-0.972-7.741,0.047l-0.048,0.02c-1.533,0.635-2.531,1.709-3.496,2.747c-0.612,0.658-1.19,1.28-1.87,1.749
				c-0.039,0.027-0.084,0.051-0.133,0.071c-0.914,0.378-2.932-0.535-3.633-0.919c-0.141-0.077-0.315-0.057-0.436,0.05
				c-0.12,0.108-0.159,0.279-0.097,0.428c0.031,0.075,0.723,1.722,1.933,2.506C363.76,34.506,364.524,36.261,364.56,36.341z
				 M364.768,32.645c-0.549-0.269-1.002-0.809-1.324-1.297c0.955,0.397,2.321,0.815,3.215,0.444c0.098-0.041,0.19-0.09,0.273-0.148
				c0.749-0.516,1.382-1.198,1.995-1.857c0.91-0.979,1.85-1.991,3.231-2.562l0.043-0.018c2.208-0.894,4.608-0.956,6.803-0.185
				c-1.016,2.121-2.748,3.769-4.915,4.666l-0.024,0.01c-1.685,0.692-3.482,0.622-4.925,0.565c-0.744-0.029-1.386-0.054-1.924,0.02
				c-0.148,0.02-0.294,0.06-0.435,0.119c-0.938,0.388-1.541,1.566-1.884,2.492c-0.125-0.591-0.173-1.264,0.05-1.75
				C365.032,32.957,364.953,32.736,364.768,32.645z"/>
			<path class="st1" d="M376.195,28.596c0.091-0.038,0.167-0.112,0.204-0.206c0.038-0.092,0.039-0.197,0.001-0.29
				c-0.038-0.093-0.114-0.166-0.206-0.204c-0.186-0.077-0.419,0.019-0.496,0.205c-0.038,0.092-0.038,0.196,0.001,0.289
				c0.038,0.093,0.112,0.167,0.204,0.205C375.996,28.636,376.102,28.635,376.195,28.596z"/>
			<path class="st1" d="M378.599,15.546l-0.048,0.02c-1.533,0.635-2.531,1.709-3.496,2.747c-0.612,0.658-1.19,1.28-1.87,1.749
				c-0.039,0.027-0.084,0.051-0.133,0.071c-0.914,0.378-2.932-0.535-3.633-0.919c-0.141-0.077-0.315-0.057-0.436,0.05
				c-0.12,0.108-0.159,0.279-0.097,0.428c0.031,0.075,0.723,1.722,1.933,2.506c-0.377,1.348,0.388,3.104,0.423,3.184
				c0.067,0.151,0.223,0.241,0.387,0.224c0.037-0.004,0.072-0.013,0.106-0.027c0.114-0.047,0.2-0.148,0.226-0.272
				c0.155-0.738,0.781-2.743,1.793-3.163c0.081-0.034,0.165-0.057,0.248-0.068c0.472-0.065,1.083-0.041,1.791-0.013
				c1.517,0.06,3.405,0.134,5.243-0.621l0.026-0.011c0,0,0,0,0,0c2.472-1.024,4.421-2.952,5.485-5.43
				c0.04-0.094,0.041-0.2,0.002-0.295c-0.039-0.094-0.115-0.169-0.21-0.207C383.864,14.511,381.115,14.527,378.599,15.546z
				 M380.772,20.73l-0.024,0.01c-1.685,0.692-3.482,0.622-4.925,0.565c-0.744-0.029-1.386-0.054-1.924,0.02
				c-0.148,0.02-0.294,0.06-0.435,0.119c-0.937,0.388-1.541,1.565-1.883,2.49c-0.125-0.592-0.173-1.264,0.049-1.748
				c0.086-0.187,0.007-0.408-0.178-0.499c-0.549-0.269-1.002-0.809-1.324-1.297c0.955,0.397,2.321,0.815,3.215,0.444
				c0.098-0.041,0.19-0.09,0.273-0.148c0.749-0.516,1.382-1.198,1.995-1.857c0.91-0.979,1.85-1.991,3.231-2.562l0.043-0.018
				c2.208-0.894,4.608-0.956,6.803-0.185C384.671,18.184,382.939,19.833,380.772,20.73z"/>
			<path class="st1" d="M382.878,17.638c0.093-0.038,0.166-0.114,0.204-0.206c0.04-0.092,0.04-0.197,0.001-0.29
				c-0.038-0.093-0.113-0.169-0.206-0.206c-0.183-0.076-0.418,0.021-0.496,0.205c-0.037,0.093-0.037,0.198,0.001,0.291
				c0.038,0.091,0.112,0.167,0.206,0.204C382.679,17.675,382.785,17.676,382.878,17.638z"/>
			<path class="st1" d="M358.03,28.035c0.358-0.049,0.807-0.051,1.327-0.053c1.228-0.005,2.755-0.011,4.284-0.638l0.021-0.009
				c0,0,0,0,0,0c2.009-0.832,3.593-2.399,4.458-4.412c0.04-0.094,0.041-0.2,0.002-0.295c-0.039-0.095-0.115-0.169-0.21-0.207
				c-2.012-0.803-4.246-0.789-6.29,0.038l-0.045,0.019c-1.268,0.525-2.113,1.355-2.93,2.158c-0.487,0.478-0.946,0.93-1.473,1.293
				c-0.032,0.022-0.068,0.042-0.109,0.058c-0.635,0.263-2.048-0.214-2.79-0.577c-0.142-0.069-0.311-0.044-0.426,0.064
				c-0.115,0.108-0.151,0.276-0.091,0.422c0.025,0.06,0.574,1.367,1.54,2.023c-0.277,1.105,0.329,2.497,0.358,2.562
				c0.065,0.148,0.218,0.238,0.379,0.224c0.04-0.003,0.078-0.013,0.113-0.027c0.109-0.045,0.193-0.139,0.223-0.257
				c0.136-0.537,0.662-2,1.452-2.327C357.892,28.064,357.961,28.045,358.03,28.035z M356.037,29.114
				c-0.074-0.422-0.087-0.874,0.066-1.208c0.086-0.187,0.007-0.408-0.178-0.499c-0.385-0.188-0.71-0.55-0.956-0.899
				c0.738,0.248,1.711,0.46,2.387,0.18c0.089-0.037,0.173-0.082,0.249-0.134c0.581-0.4,1.086-0.897,1.574-1.376
				c0.765-0.752,1.556-1.529,2.688-1.998l0.04-0.016c1.735-0.703,3.619-0.762,5.349-0.175c-0.815,1.656-2.181,2.942-3.884,3.647
				l-0.019,0.008c-1.391,0.572-2.837,0.577-3.998,0.582c-0.547,0.002-1.02,0.004-1.428,0.06c-0.133,0.018-0.265,0.054-0.392,0.107
				C356.828,27.683,356.341,28.448,356.037,29.114z"/>
			<path class="st1" d="M365.125,24.28c0.091-0.038,0.166-0.114,0.206-0.206c0.038-0.092,0.037-0.198-0.001-0.289
				c-0.038-0.093-0.112-0.167-0.205-0.207c-0.185-0.075-0.418,0.021-0.496,0.205c-0.039,0.094-0.039,0.199,0,0.292
				c0.038,0.091,0.112,0.167,0.206,0.204C364.926,24.317,365.033,24.318,365.125,24.28z"/>
			<path class="st1" d="M361.582,20.605c0.065,0.147,0.217,0.238,0.377,0.225c0.04-0.003,0.079-0.013,0.115-0.028
				c0.108-0.045,0.191-0.137,0.222-0.254c0.107-0.41,0.559-1.64,1.204-1.906c0.054-0.022,0.109-0.038,0.163-0.045
				c0.296-0.041,0.668-0.045,1.098-0.05c1.045-0.012,2.345-0.028,3.656-0.566c0,0,0.018-0.007,0.018-0.007c0,0,0,0,0,0
				c1.716-0.71,3.068-2.048,3.806-3.767c0.04-0.094,0.041-0.2,0.002-0.295c-0.039-0.095-0.115-0.169-0.21-0.207
				c-1.718-0.686-3.625-0.674-5.37,0.032l-0.04,0.017c-1.088,0.45-1.813,1.151-2.514,1.829c-0.409,0.395-0.795,0.769-1.234,1.071
				c-0.024,0.017-0.053,0.032-0.084,0.045c-0.521,0.216-1.69-0.169-2.304-0.463c-0.142-0.068-0.311-0.041-0.425,0.067
				c-0.114,0.108-0.15,0.275-0.09,0.42c0.021,0.051,0.48,1.142,1.292,1.715C361.051,19.361,361.521,20.468,361.582,20.605z
				 M361.887,17.927c-0.26-0.127-0.495-0.362-0.69-0.613c0.605,0.18,1.348,0.306,1.884,0.084c0.08-0.033,0.156-0.074,0.224-0.121
				c0.491-0.338,0.918-0.751,1.331-1.151c0.65-0.628,1.322-1.278,2.277-1.673l0.035-0.014c1.435-0.581,2.992-0.638,4.426-0.168
				c-0.687,1.361-1.822,2.418-3.246,3.008c-1.177,0.483-2.397,0.498-3.377,0.509c-0.456,0.005-0.85,0.01-1.193,0.057
				c-0.119,0.016-0.237,0.048-0.351,0.096c-0.554,0.229-0.953,0.785-1.22,1.308c-0.036-0.296-0.028-0.594,0.077-0.822
				C362.151,18.239,362.072,18.017,361.887,17.927z"/>
			<path class="st1" d="M369.674,15.386c0.093-0.038,0.166-0.114,0.204-0.206c0.04-0.092,0.039-0.199,0.001-0.29
				c-0.038-0.093-0.113-0.169-0.206-0.206c-0.183-0.076-0.418,0.021-0.494,0.205c-0.04,0.092-0.039,0.199,0,0.292
				c0.038,0.091,0.112,0.167,0.206,0.204C369.476,15.422,369.581,15.424,369.674,15.386z"/>
		</g>
		<g class="st4">
			<path class="st1" d="M301.717,38.934c-0.066,0.152-0.028,0.328,0.096,0.438c0.028,0.025,0.059,0.045,0.091,0.06
				c0.112,0.052,0.245,0.048,0.355-0.017c0.652-0.385,2.562-1.282,3.559-0.816c0.08,0.037,0.154,0.084,0.218,0.138
				c0.368,0.306,0.765,0.775,1.224,1.318c0.984,1.164,2.21,2.614,4.016,3.464l0.026,0.012c0,0,0,0,0,0
				c2.435,1.138,5.184,1.274,7.742,0.383c0.097-0.034,0.176-0.105,0.22-0.198s0.048-0.2,0.011-0.296
				c-0.947-2.505-2.823-4.531-5.283-5.704l-0.047-0.022c-1.51-0.706-2.982-0.717-4.406-0.728c-0.902-0.007-1.755-0.014-2.563-0.2
				c-0.047-0.011-0.095-0.028-0.143-0.05c-0.9-0.42-1.592-2.535-1.782-3.314c-0.038-0.157-0.172-0.272-0.333-0.289
				c-0.161-0.016-0.314,0.071-0.383,0.218c-0.034,0.074-0.785,1.703-0.546,3.132C302.534,37.097,301.752,38.854,301.717,38.934z
				 M304.597,36.583c-0.173-0.589-0.08-1.291,0.064-1.86c0.353,0.976,0.97,2.272,1.85,2.683c0.097,0.045,0.196,0.079,0.295,0.102
				c0.89,0.205,1.825,0.212,2.728,0.219c1.342,0.01,2.73,0.021,4.089,0.656l0.042,0.02c2.159,1.03,3.833,2.766,4.75,4.915
				c-2.26,0.685-4.656,0.519-6.789-0.478l-0.024-0.011c-1.656-0.779-2.821-2.158-3.758-3.266c-0.483-0.571-0.899-1.064-1.319-1.412
				c-0.115-0.096-0.244-0.177-0.383-0.242c-0.923-0.431-2.206-0.08-3.124,0.294c0.353-0.494,0.819-0.986,1.331-1.15
				C304.544,36.99,304.655,36.782,304.597,36.583z"/>
			<path class="st1" d="M315.345,42.304c0.09,0.042,0.196,0.048,0.291,0.012c0.094-0.034,0.173-0.104,0.216-0.196
				c0.043-0.092,0.046-0.197,0.012-0.291c-0.069-0.19-0.298-0.297-0.488-0.228c-0.094,0.034-0.171,0.105-0.214,0.197
				c-0.043,0.091-0.048,0.196-0.014,0.29C315.18,42.184,315.253,42.262,315.345,42.304z"/>
			<path class="st1" d="M326.644,35.237l-0.047-0.022c-1.51-0.706-2.982-0.717-4.406-0.728c-0.902-0.007-1.755-0.014-2.563-0.2
				c-0.047-0.011-0.095-0.028-0.143-0.05c-0.9-0.42-1.592-2.535-1.782-3.314c-0.038-0.157-0.172-0.272-0.333-0.289
				c-0.161-0.016-0.314,0.071-0.383,0.218c-0.035,0.074-0.785,1.703-0.546,3.132c-1.255,0.635-2.037,2.392-2.072,2.472
				c-0.066,0.152-0.027,0.328,0.096,0.438c0.028,0.025,0.059,0.045,0.091,0.06c0.112,0.052,0.245,0.048,0.355-0.017
				c0.652-0.385,2.562-1.282,3.559-0.816c0.08,0.037,0.154,0.084,0.218,0.138c0.368,0.306,0.765,0.775,1.224,1.318
				c0.984,1.164,2.21,2.614,4.016,3.464l0.026,0.012c0,0,0,0,0,0c2.435,1.138,5.184,1.274,7.742,0.383
				c0.097-0.034,0.176-0.105,0.22-0.199s0.048-0.2,0.011-0.296C330.98,38.436,329.104,36.411,326.644,35.237z M324.276,40.362
				l-0.024-0.011c-1.656-0.779-2.821-2.158-3.758-3.266c-0.483-0.571-0.899-1.064-1.319-1.412c-0.115-0.096-0.244-0.177-0.383-0.242
				c-0.923-0.431-2.204-0.081-3.122,0.293c0.354-0.494,0.82-0.985,1.329-1.149c0.197-0.063,0.307-0.272,0.249-0.47
				c-0.173-0.589-0.08-1.291,0.064-1.86c0.353,0.976,0.97,2.272,1.85,2.683c0.096,0.045,0.196,0.08,0.294,0.102
				c0.89,0.205,1.825,0.212,2.728,0.219c1.342,0.01,2.73,0.021,4.089,0.656l0.042,0.02c2.159,1.03,3.833,2.766,4.75,4.915
				C328.806,41.525,326.41,41.359,324.276,40.362z"/>
			<path class="st1" d="M327.995,39.826c0.092,0.043,0.197,0.046,0.291,0.012c0.095-0.033,0.173-0.104,0.216-0.196
				c0.043-0.092,0.048-0.198,0.013-0.293c-0.068-0.187-0.299-0.296-0.488-0.228c-0.094,0.036-0.172,0.107-0.215,0.198
				c-0.042,0.09-0.048,0.196-0.012,0.291C327.833,39.704,327.903,39.783,327.995,39.826z"/>
			<path class="st1" d="M303.444,28.464c0.279,0.232,0.585,0.563,0.939,0.948c0.836,0.906,1.876,2.034,3.378,2.741l0.021,0.01
				c0,0,0,0,0,0c1.979,0.925,4.213,1.035,6.292,0.312c0.097-0.034,0.176-0.105,0.22-0.199c0.044-0.093,0.048-0.2,0.011-0.296
				c-0.77-2.036-2.294-3.682-4.293-4.635l-0.045-0.021c-1.249-0.584-2.437-0.647-3.585-0.708c-0.684-0.036-1.33-0.071-1.956-0.215
				c-0.038-0.009-0.077-0.023-0.117-0.041c-0.626-0.292-1.23-1.663-1.464-2.458c-0.045-0.152-0.179-0.26-0.337-0.272
				c-0.158-0.012-0.307,0.075-0.374,0.218c-0.028,0.06-0.623,1.352-0.454,2.513c-1.007,0.544-1.627,1.937-1.656,2.002
				c-0.065,0.149-0.029,0.323,0.09,0.433c0.029,0.027,0.062,0.049,0.097,0.065c0.107,0.05,0.234,0.048,0.342-0.009
				c0.49-0.263,1.931-0.865,2.709-0.502C303.329,28.382,303.39,28.42,303.444,28.464z M301.294,27.719
				c0.262-0.341,0.588-0.657,0.94-0.77c0.197-0.063,0.307-0.272,0.249-0.47c-0.121-0.413-0.074-0.899,0.018-1.318
				c0.317,0.715,0.819,1.58,1.485,1.891c0.088,0.041,0.178,0.073,0.268,0.093c0.69,0.159,1.4,0.196,2.087,0.233
				c1.076,0.057,2.188,0.116,3.303,0.637l0.039,0.019c1.697,0.809,3.018,2.165,3.756,3.844c-1.779,0.519-3.659,0.379-5.336-0.405
				l-0.019-0.009c-1.367-0.643-2.351-1.711-3.142-2.568c-0.373-0.404-0.695-0.753-1.012-1.017c-0.103-0.086-0.22-0.159-0.345-0.218
				C302.89,27.335,301.993,27.493,301.294,27.719z"/>
			<path class="st1" d="M311.036,31.175c0.09,0.042,0.197,0.046,0.293,0.013c0.094-0.034,0.172-0.107,0.214-0.197
				c0.043-0.091,0.048-0.196,0.014-0.292c-0.07-0.188-0.299-0.295-0.488-0.228c-0.096,0.035-0.174,0.106-0.216,0.197
				c-0.042,0.09-0.048,0.196-0.012,0.291C310.875,31.053,310.947,31.133,311.036,31.175z"/>
			<path class="st1" d="M311.358,26.058c-0.065,0.148-0.029,0.322,0.089,0.432c0.03,0.028,0.063,0.05,0.098,0.066
				c0.106,0.05,0.231,0.049,0.339-0.008c0.377-0.198,1.594-0.697,2.229-0.401c0.053,0.025,0.102,0.055,0.144,0.091
				c0.231,0.192,0.486,0.464,0.782,0.78c0.718,0.766,1.611,1.719,2.898,2.325c0,0,0.018,0.008,0.018,0.008c0,0,0,0,0,0
				c1.69,0.79,3.598,0.884,5.372,0.266c0.097-0.034,0.176-0.105,0.22-0.198c0.044-0.093,0.048-0.2,0.011-0.296
				c-0.657-1.738-1.958-3.143-3.665-3.957l-0.04-0.019c-1.071-0.501-2.082-0.563-3.06-0.623c-0.57-0.035-1.109-0.068-1.631-0.188
				c-0.029-0.007-0.059-0.017-0.09-0.032c-0.513-0.24-1.02-1.367-1.219-2.021c-0.046-0.151-0.18-0.258-0.337-0.269
				c-0.157-0.011-0.305,0.076-0.372,0.219c-0.024,0.05-0.521,1.13-0.395,2.12C311.92,24.822,311.418,25.92,311.358,26.058z
				 M313.549,24.469c-0.082-0.279-0.068-0.612-0.013-0.927c0.277,0.57,0.688,1.207,1.215,1.453c0.079,0.037,0.161,0.065,0.242,0.084
				c0.583,0.134,1.179,0.171,1.755,0.206c0.906,0.056,1.844,0.113,2.784,0.552l0.034,0.016c1.404,0.67,2.501,1.784,3.125,3.165
				c-1.474,0.414-3.027,0.29-4.429-0.366c-1.156-0.544-1.994-1.438-2.667-2.157c-0.313-0.334-0.583-0.623-0.851-0.845
				c-0.093-0.077-0.196-0.143-0.309-0.195c-0.546-0.255-1.228-0.174-1.797-0.017c0.194-0.228,0.421-0.424,0.661-0.501
				C313.497,24.876,313.607,24.667,313.549,24.469z"/>
			<path class="st1" d="M320.712,28.516c0.092,0.043,0.197,0.046,0.291,0.012c0.095-0.033,0.174-0.106,0.216-0.196
				c0.043-0.092,0.048-0.198,0.013-0.293c-0.068-0.187-0.299-0.296-0.487-0.227c-0.095,0.033-0.174,0.106-0.216,0.197
				c-0.042,0.09-0.048,0.196-0.012,0.291C320.55,28.394,320.62,28.473,320.712,28.516z"/>
		</g>
		<g class="st5">
			<path class="st1" d="M249.329,24.924c-0.064,0.121-0.042,0.27,0.054,0.367c0.022,0.022,0.046,0.041,0.072,0.055
				c0.089,0.05,0.199,0.054,0.294,0.007c0.561-0.279,2.192-0.906,2.987-0.463c0.064,0.036,0.122,0.078,0.172,0.127
				c0.286,0.275,0.586,0.685,0.933,1.161c0.744,1.02,1.67,2.289,3.111,3.099l0.021,0.012c0,0,0,0,0,0
				c1.943,1.084,4.205,1.36,6.371,0.776c0.082-0.022,0.152-0.076,0.193-0.151c0.041-0.074,0.051-0.162,0.027-0.244
				c-0.633-2.125-2.063-3.909-4.025-5.024l-0.038-0.021c-1.205-0.672-2.42-0.769-3.595-0.863c-0.745-0.059-1.448-0.115-2.105-0.317
				c-0.038-0.012-0.077-0.028-0.115-0.05c-0.718-0.4-1.164-2.188-1.275-2.843c-0.022-0.132-0.125-0.235-0.258-0.258
				c-0.132-0.023-0.264,0.04-0.329,0.157c-0.033,0.059-0.749,1.36-0.637,2.554C250.113,23.455,249.363,24.859,249.329,24.924z
				 M251.847,23.153c-0.108-0.497,0.011-1.071,0.163-1.532c0.234,0.827,0.666,1.934,1.369,2.326
				c0.077,0.043,0.157,0.077,0.237,0.102c0.723,0.222,1.494,0.283,2.24,0.343c1.108,0.088,2.253,0.179,3.338,0.785l0.034,0.019
				c1.722,0.978,3.001,2.511,3.631,4.34c-1.907,0.432-3.875,0.153-5.578-0.797l-0.019-0.011c-1.321-0.742-2.202-1.95-2.91-2.92
				c-0.365-0.5-0.679-0.932-1.005-1.245c-0.089-0.086-0.191-0.161-0.302-0.223c-0.737-0.411-1.817-0.197-2.597,0.057
				c0.321-0.387,0.735-0.765,1.167-0.87C251.78,23.486,251.883,23.32,251.847,23.153z"/>
			<path class="st1" d="M260.383,28.515c0.072,0.04,0.159,0.051,0.24,0.027c0.079-0.023,0.149-0.076,0.19-0.149
				c0.041-0.073,0.05-0.16,0.027-0.24c-0.046-0.161-0.229-0.263-0.39-0.217c-0.079,0.023-0.148,0.077-0.188,0.15
				c-0.041,0.073-0.051,0.159-0.028,0.239C260.255,28.405,260.31,28.474,260.383,28.515z"/>
			<path class="st1" d="M270.133,23.349l-0.038-0.021c-1.205-0.672-2.42-0.769-3.595-0.862c-0.745-0.059-1.448-0.115-2.105-0.317
				c-0.038-0.012-0.077-0.028-0.115-0.05c-0.718-0.4-1.164-2.188-1.275-2.843c-0.022-0.132-0.126-0.235-0.258-0.258
				c-0.132-0.023-0.264,0.04-0.329,0.157c-0.033,0.059-0.749,1.36-0.637,2.554c-1.074,0.45-1.824,1.854-1.858,1.918
				c-0.064,0.121-0.042,0.27,0.054,0.367c0.022,0.022,0.046,0.041,0.072,0.055c0.089,0.05,0.199,0.054,0.294,0.007
				c0.561-0.279,2.192-0.906,2.987-0.463c0.064,0.036,0.122,0.078,0.172,0.127c0.286,0.274,0.586,0.685,0.933,1.161
				c0.744,1.02,1.67,2.289,3.111,3.099l0.021,0.012c0,0,0,0,0,0c1.943,1.084,4.206,1.36,6.371,0.776
				c0.082-0.022,0.152-0.077,0.193-0.151c0.041-0.074,0.051-0.162,0.027-0.244C273.524,26.248,272.095,24.464,270.133,23.349z
				 M267.874,27.441l-0.019-0.011c-1.321-0.742-2.202-1.95-2.91-2.92c-0.365-0.5-0.68-0.932-1.005-1.245
				c-0.089-0.086-0.191-0.161-0.302-0.223c-0.736-0.411-1.815-0.197-2.596,0.057c0.321-0.387,0.735-0.765,1.166-0.87
				c0.166-0.041,0.27-0.206,0.234-0.374c-0.108-0.497,0.011-1.071,0.163-1.532c0.234,0.827,0.666,1.934,1.369,2.326
				c0.077,0.043,0.157,0.077,0.237,0.102c0.723,0.222,1.494,0.283,2.24,0.343c1.108,0.088,2.253,0.179,3.338,0.785l0.034,0.019
				c1.722,0.978,3.001,2.511,3.631,4.34C271.545,28.67,269.577,28.391,267.874,27.441z"/>
			<path class="st1" d="M270.977,27.219c0.073,0.041,0.16,0.05,0.24,0.027c0.081-0.022,0.149-0.076,0.19-0.149
				c0.041-0.073,0.052-0.161,0.028-0.241c-0.045-0.159-0.23-0.262-0.39-0.217c-0.08,0.024-0.148,0.078-0.189,0.151
				c-0.04,0.072-0.051,0.159-0.027,0.24C270.85,27.108,270.904,27.178,270.977,27.219z"/>
			<path class="st1" d="M251.376,16.38c0.217,0.208,0.45,0.5,0.719,0.838c0.637,0.798,1.429,1.791,2.627,2.464l0.017,0.009
				c0,0,0,0,0,0c1.579,0.881,3.418,1.105,5.177,0.631c0.082-0.022,0.152-0.077,0.193-0.151c0.042-0.074,0.051-0.162,0.027-0.244
				c-0.515-1.727-1.676-3.176-3.27-4.082l-0.036-0.02c-0.997-0.556-1.974-0.679-2.919-0.797c-0.563-0.071-1.095-0.137-1.603-0.293
				c-0.031-0.009-0.062-0.023-0.094-0.041c-0.499-0.279-0.917-1.446-1.063-2.117c-0.028-0.128-0.132-0.225-0.262-0.245
				c-0.13-0.019-0.258,0.044-0.322,0.158c-0.026,0.047-0.595,1.08-0.524,2.048c-0.864,0.39-1.459,1.503-1.486,1.555
				c-0.063,0.119-0.043,0.265,0.049,0.363c0.023,0.024,0.048,0.044,0.076,0.06c0.085,0.048,0.19,0.054,0.283,0.013
				c0.42-0.188,1.646-0.6,2.267-0.254C251.287,16.305,251.335,16.34,251.376,16.38z M249.645,15.637
				c0.237-0.266,0.525-0.508,0.822-0.58c0.166-0.041,0.27-0.206,0.234-0.374c-0.076-0.348-0.008-0.747,0.093-1.088
				c0.219,0.609,0.583,1.353,1.114,1.65c0.07,0.039,0.143,0.071,0.216,0.093c0.561,0.172,1.145,0.245,1.71,0.316
				c0.885,0.111,1.8,0.226,2.69,0.722l0.031,0.018c1.353,0.769,2.364,1.967,2.874,3.398c-1.5,0.323-3.044,0.096-4.382-0.651
				l-0.015-0.009c-1.09-0.612-1.84-1.552-2.442-2.307c-0.284-0.356-0.529-0.663-0.776-0.9c-0.08-0.077-0.172-0.145-0.272-0.201
				C250.986,15.415,250.236,15.492,249.645,15.637z"/>
			<path class="st1" d="M257.486,19.069c0.072,0.04,0.16,0.05,0.241,0.028c0.079-0.023,0.148-0.078,0.188-0.15
				c0.041-0.073,0.051-0.159,0.029-0.24c-0.047-0.159-0.23-0.262-0.39-0.217c-0.082,0.023-0.15,0.077-0.19,0.15
				c-0.04,0.072-0.051,0.159-0.027,0.24C257.359,18.959,257.414,19.029,257.486,19.069z"/>
			<path class="st1" d="M258.054,14.862c-0.062,0.119-0.043,0.264,0.048,0.362c0.023,0.025,0.049,0.045,0.077,0.061
				c0.085,0.047,0.188,0.054,0.28,0.014c0.323-0.141,1.358-0.481,1.864-0.199c0.042,0.024,0.081,0.052,0.114,0.083
				c0.179,0.172,0.374,0.412,0.599,0.69c0.547,0.675,1.228,1.515,2.256,2.092c0,0,0.014,0.008,0.014,0.008c0,0,0,0,0,0
				c1.349,0.752,2.919,0.944,4.42,0.538c0.082-0.022,0.152-0.077,0.193-0.151c0.042-0.074,0.051-0.162,0.027-0.244
				c-0.439-1.474-1.431-2.712-2.792-3.485l-0.032-0.018c-0.855-0.477-1.686-0.588-2.49-0.696c-0.469-0.063-0.912-0.122-1.335-0.252
				c-0.024-0.007-0.048-0.018-0.073-0.032c-0.41-0.229-0.761-1.189-0.887-1.741c-0.029-0.127-0.133-0.224-0.263-0.242
				c-0.129-0.019-0.257,0.044-0.32,0.158c-0.022,0.04-0.497,0.902-0.452,1.727C258.592,13.875,258.112,14.752,258.054,14.862z
				 M259.958,13.68c-0.051-0.235-0.019-0.51,0.044-0.766c0.195,0.487,0.496,1.037,0.917,1.272c0.063,0.035,0.129,0.063,0.195,0.084
				c0.474,0.145,0.963,0.211,1.437,0.274c0.745,0.1,1.516,0.203,2.266,0.621l0.027,0.015c1.119,0.636,1.959,1.622,2.393,2.799
				c-1.242,0.254-2.517,0.06-3.636-0.565c-0.922-0.518-1.561-1.306-2.074-1.939c-0.239-0.295-0.445-0.549-0.653-0.748
				c-0.072-0.069-0.154-0.129-0.243-0.179c-0.435-0.243-1.004-0.216-1.483-0.121c0.174-0.176,0.373-0.325,0.576-0.374
				C259.891,14.013,259.995,13.847,259.958,13.68z"/>
			<path class="st1" d="M265.633,17.447c0.073,0.041,0.16,0.05,0.24,0.027c0.081-0.022,0.15-0.077,0.19-0.149
				c0.041-0.073,0.052-0.161,0.028-0.241c-0.045-0.159-0.23-0.262-0.388-0.217c-0.081,0.022-0.15,0.077-0.19,0.15
				c-0.04,0.072-0.051,0.159-0.027,0.24C265.507,17.336,265.56,17.406,265.633,17.447z"/>
		</g>
		<g class="st6">
			<path class="st1" d="M173.556,28.321c-0.033,0.149,0.034,0.302,0.166,0.379c0.03,0.017,0.061,0.03,0.094,0.038
				c0.111,0.027,0.23-0.001,0.318-0.08c0.521-0.466,2.088-1.622,3.074-1.381c0.079,0.019,0.154,0.048,0.223,0.085
				c0.388,0.21,0.832,0.564,1.346,0.972c1.101,0.876,2.472,1.967,4.26,2.41l0.026,0.006c0,0,0,0,0,0
				c2.409,0.59,4.922,0.217,7.077-1.05c0.082-0.048,0.141-0.127,0.163-0.219c0.023-0.092,0.007-0.19-0.043-0.27
				c-1.309-2.096-3.373-3.591-5.811-4.209l-0.047-0.012c-1.494-0.366-2.829-0.111-4.119,0.136c-0.818,0.157-1.591,0.304-2.356,0.282
				c-0.044-0.001-0.091-0.008-0.139-0.019c-0.89-0.218-1.898-2.007-2.211-2.678c-0.063-0.135-0.204-0.216-0.353-0.201
				c-0.148,0.015-0.272,0.121-0.307,0.266c-0.018,0.073-0.403,1.683,0.071,2.933C173.964,26.511,173.573,28.242,173.556,28.321z
				 M175.738,25.673c-0.263-0.502-0.305-1.154-0.278-1.695c0.496,0.82,1.288,1.881,2.159,2.095c0.095,0.023,0.191,0.037,0.285,0.039
				c0.842,0.025,1.69-0.137,2.509-0.294c1.216-0.233,2.474-0.473,3.819-0.144l0.042,0.01c2.14,0.542,3.968,1.812,5.186,3.591
				c-1.922,1.028-4.12,1.31-6.231,0.793l-0.024-0.006c-1.639-0.407-2.943-1.444-3.991-2.278c-0.54-0.429-1.006-0.8-1.449-1.04
				c-0.121-0.066-0.253-0.116-0.39-0.15c-0.914-0.224-2.011,0.326-2.775,0.83c0.231-0.511,0.564-1.04,0.997-1.281
				C175.764,26.051,175.826,25.842,175.738,25.673z"/>
			<path class="st1" d="M186.498,28.912c0.089,0.022,0.186,0.008,0.265-0.042c0.079-0.048,0.138-0.126,0.16-0.216
				c0.022-0.091,0.006-0.187-0.042-0.266c-0.097-0.159-0.324-0.215-0.483-0.118c-0.079,0.048-0.136,0.126-0.158,0.217
				c-0.022,0.09-0.008,0.186,0.04,0.265C186.328,28.832,186.408,28.889,186.498,28.912z"/>
			<path class="st1" d="M195.45,20.476l-0.047-0.012c-1.494-0.366-2.829-0.111-4.119,0.136c-0.818,0.157-1.591,0.304-2.356,0.282
				c-0.044-0.001-0.091-0.008-0.139-0.019c-0.89-0.218-1.898-2.007-2.211-2.678c-0.063-0.135-0.204-0.216-0.353-0.201
				c-0.148,0.015-0.272,0.121-0.307,0.266c-0.018,0.073-0.403,1.683,0.071,2.933c-1.021,0.801-1.412,2.532-1.429,2.611
				c-0.033,0.149,0.034,0.302,0.166,0.379c0.03,0.017,0.061,0.03,0.093,0.038c0.111,0.027,0.23-0.001,0.318-0.08
				c0.521-0.466,2.088-1.622,3.074-1.381c0.079,0.019,0.154,0.048,0.223,0.085c0.388,0.21,0.832,0.564,1.346,0.972
				c1.101,0.876,2.472,1.967,4.26,2.41l0.026,0.006c0,0,0,0,0,0c2.409,0.59,4.922,0.217,7.077-1.05
				c0.082-0.048,0.141-0.127,0.163-0.219c0.023-0.092,0.007-0.19-0.043-0.27C199.952,22.589,197.888,21.094,195.45,20.476z
				 M194.232,25.542l-0.024-0.006c-1.639-0.407-2.943-1.444-3.991-2.278c-0.54-0.429-1.006-0.8-1.449-1.04
				c-0.121-0.066-0.253-0.116-0.39-0.15c-0.913-0.224-2.009,0.325-2.773,0.829c0.231-0.511,0.564-1.04,0.995-1.28
				c0.167-0.093,0.229-0.301,0.141-0.471c-0.263-0.502-0.305-1.154-0.278-1.695c0.496,0.82,1.288,1.881,2.159,2.095
				c0.095,0.023,0.191,0.037,0.285,0.039c0.842,0.025,1.69-0.137,2.509-0.294c1.216-0.233,2.474-0.473,3.819-0.144l0.042,0.01
				c2.14,0.542,3.968,1.812,5.186,3.591C198.541,25.777,196.343,26.059,194.232,25.542z"/>
			<path class="st1" d="M197.501,24.385c0.091,0.022,0.187,0.006,0.265-0.042c0.08-0.047,0.138-0.126,0.16-0.216
				c0.022-0.091,0.008-0.188-0.041-0.267c-0.095-0.157-0.324-0.213-0.483-0.118c-0.079,0.049-0.136,0.128-0.158,0.218
				c-0.022,0.089-0.008,0.186,0.042,0.266C197.332,24.304,197.41,24.363,197.501,24.385z"/>
			<path class="st1" d="M173.229,18.533c0.294,0.159,0.631,0.404,1.021,0.688c0.92,0.669,2.065,1.503,3.552,1.871l0.021,0.005
				c0,0,0,0,0,0c1.958,0.48,4,0.177,5.751-0.853c0.082-0.048,0.141-0.127,0.163-0.219c0.023-0.092,0.007-0.19-0.043-0.27
				c-1.064-1.704-2.741-2.918-4.722-3.42l-0.044-0.011c-1.236-0.303-2.322-0.146-3.373,0.007c-0.626,0.091-1.217,0.176-1.809,0.159
				c-0.036-0.001-0.074-0.006-0.113-0.016c-0.619-0.152-1.413-1.283-1.769-1.961c-0.068-0.129-0.209-0.203-0.354-0.186
				c-0.145,0.018-0.264,0.123-0.299,0.265c-0.014,0.059-0.32,1.336,0.042,2.356c-0.813,0.674-1.123,2.047-1.137,2.111
				c-0.032,0.146,0.032,0.297,0.16,0.375c0.031,0.019,0.065,0.033,0.1,0.042c0.106,0.026,0.22,0.002,0.307-0.07
				c0.396-0.326,1.592-1.132,2.361-0.943C173.111,18.478,173.173,18.502,173.229,18.533z M171.148,18.246
				c0.176-0.356,0.414-0.701,0.712-0.867c0.167-0.093,0.229-0.301,0.141-0.471c-0.184-0.352-0.23-0.8-0.221-1.196
				c0.416,0.59,1.027,1.282,1.685,1.443c0.087,0.021,0.175,0.034,0.26,0.036c0.653,0.019,1.303-0.075,1.931-0.166
				c0.984-0.142,2.001-0.29,3.104-0.019l0.039,0.01c1.682,0.426,3.122,1.415,4.094,2.802c-1.517,0.791-3.243,1.003-4.903,0.596
				l-0.019-0.005c-1.353-0.335-2.437-1.124-3.307-1.758c-0.41-0.298-0.765-0.556-1.1-0.738c-0.109-0.059-0.228-0.105-0.352-0.135
				C172.524,17.611,171.741,17.915,171.148,18.246z"/>
			<path class="st1" d="M180.59,19.616c0.089,0.022,0.187,0.006,0.267-0.041c0.079-0.048,0.136-0.128,0.158-0.217
				c0.022-0.09,0.008-0.186-0.04-0.267c-0.097-0.158-0.324-0.213-0.483-0.118c-0.081,0.049-0.138,0.127-0.16,0.218
				c-0.022,0.089-0.008,0.186,0.042,0.266C180.422,19.535,180.502,19.594,180.59,19.616z"/>
			<path class="st1" d="M179.958,14.927c-0.032,0.146,0.032,0.296,0.159,0.375c0.032,0.02,0.066,0.034,0.101,0.042
				c0.105,0.026,0.218,0.002,0.305-0.068c0.305-0.247,1.317-0.919,1.945-0.765c0.053,0.013,0.102,0.032,0.147,0.056
				c0.244,0.132,0.524,0.333,0.848,0.565c0.788,0.564,1.768,1.265,3.043,1.581c0,0,0.017,0.004,0.018,0.004c0,0,0,0,0,0
				c1.672,0.41,3.416,0.151,4.91-0.729c0.082-0.048,0.141-0.127,0.163-0.219c0.023-0.092,0.007-0.19-0.043-0.27
				c-0.908-1.454-2.34-2.491-4.031-2.92l-0.039-0.01c-1.06-0.26-1.986-0.134-2.882-0.011c-0.523,0.071-1.016,0.139-1.51,0.124
				c-0.027-0.001-0.057-0.005-0.087-0.012c-0.508-0.124-1.17-1.053-1.468-1.609c-0.069-0.128-0.21-0.201-0.354-0.183
				c-0.145,0.018-0.263,0.123-0.298,0.265c-0.012,0.05-0.268,1.117,0.025,1.99C180.243,13.706,179.987,14.791,179.958,14.927z
				 M181.654,13.093c-0.124-0.238-0.172-0.542-0.179-0.836c0.354,0.466,0.84,0.968,1.362,1.096c0.078,0.019,0.157,0.03,0.234,0.032
				c0.552,0.016,1.098-0.058,1.626-0.13c0.83-0.113,1.689-0.23,2.619-0.002l0.034,0.008c1.391,0.353,2.586,1.164,3.4,2.301
				c-1.259,0.64-2.688,0.808-4.075,0.468c-1.144-0.284-2.064-0.942-2.803-1.471c-0.344-0.246-0.641-0.458-0.923-0.611
				c-0.098-0.053-0.203-0.094-0.314-0.121c-0.54-0.132-1.143,0.064-1.629,0.309c0.135-0.241,0.305-0.46,0.508-0.573
				C181.68,13.47,181.743,13.262,181.654,13.093z"/>
			<path class="st1" d="M188.868,15.463c0.091,0.022,0.187,0.006,0.265-0.042c0.08-0.047,0.138-0.127,0.16-0.216
				c0.022-0.091,0.008-0.188-0.041-0.267c-0.095-0.157-0.324-0.213-0.482-0.118c-0.08,0.047-0.138,0.127-0.16,0.218
				c-0.022,0.089-0.008,0.186,0.042,0.266C188.699,15.382,188.777,15.441,188.868,15.463z"/>
		</g>
		<g class="st7">
			<path class="st1" d="M116.917,28.789c0.018,0.096,0.097,0.169,0.193,0.18c0.022,0.003,0.044,0.002,0.064-0.001
				c0.072-0.012,0.135-0.059,0.167-0.127c0.188-0.405,0.815-1.479,1.454-1.586c0.051-0.009,0.103-0.011,0.152-0.006
				c0.281,0.025,0.631,0.12,1.035,0.231c0.867,0.236,1.947,0.53,3.108,0.338l0.017-0.003c0,0,0,0,0,0
				c1.562-0.262,2.943-1.116,3.886-2.404c0.036-0.049,0.05-0.11,0.04-0.17c-0.01-0.06-0.044-0.113-0.094-0.147
				c-1.297-0.899-2.886-1.255-4.473-1.002l-0.031,0.005c-0.969,0.163-1.687,0.649-2.382,1.12c-0.44,0.298-0.856,0.58-1.311,0.76
				c-0.026,0.01-0.055,0.018-0.086,0.024c-0.577,0.097-1.621-0.698-1.974-1.013c-0.071-0.063-0.174-0.075-0.258-0.029
				c-0.083,0.046-0.129,0.14-0.113,0.234c0.008,0.047,0.189,1.089,0.782,1.703C116.699,27.624,116.907,28.738,116.917,28.789z
				 M117.528,26.684c-0.281-0.228-0.471-0.6-0.591-0.924c0.498,0.356,1.231,0.779,1.796,0.684c0.062-0.01,0.122-0.027,0.177-0.049
				c0.501-0.198,0.957-0.507,1.398-0.806c0.655-0.444,1.332-0.903,2.204-1.049l0.027-0.004c1.392-0.222,2.786,0.061,3.949,0.797
				c-0.868,1.088-2.086,1.809-3.455,2.039l-0.015,0.003c-1.064,0.176-2.091-0.104-2.917-0.328c-0.425-0.116-0.792-0.216-1.113-0.244
				c-0.088-0.008-0.178-0.004-0.267,0.011c-0.593,0.099-1.097,0.699-1.418,1.188c0.006-0.358,0.068-0.752,0.261-1.003
				C117.639,26.899,117.623,26.761,117.528,26.684z"/>
			<path class="st1" d="M124.659,25.866c0.058-0.01,0.111-0.043,0.145-0.092c0.034-0.048,0.049-0.109,0.039-0.167
				c-0.01-0.059-0.044-0.111-0.092-0.145c-0.097-0.069-0.244-0.044-0.313,0.053c-0.034,0.048-0.048,0.108-0.038,0.167
				c0.01,0.059,0.043,0.111,0.09,0.145C124.539,25.863,124.6,25.876,124.659,25.866z"/>
			<path class="st1" d="M127.78,18.656l-0.031,0.005c-0.969,0.163-1.687,0.649-2.382,1.12c-0.44,0.298-0.856,0.58-1.311,0.76
				c-0.026,0.01-0.055,0.018-0.086,0.024c-0.577,0.097-1.621-0.698-1.974-1.013c-0.071-0.063-0.174-0.075-0.258-0.029
				c-0.083,0.046-0.129,0.14-0.113,0.234c0.008,0.047,0.189,1.089,0.782,1.703c-0.397,0.728-0.189,1.842-0.179,1.893
				c0.018,0.096,0.097,0.169,0.193,0.18c0.022,0.003,0.044,0.002,0.064-0.001c0.072-0.012,0.135-0.059,0.167-0.127
				c0.188-0.405,0.815-1.479,1.454-1.586c0.051-0.009,0.103-0.011,0.152-0.006c0.281,0.025,0.631,0.12,1.035,0.23
				c0.867,0.236,1.947,0.53,3.108,0.338l0.017-0.003c0,0,0,0,0,0c1.562-0.262,2.943-1.116,3.886-2.404
				c0.036-0.049,0.05-0.11,0.04-0.17c-0.01-0.06-0.044-0.113-0.094-0.147C130.955,18.759,129.367,18.403,127.78,18.656z
				 M128.345,21.936l-0.015,0.003c-1.064,0.176-2.091-0.104-2.917-0.328c-0.425-0.116-0.792-0.215-1.113-0.244
				c-0.088-0.008-0.178-0.004-0.267,0.011c-0.592,0.099-1.097,0.698-1.418,1.187c0.006-0.358,0.068-0.752,0.261-1.002
				c0.074-0.097,0.058-0.235-0.036-0.312c-0.281-0.228-0.471-0.6-0.591-0.924c0.498,0.356,1.231,0.779,1.796,0.684
				c0.062-0.01,0.122-0.027,0.177-0.049c0.501-0.198,0.957-0.507,1.398-0.806c0.655-0.444,1.332-0.903,2.204-1.049l0.027-0.004
				c1.393-0.222,2.786,0.061,3.949,0.797C130.933,20.986,129.714,21.706,128.345,21.936z"/>
			<path class="st1" d="M129.97,20.432c0.059-0.01,0.111-0.044,0.145-0.092c0.035-0.048,0.049-0.108,0.039-0.167
				c-0.01-0.059-0.043-0.112-0.092-0.146c-0.096-0.068-0.244-0.043-0.313,0.053c-0.034,0.049-0.048,0.109-0.038,0.168
				c0.01,0.058,0.043,0.111,0.092,0.145C129.851,20.427,129.912,20.442,129.97,20.432z"/>
			<path class="st1" d="M114.253,23.129c0.213,0.019,0.472,0.078,0.773,0.146c0.709,0.16,1.591,0.36,2.556,0.201l0.013-0.002
				c0,0,0,0,0,0c1.27-0.213,2.392-0.907,3.158-1.953c0.036-0.049,0.05-0.11,0.04-0.17c-0.01-0.06-0.044-0.113-0.094-0.147
				c-1.054-0.731-2.345-1.02-3.634-0.814l-0.029,0.005c-0.802,0.134-1.399,0.501-1.977,0.856c-0.344,0.211-0.669,0.411-1.021,0.55
				c-0.021,0.008-0.045,0.015-0.07,0.019c-0.401,0.067-1.153-0.396-1.533-0.704c-0.072-0.059-0.174-0.066-0.255-0.02
				c-0.081,0.047-0.124,0.139-0.108,0.231c0.006,0.038,0.15,0.865,0.62,1.372c-0.307,0.601-0.142,1.485-0.134,1.526
				c0.018,0.094,0.094,0.166,0.189,0.18c0.023,0.003,0.047,0.003,0.069-0.001c0.069-0.012,0.13-0.055,0.163-0.119
				c0.15-0.291,0.648-1.066,1.147-1.15C114.17,23.127,114.212,23.125,114.253,23.129z M112.96,23.486
				c0.013-0.253,0.066-0.516,0.199-0.688c0.074-0.097,0.058-0.235-0.036-0.312c-0.197-0.16-0.337-0.411-0.432-0.646
				c0.393,0.241,0.926,0.493,1.353,0.421c0.057-0.009,0.111-0.024,0.162-0.044c0.388-0.154,0.745-0.373,1.091-0.585
				c0.541-0.332,1.101-0.676,1.816-0.796l0.025-0.004c1.094-0.175,2.189,0.042,3.109,0.61c-0.69,0.847-1.649,1.408-2.726,1.588
				l-0.012,0.002c-0.879,0.145-1.713-0.044-2.384-0.196c-0.316-0.071-0.589-0.133-0.832-0.155c-0.079-0.007-0.16-0.004-0.241,0.01
				C113.607,22.766,113.224,23.142,112.96,23.486z"/>
			<path class="st1" d="M118.845,21.905c0.058-0.01,0.111-0.044,0.146-0.092c0.034-0.048,0.048-0.109,0.038-0.167
				c-0.01-0.059-0.043-0.111-0.091-0.147c-0.097-0.068-0.244-0.043-0.313,0.053c-0.035,0.049-0.049,0.11-0.039,0.168
				c0.01,0.058,0.043,0.111,0.092,0.145C118.726,21.9,118.788,21.915,118.845,21.905z"/>
			<path class="st1" d="M117.289,19.314c0.018,0.094,0.093,0.166,0.188,0.18c0.024,0.003,0.047,0.003,0.07-0.001
				c0.068-0.011,0.129-0.054,0.162-0.117c0.116-0.222,0.541-0.872,0.948-0.94c0.034-0.006,0.068-0.007,0.1-0.004
				c0.176,0.016,0.391,0.063,0.64,0.117c0.605,0.132,1.357,0.296,2.185,0.159c0,0,0.011-0.002,0.011-0.002c0,0,0,0,0,0
				c1.084-0.182,2.042-0.774,2.697-1.668c0.036-0.049,0.05-0.11,0.04-0.17c-0.01-0.06-0.044-0.113-0.094-0.147
				c-0.9-0.624-2.002-0.871-3.102-0.695l-0.025,0.004c-0.687,0.115-1.199,0.423-1.693,0.721c-0.289,0.174-0.561,0.338-0.854,0.454
				c-0.016,0.007-0.035,0.011-0.054,0.015c-0.329,0.055-0.952-0.322-1.268-0.573c-0.073-0.058-0.174-0.065-0.254-0.018
				c-0.08,0.047-0.123,0.139-0.108,0.231c0.005,0.032,0.125,0.723,0.517,1.161C117.149,18.525,117.273,19.227,117.289,19.314z
				 M117.822,17.809c-0.133-0.108-0.238-0.275-0.316-0.445c0.325,0.184,0.737,0.356,1.076,0.299c0.051-0.009,0.1-0.022,0.145-0.04
				c0.328-0.13,0.629-0.311,0.921-0.487c0.459-0.276,0.933-0.562,1.536-0.663l0.022-0.004c0.905-0.145,1.811,0.03,2.576,0.491
				c-0.577,0.694-1.373,1.153-2.272,1.304c-0.743,0.122-1.449-0.031-2.016-0.155c-0.264-0.058-0.492-0.107-0.696-0.126
				c-0.071-0.006-0.143-0.004-0.215,0.009c-0.35,0.059-0.654,0.327-0.878,0.593c0.018-0.176,0.063-0.347,0.153-0.464
				C117.932,18.024,117.916,17.886,117.822,17.809z"/>
			<path class="st1" d="M122.652,17.378c0.059-0.01,0.111-0.044,0.145-0.092c0.035-0.048,0.049-0.11,0.039-0.167
				c-0.01-0.059-0.043-0.112-0.092-0.146c-0.096-0.068-0.244-0.043-0.312,0.052c-0.035,0.048-0.049,0.109-0.039,0.168
				c0.01,0.058,0.043,0.111,0.092,0.145C122.533,17.373,122.593,17.388,122.652,17.378z"/>
		</g>
		<g class="st8">
			<path class="st1" d="M60.527,35.977c0.068,0.162,0.233,0.261,0.408,0.246c0.039-0.003,0.077-0.013,0.113-0.027
				c0.122-0.048,0.216-0.154,0.246-0.286c0.179-0.784,0.883-2.912,1.97-3.341c0.087-0.034,0.177-0.057,0.266-0.068
				c0.505-0.06,1.156-0.024,1.911,0.019c1.617,0.091,3.63,0.205,5.604-0.567l0.028-0.011c0,0,0,0,0,0
				c2.656-1.047,4.769-3.068,5.95-5.691c0.045-0.099,0.048-0.213,0.007-0.315s-0.12-0.183-0.22-0.225
				c-2.623-1.099-5.556-1.132-8.258-0.091l-0.052,0.02c-1.647,0.649-2.731,1.776-3.779,2.866c-0.664,0.691-1.292,1.343-2.026,1.831
				c-0.042,0.028-0.091,0.053-0.143,0.074c-0.981,0.387-3.118-0.624-3.858-1.046c-0.149-0.085-0.335-0.067-0.466,0.046
				c-0.13,0.112-0.174,0.295-0.111,0.454c0.032,0.081,0.74,1.849,2.016,2.709C59.708,34.005,60.491,35.891,60.527,35.977z
				 M60.817,32.039c-0.581-0.297-1.054-0.881-1.388-1.408c1.011,0.44,2.46,0.911,3.421,0.533c0.105-0.041,0.204-0.093,0.294-0.152
				c0.808-0.537,1.496-1.252,2.162-1.944c0.988-1.027,2.01-2.09,3.493-2.674l0.046-0.018c2.371-0.913,4.932-0.936,7.259-0.074
				c-1.122,2.243-3,3.97-5.327,4.887l-0.026,0.01c-1.81,0.708-3.725,0.6-5.264,0.513c-0.793-0.045-1.477-0.083-2.053-0.014
				c-0.158,0.019-0.315,0.059-0.466,0.119c-1.007,0.397-1.673,1.643-2.055,2.624c-0.123-0.633-0.162-1.352,0.085-1.866
				C61.093,32.377,61.013,32.139,60.817,32.039z"/>
			<path class="st1" d="M73.079,27.928c0.098-0.039,0.18-0.117,0.222-0.216c0.042-0.097,0.046-0.21,0.006-0.309
				c-0.039-0.1-0.119-0.179-0.216-0.222c-0.197-0.086-0.447,0.013-0.533,0.21c-0.042,0.097-0.044,0.209-0.005,0.309
				c0.039,0.1,0.117,0.18,0.214,0.222C72.866,27.967,72.979,27.968,73.079,27.928z"/>
			<path class="st1" d="M75.881,14.052l-0.052,0.02c-1.647,0.649-2.731,1.776-3.779,2.866c-0.664,0.691-1.292,1.343-2.026,1.831
				c-0.043,0.028-0.091,0.053-0.143,0.074c-0.981,0.387-3.118-0.624-3.858-1.046c-0.149-0.085-0.335-0.067-0.466,0.046
				c-0.13,0.112-0.174,0.295-0.111,0.454c0.032,0.081,0.74,1.849,2.016,2.709c-0.427,1.431,0.357,3.318,0.393,3.404
				c0.068,0.162,0.233,0.261,0.408,0.246c0.039-0.003,0.077-0.012,0.113-0.026c0.122-0.048,0.216-0.154,0.246-0.287
				c0.179-0.784,0.883-2.912,1.97-3.341c0.087-0.034,0.177-0.057,0.266-0.068c0.505-0.061,1.156-0.024,1.911,0.019
				c1.617,0.091,3.63,0.205,5.604-0.567l0.028-0.011c0,0,0,0,0,0c2.656-1.047,4.769-3.068,5.95-5.691
				c0.045-0.1,0.047-0.213,0.007-0.315c-0.04-0.101-0.119-0.183-0.22-0.225C81.515,13.044,78.583,13.012,75.881,14.052z
				 M78.104,19.621l-0.026,0.01c-1.81,0.708-3.725,0.6-5.264,0.513c-0.793-0.045-1.477-0.083-2.053-0.014
				c-0.158,0.019-0.315,0.059-0.466,0.119c-1.007,0.397-1.672,1.641-2.054,2.622c-0.123-0.633-0.161-1.352,0.085-1.864
				c0.095-0.198,0.015-0.436-0.181-0.536c-0.581-0.297-1.054-0.881-1.388-1.408c1.011,0.441,2.46,0.911,3.421,0.533
				c0.105-0.041,0.204-0.093,0.294-0.152c0.808-0.537,1.496-1.252,2.162-1.944c0.988-1.027,2.01-2.09,3.493-2.674l0.046-0.018
				c2.371-0.913,4.932-0.936,7.259-0.074C82.309,16.977,80.432,18.704,78.104,19.621z"/>
			<path class="st1" d="M80.406,16.361c0.1-0.039,0.179-0.119,0.222-0.216c0.044-0.098,0.046-0.209,0.006-0.309
				c-0.039-0.1-0.117-0.182-0.216-0.223c-0.194-0.084-0.447,0.015-0.533,0.21c-0.041,0.099-0.043,0.21-0.004,0.31
				c0.039,0.098,0.117,0.18,0.216,0.222C80.194,16.397,80.307,16.401,80.406,16.361z"/>
			<path class="st1" d="M53.713,26.999c0.383-0.046,0.862-0.04,1.417-0.032c1.309,0.017,2.939,0.039,4.581-0.603l0.023-0.009
				c0,0,0,0,0,0c2.158-0.851,3.876-2.493,4.836-4.625c0.045-0.1,0.047-0.213,0.007-0.315c-0.04-0.102-0.119-0.183-0.22-0.225
				c-2.132-0.893-4.515-0.919-6.71-0.074l-0.049,0.019c-1.362,0.537-2.278,1.407-3.164,2.248c-0.528,0.501-1.026,0.975-1.594,1.352
				c-0.034,0.023-0.074,0.043-0.117,0.06c-0.682,0.269-2.181-0.266-2.965-0.666c-0.15-0.077-0.331-0.052-0.456,0.061
				c-0.125,0.113-0.166,0.291-0.105,0.448c0.026,0.065,0.588,1.468,1.606,2.186c-0.316,1.174,0.306,2.67,0.335,2.739
				c0.067,0.159,0.228,0.258,0.4,0.246c0.042-0.003,0.083-0.012,0.121-0.027c0.117-0.046,0.208-0.145,0.242-0.27
				c0.155-0.57,0.743-2.122,1.592-2.456C53.566,27.027,53.64,27.008,53.713,26.999z M51.568,28.113
				c-0.072-0.451-0.077-0.934,0.093-1.288c0.095-0.198,0.015-0.436-0.181-0.536c-0.407-0.208-0.748-0.599-1.003-0.977
				c0.783,0.278,1.817,0.522,2.543,0.236c0.096-0.038,0.186-0.084,0.268-0.139c0.627-0.416,1.174-0.936,1.704-1.439
				c0.83-0.788,1.688-1.603,2.904-2.082l0.043-0.017c1.863-0.718,3.874-0.746,5.708-0.089c-0.899,1.751-2.38,3.099-4.209,3.82
				l-0.021,0.008c-1.494,0.584-3.036,0.564-4.275,0.547c-0.584-0.008-1.088-0.014-1.524,0.038c-0.142,0.017-0.283,0.053-0.42,0.107
				C52.438,26.601,51.905,27.408,51.568,28.113z"/>
			<path class="st1" d="M61.349,23.123c0.098-0.039,0.179-0.119,0.224-0.216c0.042-0.097,0.043-0.211,0.004-0.308
				c-0.039-0.1-0.117-0.18-0.214-0.224c-0.196-0.083-0.446,0.015-0.533,0.21c-0.043,0.1-0.045,0.211-0.006,0.311
				c0.039,0.098,0.117,0.18,0.216,0.222C61.137,23.159,61.251,23.161,61.349,23.123z"/>
			<path class="st1" d="M57.637,19.138c0.067,0.158,0.227,0.257,0.398,0.247c0.043-0.003,0.084-0.012,0.123-0.027
				c0.116-0.046,0.206-0.143,0.241-0.267c0.122-0.435,0.627-1.739,1.319-2.012c0.058-0.023,0.117-0.038,0.175-0.045
				c0.317-0.038,0.713-0.036,1.173-0.033c1.115,0.006,2.502,0.013,3.91-0.537c0,0,0.019-0.008,0.019-0.008c0,0,0,0,0,0
				c1.843-0.727,3.31-2.129,4.129-3.949c0.045-0.1,0.048-0.213,0.007-0.315c-0.04-0.102-0.119-0.183-0.22-0.225
				c-1.82-0.763-3.854-0.785-5.728-0.063L63.14,11.92c-1.168,0.461-1.955,1.195-2.715,1.905c-0.444,0.414-0.862,0.806-1.336,1.12
				c-0.026,0.018-0.057,0.033-0.09,0.046c-0.56,0.221-1.799-0.212-2.449-0.536c-0.15-0.075-0.33-0.049-0.454,0.064
				c-0.124,0.113-0.165,0.291-0.103,0.447c0.022,0.055,0.491,1.227,1.347,1.853C57.094,17.801,57.575,18.991,57.637,19.138z
				 M58.012,16.287c-0.275-0.141-0.521-0.395-0.724-0.666c0.642,0.203,1.433,0.351,2.008,0.124c0.086-0.034,0.168-0.076,0.241-0.125
				c0.529-0.352,0.993-0.784,1.441-1.203c0.705-0.658,1.434-1.339,2.459-1.744l0.037-0.015c1.542-0.594,3.203-0.626,4.724-0.099
				c-0.757,1.439-1.988,2.546-3.517,3.149c-1.264,0.494-2.565,0.487-3.611,0.482c-0.486-0.003-0.907-0.005-1.273,0.039
				c-0.127,0.015-0.253,0.047-0.376,0.096c-0.595,0.235-1.031,0.82-1.326,1.373c-0.034-0.316-0.019-0.635,0.097-0.876
				C58.288,16.625,58.208,16.387,58.012,16.287z"/>
			<path class="st1" d="M66.364,13.718c0.1-0.039,0.179-0.119,0.222-0.216c0.044-0.098,0.045-0.211,0.006-0.309
				c-0.039-0.1-0.117-0.182-0.216-0.223c-0.194-0.084-0.447,0.015-0.531,0.209c-0.044,0.098-0.045,0.211-0.006,0.311
				c0.039,0.098,0.117,0.18,0.216,0.222C66.152,13.754,66.265,13.758,66.364,13.718z"/>
		</g>
		<g class="st9">
			<path class="st1" d="M23.919,38.429c0.034,0.088,0.121,0.145,0.215,0.14c0.021-0.001,0.042-0.005,0.061-0.012
				c0.067-0.024,0.119-0.079,0.138-0.15c0.111-0.419,0.528-1.553,1.121-1.764c0.048-0.017,0.096-0.028,0.144-0.032
				c0.273-0.023,0.623,0.008,1.029,0.045c0.87,0.078,1.952,0.176,3.03-0.205l0.015-0.006c0,0,0,0,0,0
				c1.45-0.516,2.624-1.567,3.308-2.959c0.026-0.053,0.029-0.114,0.01-0.169c-0.02-0.055-0.061-0.101-0.115-0.125
				c-1.394-0.639-2.973-0.71-4.447-0.198l-0.028,0.01c-0.899,0.32-1.503,0.908-2.088,1.476c-0.37,0.36-0.72,0.701-1.125,0.95
				c-0.023,0.014-0.05,0.027-0.078,0.037c-0.536,0.191-1.668-0.392-2.06-0.633c-0.079-0.048-0.179-0.042-0.252,0.016
				c-0.072,0.058-0.099,0.156-0.068,0.243c0.016,0.044,0.365,1.01,1.037,1.496C23.513,37.351,23.901,38.382,23.919,38.429z
				 M24.146,36.312c-0.308-0.17-0.552-0.494-0.723-0.783c0.537,0.256,1.309,0.535,1.833,0.349c0.057-0.02,0.112-0.046,0.161-0.077
				c0.445-0.275,0.829-0.648,1.2-1.009c0.551-0.536,1.12-1.09,1.93-1.378l0.025-0.009c1.294-0.449,2.674-0.415,3.912,0.091
				c-0.645,1.188-1.688,2.085-2.958,2.537l-0.014,0.005c-0.988,0.349-2.018,0.256-2.845,0.182c-0.426-0.038-0.794-0.072-1.106-0.045
				c-0.085,0.007-0.171,0.026-0.253,0.055c-0.55,0.196-0.931,0.855-1.154,1.377c-0.055-0.343-0.063-0.731,0.08-1.004
				C24.289,36.499,24.25,36.369,24.146,36.312z"/>
			<path class="st1" d="M30.827,34.318c0.053-0.019,0.099-0.06,0.123-0.112c0.024-0.052,0.028-0.112,0.009-0.166
				c-0.019-0.054-0.061-0.099-0.112-0.123c-0.105-0.05-0.241-0.001-0.291,0.104c-0.024,0.052-0.027,0.112-0.008,0.166
				c0.019,0.054,0.06,0.099,0.111,0.124C30.711,34.335,30.772,34.338,30.827,34.318z"/>
			<path class="st1" d="M32.586,26.893l-0.028,0.01c-0.899,0.32-1.503,0.908-2.088,1.476c-0.37,0.36-0.72,0.701-1.125,0.95
				c-0.023,0.014-0.05,0.027-0.078,0.037c-0.536,0.191-1.668-0.392-2.06-0.633c-0.079-0.048-0.18-0.042-0.252,0.016
				c-0.072,0.058-0.099,0.156-0.068,0.243c0.016,0.044,0.365,1.01,1.037,1.496c-0.256,0.764,0.132,1.794,0.15,1.841
				c0.034,0.088,0.121,0.145,0.216,0.14c0.021-0.001,0.042-0.005,0.061-0.012c0.067-0.024,0.119-0.079,0.138-0.15
				c0.111-0.419,0.528-1.553,1.121-1.764c0.048-0.017,0.096-0.028,0.144-0.032c0.273-0.024,0.623,0.008,1.029,0.045
				c0.87,0.078,1.952,0.176,3.03-0.205l0.015-0.005c0,0,0,0,0,0c1.45-0.516,2.625-1.567,3.308-2.959
				c0.026-0.053,0.029-0.114,0.01-0.169c-0.02-0.055-0.061-0.101-0.115-0.125C35.64,26.451,34.061,26.381,32.586,26.893z
				 M33.683,29.933l-0.014,0.005c-0.988,0.349-2.018,0.256-2.845,0.182c-0.426-0.038-0.794-0.071-1.106-0.045
				c-0.085,0.007-0.171,0.026-0.253,0.055c-0.549,0.196-0.93,0.854-1.154,1.376c-0.055-0.343-0.063-0.731,0.079-1.003
				c0.055-0.105,0.016-0.234-0.088-0.292c-0.308-0.17-0.552-0.494-0.723-0.783c0.537,0.256,1.309,0.535,1.833,0.349
				c0.057-0.02,0.112-0.046,0.161-0.077c0.445-0.275,0.829-0.648,1.2-1.009c0.551-0.536,1.121-1.09,1.93-1.378l0.025-0.009
				c1.294-0.449,2.674-0.415,3.912,0.091C35.997,28.585,34.954,29.481,33.683,29.933z"/>
			<path class="st1" d="M34.983,28.219c0.054-0.019,0.099-0.061,0.123-0.112c0.025-0.052,0.028-0.112,0.009-0.167
				c-0.019-0.054-0.06-0.1-0.113-0.124c-0.103-0.049-0.241,0-0.291,0.104c-0.024,0.053-0.027,0.113-0.008,0.167
				c0.019,0.053,0.06,0.099,0.112,0.123C34.868,28.234,34.928,28.238,34.983,28.219z"/>
			<path class="st1" d="M20.41,33.468c0.207-0.018,0.465-0.006,0.764,0.008c0.705,0.033,1.583,0.074,2.479-0.242l0.012-0.004
				c0,0,0,0,0,0c1.178-0.419,2.133-1.273,2.689-2.405c0.026-0.053,0.029-0.114,0.01-0.169c-0.02-0.056-0.061-0.101-0.115-0.125
				c-1.133-0.52-2.416-0.577-3.614-0.161l-0.027,0.009c-0.744,0.265-1.253,0.717-1.745,1.154c-0.293,0.26-0.57,0.507-0.883,0.7
				c-0.019,0.012-0.041,0.022-0.064,0.03c-0.373,0.133-1.17-0.183-1.585-0.412c-0.079-0.044-0.177-0.034-0.247,0.025
				c-0.069,0.059-0.095,0.154-0.064,0.239c0.013,0.035,0.29,0.802,0.826,1.206c-0.191,0.627,0.117,1.444,0.131,1.482
				c0.033,0.087,0.118,0.143,0.211,0.14c0.023-0.001,0.045-0.005,0.066-0.012c0.064-0.023,0.115-0.074,0.135-0.141
				c0.094-0.304,0.439-1.13,0.902-1.294C20.33,33.481,20.37,33.472,20.41,33.468z M19.234,34.03
				c-0.03-0.244-0.025-0.504,0.073-0.692c0.055-0.105,0.016-0.234-0.088-0.292c-0.216-0.119-0.392-0.336-0.523-0.544
				c0.417,0.164,0.969,0.314,1.366,0.173c0.052-0.019,0.102-0.042,0.147-0.07c0.345-0.213,0.649-0.483,0.944-0.745
				c0.461-0.41,0.938-0.833,1.602-1.069l0.023-0.008c1.017-0.353,2.101-0.332,3.077,0.055c-0.516,0.927-1.338,1.626-2.337,1.982
				l-0.011,0.004c-0.816,0.288-1.646,0.249-2.313,0.218c-0.314-0.015-0.586-0.027-0.822-0.007c-0.077,0.007-0.154,0.023-0.228,0.05
				C19.73,33.231,19.428,33.656,19.234,34.03z"/>
			<path class="st1" d="M24.594,31.518c0.053-0.019,0.099-0.061,0.124-0.113c0.024-0.052,0.027-0.113,0.008-0.166
				c-0.019-0.054-0.06-0.099-0.112-0.125c-0.104-0.049-0.241,0-0.291,0.104c-0.025,0.053-0.028,0.113-0.009,0.168
				c0.019,0.053,0.06,0.099,0.112,0.123C24.479,31.533,24.54,31.537,24.594,31.518z"/>
			<path class="st1" d="M22.666,29.304c0.033,0.087,0.117,0.143,0.21,0.14c0.023-0.001,0.046-0.005,0.067-0.013
				c0.063-0.022,0.114-0.073,0.135-0.14c0.074-0.232,0.369-0.925,0.747-1.06c0.032-0.011,0.064-0.018,0.095-0.021
				c0.171-0.015,0.385-0.006,0.632,0.003c0.6,0.023,1.348,0.052,2.116-0.219c0,0,0.01-0.004,0.011-0.004c0,0,0,0,0,0
				c1.006-0.358,1.821-1.087,2.296-2.053c0.026-0.053,0.029-0.114,0.01-0.169c-0.02-0.055-0.061-0.101-0.115-0.125
				c-0.967-0.444-2.062-0.492-3.085-0.137l-0.024,0.008c-0.638,0.227-1.075,0.608-1.497,0.977c-0.246,0.215-0.479,0.418-0.74,0.579
				c-0.014,0.009-0.031,0.017-0.05,0.023c-0.306,0.109-0.966-0.146-1.31-0.333c-0.079-0.043-0.177-0.033-0.246,0.026
				c-0.069,0.059-0.094,0.154-0.064,0.239c0.011,0.03,0.242,0.67,0.692,1.023C22.397,28.574,22.635,29.224,22.666,29.304z
				 M22.919,27.775c-0.145-0.081-0.274-0.222-0.378-0.372c0.342,0.121,0.766,0.215,1.08,0.103c0.047-0.017,0.092-0.038,0.132-0.063
				c0.292-0.18,0.549-0.405,0.798-0.622c0.392-0.342,0.797-0.696,1.356-0.895l0.02-0.007c0.841-0.292,1.737-0.279,2.547,0.032
				c-0.434,0.762-1.117,1.336-1.951,1.633c-0.69,0.243-1.391,0.216-1.954,0.194c-0.262-0.01-0.488-0.019-0.687-0.002
				c-0.069,0.006-0.137,0.021-0.204,0.045c-0.325,0.116-0.57,0.423-0.739,0.716c-0.012-0.171,0.001-0.342,0.068-0.47
				C23.061,27.962,23.022,27.832,22.919,27.775z"/>
			<path class="st1" d="M27.465,26.542c0.054-0.019,0.099-0.061,0.123-0.112c0.025-0.052,0.028-0.113,0.009-0.167
				c-0.019-0.054-0.06-0.1-0.113-0.124c-0.103-0.049-0.241,0-0.29,0.103c-0.025,0.052-0.028,0.113-0.009,0.167
				c0.019,0.053,0.06,0.099,0.112,0.123C27.35,26.557,27.411,26.561,27.465,26.542z"/>
		</g>
	</g>
	<g>
		<path class="st1" d="M219.574,44.588c0.026,0,0.053-0.004,0.078-0.014c2.88-1.038,3.254-3.23,3.377-3.951
			c0.011-0.064,0.02-0.116,0.028-0.152c0.029-0.124-0.047-0.248-0.171-0.277c-0.124-0.03-0.248,0.047-0.277,0.171
			c-0.01,0.043-0.021,0.105-0.034,0.181c-0.104,0.608-0.404,2.368-2.546,3.375c0.158-0.377,0.342-0.888,0.395-1.331
			c0.102-0.863,0.332-1.087,0.68-1.427c0.04-0.039,0.08-0.078,0.122-0.12c0.09-0.09,0.09-0.236,0-0.326
			c-0.09-0.09-0.236-0.09-0.326,0c-0.04,0.04-0.08,0.079-0.118,0.116c-0.373,0.364-0.695,0.678-0.816,1.703
			c-0.085,0.72-0.592,1.706-0.597,1.716c-0.044,0.084-0.031,0.186,0.031,0.258C219.445,44.56,219.509,44.588,219.574,44.588z"/>
		<path class="st1" d="M213.574,41.98c-0.415,0.224-0.388,0.479-0.335,0.611c0.203,0.505,1.744,0.77,3.319,0.77
			c0.925,0,1.861-0.092,2.544-0.28c0.123-0.034,0.194-0.161,0.161-0.283c-0.034-0.123-0.161-0.195-0.283-0.161
			c-2,0.552-4.9,0.156-5.286-0.188c0.019-0.016,0.05-0.037,0.099-0.064c1.539-0.831,1.58-3.211,1.556-3.92
			c-0.002-0.067-0.034-0.13-0.086-0.172s-0.121-0.059-0.187-0.046c-1.479,0.283-2.118,1.151-2.391,1.521
			c-0.054,0.074-0.115,0.101-0.153,0.103c-0.018,0.001-0.047-0.003-0.082-0.044c-0.563-0.657-0.885-1.629-0.885-2.666
			c0-0.639,0.124-1.263,0.357-1.805c0.017-0.04,0.04-0.064,0.067-0.07c0.038-0.008,0.09,0.012,0.136,0.053l0.053,0.047
			c0.515,0.459,1.294,1.152,2.253,1.261c0.124,0.014,0.24-0.076,0.255-0.203c0.014-0.126-0.076-0.24-0.203-0.255
			c-0.814-0.092-1.527-0.727-1.999-1.147l-0.054-0.048c-0.16-0.142-0.358-0.2-0.542-0.158c-0.172,0.038-0.314,0.161-0.39,0.337
			c-0.258,0.598-0.395,1.285-0.395,1.987c0,1.146,0.363,2.227,0.996,2.966c0.118,0.138,0.276,0.21,0.448,0.204
			c0.192-0.007,0.377-0.113,0.507-0.29c0.243-0.329,0.728-0.988,1.837-1.281C214.886,39.603,214.728,41.357,213.574,41.98z"/>
		<path class="st1" d="M226.735,39.174c-0.153,0.017-0.295,0.031-0.427,0.044c-1.065,0.104-1.652,0.162-2.53,1.467
			c-0.088,0.132-0.237,0.258-0.369,0.366c-0.098,0.081-0.113,0.226-0.032,0.324c0.046,0.056,0.112,0.084,0.178,0.084
			c0.051,0,0.103-0.017,0.146-0.052c0.157-0.129,0.336-0.282,0.459-0.465c0.756-1.125,1.177-1.166,2.192-1.266
			c0.135-0.013,0.279-0.027,0.434-0.045c0.316-0.036,0.549-0.313,0.553-0.66c0.004-0.354-0.232-0.634-0.574-0.681
			c-1.2-0.164-1.56-0.244-1.733-0.961c-0.403-4.016-5.832-6.154-8.403-6.56c-1.824-0.288-3.174-0.092-4.361,0.164
			c-0.111,0.024-0.188,0.125-0.181,0.239c0.007,0.113,0.095,0.205,0.208,0.216c0.101,0.01,2.487,0.266,2.747,2.972
			c0.084,0.875,0.099,2.193,0.033,2.938c-0.011,0.127,0.082,0.238,0.209,0.25c0.129,0.012,0.239-0.082,0.25-0.209
			c0.068-0.768,0.053-2.124-0.034-3.023c-0.182-1.895-1.326-2.739-2.186-3.108c0.916-0.138,1.958-0.186,3.243,0.017
			c2.459,0.389,7.654,2.407,8.018,6.166c0.001,0.01,0.003,0.021,0.005,0.031c0.252,1.071,0.956,1.167,2.123,1.326
			c0.16,0.022,0.176,0.161,0.175,0.219C226.879,39.037,226.847,39.161,226.735,39.174z"/>
		<path class="st1" d="M223.144,37.826v-0.248c0-0.127-0.103-0.23-0.23-0.23s-0.23,0.103-0.23,0.23v0.248
			c0,0.127,0.103,0.23,0.23,0.23S223.144,37.953,223.144,37.826z"/>
		<path class="st1" d="M217.502,41.752c0.028,0.011,0.057,0.016,0.085,0.016c0.092,0,0.178-0.055,0.214-0.145
			c0.42-1.057,0.651-2.43,0.651-3.866c0-2.549-0.721-4.766-1.795-5.515c-0.104-0.073-0.248-0.047-0.32,0.057
			c-0.073,0.104-0.047,0.248,0.057,0.321c0.941,0.657,1.598,2.77,1.598,5.138c0,1.379-0.22,2.691-0.619,3.696
			C217.326,41.572,217.384,41.705,217.502,41.752z"/>
		<path class="st1" d="M220.111,37.801c0,0.731-0.075,1.444-0.218,2.063c-0.028,0.124,0.049,0.247,0.173,0.276
			c0.017,0.004,0.035,0.006,0.052,0.006c0.105,0,0.2-0.072,0.224-0.179c0.15-0.653,0.229-1.402,0.229-2.167
			c0-1.607-0.345-3.057-0.901-3.784c-0.077-0.101-0.222-0.121-0.323-0.043c-0.101,0.077-0.12,0.222-0.043,0.323
			C219.795,34.937,220.111,36.313,220.111,37.801z"/>
	</g>
	<g>
		<path class="st1" d="M293.998,17.53c0.147-0.012,0.257-0.14,0.245-0.287c-0.012-0.147-0.139-0.256-0.287-0.245
			c-3.573,0.282-6.994-2.622-7.836-3.711c-0.046-0.059-0.114-0.097-0.189-0.103c-0.075-0.006-0.148,0.019-0.203,0.07
			c-0.02,0.018-1.778,1.63-3.343,2.256c0.472-1.141,1.111-2.689,1.153-2.789c0.015-0.033,0.023-0.07,0.023-0.109
			c0-0.038-0.008-0.075-0.023-0.108c-0.042-0.101-0.682-1.67-1.154-2.825c1.934,0.741,3.313,2.219,3.328,2.235
			c0.051,0.055,0.123,0.091,0.199,0.086c0.075-0.001,0.147-0.033,0.197-0.089c1.92-2.15,4.43-3.363,7.675-3.705
			c0.147-0.015,0.253-0.147,0.238-0.294c-0.016-0.147-0.146-0.252-0.294-0.238c-3.276,0.346-5.839,1.548-7.825,3.671
			c-0.522-0.508-1.992-1.806-3.91-2.361c-0.098-0.029-0.204,0.002-0.273,0.078s-0.087,0.185-0.049,0.28l1.162,2.845
			c0.077,0.188,0.133,0.325,0.177,0.425c-0.044,0.099-0.1,0.234-0.177,0.419l-1.162,2.81c-0.038,0.093-0.021,0.2,0.044,0.276
			c0.065,0.076,0.168,0.109,0.266,0.086c1.501-0.366,3.293-1.841,3.9-2.369c1.074,1.214,4.217,3.718,7.595,3.718
			C293.649,17.551,293.823,17.544,293.998,17.53z"/>
		<path class="st1" d="M296.534,7.764c-1.891-2.294-4.198-2.665-4.866-2.724c-0.074-0.006-0.149,0.018-0.204,0.069
			c-0.055,0.051-0.087,0.122-0.087,0.197v2.065c0,0.148,0.12,0.267,0.267,0.267c0.147,0,0.267-0.12,0.267-0.267V5.608
			c0.851,0.131,2.715,0.636,4.271,2.57c0.041,0.051,0.1,0.086,0.166,0.096c2.701,0.435,5.085,2.005,6.566,4.317
			c-1.242,1.939-3.126,3.367-5.324,4.031c-0.01,0.003-1.029,0.311-1.854,0.434c-0.118,0.018-0.21,0.111-0.225,0.23
			c-0.002,0.015-0.212,1.447-2.116,1.762v-0.856c0-0.148-0.12-0.267-0.267-0.267c-0.148,0-0.267,0.12-0.267,0.267v1.16
			c0,0.075,0.032,0.147,0.088,0.198c0.049,0.045,0.113,0.069,0.18,0.069c0.008,0,0.017,0,0.026-0.001
			c2.099-0.202,2.69-1.546,2.84-2.062c0.82-0.141,1.711-0.41,1.751-0.422c2.375-0.717,4.404-2.281,5.712-4.402
			c0.053-0.086,0.053-0.194,0-0.28C301.92,9.96,299.401,8.256,296.534,7.764z"/>
		<path class="st1" d="M299.131,11.986v-0.27c0-0.148-0.12-0.267-0.267-0.267c-0.147,0-0.267,0.12-0.267,0.267v0.27
			c0,0.148,0.12,0.267,0.267,0.267C299.011,12.253,299.131,12.134,299.131,11.986z"/>
	</g>
	<g>
		<path class="st1" d="M110.312,37.79c0.432,0,0.783-0.351,0.783-0.782V36.79c0-0.432-0.351-0.782-0.783-0.782
			s-0.783,0.351-0.783,0.782v0.218C109.529,37.439,109.88,37.79,110.312,37.79z"/>
		<path class="st1" d="M115.583,36.906c-2.349-3.809-6.188-6.452-10.557-7.277c-1.358-2.896-3.691-4.638-3.791-4.711
			c-0.188-0.14-0.425-0.189-0.65-0.132c-4.407,1.069-6.493,4.295-6.58,4.433c-0.198,0.312-0.153,0.712,0.108,0.973l0.725,0.725
			c0.048,0.048,0.108,0.076,0.164,0.108c-1.858,0.924-3.544,2.199-4.938,3.811c-2.072-1.977-4.758-3.184-7.609-3.411
			c-0.292-0.029-0.567,0.113-0.724,0.359c-0.155,0.246-0.163,0.555-0.021,0.806l2.667,4.73l-2.667,4.729
			c-0.143,0.253-0.134,0.562,0.022,0.806c0.156,0.243,0.433,0.371,0.722,0.358c2.853-0.228,5.539-1.436,7.611-3.412
			c0.637,0.733,1.35,1.401,2.11,2.008c-0.193,0.006-0.385,0.079-0.532,0.227l-0.792,0.799c-0.276,0.278-0.303,0.721-0.063,1.029
			c1.135,1.471,2.636,2.365,4.327,2.586l0.114,0.009c0.248,0,0.483-0.119,0.64-0.332c0.077-0.104,0.599-0.811,1.25-1.627
			c1.832,0.6,3.79,0.852,5.724,0.76c-0.058,0.079-0.104,0.17-0.129,0.271l-0.19,0.773c-0.053,0.219-0.01,0.45,0.119,0.636
			c0.13,0.185,0.333,0.305,0.559,0.329c0.348,0.036,0.696,0.055,1.043,0.055c0.628,0,1.26-0.062,1.878-0.182
			c0.319-0.062,0.562-0.31,0.62-0.629l0.372-2.051c3.512-1.179,6.513-3.562,8.467-6.733
			C115.739,37.475,115.739,37.161,115.583,36.906z M95.946,29.807l-0.243-0.242c0.657-0.781,2.287-2.424,4.882-3.162
			c0.663,0.565,2.274,2.089,3.175,4.226c0.104,0.251,0.328,0.426,0.597,0.47c3.925,0.633,7.422,2.894,9.631,6.218
			c-1.834,2.762-4.568,4.808-7.644,5.76c-0.56,0.036-0.662,0.518-0.749,0.996c-0.044-0.192-0.151-0.361-0.315-0.474
			c-0.172-0.118-0.383-0.159-0.585-0.123c-2.509,0.466-5.167,0.247-7.545-0.624c-0.321-0.13-0.682-0.036-0.9,0.23
			c-0.026,0.031-0.049,0.062-0.075,0.093c0.097-0.355-0.052-0.739-0.395-0.909c-1.96-0.96-3.705-2.384-5.045-4.117
			c-0.142-0.185-0.356-0.295-0.591-0.305c-0.236,0.002-0.453,0.085-0.607,0.256c-1.513,1.665-3.505,2.824-5.675,3.317l2.083-3.694
			c0.041-0.065,0.071-0.138,0.091-0.218c0.053-0.21,0.018-0.427-0.089-0.594l-2.085-3.696c2.169,0.492,4.162,1.651,5.674,3.315
			c0.155,0.172,0.38,0.253,0.611,0.258c0.232-0.01,0.446-0.12,0.588-0.304c2.735-3.539,6.864-5.569,11.327-5.569
			c0.432,0,0.783-0.351,0.783-0.782s-0.351-0.783-0.783-0.783c-2.062,0-4.06,0.416-5.918,1.163
			C96.194,30.265,96.137,29.999,95.946,29.807z M92.486,42.296L92.486,42.296L92.486,42.296L92.486,42.296z M95.092,43.674
			c0.107,0.053,0.226,0.08,0.344,0.08c0.124,0,0.241-0.036,0.349-0.09c-0.362,0.458-0.68,0.874-0.894,1.158
			c-0.912-0.206-1.724-0.675-2.419-1.397l0.284-0.287c0.205-0.207,0.259-0.5,0.184-0.764C93.627,42.859,94.341,43.306,95.092,43.674
			z M104.982,45.015c0.205-0.038,0.384-0.154,0.502-0.327l-0.181,1.001c-0.346,0.044-0.696,0.067-1.046,0.068
			c0.008-0.156-0.03-0.311-0.112-0.446c-0.036-0.059-0.087-0.102-0.135-0.148C104.335,45.125,104.66,45.075,104.982,45.015z"/>
		<path class="st1" d="M101.521,38.876c0,1.198,0.467,2.325,1.315,3.174c0.148,0.147,0.344,0.229,0.552,0.229
			c0.208,0,0.405-0.081,0.554-0.229l1.417-1.417c0.305-0.306,0.305-0.802,0-1.107c-0.305-0.304-0.801-0.305-1.107,0l-0.79,0.79
			c-0.247-0.436-0.376-0.925-0.376-1.438s0.129-1.004,0.376-1.439l0.841,0.841c0.305,0.305,0.802,0.305,1.106,0
			c0.305-0.306,0.305-0.803,0-1.108l-1.468-1.468c-0.3-0.299-0.807-0.3-1.106,0.001C101.988,36.55,101.521,37.677,101.521,38.876z"
			/>
	</g>
</g>
</svg>
