<?xml version="1.0" encoding="utf-8"?>
<!-- Generator: Adobe Illustrator 27.9.0, SVG Export Plug-In . SVG Version: 6.00 Build 0)  -->
<svg version="1.1" xmlns="http://www.w3.org/2000/svg" xmlns:xlink="http://www.w3.org/1999/xlink" x="0px" y="0px"
	 viewBox="0 0 503.272 50.91" style="enable-background:new 0 0 503.272 50.91;" xml:space="preserve">
<style type="text/css">
	.st0{display:none;}
	.st1{display:inline;}
	.st2{fill:#F8F8FF;}
	.st3{fill:#133859;}
	.st4{fill:#9CD9D3;stroke:#133859;stroke-width:2;stroke-miterlimit:10;}
	.st5{fill:#4D3D1E;}
</style>
<g id="Guides" class="st0">
</g>
<g id="Default" class="st0">
	<g class="st1">
		<path class="st2" d="M502.841,28.497H10.907c-1.457,0-2.855-0.391-3.886-1.088l-5.759-3.893c-0.602-0.407-0.176-1.103,0.676-1.103
			h491.755l10,5.508C503.693,28.239,503.312,28.497,502.841,28.497z"/>
		<path class="st3" d="M503.272,27.511c0.753,0.542,0.469,0.986-0.631,0.986h-1.948c-1.1,0-2.616-0.444-3.369-0.986l-6.653-4.113
			c-0.753-0.542-0.469-0.986,0.631-0.986h1.948c1.1,0,2.616,0.444,3.369,0.986L503.272,27.511z M494.35,27.511
			c0.753,0.542,0.469,0.986-0.631,0.986h-1.947c-1.1,0-2.616-0.444-3.369-0.986l-6.653-4.113c-0.753-0.542-0.469-0.986,0.631-0.986
			h1.947c1.1,0,2.616,0.444,3.369,0.986L494.35,27.511z M485.429,27.511c0.753,0.542,0.469,0.986-0.631,0.986h-1.948
			c-1.1,0-2.616-0.444-3.369-0.986l-6.653-4.113c-0.753-0.542-0.469-0.986,0.631-0.986h1.948c1.1,0,2.616,0.444,3.369,0.986
			L485.429,27.511z M476.507,27.511c0.753,0.542,0.469,0.986-0.631,0.986h-1.947c-1.1,0-2.616-0.444-3.369-0.986l-6.653-4.113
			c-0.753-0.542-0.469-0.986,0.631-0.986h1.947c1.1,0,2.616,0.444,3.369,0.986L476.507,27.511z M467.586,27.511
			c0.753,0.542,0.469,0.986-0.631,0.986h-1.947c-1.1,0-2.616-0.444-3.369-0.986l-6.653-4.113c-0.753-0.542-0.469-0.986,0.631-0.986
			h1.947c1.1,0,2.616,0.444,3.369,0.986L467.586,27.511z M458.665,27.511c0.753,0.542,0.469,0.986-0.631,0.986h-1.948
			c-1.1,0-2.616-0.444-3.369-0.986l-6.653-4.113c-0.753-0.542-0.469-0.986,0.631-0.986h1.948c1.1,0,2.616,0.444,3.369,0.986
			L458.665,27.511z M449.744,27.511c0.753,0.542,0.469,0.986-0.631,0.986h-1.947c-1.1,0-2.616-0.444-3.369-0.986l-6.653-4.113
			c-0.753-0.542-0.469-0.986,0.631-0.986h1.947c1.1,0,2.616,0.444,3.369,0.986L449.744,27.511z M440.823,27.511
			c0.753,0.542,0.469,0.986-0.631,0.986h-1.948c-1.1,0-2.616-0.444-3.369-0.986l-6.653-4.113c-0.753-0.542-0.469-0.986,0.631-0.986
			h1.948c1.1,0,2.616,0.444,3.369,0.986L440.823,27.511z M431.901,27.511c0.753,0.542,0.469,0.986-0.631,0.986h-1.947
			c-1.1,0-2.616-0.444-3.369-0.986l-6.653-4.113c-0.753-0.542-0.469-0.986,0.631-0.986h1.947c1.1,0,2.616,0.444,3.369,0.986
			L431.901,27.511z M422.98,27.511c0.753,0.542,0.469,0.986-0.631,0.986h-1.947c-1.1,0-2.616-0.444-3.369-0.986l-6.653-4.113
			c-0.753-0.542-0.469-0.986,0.631-0.986h1.947c1.1,0,2.616,0.444,3.369,0.986L422.98,27.511z M414.058,27.511
			c0.753,0.542,0.469,0.986-0.631,0.986h-1.947c-1.1,0-2.616-0.444-3.369-0.986l-6.653-4.113c-0.753-0.542-0.469-0.986,0.631-0.986
			h1.947c1.1,0,2.616,0.444,3.369,0.986L414.058,27.511z M405.137,27.511c0.753,0.542,0.469,0.986-0.631,0.986h-1.947
			c-1.1,0-2.616-0.444-3.369-0.986l-6.653-4.113c-0.753-0.542-0.469-0.986,0.631-0.986h1.947c1.1,0,2.616,0.444,3.369,0.986
			L405.137,27.511z M396.216,27.511c0.753,0.542,0.469,0.986-0.631,0.986h-1.948c-1.1,0-2.616-0.444-3.369-0.986l-6.653-4.113
			c-0.753-0.542-0.469-0.986,0.631-0.986h1.948c1.1,0,2.616,0.444,3.369,0.986L396.216,27.511z M387.294,27.511
			c0.753,0.542,0.469,0.986-0.631,0.986h-1.947c-1.1,0-2.616-0.444-3.369-0.986l-6.653-4.113c-0.753-0.542-0.469-0.986,0.631-0.986
			h1.947c1.1,0,2.616,0.444,3.369,0.986L387.294,27.511z M378.373,27.511c0.753,0.542,0.469,0.986-0.631,0.986h-1.947
			c-1.1,0-2.616-0.444-3.369-0.986l-6.653-4.113c-0.753-0.542-0.469-0.986,0.631-0.986h1.947c1.1,0,2.616,0.444,3.369,0.986
			L378.373,27.511z M369.452,27.511c0.753,0.542,0.469,0.986-0.631,0.986h-1.947c-1.1,0-2.616-0.444-3.369-0.986l-6.653-4.113
			c-0.753-0.542-0.469-0.986,0.631-0.986h1.947c1.1,0,2.616,0.444,3.369,0.986L369.452,27.511z M360.531,27.511
			c0.753,0.542,0.469,0.986-0.631,0.986h-1.947c-1.1,0-2.616-0.444-3.369-0.986l-6.653-4.113c-0.753-0.542-0.469-0.986,0.631-0.986
			h1.947c1.1,0,2.616,0.444,3.369,0.986L360.531,27.511z M351.61,27.511c0.753,0.542,0.469,0.986-0.631,0.986h-1.948
			c-1.1,0-2.616-0.444-3.369-0.986l-6.653-4.113c-0.753-0.542-0.469-0.986,0.631-0.986h1.948c1.1,0,2.616,0.444,3.369,0.986
			L351.61,27.511z M342.688,27.511c0.753,0.542,0.469,0.986-0.631,0.986h-1.947c-1.1,0-2.616-0.444-3.369-0.986l-6.653-4.113
			c-0.753-0.542-0.469-0.986,0.631-0.986h1.947c1.1,0,2.616,0.444,3.369,0.986L342.688,27.511z M333.767,27.511
			c0.753,0.542,0.469,0.986-0.631,0.986h-1.947c-1.1,0-2.616-0.444-3.369-0.986l-6.653-4.113c-0.753-0.542-0.469-0.986,0.631-0.986
			h1.947c1.1,0,2.616,0.444,3.369,0.986L333.767,27.511z M324.845,27.511c0.753,0.542,0.469,0.986-0.631,0.986h-1.947
			c-1.1,0-2.616-0.444-3.369-0.986l-6.653-4.113c-0.753-0.542-0.469-0.986,0.631-0.986h1.947c1.1,0,2.616,0.444,3.369,0.986
			L324.845,27.511z M315.924,27.511c0.753,0.542,0.469,0.986-0.631,0.986h-1.947c-1.1,0-2.616-0.444-3.369-0.986l-6.653-4.113
			c-0.753-0.542-0.469-0.986,0.631-0.986h1.947c1.1,0,2.616,0.444,3.369,0.986L315.924,27.511z M307.003,27.511
			c0.753,0.542,0.469,0.986-0.631,0.986h-1.948c-1.1,0-2.616-0.444-3.369-0.986l-6.653-4.113c-0.753-0.542-0.469-0.986,0.631-0.986
			h1.948c1.1,0,2.616,0.444,3.369,0.986L307.003,27.511z M298.081,27.511c0.753,0.542,0.469,0.986-0.631,0.986h-1.947
			c-1.1,0-2.616-0.444-3.369-0.986l-6.653-4.113c-0.753-0.542-0.469-0.986,0.631-0.986h1.947c1.1,0,2.616,0.444,3.369,0.986
			L298.081,27.511z M289.161,27.511c0.753,0.542,0.469,0.986-0.631,0.986h-1.948c-1.1,0-2.616-0.444-3.369-0.986l-6.653-4.113
			c-0.753-0.542-0.469-0.986,0.631-0.986h1.948c1.1,0,2.616,0.444,3.369,0.986L289.161,27.511z M280.239,27.511
			c0.753,0.542,0.469,0.986-0.631,0.986h-1.947c-1.1,0-2.616-0.444-3.369-0.986l-6.653-4.113c-0.753-0.542-0.469-0.986,0.631-0.986
			h1.947c1.1,0,2.616,0.444,3.369,0.986L280.239,27.511z M271.318,27.511c0.753,0.542,0.469,0.986-0.631,0.986h-1.948
			c-1.1,0-2.616-0.444-3.369-0.986l-6.653-4.113c-0.753-0.542-0.469-0.986,0.631-0.986h1.948c1.1,0,2.616,0.444,3.369,0.986
			L271.318,27.511z M262.396,27.511c0.753,0.542,0.469,0.986-0.631,0.986h-1.947c-1.1,0-2.616-0.444-3.369-0.986l-6.653-4.113
			c-0.753-0.542-0.469-0.986,0.631-0.986h1.947c1.1,0,2.616,0.444,3.369,0.986L262.396,27.511z M253.475,27.511
			c0.753,0.542,0.469,0.986-0.631,0.986h-1.947c-1.1,0-2.616-0.444-3.369-0.986l-6.653-4.113c-0.753-0.542-0.469-0.986,0.631-0.986
			h1.947c1.1,0,2.616,0.444,3.369,0.986L253.475,27.511z M244.554,27.511c0.753,0.542,0.469,0.986-0.631,0.986h-1.948
			c-1.1,0-2.616-0.444-3.369-0.986l-6.653-4.113c-0.753-0.542-0.469-0.986,0.631-0.986h1.948c1.1,0,2.616,0.444,3.369,0.986
			L244.554,27.511z M235.633,27.511c0.753,0.542,0.469,0.986-0.631,0.986h-1.948c-1.1,0-2.616-0.444-3.369-0.986l-6.653-4.113
			c-0.753-0.542-0.469-0.986,0.631-0.986h1.948c1.1,0,2.616,0.444,3.369,0.986L235.633,27.511z M226.711,27.511
			c0.753,0.542,0.469,0.986-0.631,0.986h-1.948c-1.1,0-2.616-0.444-3.369-0.986l-6.653-4.113c-0.753-0.542-0.469-0.986,0.631-0.986
			h1.948c1.1,0,2.616,0.444,3.369,0.986L226.711,27.511z M217.79,27.511c0.753,0.542,0.469,0.986-0.631,0.986h-1.947
			c-1.1,0-2.616-0.444-3.369-0.986l-6.653-4.113c-0.753-0.542-0.469-0.986,0.631-0.986h1.947c1.1,0,2.616,0.444,3.369,0.986
			L217.79,27.511z M208.869,27.511c0.753,0.542,0.469,0.986-0.631,0.986h-1.947c-1.1,0-2.616-0.444-3.369-0.986l-6.653-4.113
			c-0.753-0.542-0.469-0.986,0.631-0.986h1.947c1.1,0,2.616,0.444,3.369,0.986L208.869,27.511z M199.947,27.511
			c0.753,0.542,0.469,0.986-0.631,0.986h-1.947c-1.1,0-2.616-0.444-3.369-0.986l-6.653-4.113c-0.753-0.542-0.469-0.986,0.631-0.986
			h1.947c1.1,0,2.616,0.444,3.369,0.986L199.947,27.511z M191.026,27.511c0.753,0.542,0.469,0.986-0.631,0.986h-1.948
			c-1.1,0-2.616-0.444-3.369-0.986l-6.653-4.113c-0.753-0.542-0.469-0.986,0.631-0.986h1.948c1.1,0,2.616,0.444,3.369,0.986
			L191.026,27.511z M182.105,27.511c0.753,0.542,0.469,0.986-0.631,0.986h-1.948c-1.1,0-2.616-0.444-3.369-0.986l-6.653-4.113
			c-0.753-0.542-0.469-0.986,0.631-0.986h1.948c1.1,0,2.616,0.444,3.369,0.986L182.105,27.511z M173.184,27.511
			c0.753,0.542,0.469,0.986-0.631,0.986h-1.948c-1.1,0-2.616-0.444-3.369-0.986l-6.653-4.113c-0.753-0.542-0.469-0.986,0.631-0.986
			h1.948c1.1,0,2.616,0.444,3.369,0.986L173.184,27.511z M164.262,27.511c0.753,0.542,0.469,0.986-0.631,0.986h-1.947
			c-1.1,0-2.616-0.444-3.369-0.986l-6.653-4.113c-0.753-0.542-0.469-0.986,0.631-0.986h1.947c1.1,0,2.616,0.444,3.369,0.986
			L164.262,27.511z M155.341,27.511c0.753,0.542,0.469,0.986-0.631,0.986h-1.947c-1.1,0-2.616-0.444-3.369-0.986l-6.653-4.113
			c-0.753-0.542-0.469-0.986,0.631-0.986h1.947c1.1,0,2.616,0.444,3.369,0.986L155.341,27.511z M146.42,27.511
			c0.753,0.542,0.469,0.986-0.631,0.986h-1.948c-1.1,0-2.616-0.444-3.369-0.986l-6.653-4.113c-0.753-0.542-0.469-0.986,0.631-0.986
			h1.948c1.1,0,2.616,0.444,3.369,0.986L146.42,27.511z M137.498,27.511c0.753,0.542,0.469,0.986-0.631,0.986h-1.948
			c-1.1,0-2.616-0.444-3.369-0.986l-6.653-4.113c-0.753-0.542-0.469-0.986,0.631-0.986h1.948c1.1,0,2.616,0.444,3.369,0.986
			L137.498,27.511z M128.577,27.511c0.753,0.542,0.469,0.986-0.631,0.986h-1.948c-1.1,0-2.616-0.444-3.369-0.986l-6.653-4.113
			c-0.753-0.542-0.469-0.986,0.631-0.986h1.948c1.1,0,2.616,0.444,3.369,0.986L128.577,27.511z M119.656,27.511
			c0.753,0.542,0.469,0.986-0.631,0.986h-1.947c-1.1,0-2.616-0.444-3.369-0.986l-6.653-4.113c-0.753-0.542-0.469-0.986,0.631-0.986
			h1.947c1.1,0,2.616,0.444,3.369,0.986L119.656,27.511z M110.734,27.511c0.753,0.542,0.469,0.986-0.631,0.986h-1.947
			c-1.1,0-2.616-0.444-3.369-0.986l-6.653-4.113c-0.753-0.542-0.469-0.986,0.631-0.986h1.947c1.1,0,2.616,0.444,3.369,0.986
			L110.734,27.511z M101.813,27.511c0.753,0.542,0.469,0.986-0.631,0.986h-1.948c-1.1,0-2.616-0.444-3.369-0.986l-6.653-4.113
			c-0.753-0.542-0.469-0.986,0.631-0.986h1.948c1.1,0,2.616,0.444,3.369,0.986L101.813,27.511z M92.892,27.511
			c0.753,0.542,0.469,0.986-0.631,0.986h-1.948c-1.1,0-2.616-0.444-3.369-0.986l-6.653-4.113c-0.753-0.542-0.469-0.986,0.631-0.986
			h1.948c1.1,0,2.616,0.444,3.369,0.986L92.892,27.511z M83.971,27.511c0.753,0.542,0.469,0.986-0.631,0.986h-1.948
			c-1.1,0-2.616-0.444-3.369-0.986l-6.653-4.113c-0.753-0.542-0.469-0.986,0.631-0.986h1.948c1.1,0,2.616,0.444,3.369,0.986
			L83.971,27.511z M75.049,27.511c0.753,0.542,0.469,0.986-0.631,0.986h-1.947c-1.1,0-2.616-0.444-3.369-0.986l-6.653-4.113
			c-0.753-0.542-0.469-0.986,0.631-0.986h1.947c1.1,0,2.616,0.444,3.369,0.986L75.049,27.511z M66.128,27.511
			c0.753,0.542,0.469,0.986-0.631,0.986H63.55c-1.1,0-2.616-0.444-3.369-0.986l-6.653-4.113c-0.753-0.542-0.469-0.986,0.631-0.986
			h1.947c1.1,0,2.616,0.444,3.369,0.986L66.128,27.511z M57.207,27.511c0.753,0.542,0.469,0.986-0.631,0.986h-1.948
			c-1.1,0-2.616-0.444-3.369-0.986l-6.653-4.113c-0.753-0.542-0.469-0.986,0.631-0.986h1.948c1.1,0,2.616,0.444,3.369,0.986
			L57.207,27.511z M48.286,27.511c0.753,0.542,0.469,0.986-0.631,0.986h-1.948c-1.1,0-2.616-0.444-3.369-0.986l-6.653-4.113
			c-0.753-0.542-0.469-0.986,0.631-0.986h1.948c1.1,0,2.616,0.444,3.369,0.986L48.286,27.511z M39.364,27.511
			c0.753,0.542,0.469,0.986-0.631,0.986h-1.948c-1.1,0-2.616-0.444-3.369-0.986l-6.653-4.113c-0.753-0.542-0.469-0.986,0.631-0.986
			h1.948c1.1,0,2.616,0.444,3.369,0.986L39.364,27.511z M30.443,27.511c0.753,0.542,0.469,0.986-0.631,0.986h-1.947
			c-1.1,0-2.616-0.444-3.369-0.986l-6.653-4.113c-0.753-0.542-0.469-0.986,0.631-0.986h1.947c1.1,0,2.616,0.444,3.369,0.986
			L30.443,27.511z M21.521,27.511c0.753,0.542,0.469,0.986-0.631,0.986h-1.947c-1.1,0-2.616-0.444-3.369-0.986l-6.653-4.113
			c-0.753-0.542-0.469-0.986,0.631-0.986H11.5c1.1,0,2.616,0.444,3.369,0.986L21.521,27.511z M12.601,27.511
			c0.753,0.542,0.469,0.986-0.631,0.986h-1.948c-1.1,0-2.616-0.444-3.369-0.986L0,23.398c-0.753-0.542-0.469-0.986,0.631-0.986
			h1.948c1.1,0,2.616,0.444,3.369,0.986L12.601,27.511z"/>
	</g>
	<g class="st1">
		<circle class="st4" cx="251.636" cy="25.455" r="17.293"/>
		<g>
			<polygon class="st3" points="256.528,25.455 259.419,17.672 251.636,20.563 243.853,17.672 246.744,25.455 243.853,33.238 
				251.636,30.347 259.419,33.238 			"/>
			<g>
				<polygon class="st3" points="251.636,10.444 246.919,20.737 251.636,25.455 				"/>
				<polygon class="st3" points="251.636,40.466 256.353,30.172 251.636,25.455 				"/>
				<polygon class="st3" points="246.919,25.455 236.625,25.455 246.919,30.172 251.636,25.455 				"/>
				<polygon class="st3" points="256.353,20.737 251.636,25.455 256.353,25.455 266.647,25.455 				"/>
			</g>
			<g>
				<polygon class="st2" points="251.719,10.826 256.253,20.72 251.719,25.254 				"/>
				<polygon class="st2" points="247.018,30.19 251.553,25.656 251.553,40.083 				"/>
				<polygon class="st2" points="237.007,25.372 246.901,20.838 251.435,25.372 				"/>
				<polygon class="st2" points="251.837,25.538 266.264,25.538 256.371,30.072 				"/>
			</g>
			<path class="st3" d="M256.353,20.737l-4.717-10.293l-4.717,10.293l-10.293,4.717l10.293,4.717l4.717,10.293l4.717-10.293
				l10.293-4.717L256.353,20.737z M256.389,20.937l9.493,4.351h-9.529h-4.315L256.389,20.937z M251.803,11.208l4.351,9.493
				l-4.351,4.351V11.208z M251.469,11.208v13.844l-4.351-4.351L251.469,11.208z M246.883,20.937l4.351,4.351h-4.315h-9.529
				L246.883,20.937z M246.883,29.972l-9.493-4.351h9.529h4.315L246.883,29.972z M251.469,39.701l-4.351-9.493l4.351-4.351V39.701z
				 M251.803,39.701V25.858l4.351,4.351L251.803,39.701z M256.389,29.972l-4.351-4.351h4.315h9.529L256.389,29.972z"/>
		</g>
	</g>
</g>
<g id="Layer_3">
	<path class="st5" d="M451.887,30.998H51.437c-9.941-0.162-19.876-0.332-29.932-0.509c4.863-0.086,9.696-0.17,14.517-0.252
		c-0.821-0.118-1.808-0.159-2.589-0.082c-0.209-0.094-1.542-0.779-0.784-1.228c0.762-0.45,1.684-0.759,1.297-0.881
		c0.917,0.037,1.944,0.236,1.837,0.452c0.288-0.327,1.013-0.585,1.909-0.74c0.902-0.156,2.173-0.524,1.301-0.766
		c1.273-0.04,4.166,0.778,2.934,1.958c0.668-0.254,1.722-0.337,2.188-0.379c0,0.012,0.007,0.028,0.014,0.043
		c2.024-0.718,3.686-1.207,3.098-1.467c2.154,0.159,4.301,0.718,3.681,1.23c1.242-0.767,3.424-1.335,5.848-1.642
		c2.44-0.308,6.122-1.099,4.422-1.749c2.276,0.001,5.851,1.157,5.756,2.843c0.83-0.105,1.679-0.179,2.508-0.217
		c1.944-0.088,5.22-0.437,4.775-0.949c1.21,0.088,2.193,0.709,1.589,1.527c1.53-0.187,3.11-0.324,4.545-0.534
		c5.823-0.854,5.945-1.174,6.458-2.055c0.125-0.21,1.663-0.266,2.238-0.128c0.878,0.21,1.517,0.437,1.959,0.677
		c1.842,0.086,3.855,0.482,3.641,0.913c0.587-0.666,2.063-1.191,3.888-1.508c1.838-0.318,4.425-1.068,2.65-1.559
		c2.589-0.081,8.482,1.586,5.974,3.988c1.359-0.516,3.507-0.685,4.456-0.773c0.001,0.025,0.015,0.057,0.027,0.088
		c4.125-1.461,7.511-2.459,6.313-2.988c4.385,0.324,8.757,1.462,7.494,2.505c2.531-1.563,6.977-2.718,11.91-3.345
		c4.972-0.628,12.472-2.24,9.01-3.562c4.633,0.002,11.916,2.357,11.723,5.791c1.691-0.214,3.42-0.364,5.108-0.441
		c3.961-0.179,10.634-0.889,9.727-1.933c2.465,0.179,4.466,1.445,3.236,3.11c3.116-0.38,6.334-0.66,9.256-1.088
		c11.861-1.74,12.109-2.391,13.152-4.186c0.255-0.429,3.389-0.541,4.561-0.26c5.873,1.401,7.06,3.149,2.831,5.159
		c-2.01,0.956-4.584,1.761-7.445,2.421c1.193-0.004,2.4-0.008,3.603-0.013c0.052-0.007,0.094-0.014,0.146-0.021
		c2.111-0.272,4.322-0.453,6.315-0.745c7.453-1.093,7.611-1.503,8.265-2.63c0.16-0.269,2.13-0.34,2.866-0.163
		c3.691,0.88,4.437,1.978,1.778,3.242c-0.196,0.093-0.416,0.178-0.627,0.267c4.035-0.008,8.112-0.015,12.271-0.02
		c0.048-0.077,0.125-0.151,0.243-0.221c1.005-0.593,2.218-1,1.709-1.161c1.209,0.049,2.562,0.311,2.42,0.595
		c0.38-0.431,1.335-0.77,2.515-0.975c1.188-0.206,2.862-0.691,1.713-1.009c1.676-0.052,5.487,1.026,3.865,2.58
		c0.88-0.334,2.268-0.443,2.882-0.5c0,0.017,0.009,0.037,0.017,0.057c2.667-0.945,4.857-1.591,4.083-1.932
		c2.836,0.21,5.664,0.946,4.847,1.621c1.636-1.011,4.512-1.759,7.704-2.164c3.215-0.406,8.066-1.449,5.826-2.304
		c2.998,0.002,7.708,1.525,7.583,3.746c1.093-0.138,2.212-0.235,3.304-0.285c2.562-0.116,6.877-0.575,6.291-1.25
		c1.594,0.116,2.889,0.935,2.093,2.012c2.016-0.246,4.097-0.427,5.988-0.704c7.671-1.125,7.832-1.547,8.507-2.708
		c0.165-0.277,2.191-0.35,2.95-0.168c3.798,0.906,4.567,2.037,1.831,3.337c-1.251,0.595-2.838,1.1-4.604,1.518
		c0.792,0.003,1.572,0.006,2.358,0.009c1.322-0.166,2.695-0.282,3.939-0.465c4.821-0.707,4.923-0.972,5.346-1.701
		c0.103-0.174,1.377-0.22,1.854-0.105c2.387,0.569,2.87,1.28,1.151,2.097c-0.165,0.078-0.347,0.152-0.529,0.225
		c62.83,0.304,111.255,1.032,162.745,1.944C471.734,30.667,461.816,30.837,451.887,30.998z M88.113,29.252
		c-0.098-0.109-0.177-0.221-0.233-0.335c-0.747,0.206-1.55,0.388-2.387,0.547c0.543-0.007,1.091-0.015,1.636-0.022
		C87.406,29.375,87.733,29.311,88.113,29.252z"/>
</g>
</svg>
