<?xml version="1.0" encoding="utf-8"?>
<!-- Generator: Adobe Illustrator 27.9.0, SVG Export Plug-In . SVG Version: 6.00 Build 0)  -->
<svg version="1.1" xmlns="http://www.w3.org/2000/svg" xmlns:xlink="http://www.w3.org/1999/xlink" x="0px" y="0px"
	 viewBox="0 0 503.272 50.91" style="enable-background:new 0 0 503.272 50.91;" xml:space="preserve">
<style type="text/css">
	.st0{display:none;}
	.st1{fill:#00B1EB;}
	.st2{fill:#FFE046;}
	.st3{fill:#E6007E;}
	.st4{fill:#96368B;}
	.st5{fill:#3D88C8;}
	.st6{fill:#13A538;}
	.st7{fill:#EF825A;}
	.st8{fill:#F8AF4E;}
	.st9{fill:#FCDA21;}
	.st10{fill:#00A2A4;}
	.st11{fill:none;}
	.st12{fill-rule:evenodd;clip-rule:evenodd;fill:#FBC224;}
	.st13{fill-rule:evenodd;clip-rule:evenodd;fill:#7A5B1F;}
	.st14{fill-rule:evenodd;clip-rule:evenodd;fill:#1D1D1B;}
	.st15{fill:#FBC224;}
	.st16{fill-rule:evenodd;clip-rule:evenodd;fill:#DAAA20;}
	.st17{fill-rule:evenodd;clip-rule:evenodd;fill:#9C8451;}
	.st18{fill:#FFBC00;}
</style>
<g id="Guides" class="st0">
</g>
<g id="Layer_3">
	<g>
		<g>
			<polygon class="st1" points="171.224,24.422 173.253,30.675 179.823,30.675 174.509,34.539 176.539,40.791 171.224,36.926 
				165.91,40.791 167.941,34.539 162.627,30.675 169.195,30.675 			"/>
			<polygon class="st2" points="195.552,11.072 195.287,17.649 201.456,19.931 195.126,21.713 194.863,28.288 191.213,22.814 
				184.884,24.595 188.957,19.43 185.31,13.957 191.477,16.238 			"/>
			<polygon class="st3" points="142.155,9.686 147.244,17.55 156.289,15.136 150.388,22.41 155.479,30.275 146.742,26.906 
				140.841,34.182 141.342,24.825 132.608,21.456 141.653,19.043 			"/>
			<polygon class="st4" points="197.996,31.531 199.956,34.56 203.441,33.632 201.168,36.433 203.128,39.463 199.763,38.166 
				197.491,40.968 197.683,37.363 194.318,36.065 197.802,35.135 			"/>
			
				<rect x="131.988" y="29.555" transform="matrix(0.907 -0.4212 0.4212 0.907 -0.7811 59.5755)" class="st5" width="4.999" height="4.002"/>
			
				<rect x="163.584" y="15.079" transform="matrix(0.992 -0.1259 0.1259 0.992 -0.8287 21.0534)" class="st6" width="4.998" height="4.002"/>
			
				<rect x="174.261" y="3.826" transform="matrix(0.3344 -0.9424 0.9424 0.3344 111.3645 170.3269)" class="st7" width="4.002" height="4.999"/>
			
				<rect x="185.42" y="40.923" transform="matrix(0.3345 -0.9424 0.9424 0.3345 84.036 204.7485)" class="st8" width="3.127" height="3.906"/>
			
				<rect x="143.528" y="44.061" transform="matrix(0.9981 -0.0619 0.0619 0.9981 -2.5445 9.0897)" class="st4" width="3.905" height="3.127"/>
			<polygon class="st9" points="157.368,38.493 153.469,38.735 154.561,35.615 158.458,35.372 			"/>
			
				<rect x="208.211" y="22.759" transform="matrix(0.2832 -0.9591 0.9591 0.2832 126.6679 218.9006)" class="st10" width="3.127" height="3.906"/>
		</g>
	</g>
	<g>
		<polygon class="st1" points="331.029,24.422 333.058,30.675 339.628,30.675 334.314,34.539 336.344,40.791 331.029,36.926 
			325.715,40.791 327.746,34.539 322.432,30.675 329,30.675 		"/>
		<polygon class="st2" points="355.357,11.072 355.092,17.649 361.261,19.931 354.932,21.713 354.668,28.288 351.018,22.814 
			344.689,24.595 348.763,19.43 345.115,13.957 351.282,16.238 		"/>
		<polygon class="st3" points="301.96,9.686 307.049,17.55 316.094,15.136 310.193,22.41 315.284,30.275 306.547,26.906 
			300.646,34.182 301.147,24.825 292.413,21.456 301.458,19.043 		"/>
		<polygon class="st4" points="357.801,31.531 359.761,34.56 363.246,33.632 360.974,36.433 362.933,39.463 359.568,38.166 
			357.296,40.968 357.488,37.363 354.123,36.065 357.607,35.135 		"/>
		
			<rect x="291.793" y="29.555" transform="matrix(0.907 -0.4212 0.4212 0.907 14.0827 126.8786)" class="st5" width="4.999" height="4.002"/>
		
			<rect x="323.389" y="15.079" transform="matrix(0.992 -0.1259 0.1259 0.992 0.4438 41.1802)" class="st6" width="4.998" height="4.002"/>
		
			<rect x="334.066" y="3.826" transform="matrix(0.3344 -0.9424 0.9424 0.3344 217.7355 320.9339)" class="st7" width="4.002" height="4.999"/>
		
			<rect x="345.225" y="40.923" transform="matrix(0.3345 -0.9424 0.9424 0.3345 190.3901 355.3495)" class="st8" width="3.127" height="3.906"/>
		
			<rect x="303.333" y="44.061" transform="matrix(0.9981 -0.0619 0.0619 0.9981 -2.2382 18.9783)" class="st4" width="3.905" height="3.127"/>
		<polygon class="st9" points="317.173,38.493 313.274,38.735 314.366,35.615 318.263,35.372 		"/>
		
			<rect x="368.016" y="22.759" transform="matrix(0.2832 -0.9591 0.9591 0.2832 241.2173 372.1638)" class="st10" width="3.127" height="3.906"/>
	</g>
	<g>
		<rect x="226.674" y="-0.323" class="st11" width="49.924" height="51.557"/>
		<g>
			<g>
				<g>
					<path class="st12" d="M233.042,30.59c0.112-0.009,0.224-0.019,0.335-0.021c-0.011-0.031-0.023-0.06-0.035-0.092
						C233.244,30.52,233.144,30.56,233.042,30.59z"/>
					<path class="st12" d="M272.548,19.852c-0.856,0.321-1.832,0.482-2.797,0.489c0.057,0.179,0.09,0.366,0.14,0.548
						C270.83,20.735,272.039,20.845,272.548,19.852z"/>
					<path class="st12" d="M265.425,10.396c0.229-0.343,0.373-0.747,0.39-1.198c-0.126,0.3-0.401,0.469-0.379,0.758
						C265.431,10.1,265.43,10.246,265.425,10.396z"/>
					<path class="st12" d="M266.663,37.919c-0.132-0.158-0.256-0.322-0.371-0.49c0.01,0.039,0.01,0.083,0.024,0.116
						C266.437,37.68,266.548,37.796,266.663,37.919z"/>
					<path class="st12" d="M235.461,15.579c0.101,0.104,0.203,0.205,0.284,0.334c0.031-0.043,0.059-0.087,0.09-0.131
						C235.701,15.743,235.573,15.679,235.461,15.579z"/>
					<path class="st12" d="M260.498,40.932c-0.057-0.106-0.119-0.211-0.177-0.314c-0.127,0.062-0.254,0.121-0.382,0.182
						C260.132,40.826,260.318,40.868,260.498,40.932z"/>
					<path class="st13" d="M243.147,11.582c-0.156,0.636-1.219,1.038-2.252,1.046c0.002,0.001,0.002,0.003,0.005,0.006
						c-0.768,0.9-1.741,1.055-2.568,0.883c0.241,0.274,0.446,0.593,0.393,1.035l-0.012-0.142c0.025,0.288,0.035,0.434,0.059,0.722
						c-0.58,0.048-0.979,0.513-1.402,0.694c-0.51-0.062-1.073,0.087-1.533-0.044c-0.031,0.044-0.059,0.088-0.09,0.131
						c0.01,0.015,0.023,0.023,0.033,0.039c0.445,0.108,1.197,0.647,1.116,1.222c-0.089,0.634-0.434,1.015-0.881,1.208
						c-0.02,0.259-0.063,0.445-0.151,0.477c-0.806,0.269-1.3,0.809-1.914,1.338l0.629,0.799c0.045,0.58-1.09,0.961-0.73,1.805
						c0.352,0.83,0.719,1.934,0.212,2.289c0.018,0.591,0.259,1.16,0.109,1.764c0.011,0.145,0.018,0.217,0.018,0.217
						s-0.006-0.072-0.018-0.217c0.001,0.041,0,0.084-0.007,0.124c-0.122,1.699,0.239,3.068-0.585,3.416
						c-0.077,0.04-0.157,0.054-0.235,0.085c0.012,0.032,0.024,0.061,0.035,0.092c0.757-0.016,1.512,0.059,2.198,0.229l0.114,1.444
						c0.338,0.557,0.649,0.824,0.984,1.378l0.715,1.692c0.003,0.03,0.005,0.062,0.007,0.092c0.322,0.04,0.643,0.089,0.957,0.142
						c-0.299-0.124-0.712,0.199-0.917,0.347c0.006,0.291,0.016,0.59,0.015,0.881c0.699-0.34,1.686-0.559,2.017-0.01
						c0.181,0.299,0.277,0.684,0.297,1.07c0.21-0.055,0.431-0.058,0.664,0.023c0.793,0.266,1.126,1.069,1.09,1.899
						c0.788-0.066,1.665,0.064,2.361,0.28l1.469,0.174c0.231,0.549,0.322,1.04,0.315,1.504c0.465-0.038,0.957-0.154,1.199-0.749
						c0.201,0.256,0.343,0.523,0.455,0.791c0.412-0.186,1.726,0.153,2.484-0.443c0.023,0.059,0.037,0.119,0.056,0.181
						c0.102-0.049,0.207-0.069,0.319-0.045c0.418,0.081,0.722,0.29,0.963,0.545c0.385-0.292,1.348-0.604,1.866-0.659
						c0.508-0.053,0.864,0.203,1.105,0.629c-0.003-0.24,0.008-0.479,0.052-0.704c0.244-0.603,1.402-0.692,2.317-0.186
						c1.14-0.089,2.379-0.43,3.458-0.274c0.128-0.061,0.255-0.12,0.382-0.182c0.01-0.008,0.02-0.014,0.03-0.018
						c-0.259-0.306-0.362-0.715-0.225-1.271c0.156-0.632,1.219-1.038,2.251-1.045c-0.001-0.003-0.003-0.006-0.005-0.007
						c0.468-0.549,1.016-0.813,1.56-0.902c-0.059-0.203-0.079-0.417-0.01-0.659c-0.011-0.145,0.747,0.233,0.998-0.225
						c-0.01-0.145,0.124-0.3-0.322-0.409c0.354,0.06,0.691-0.091,0.975-0.132c-0.182-0.673-0.19-1.461,0.336-1.722
						c0.345-0.171,0.641-0.226,0.903-0.202c-0.015-0.236-0.003-0.483,0.04-0.744c-0.014-0.146-0.19-0.567,0.099-0.591
						c0.587-0.047,1.21-0.238,1.755-0.263c0.083-0.165,0.157-0.33,0.233-0.496l-1.529,0.121c0.804-0.272,1.299-0.811,1.914-1.339
						l-0.63-0.802c-0.045-0.578,1.089-0.959,0.73-1.804c-0.282-0.832-1.554-2.187-0.467-3.146c0.297-0.263,0.624-0.456,0.96-0.622
						c-0.046-0.01-0.098-0.015-0.14-0.023c-0.912-0.514-1.292-1.646-1.074-2.54c0.15-0.599,0.618-0.792,1.186-0.888
						c-0.05-0.182-0.083-0.369-0.14-0.548c-0.71,0.003-1.412-0.07-2.054-0.231l-0.114-1.443c-0.334-0.557-0.647-0.823-0.983-1.381
						l-0.656-1.545c-0.441-0.207-0.889-0.469-1.408-0.619c0,0-0.021-0.287-0.033-0.434c-0.232-0.383-0.584-0.623-0.852-0.966
						c-0.082,0.001-0.162,0.006-0.246-0.003l0.004,0.036c-0.022-0.013-0.037-0.032-0.057-0.048c-0.324-0.041-0.655-0.139-0.99-0.307
						c-0.083-0.068-0.087-0.19-0.076-0.33c-0.61-0.436-1.039-1.16-0.971-1.896c-0.663-0.005-1.352-0.128-1.92-0.303l-1.47-0.175
						c-0.231-0.545-0.325-1.036-0.316-1.504c-0.466,0.041-0.958,0.154-1.199,0.751c-0.202-0.258-0.344-0.521-0.456-0.792
						c-0.416,0.186-1.728-0.152-2.485,0.443c-0.19-0.514-0.323-1.05-0.416-1.602c-0.191-0.013-0.382-0.026-0.577-0.035
						c-0.05,0.295-0.12,0.588-0.23,0.86c-0.268,0.312-1.401,0.695-1.978,0.756c-0.508,0.055-0.864-0.201-1.104-0.629
						c0.002,0.24-0.009,0.478-0.055,0.707c-0.243,0.602-1.401,0.691-2.316,0.184c-1.329,0.106-2.798,0.556-3.985,0.154
						c-0.051,0.024-0.097,0.055-0.145,0.078C243.098,10.392,243.324,10.865,243.147,11.582z"/>
					<path class="st14" d="M245.064,14.569c-0.121,0.491-0.944,0.803-1.745,0.811c0.001,0,0.001,0.002,0.004,0.004
						c-0.596,0.697-1.35,0.818-1.992,0.686c0.188,0.212,0.346,0.457,0.304,0.803l-0.008-0.111c0.02,0.225,0.027,0.335,0.045,0.561
						c-0.449,0.037-0.759,0.396-1.086,0.537c-0.395-0.046-0.831,0.067-1.188-0.035c-0.024,0.035-0.047,0.069-0.07,0.103
						c0.007,0.013,0.017,0.02,0.025,0.03c0.345,0.084,0.928,0.501,0.864,0.947c-0.067,0.49-0.336,0.785-0.682,0.937
						c-0.015,0.2-0.05,0.345-0.118,0.368c-0.624,0.209-1.007,0.627-1.483,1.038l0.487,0.619c0.035,0.452-0.845,0.745-0.565,1.398
						c0.272,0.645,0.557,1.5,0.164,1.774c0.014,0.459,0.201,0.9,0.084,1.367c0.01,0.113,0.014,0.168,0.014,0.168
						s-0.004-0.055-0.014-0.168c0.003,0.033,0,0.066-0.004,0.096c-0.096,1.318,0.185,2.38-0.454,2.65
						c-0.06,0.031-0.122,0.042-0.182,0.066c0.009,0.023,0.019,0.046,0.026,0.07c0.588-0.013,1.172,0.045,1.704,0.178l0.088,1.119
						c0.262,0.432,0.503,0.639,0.763,1.068l0.555,1.312c0.003,0.023,0.004,0.047,0.006,0.07c0.25,0.031,0.499,0.068,0.742,0.109
						c-0.232-0.096-0.552,0.154-0.711,0.27c0.005,0.226,0.013,0.457,0.012,0.682c0.541-0.262,1.307-0.434,1.563-0.006
						c0.14,0.23,0.213,0.529,0.229,0.829c0.164-0.041,0.334-0.044,0.516,0.017c0.615,0.208,0.873,0.83,0.844,1.474
						c0.611-0.052,1.29,0.05,1.831,0.217l1.14,0.134c0.179,0.426,0.249,0.807,0.244,1.167c0.359-0.03,0.741-0.122,0.93-0.581
						c0.156,0.2,0.266,0.404,0.353,0.613c0.319-0.143,1.336,0.118,1.926-0.344c0.018,0.046,0.028,0.092,0.043,0.14
						c0.079-0.036,0.16-0.052,0.247-0.034c0.324,0.065,0.561,0.225,0.747,0.423c0.298-0.226,1.045-0.469,1.446-0.511
						c0.395-0.041,0.67,0.156,0.857,0.486c-0.002-0.186,0.006-0.369,0.04-0.546c0.189-0.465,1.087-0.537,1.796-0.142
						c0.885-0.07,1.845-0.335,2.682-0.214c0.099-0.047,0.197-0.094,0.296-0.142c0.006-0.003,0.015-0.009,0.023-0.013
						c-0.2-0.237-0.281-0.554-0.175-0.985c0.121-0.49,0.944-0.805,1.746-0.81c-0.003-0.002-0.003-0.005-0.005-0.005
						c0.364-0.426,0.787-0.632,1.209-0.699c-0.045-0.159-0.062-0.325-0.007-0.513c-0.009-0.111,0.579,0.182,0.774-0.173
						c-0.009-0.112,0.095-0.233-0.251-0.317c0.274,0.046,0.536-0.07,0.756-0.102c-0.141-0.523-0.147-1.134,0.26-1.336
						c0.268-0.133,0.497-0.174,0.701-0.156c-0.011-0.184-0.002-0.375,0.031-0.578c-0.01-0.112-0.148-0.439,0.076-0.457
						c0.455-0.037,0.938-0.186,1.359-0.203c0.065-0.127,0.123-0.256,0.182-0.386l-1.186,0.095c0.623-0.212,1.007-0.629,1.484-1.039
						l-0.488-0.621c-0.035-0.447,0.844-0.742,0.566-1.398c-0.22-0.645-1.205-1.695-0.363-2.439c0.232-0.203,0.484-0.354,0.745-0.481
						c-0.036-0.007-0.076-0.01-0.108-0.019c-0.707-0.396-1.002-1.275-0.833-1.969c0.116-0.464,0.479-0.613,0.92-0.688
						c-0.039-0.142-0.064-0.287-0.108-0.425c-0.552,0.002-1.095-0.056-1.592-0.179l-0.089-1.12
						c-0.259-0.433-0.502-0.638-0.763-1.069l-0.508-1.198c-0.342-0.162-0.69-0.364-1.092-0.479c0,0-0.017-0.225-0.025-0.336
						c-0.181-0.298-0.453-0.483-0.66-0.749c-0.064,0-0.126,0.003-0.191-0.003l0.003,0.028c-0.017-0.011-0.028-0.025-0.044-0.036
						c-0.251-0.033-0.509-0.107-0.768-0.237c-0.064-0.055-0.067-0.149-0.059-0.258c-0.474-0.337-0.806-0.899-0.753-1.47
						c-0.514-0.002-1.048-0.1-1.488-0.234l-1.14-0.136c-0.181-0.423-0.252-0.805-0.244-1.165c-0.361,0.031-0.743,0.12-0.93,0.581
						c-0.157-0.199-0.268-0.403-0.354-0.612c-0.323,0.143-1.34-0.119-1.927,0.343c-0.148-0.398-0.251-0.814-0.323-1.243
						c-0.149-0.009-0.296-0.02-0.447-0.026c-0.038,0.229-0.094,0.455-0.179,0.668c-0.208,0.242-1.087,0.538-1.532,0.585
						c-0.395,0.043-0.671-0.156-0.857-0.486c0.002,0.185-0.006,0.369-0.042,0.547c-0.188,0.467-1.087,0.537-1.796,0.142
						c-1.03,0.083-2.168,0.43-3.091,0.119c-0.038,0.019-0.073,0.044-0.11,0.061C245.026,13.645,245.201,14.012,245.064,14.569z"/>
					<path class="st12" d="M245.884,8.807c-0.083,0.025-0.164,0.054-0.248,0.08c0.332,0.365,0.702,0.695,1.155,0.949
						C246.408,9.622,246.115,9.256,245.884,8.807z"/>
					<path class="st12" d="M267.583,18.667c0.153-0.143,0.313-0.26,0.476-0.363C267.888,18.392,267.724,18.503,267.583,18.667z"/>
					<path class="st15" d="M270.185,28.007c0.029-0.159,0.069-0.315,0.094-0.477c-0.3,0.118-0.589,0.291-0.853,0.579
						C269.674,28.06,269.93,28.034,270.185,28.007z"/>
					<path class="st15" d="M232.602,26.345c0.005,0.077,0.001,0.154,0.006,0.233c0.119-0.075,0.236-0.163,0.358-0.216
						C232.843,26.348,232.724,26.348,232.602,26.345z"/>
					<path class="st12" d="M234.105,26.928C234.061,26.977,234.04,27.005,234.105,26.928L234.105,26.928z"/>
					<path class="st12" d="M235.689,32.243c-0.151,0.145-0.311,0.26-0.475,0.363C235.386,32.516,235.55,32.407,235.689,32.243z"/>
					<path class="st12" d="M257.227,41.827c0.052-0.015,0.103-0.034,0.153-0.05c-0.267-0.266-0.555-0.513-0.898-0.703
						C256.78,41.241,257.022,41.508,257.227,41.827z"/>
					<path class="st12" d="M233.848,22.8c0,0-0.052,0.062-0.086,0.105C233.778,22.883,233.796,22.861,233.848,22.8z"/>
					<path class="st12" d="M249.162,8.946c0.24,0.428,0.596,0.684,1.104,0.629c0.576-0.061,1.71-0.443,1.978-0.756
						c0.11-0.273,0.181-0.565,0.23-0.86c0.165-0.991-0.013-2.044-0.529-2.898c-0.717-1.691-0.875-3.717-1.884-5.384
						c0.115,1.446-0.325,3.229-0.814,4.433c-0.32,0.796-0.521,1.993-0.485,3.067C249.019,7.755,249.154,8.361,249.162,8.946z"/>
					<path class="st12" d="M252.757,0.628c1.114,0.052,2.123,0.513,2.992,1.185C255.367,0.983,253.879,0.251,252.757,0.628z"/>
					<path class="st12" d="M256.052,9.1c-0.021,0.026-0.061,0.039-0.099,0.053c0.112,0.271,0.254,0.534,0.456,0.792
						c0.241-0.597,0.733-0.71,1.199-0.751c0.016-0.824,0.389-1.552,1.066-2.28c-0.079-0.79-0.274-1.57-0.655-2.339
						c-0.538-1.023-1.318-2.02-2.271-2.762c0.005,0.01,0.014,0.021,0.018,0.03c0.637,1.175,0.396,2.482,0.153,3.794
						C256.366,6.772,256.393,8.091,256.052,9.1z"/>
					<path class="st15" d="M246.791,9.837c-0.453-0.254-0.823-0.584-1.155-0.949c-1.004-1.11-1.665-2.537-3.239-3.068
						c-1.182-0.201-2.141-1.287-3.299-1.194c1.54,1.04,1.699,3.068,2.707,4.733c0.299,0.317,0.637,0.512,1,0.633
						C243.993,10.392,245.462,9.942,246.791,9.837z"/>
					<path class="st12" d="M238.331,13.516c0.827,0.172,1.801,0.018,2.568-0.883c-0.003-0.003-0.003-0.005-0.005-0.006
						c-0.416,0.003-0.83-0.05-1.174-0.191c-0.722-0.456-1.061-1.248-1.247-2.115c-1.466-1.46-2.759-3.062-3.11-5.108
						c-0.374,2.649-0.387,6.146,2.088,7.984c0.145-0.011,0.277-0.167,0.423-0.177C238.003,13.18,238.175,13.341,238.331,13.516z"/>
					<path class="st16" d="M259.395,10.873c0.568,0.175,1.257,0.298,1.92,0.303c0.015-0.155,0.043-0.31,0.104-0.461
						c0.244-0.604,1.545-0.707,2.27-0.766c0.754-1.515,0.015-3.495-0.702-5.184c0.432,2.238-1.637,3.359-3.497,3.912
						C259.544,9.401,259.544,10.132,259.395,10.873z"/>
					<path class="st16" d="M233.848,22.8c-0.36-0.844,0.775-1.225,0.73-1.805l-0.629-0.799c-0.251,0.215-0.519,0.431-0.841,0.624
						c-0.844,0.36-1.782-0.438-2.648-0.37c-0.073,0.006-0.132-0.004-0.181-0.022c-1.223,0.06-2.446,0.085-3.605,0.034
						c1.098,1.477,2.801,2.236,4.583,2.434C232.143,22.854,233.042,22.865,233.848,22.8z"/>
					<path class="st16" d="M268.059,18.303c-0.162,0.104-0.322,0.221-0.476,0.363l0.114,1.443c0.642,0.161,1.344,0.234,2.054,0.231
						c0.965-0.007,1.94-0.168,2.797-0.489c0.024-0.044,0.05-0.08,0.069-0.13c0.003,0.034,0.01,0.069,0.013,0.101
						c1.959-0.762,3.25-2.378,2.223-4.937c-0.51,0.913-1.309,1.852-2.441,2.232c-0.728,0.31-1.472,0.404-2.193,0.512
						c-0.023,0.085-0.045,0.172-0.076,0.249C269.921,18.137,268.87,17.879,268.059,18.303z"/>
					<path class="st16" d="M246.791,9.837c0.915,0.507,2.073,0.418,2.316-0.184c0.046-0.229,0.057-0.467,0.055-0.707
						c-0.008-0.585-0.144-1.191-0.4-1.77c-0.599-1.35-1.804-2.523-3.275-2.77c-0.3,1.494-0.189,3.246,0.397,4.4
						C246.115,9.256,246.408,9.622,246.791,9.837z"/>
					<path class="st12" d="M239.72,12.436c0.345,0.142,0.758,0.194,1.174,0.191c1.033-0.008,2.096-0.41,2.252-1.046
						c0.178-0.717-0.049-1.189-0.485-1.513c-0.873-0.638-2.602-0.668-3.774-0.771c-0.045-0.579-0.332-0.556-0.645-0.822
						c0.047,0.597,0.101,1.239,0.231,1.845C238.659,11.188,238.998,11.98,239.72,12.436z"/>
					<path class="st16" d="M233.108,20.82c0.322-0.193,0.59-0.409,0.841-0.624c0.614-0.529,1.108-1.069,1.914-1.338
						c0.088-0.031,0.132-0.218,0.151-0.477c-0.486,0.211-1.096,0.196-1.641,0.012c-1.34-0.332-1.489-2.213-2.57-2.997
						c0.578-0.049,0.914,0.507,1.36,0.616c0.867-0.067,1.724-0.28,2.615-0.061c-0.01-0.016-0.023-0.024-0.033-0.039
						c-0.081-0.129-0.184-0.23-0.284-0.334c-0.056-0.05-0.112-0.102-0.163-0.172c0-0.002-0.002-0.003-0.003-0.006
						c-1.226-1.002-3.485-0.707-5.051-1.34c-0.16-0.134-0.448-0.108-0.471-0.399c-0.266,0.312-0.099,0.589-0.077,0.881
						c0.034,0.434,0.493,0.688,0.661,0.966c0.392,1.279,0.229,2.893,1.587,3.512c0.198,0.051,0.399,0.07,0.6,0.1
						c-0.829,0.068-1.562,0.123-2.469,0.197c0.021,0.252-0.145,0.965,0.203,1.11c0.049,0.019,0.108,0.028,0.181,0.022
						C231.325,20.383,232.264,21.18,233.108,20.82z"/>
					<path class="st15" d="M255.953,9.153c0.038-0.014,0.078-0.026,0.099-0.053c0.341-1.01,0.314-2.328-0.132-3.463
						c-0.477-1.219-1.434-2.227-2.956-2.406c-0.095,1.516-0.177,3.191,0.088,4.763c0.093,0.553,0.226,1.089,0.416,1.602
						C254.226,9.001,255.537,9.339,255.953,9.153z"/>
					<path class="st12" d="M259.201,4.777c-0.022,0.367-0.013,0.73,0.01,1.093C259.311,5.507,259.388,5.087,259.201,4.777z"/>
					<path class="st12" d="M257.609,9.194c-0.009,0.468,0.085,0.959,0.316,1.504l1.47,0.175c0.149-0.741,0.149-1.472,0.095-2.196
						c-0.071-0.937-0.225-1.867-0.278-2.807c-0.081,0.286-0.172,0.535-0.163,0.664c-0.135,0.128-0.256,0.254-0.373,0.38
						C257.997,7.642,257.624,8.37,257.609,9.194z"/>
					<path class="st12" d="M267.798,15.881c-0.714,0.304-1.282,0.131-1.854-0.14l0.656,1.545c0.337,0.558,0.649,0.824,0.983,1.381
						c0.141-0.164,0.305-0.274,0.476-0.363c0.811-0.425,1.862-0.166,2.083-0.425c0.031-0.077,0.053-0.164,0.076-0.249
						c0.375-1.215,0.168-3.047-1-4.043c0.18,0.796-0.144,1.121-0.666,1.254c-0.029,0.087-0.053,0.175-0.086,0.26
						C268.341,15.404,268.077,15.715,267.798,15.881z"/>
					<path class="st12" d="M254.113,41.964c-0.241-0.426-0.598-0.682-1.105-0.629c-0.519,0.055-1.481,0.367-1.866,0.659
						c0.796,0.837,0.704,2.393,0.02,3.483c0.058,0.125,0.097,0.258,0.169,0.375c0.716,1.688,0.877,3.715,1.881,5.381
						c-0.112-1.447,0.326-3.228,0.813-4.434c0.322-0.797,0.522-1.992,0.487-3.062C254.255,43.157,254.119,42.55,254.113,41.964z"/>
					<path class="st15" d="M250.515,50.282c-1.112-0.05-2.12-0.51-2.988-1.187C247.907,49.928,249.395,50.662,250.515,50.282z"/>
					<path class="st12" d="M247.222,41.809c0.021-0.025,0.062-0.036,0.097-0.053c-0.112-0.268-0.254-0.535-0.455-0.791
						c-0.242,0.595-0.734,0.711-1.199,0.749c-0.015,0.825-0.39,1.554-1.066,2.283c0.08,0.788,0.274,1.569,0.654,2.333
						c0.539,1.028,1.319,2.025,2.274,2.765c-0.005-0.008-0.016-0.018-0.018-0.028c-0.639-1.175-0.397-2.484-0.157-3.795
						C246.907,44.139,246.882,42.821,247.222,41.809z"/>
					<path class="st16" d="M262.436,45.745c0.564,0.305,1.125,0.59,1.737,0.539c-1.537-1.039-1.699-3.064-2.705-4.732
						c-0.289-0.309-0.618-0.496-0.97-0.619c-0.181-0.064-0.366-0.106-0.559-0.133c-1.079-0.155-2.318,0.186-3.458,0.274
						c0.344,0.191,0.632,0.438,0.898,0.703c0.946,0.927,1.557,2.159,2.668,2.898c0.25,0.165,0.518,0.313,0.827,0.42
						C261.429,45.186,261.935,45.474,262.436,45.745z"/>
					<path class="st12" d="M265.598,39.494c-0.409-0.778-1.434-1.327-1.665-2.119c-0.544,0.089-1.092,0.354-1.56,0.902
						c0.002,0.001,0.004,0.004,0.005,0.007c0.416-0.006,0.83,0.051,1.174,0.19c0.721,0.457,1.061,1.247,1.246,2.113
						c1.467,1.464,2.762,3.065,3.112,5.11c0.239-1.7,0.321-3.744-0.298-5.479C266.828,40.344,266.046,40.124,265.598,39.494z"/>
					<path class="st15" d="M243.88,40.037c-0.696-0.216-1.573-0.347-2.361-0.28c-0.012,0.266-0.062,0.535-0.147,0.788
						c-0.257,0.9-1.131,1.349-2.096,1.624c-0.077,1.276,0.475,2.707,1.011,3.977c-0.429-2.235,1.636-3.359,3.499-3.912
						C243.732,41.508,243.73,40.778,243.88,40.037z"/>
					<path class="st12" d="M268.695,29.913l0.63,0.802c0.25-0.218,0.517-0.431,0.841-0.626c0.846-0.359,1.781,0.44,2.648,0.371
						c0.075-0.004,0.134,0.004,0.185,0.023c1.219-0.06,2.442-0.084,3.6-0.033c-1.471-1.985-4.028-2.689-6.413-2.443
						c-0.255,0.027-0.511,0.054-0.76,0.103C269.783,28.954,268.65,29.335,268.695,29.913z"/>
					<path class="st12" d="M235.214,32.606c0.163-0.104,0.323-0.219,0.475-0.363l-0.114-1.444c-0.686-0.171-1.441-0.245-2.198-0.229
						c-0.111,0.002-0.223,0.012-0.335,0.021c-0.365,0.107-0.734,0.15-1.11,0.13c-2.615,0.496-4.753,2.217-3.513,5.305
						c0.511-0.914,1.31-1.851,2.441-2.232c0.729-0.307,1.472-0.402,2.191-0.511c0.029-0.085,0.049-0.174,0.08-0.252
						C233.352,32.772,234.403,33.032,235.214,32.606z"/>
					<path class="st12" d="M256.482,41.074c-0.915-0.507-2.073-0.417-2.317,0.186c-0.044,0.226-0.055,0.464-0.052,0.704
						c0.007,0.586,0.143,1.193,0.398,1.773c0.6,1.35,1.804,2.52,3.274,2.766c0.325-1.617,0.174-3.543-0.559-4.676
						C257.022,41.508,256.78,41.241,256.482,41.074z"/>
					<path class="st15" d="M263.552,38.474c-0.344-0.14-0.758-0.196-1.174-0.19c-1.032,0.007-2.095,0.413-2.251,1.045
						c-0.138,0.557-0.034,0.966,0.225,1.271c0.731,0.876,2.73,0.898,4.032,1.01c0.045,0.58,0.336,0.557,0.647,0.824
						c-0.048-0.597-0.104-1.241-0.233-1.847C264.613,39.721,264.273,38.931,263.552,38.474z"/>
					<path class="st12" d="M270.165,30.089c-0.324,0.195-0.591,0.408-0.841,0.626c-0.615,0.528-1.11,1.066-1.914,1.339l1.529-0.121
						l1.074-0.085c1.155-0.092,2.024-0.161,3.183-0.252c-0.02-0.252,0.145-0.968-0.198-1.112c-0.051-0.02-0.109-0.027-0.185-0.023
						C271.946,30.529,271.011,29.729,270.165,30.089z"/>
					<path class="st12" d="M249.526,44.263c-0.333-0.553-0.402-1.424-0.157-2.024c-0.02-0.215,0.192-0.605,0.49-0.745
						c-0.02-0.062-0.033-0.122-0.056-0.181c-0.758,0.597-2.072,0.258-2.484,0.443c-0.034,0.017-0.075,0.027-0.097,0.053
						c-0.34,1.012-0.314,2.33,0.13,3.463c0.477,1.219,1.436,2.226,2.957,2.407c0.051-0.818,0.096-1.685,0.088-2.558
						C250.081,44.764,249.683,44.522,249.526,44.263z"/>
					<path class="st12" d="M244.072,46.136c0.023-0.367,0.013-0.732-0.007-1.099C243.963,45.401,243.883,45.823,244.072,46.136z"/>
					<path class="st12" d="M245.664,41.715c0.007-0.464-0.084-0.955-0.315-1.504l-1.469-0.174c-0.15,0.741-0.148,1.471-0.094,2.196
						c0.067,0.938,0.221,1.867,0.278,2.804c0.076-0.282,0.168-0.534,0.158-0.658c0.137-0.128,0.256-0.257,0.375-0.381
						C245.275,43.268,245.65,42.54,245.664,41.715z"/>
					<path class="st12" d="M235.014,35.663c0.613-0.368,1.491-0.363,2.382-0.258c-0.003-0.03-0.004-0.062-0.007-0.092l-0.715-1.692
						c-0.335-0.554-0.646-0.821-0.984-1.378c-0.139,0.164-0.303,0.273-0.475,0.363c-0.812,0.426-1.862,0.166-2.082,0.423
						c-0.031,0.078-0.051,0.167-0.08,0.252c-0.374,1.217-0.166,3.046,1.003,4.045c-0.164-0.729,0.091-1.065,0.531-1.216
						C234.697,35.94,234.829,35.788,235.014,35.663z"/>
					<path class="st12" d="M234.169,26.852c0.149-0.604-0.092-1.173-0.109-1.764c-0.012,0.007-0.015,0.021-0.028,0.025
						c-1.226,0.607-2.37-0.574-3.622-0.996c-0.986,0.107-1.936,0.31-2.812,0.637c-0.557,0.334,0.427,1.713,1.318,1.933
						c1.082,0.179,2.351-0.38,3.686-0.343c0.122,0.004,0.242,0.004,0.364,0.018C233.254,26.342,233.859,26.585,234.169,26.852z"/>
					<path class="st12" d="M234.169,26.852c0.011,0.145,0.018,0.217,0.018,0.217"/>
					<path class="st12" d="M233.042,30.59c0.102-0.029,0.202-0.069,0.3-0.112c0.078-0.031,0.158-0.045,0.235-0.085
						c0.824-0.348,0.463-1.717,0.585-3.416c0.007-0.04,0.008-0.083,0.007-0.124c-0.311-0.268-0.915-0.511-1.203-0.49
						c-0.123,0.053-0.239,0.141-0.358,0.216c-0.707,0.438-1.358,1.213-1.796,1.996c-0.822,0.649-2.268,0.763-3.425,0.854
						c1.504,0.301,3.058,1.207,4.545,1.291C232.308,30.74,232.677,30.697,233.042,30.59z M234.105,26.928
						C234.04,27.005,234.061,26.977,234.105,26.928L234.105,26.928z"/>
					<path class="st12" d="M234.032,25.114c0.013-0.005,0.016-0.019,0.028-0.025c0.507-0.355,0.14-1.459-0.212-2.289
						c-0.052,0.062-0.07,0.083-0.086,0.105c0.035-0.043,0.086-0.105,0.086-0.105c-0.806,0.065-1.705,0.055-2.591,0.096
						c-0.709,0.032-1.407,0.095-2.04,0.275c-0.266,0.312,0.361,0.842,0.648,0.819c0.183,0.022,0.365,0.066,0.545,0.128
						C231.662,24.54,232.806,25.721,234.032,25.114z"/>
					<path class="st12" d="M272.548,19.852c-0.509,0.992-1.718,0.883-2.657,1.037c-0.568,0.096-1.036,0.289-1.186,0.888
						c-0.218,0.895,0.162,2.026,1.074,2.54c0.042,0.009,0.094,0.014,0.14,0.023c0.863-0.428,1.823-0.584,2.792-0.644
						c0.663-0.929,0.053-2.495-0.08-3.874c-0.003-0.031-0.01-0.066-0.013-0.101C272.598,19.772,272.572,19.808,272.548,19.852z"/>
					<path class="st16" d="M269.918,24.341c-0.336,0.166-0.663,0.359-0.96,0.622c-1.087,0.96,0.184,2.314,0.467,3.146
						c0.265-0.288,0.554-0.461,0.853-0.579c0.988-0.379,2.128-0.065,3.202-0.599c1.11-0.671,1.574-2.163,1.772-3.343
						c-0.797,0.062-1.67,0.053-2.543,0.108C271.741,23.757,270.781,23.913,269.918,24.341z"/>
					<path class="st12" d="M235.461,15.579c0.112,0.101,0.24,0.164,0.374,0.203c0.46,0.131,1.023-0.018,1.533,0.044
						c0.423-0.182,0.822-0.646,1.402-0.694c-0.024-0.288-0.033-0.434-0.059-0.722l0.012,0.142c0.054-0.442-0.151-0.761-0.393-1.035
						c-0.156-0.176-0.328-0.336-0.456-0.496c-0.146,0.01-0.278,0.166-0.423,0.177c-0.3-0.119-0.468-0.398-0.757-0.376
						c-0.725,0.059-1.437,0.258-2.026,0.162c-0.747-0.232-1.261-1.21-2.007-1.443c-0.299-0.121-0.112,0.447-0.099,0.591
						c0.959,1.085,1.905,2.028,2.732,3.271c0.001,0.003,0.003,0.004,0.003,0.006C235.349,15.477,235.405,15.529,235.461,15.579z"/>
					<path class="st12" d="M236.895,17.174c0.081-0.574-0.671-1.113-1.116-1.222c-0.891-0.22-1.748-0.007-2.615,0.061
						c-0.446-0.109-0.782-0.665-1.36-0.616c1.081,0.784,1.23,2.665,2.57,2.997c0.545,0.185,1.154,0.199,1.641-0.012
						C236.461,18.188,236.806,17.807,236.895,17.174z"/>
					<path class="st16" d="M264.502,14.688c0.012,0.146,0.033,0.434,0.033,0.434c0.52,0.15,0.967,0.412,1.408,0.619
						c0.572,0.271,1.141,0.443,1.854,0.14c0.279-0.166,0.543-0.477,0.668-0.78c0.033-0.085,0.057-0.173,0.086-0.26
						c0.604-1.723,0.341-3.502,0.2-5.293c0.03,1.822-1.243,3.021-2.832,3.614c-0.02,0.134-0.02,0.263-0.051,0.399
						C265.779,14.295,264.903,14.219,264.502,14.688z"/>
					<path class="st12" d="M264.554,13.518c-0.295,0.147-0.597,0.201-0.903,0.204c0.268,0.343,0.619,0.583,0.852,0.966
						c0.4-0.469,1.276-0.394,1.367-1.128c0.03-0.136,0.031-0.265,0.051-0.399c0.2-1.339-0.002-2.647-0.105-3.964
						c-0.017,0.451-0.16,0.855-0.39,1.198C265.406,11.582,265.405,12.803,264.554,13.518z"/>
					<path class="st12" d="M263.408,13.756l-0.004-0.036c-0.017-0.002-0.035-0.009-0.053-0.012
						C263.371,13.723,263.386,13.743,263.408,13.756z"/>
					<path class="st12" d="M261.419,10.715c-0.062,0.151-0.09,0.306-0.104,0.461c-0.068,0.735,0.36,1.46,0.971,1.896
						c-0.011,0.141-0.007,0.262,0.076,0.33c0.335,0.168,0.666,0.266,0.99,0.307c0.018,0.003,0.036,0.01,0.053,0.012
						c0.084,0.009,0.164,0.004,0.246,0.003c0.307-0.003,0.608-0.057,0.903-0.204c0.851-0.715,0.852-1.937,0.871-3.122
						c0.005-0.15,0.006-0.296,0.011-0.44c-0.023-0.289,0.253-0.458,0.379-0.758c-0.015-0.147-0.185-0.421-0.193-0.566
						c0.22-0.891,0.731-1.806,1.563-2.309c-0.41,0.324-1.146,0.237-1.556,0.56c-0.943,0.948-0.663,2.673-1.94,3.066
						C262.964,10.008,261.663,10.11,261.419,10.715z"/>
					<path class="st12" d="M266.853,33.282c0.12-0.302,0.423-0.434,0.699-0.348c0.746,0.231,1.881-0.148,2.095,0.706
						c0.12,0.579,0.272,1.119,0.407,1.659c0.875,0.352,1.81,0.418,2.779-0.018c0.568-0.191,0.81-0.795,0.755-1.518
						c-1.292,0.251-2.762,0.075-3.868-1.002c-0.264-0.283-0.619-0.352-1.014-0.334c-0.545,0.024-1.168,0.216-1.755,0.263
						C266.662,32.715,266.839,33.136,266.853,33.282z"/>
					<path class="st12" d="M266.813,34.026c-0.263-0.023-0.559,0.031-0.903,0.202c-0.525,0.261-0.517,1.049-0.336,1.722
						c0.189-0.024,0.353-0.005,0.483,0.16c0.297,0.375,0.132,0.906,0.235,1.318c0.115,0.168,0.239,0.332,0.371,0.49
						c0.123,0.129,0.251,0.268,0.366,0.394c1.125,1.103,2.699,1.743,4.236,1.022c-1.148,0.238-1.819-0.875-2.177-1.719
						c-0.212-0.465-0.399-1.049-0.61-1.61c-0.084-0.023-0.17-0.041-0.25-0.065C267.287,35.557,266.863,34.87,266.813,34.026z"/>
					<path class="st16" d="M266.317,37.545c-0.015-0.033-0.015-0.077-0.024-0.116c-0.104-0.412,0.062-0.943-0.235-1.318
						c-0.13-0.165-0.294-0.185-0.483-0.16c-0.283,0.041-0.62,0.191-0.975,0.132c0.446,0.109,0.312,0.265,0.322,0.409
						c-0.251,0.458-1.009,0.08-0.998,0.225c-0.069,0.242-0.049,0.456,0.01,0.659c0.231,0.792,1.256,1.341,1.665,2.119
						c0.448,0.63,1.23,0.85,2.015,0.725c0.075-0.014,0.15-0.011,0.225-0.028c-0.181-0.423-0.201-0.714-0.238-1.146
						c-0.162-0.271-0.357-0.503-0.569-0.733c-0.115-0.126-0.243-0.265-0.366-0.394C266.548,37.796,266.437,37.68,266.317,37.545z"/>
					<path class="st12" d="M267.552,32.934c-0.276-0.086-0.579,0.046-0.699,0.348c-0.043,0.261-0.055,0.508-0.04,0.744
						c0.05,0.844,0.475,1.531,1.416,1.914c0.08,0.024,0.166,0.043,0.25,0.065c0.684,0.185,1.428,0.313,1.867,0.927
						c-0.048-0.571-0.16-1.103-0.292-1.633c-0.136-0.54-0.287-1.08-0.407-1.659C269.433,32.786,268.298,33.166,267.552,32.934z"/>
					<path class="st16" d="M251.141,41.994c-0.241-0.255-0.545-0.464-0.963-0.545c-0.112-0.024-0.217-0.004-0.319,0.045
						c-0.298,0.14-0.51,0.53-0.49,0.745c-0.245,0.601-0.176,1.472,0.157,2.024c0.157,0.259,0.556,0.501,0.871,0.858
						c0.024,0.031,0.055,0.057,0.079,0.087c0.022,0.29,0.335,0.556,0.214,0.855c0.18-0.169,0.337-0.37,0.471-0.587
						C251.845,44.387,251.937,42.831,251.141,41.994z"/>
					<path class="st16" d="M237.432,36.782c0.004-0.005,0.013-0.005,0.018-0.008c0.001-0.291-0.008-0.59-0.015-0.881
						c0.205-0.147,0.618-0.471,0.917-0.347c-0.314-0.053-0.635-0.102-0.957-0.142c-0.891-0.105-1.769-0.11-2.382,0.258
						c-0.185,0.125-0.316,0.277-0.428,0.447c-0.633,0.954-0.281,2.508-1.454,3.344c-0.278,0.166-0.749-0.23-1.003,0.226
						c1.302-0.104,2.762-0.075,4.04-0.469c0.329-0.128,0.568-0.306,0.751-0.52C236.542,37.995,236.637,36.981,237.432,36.782z"/>
					<path class="st12" d="M238.518,39.463c0.06-0.674,0.564-1.454,1.247-1.628c-0.021-0.386-0.117-0.771-0.297-1.07
						c-0.331-0.55-1.318-0.33-2.017,0.01c-0.005,0.003-0.014,0.003-0.018,0.008c-0.795,0.199-0.89,1.213-0.511,1.909
						c0.03,0.055,0.056,0.112,0.093,0.161c0.182,0.425,0.226,1,0.26,1.438c0.013,0.143-0.41,0.324-0.399,0.47
						c-0.051,1.168-1.117,2.416-2.275,2.507c0.735,0.09,1.281-0.392,1.824-0.87c0.612-0.63,1.365-1.224,2.015-1.894
						C238.425,40.149,238.436,39.798,238.518,39.463z"/>
					<path class="st12" d="M238.518,42.346c-0.069,0.015-0.136,0.029-0.202,0.041C238.392,42.384,238.464,42.374,238.518,42.346z"/>
					<path class="st16" d="M241.371,40.545c0.086-0.253,0.136-0.522,0.147-0.788c0.036-0.829-0.297-1.633-1.09-1.899
						c-0.233-0.081-0.454-0.078-0.664-0.023c-0.683,0.174-1.188,0.954-1.247,1.628c-0.082,0.335-0.093,0.687-0.08,1.04
						c0.019,0.586,0.112,1.177,0.157,1.721c0.004,0.067-0.029,0.1-0.077,0.123c0.254-0.051,0.509-0.109,0.758-0.178
						C240.24,41.893,241.114,41.445,241.371,40.545z"/>
				</g>
			</g>
			<circle class="st17" cx="249.675" cy="17.368" r="0.5"/>
			<circle class="st17" cx="247.175" cy="18.118" r="0.5"/>
			<circle class="st17" cx="248.925" cy="20.368" r="0.5"/>
			<circle class="st17" cx="246.175" cy="20.368" r="0.5"/>
			<circle class="st17" cx="244.425" cy="21.618" r="0.5"/>
			<path class="st17" d="M243.925,19.868c0,0.276-0.223,0.5-0.5,0.5c-0.275,0-0.5-0.224-0.5-0.5c0-0.276,0.225-0.5,0.5-0.5
				C243.702,19.368,243.925,19.592,243.925,19.868z"/>
			<path class="st17" d="M242.425,23.118c0,0.275-0.223,0.5-0.5,0.5c-0.275,0-0.5-0.225-0.5-0.5c0-0.277,0.225-0.5,0.5-0.5
				C242.202,22.618,242.425,22.841,242.425,23.118z"/>
			<path class="st17" d="M242.925,24.868c0,0.276-0.222,0.5-0.5,0.5c-0.275,0-0.5-0.224-0.5-0.5c0-0.276,0.225-0.5,0.5-0.5
				C242.702,24.368,242.925,24.592,242.925,24.868z"/>
			<path class="st17" d="M243.925,23.118c0,0.275-0.223,0.5-0.5,0.5c-0.275,0-0.5-0.225-0.5-0.5c0-0.277,0.225-0.5,0.5-0.5
				C243.702,22.618,243.925,22.841,243.925,23.118z"/>
			<circle class="st17" cx="245.925" cy="22.368" r="0.5"/>
			<circle class="st17" cx="251.925" cy="21.618" r="0.5"/>
			<circle class="st17" cx="252.425" cy="17.618" r="0.5"/>
			<circle class="st17" cx="257.675" cy="16.618" r="0.5"/>
			<circle class="st17" cx="255.175" cy="17.118" r="0.5"/>
			<path class="st17" d="M254.675,15.118c0,0.275-0.223,0.5-0.5,0.5c-0.275,0-0.5-0.225-0.5-0.5c0-0.277,0.225-0.5,0.5-0.5
				C254.452,14.618,254.675,14.841,254.675,15.118z"/>
			<path class="st17" d="M252.175,15.118c0,0.275-0.223,0.5-0.5,0.5c-0.275,0-0.5-0.225-0.5-0.5c0-0.277,0.225-0.5,0.5-0.5
				C251.952,14.618,252.175,14.841,252.175,15.118z"/>
			<circle class="st17" cx="248.675" cy="14.618" r="0.5"/>
			<circle class="st17" cx="246.675" cy="16.368" r="0.5"/>
			<circle class="st17" cx="251.675" cy="19.368" r="0.5"/>
			<circle class="st17" cx="253.675" cy="19.118" r="0.5"/>
			<circle class="st17" cx="255.925" cy="18.868" r="0.5"/>
			<circle class="st17" cx="259.175" cy="19.118" r="0.5"/>
			<circle class="st17" cx="257.675" cy="16.618" r="0.5"/>
			<circle class="st17" cx="244.175" cy="28.868" r="0.5"/>
			<circle class="st17" cx="244.925" cy="31.368" r="0.5"/>
			<circle class="st17" cx="247.175" cy="29.618" r="0.5"/>
			<circle class="st17" cx="247.175" cy="32.368" r="0.5"/>
			<circle class="st17" cx="248.425" cy="34.118" r="0.5"/>
			<path class="st17" d="M246.675,34.618c0.277,0,0.5,0.223,0.5,0.5c0,0.275-0.223,0.5-0.5,0.5c-0.275,0-0.5-0.225-0.5-0.5
				C246.175,34.841,246.4,34.618,246.675,34.618z"/>
			<circle class="st17" cx="249.925" cy="36.618" r="0.5"/>
			<circle class="st17" cx="251.675" cy="36.118" r="0.5"/>
			<path class="st17" d="M249.925,34.618c0.277,0,0.5,0.223,0.5,0.5c0,0.275-0.223,0.5-0.5,0.5c-0.275,0-0.5-0.225-0.5-0.5
				C249.425,34.841,249.65,34.618,249.925,34.618z"/>
			<circle class="st17" cx="249.175" cy="32.618" r="0.5"/>
			<circle class="st17" cx="248.425" cy="26.618" r="0.5"/>
			<circle class="st17" cx="244.425" cy="26.118" r="0.5"/>
			<path class="st17" d="M243.425,20.368c0.277,0,0.5,0.224,0.5,0.5c0,0.276-0.223,0.5-0.5,0.5c-0.275,0-0.5-0.224-0.5-0.5
				C242.925,20.592,243.15,20.368,243.425,20.368z"/>
			<circle class="st17" cx="243.925" cy="23.368" r="0.5"/>
			<path class="st17" d="M241.925,23.868c0.277,0,0.5,0.224,0.5,0.5c0,0.276-0.223,0.5-0.5,0.5c-0.275,0-0.5-0.224-0.5-0.5
				C241.425,24.092,241.65,23.868,241.925,23.868z"/>
			<path class="st17" d="M241.925,26.368c0.277,0,0.5,0.224,0.5,0.5c0,0.276-0.223,0.5-0.5,0.5c-0.275,0-0.5-0.224-0.5-0.5
				C241.425,26.592,241.65,26.368,241.925,26.368z"/>
			<path class="st17" d="M241.425,29.368c0.277,0,0.5,0.224,0.5,0.5c0,0.276-0.223,0.5-0.5,0.5c-0.275,0-0.5-0.224-0.5-0.5
				C240.925,29.592,241.15,29.368,241.425,29.368z"/>
			<circle class="st17" cx="243.175" cy="31.868" r="0.5"/>
			<circle class="st17" cx="246.175" cy="26.868" r="0.5"/>
			<circle class="st17" cx="245.925" cy="24.868" r="0.5"/>
			<circle class="st17" cx="245.675" cy="22.618" r="0.5"/>
			<circle class="st17" cx="245.925" cy="19.368" r="0.5"/>
			<path class="st17" d="M243.425,20.368c0.277,0,0.5,0.224,0.5,0.5c0,0.276-0.223,0.5-0.5,0.5c-0.275,0-0.5-0.224-0.5-0.5
				C242.925,20.592,243.15,20.368,243.425,20.368z"/>
			<path class="st17" d="M256.493,31.342c-0.143-0.237-0.066-0.544,0.171-0.685c0.237-0.145,0.544-0.066,0.687,0.17
				c0.143,0.237,0.065,0.543-0.171,0.686C256.943,31.655,256.636,31.579,256.493,31.342z"/>
			<path class="st17" d="M258.251,29.411c-0.143-0.235-0.065-0.543,0.17-0.686c0.238-0.143,0.545-0.063,0.688,0.172
				c0.142,0.238,0.065,0.545-0.172,0.686C258.7,29.725,258.393,29.649,258.251,29.411z"/>
			<path class="st17" d="M255.591,28.384c-0.141-0.238-0.063-0.544,0.173-0.687c0.236-0.142,0.544-0.065,0.686,0.173
				c0.142,0.234,0.066,0.543-0.171,0.685C256.041,28.697,255.735,28.62,255.591,28.384z"/>
			<path class="st17" d="M257.95,26.968c-0.143-0.235-0.066-0.543,0.171-0.686c0.237-0.142,0.544-0.066,0.687,0.172
				c0.142,0.236,0.065,0.544-0.172,0.686C258.4,27.282,258.091,27.205,257.95,26.968z"/>
			<path class="st17" d="M258.808,24.995c-0.143-0.235-0.066-0.543,0.171-0.686s0.544-0.066,0.687,0.172
				c0.142,0.236,0.065,0.545-0.172,0.686C259.255,25.309,258.949,25.232,258.808,24.995z"/>
			<path class="st17" d="M260.566,25.981c-0.143-0.236-0.065-0.543,0.171-0.686c0.237-0.143,0.544-0.066,0.687,0.172
				c0.142,0.236,0.065,0.544-0.171,0.686C261.014,26.296,260.707,26.22,260.566,25.981z"/>
			<path class="st17" d="M260.179,22.423c-0.142-0.236-0.065-0.543,0.172-0.686c0.236-0.143,0.544-0.065,0.686,0.171
				c0.143,0.237,0.065,0.544-0.171,0.687C260.628,22.737,260.322,22.662,260.179,22.423z"/>
			<path class="st17" d="M258.85,21.179c-0.143-0.236-0.066-0.544,0.172-0.686c0.235-0.142,0.543-0.065,0.686,0.171
				s0.065,0.544-0.172,0.688C259.298,21.494,258.992,21.417,258.85,21.179z"/>
			<path class="st17" d="M258.893,23.194c-0.143-0.236-0.065-0.543,0.172-0.686c0.235-0.143,0.543-0.065,0.686,0.171
				c0.143,0.237,0.065,0.545-0.171,0.687C259.341,23.509,259.035,23.431,258.893,23.194z"/>
			<path class="st17" d="M257.134,25.124c-0.141-0.236-0.063-0.543,0.173-0.686c0.236-0.142,0.544-0.066,0.686,0.172
				c0.142,0.237,0.066,0.543-0.171,0.686S257.278,25.361,257.134,25.124z"/>
			<path class="st17" d="M252.377,28.855c-0.143-0.237-0.065-0.543,0.171-0.685c0.237-0.145,0.543-0.066,0.687,0.17
				c0.142,0.237,0.065,0.543-0.172,0.686C252.826,29.171,252.519,29.093,252.377,28.855z"/>
			<path class="st17" d="M254.007,32.543c-0.143-0.237-0.065-0.544,0.17-0.687c0.238-0.142,0.545-0.065,0.688,0.172
				c0.141,0.235,0.065,0.544-0.172,0.687C254.456,32.856,254.149,32.778,254.007,32.543z"/>
			<path class="st17" d="M250.021,36.102c-0.143-0.237-0.066-0.545,0.171-0.688c0.237-0.141,0.543-0.064,0.686,0.173
				c0.143,0.235,0.066,0.544-0.171,0.686C250.468,36.415,250.162,36.339,250.021,36.102z"/>
			<path class="st17" d="M251.906,34.387c-0.143-0.235-0.065-0.543,0.171-0.685c0.237-0.145,0.544-0.066,0.687,0.17
				c0.143,0.238,0.065,0.543-0.173,0.686C252.356,34.7,252.048,34.624,251.906,34.387z"/>
			<path class="st17" d="M253.793,35.587c-0.143-0.238-0.065-0.544,0.171-0.686c0.237-0.142,0.543-0.066,0.687,0.172
				c0.143,0.236,0.065,0.543-0.172,0.687C254.242,35.901,253.936,35.823,253.793,35.587z"/>
			<path class="st17" d="M255.937,34.3c-0.143-0.236-0.065-0.543,0.171-0.686c0.237-0.143,0.544-0.066,0.687,0.172
				c0.142,0.236,0.065,0.544-0.172,0.686C256.386,34.614,256.078,34.537,255.937,34.3z"/>
			<path class="st17" d="M258.766,33.184c-0.143-0.236-0.065-0.543,0.172-0.686c0.236-0.141,0.543-0.066,0.686,0.172
				c0.143,0.236,0.065,0.544-0.171,0.686C259.214,33.499,258.908,33.422,258.766,33.184z"/>
			<path class="st17" d="M259.58,30.655c-0.143-0.236-0.065-0.545,0.172-0.686c0.236-0.143,0.543-0.064,0.686,0.171
				c0.143,0.238,0.065,0.544-0.172,0.687C260.03,30.968,259.723,30.892,259.58,30.655z"/>
			<path class="st17" d="M253.749,30.657c-0.143-0.237-0.065-0.544,0.171-0.687c0.237-0.144,0.544-0.065,0.687,0.171
				c0.142,0.237,0.064,0.543-0.171,0.686C254.198,30.97,253.891,30.893,253.749,30.657z"/>
			<path class="st17" d="M252.163,31.901c-0.143-0.239-0.065-0.545,0.171-0.688c0.237-0.141,0.544-0.065,0.687,0.172
				c0.142,0.236,0.065,0.543-0.172,0.686C252.613,32.214,252.305,32.136,252.163,31.901z"/>
			<path class="st17" d="M250.363,33.272c-0.143-0.236-0.066-0.544,0.171-0.686c0.238-0.142,0.544-0.066,0.687,0.171
				c0.142,0.237,0.065,0.544-0.172,0.688C250.812,33.587,250.504,33.51,250.363,33.272z"/>
			<path class="st17" d="M247.447,34.729c-0.143-0.235-0.065-0.543,0.172-0.685c0.236-0.144,0.543-0.064,0.686,0.171
				c0.143,0.237,0.065,0.544-0.171,0.686C247.897,35.044,247.589,34.968,247.447,34.729z"/>
			<path class="st17" d="M250.021,36.102c-0.143-0.237-0.066-0.545,0.171-0.688c0.237-0.141,0.543-0.064,0.686,0.173
				c0.143,0.235,0.066,0.544-0.171,0.686C250.468,36.415,250.162,36.339,250.021,36.102z"/>
		</g>
	</g>
	<rect x="0" y="23.955" class="st18" width="110.835" height="3"/>
	<rect x="392.437" y="23.955" class="st18" width="110.835" height="3"/>
</g>
</svg>
