<?xml version="1.0" encoding="utf-8"?>
<!-- Generator: Adobe Illustrator 27.9.0, SVG Export Plug-In . SVG Version: 6.00 Build 0)  -->
<svg version="1.1" xmlns="http://www.w3.org/2000/svg" xmlns:xlink="http://www.w3.org/1999/xlink" x="0px" y="0px"
	 viewBox="0 0 503.272 50.91" style="enable-background:new 0 0 503.272 50.91;" xml:space="preserve">
<style type="text/css">
	.st0{fill-rule:evenodd;clip-rule:evenodd;fill:#2FC229;}
	.st1{fill-rule:evenodd;clip-rule:evenodd;fill:#A220B2;}
	.st2{fill-rule:evenodd;clip-rule:evenodd;fill:#F0C539;}
</style>
<g id="Guides">
</g>
<g id="Layer_3">
	<path class="st0" d="M484.382,24.302c-0.041-0.009-0.103-0.01-0.152-0.016c0.016-0.013,0.012-0.023-0.03-0.029
		c-0.064-0.01-0.16-0.013-0.264-0.015l11.163-2.15l-0.186-0.959l-19.988,3.859l-1.412,0.262c-2.814,0.525-5.725,1.067-8.606,1.516
		c-0.299,0.051-0.602,0.094-0.902,0.143c0.386-0.138,0.747-0.274,1.076-0.407c0.178-0.045,0.355-0.092,0.503-0.141
		c0.371-0.125,0.704-0.265,0.853-0.39c0.073-0.062,0.174-0.126,0.26-0.186c0.091-0.063,0.095-0.121,0.128-0.181
		c0.063-0.116,0.014-0.221-0.043-0.328c-0.027-0.051-0.108-0.1-0.166-0.149c-0.057-0.048-0.169-0.09-0.226-0.139
		c-0.113-0.098-0.385-0.201-0.673-0.282c-0.051-0.014-0.079-0.024-0.111-0.016c-0.001-0.004-0.002-0.008-0.003-0.011
		c-0.712,0.122-1.323,0.289-1.86,0.478c-0.678,0.241-1.186,0.533-1.542,0.842l-0.24,0.216c-0.087,0.081-0.137,0.161-0.204,0.244
		c-0.055,0.069-0.141,0.161-0.135,0.228c0.007,0.073-0.001,0.149-0.051,0.227c0.527-0.083,1.058-0.162,1.531-0.292
		c0.218-0.062,0.41-0.116,0.669-0.19c0.229-0.071,0.401-0.145,0.567-0.222c0.599-0.275,0.752-0.544,1.05-0.796
		c0.109-0.092,0.169-0.184,0.21-0.277c0.041,0.058,0.068,0.117,0.074,0.177c0.023,0.232,0.02,0.468-0.369,0.729
		c-0.09,0.06-0.196,0.12-0.311,0.179c-0.012,0.005-0.025,0.011-0.038,0.016c-0.23,0.098-0.489,0.198-0.758,0.298
		c-0.149,0.055-0.304,0.112-0.457,0.168c-0.039,0.011-0.078,0.022-0.123,0.035c-0.083,0.025-0.253,0.057-0.309,0.084
		c0.057-0.011,0.109-0.015,0.165-0.021c-0.262,0.094-0.535,0.189-0.828,0.282c-0.099,0.031-0.201,0.06-0.3,0.09
		c-1.757,0.272-3.516,0.53-5.238,0.773l-2.249,0.319l0,0l-1.131,0.146c-2.937,0.377-5.974,0.768-8.972,1.084
		c-2.435,0.289-4.918,0.529-7.319,0.761l-2.793,0.273c-1.019,0.084-2.037,0.173-3.056,0.261c-2.322,0.201-4.724,0.409-7.09,0.569
		c-0.936,0.071-1.853,0.138-2.758,0.202c0.419-0.176,0.826-0.363,1.205-0.576c0.592-0.332,1.153-0.706,1.639-1.103
		c0.184-0.073,0.365-0.15,0.516-0.249c0.369-0.24,0.698-0.545,0.841-0.869c0.07-0.16,0.168-0.32,0.252-0.477
		c0.087-0.164,0.089-0.334,0.118-0.504c0.056-0.33,0-0.653-0.063-0.981c-0.031-0.157-0.114-0.315-0.175-0.469
		c-0.06-0.152-0.174-0.29-0.233-0.441c-0.118-0.301-0.395-0.63-0.685-0.884c-0.052-0.046-0.08-0.097-0.113-0.071
		c-0.001-0.005-0.001-0.01-0.002-0.015c-0.7,0.292-1.301,0.684-1.831,1.115c-0.668,0.543-1.171,1.183-1.523,1.873
		c-0.08,0.162-0.157,0.319-0.237,0.482c-0.086,0.182-0.135,0.368-0.2,0.555c-0.055,0.156-0.139,0.362-0.132,0.523
		c0.008,0.176,0.001,0.356-0.048,0.531c0.527-0.102,1.062-0.146,1.536-0.35c0.237-0.101,0.451-0.19,0.669-0.31
		c0.229-0.126,0.399-0.276,0.564-0.439c0.593-0.585,0.736-1.289,1.022-1.938c0.104-0.237,0.161-0.488,0.197-0.742
		c0.043,0.169,0.074,0.339,0.083,0.509c0.034,0.656,0.043,1.328-0.337,1.953c-0.088,0.145-0.193,0.279-0.307,0.411
		c-0.013,0.011-0.024,0.023-0.036,0.035c-0.228,0.207-0.486,0.404-0.754,0.592c-0.154,0.108-0.315,0.212-0.473,0.317
		c-0.036,0.015-0.071,0.031-0.106,0.048c-0.083,0.041-0.254,0.074-0.31,0.127c0.057-0.013,0.112-0.009,0.168-0.009
		c-0.263,0.166-0.537,0.325-0.833,0.47c-0.873,0.424-1.781,0.81-2.769,1.048c-1.711,0.114-3.383,0.218-5.038,0.312l0.027,0.487
		l-0.032-0.487c-2.281,0.15-4.565,0.263-6.85,0.375c-1.104,0.054-2.208,0.108-3.306,0.166l-10.172,0.406
		c-4.661,0.156-9.057,0.275-13.324,0.366c0.559-0.259,1.108-0.533,1.61-0.876c0.605-0.414,1.179-0.893,1.681-1.411
		c0.188-0.09,0.372-0.187,0.529-0.316c0.379-0.312,0.72-0.719,0.876-1.165c0.077-0.22,0.181-0.439,0.271-0.655
		c0.094-0.225,0.102-0.464,0.138-0.701c0.07-0.46,0.027-0.916-0.024-1.377c-0.024-0.22-0.101-0.444-0.155-0.661
		c-0.053-0.214-0.162-0.409-0.215-0.621c-0.106-0.424-0.369-0.888-0.648-1.245c-0.05-0.064-0.076-0.136-0.11-0.099
		c-0.001-0.007,0-0.014-0.001-0.021c-0.711,0.4-1.328,0.932-1.875,1.513c-0.69,0.734-1.218,1.593-1.598,2.516
		c-0.086,0.217-0.17,0.427-0.257,0.645c-0.093,0.242-0.15,0.492-0.223,0.741c-0.061,0.208-0.154,0.482-0.153,0.699
		c0.001,0.238-0.014,0.481-0.069,0.714c0.531-0.108,1.068-0.139,1.55-0.391c0.241-0.126,0.458-0.236,0.682-0.39
		c0.234-0.161,0.41-0.359,0.582-0.575c0.617-0.777,0.788-1.747,1.1-2.637c0.114-0.326,0.18-0.673,0.227-1.026
		c0.036,0.236,0.06,0.474,0.062,0.71c0.007,0.912-0.011,1.85-0.416,2.697c-0.094,0.196-0.204,0.378-0.323,0.553
		c-0.013,0.015-0.025,0.031-0.038,0.046c-0.236,0.274-0.502,0.531-0.777,0.775c-0.159,0.141-0.325,0.274-0.488,0.41
		c-0.036,0.018-0.071,0.038-0.105,0.059c-0.085,0.051-0.257,0.086-0.315,0.155c0.057-0.014,0.113-0.006,0.168-0.002
		c-0.27,0.211-0.55,0.411-0.851,0.589c-1.208,0.716-2.474,1.29-3.913,1.41c-1.323,0.024-2.642,0.047-3.944,0.064l0.007,0.488
		l-0.008-0.488c-5.615,0.085-11.372,0.127-17.315,0.13c-0.016,0.001-0.033-0.01-0.048-0.007c-0.006,0.001-0.012,0.005-0.018,0.007
		c-5.296,0.003-10.75-0.027-16.406-0.089c0.604-0.283,1.195-0.591,1.74-0.983c0.617-0.445,1.207-0.969,1.726-1.542
		c0.191-0.098,0.38-0.204,0.541-0.346c0.389-0.344,0.744-0.8,0.915-1.305c0.084-0.248,0.196-0.496,0.293-0.741
		c0.102-0.255,0.118-0.527,0.162-0.796c0.085-0.524,0.058-1.043,0.023-1.569c-0.017-0.251-0.086-0.506-0.133-0.753
		c-0.046-0.243-0.148-0.466-0.194-0.707c-0.091-0.482-0.339-1.009-0.607-1.411c-0.048-0.072-0.072-0.153-0.107-0.112
		c0-0.008,0-0.016,0-0.024c-0.726,0.462-1.362,1.07-1.929,1.725c-0.715,0.826-1.273,1.785-1.683,2.811
		c-0.093,0.241-0.184,0.474-0.278,0.717c-0.101,0.269-0.166,0.547-0.247,0.823c-0.068,0.231-0.169,0.534-0.176,0.776
		c-0.006,0.265-0.029,0.535-0.092,0.793c0.534-0.108,1.072-0.13,1.563-0.402c0.245-0.136,0.466-0.255,0.695-0.423
		c0.24-0.176,0.422-0.396,0.601-0.637c0.643-0.866,0.847-1.961,1.189-2.969c0.125-0.369,0.203-0.763,0.262-1.162
		c0.029,0.268,0.044,0.537,0.038,0.805c-0.023,1.035-0.073,2.099-0.507,3.052c-0.101,0.221-0.217,0.424-0.342,0.62
		c-0.013,0.017-0.026,0.035-0.039,0.051c-0.245,0.306-0.52,0.59-0.803,0.858c-0.164,0.155-0.335,0.301-0.503,0.45
		c-0.036,0.02-0.071,0.04-0.106,0.062c-0.087,0.056-0.259,0.09-0.32,0.166c0.057-0.014,0.113-0.004,0.168,0.002
		c-0.277,0.23-0.563,0.446-0.87,0.637c-1.269,0.79-2.591,1.404-4.087,1.473l0.037,0.024c-1.278-0.017-2.553-0.033-3.852-0.053
		l-0.008,0.488l0.007-0.488c-6.177-0.087-12.266-0.225-17.345-0.352c-0.006,0.001-0.012-0.004-0.017-0.003
		c-0.002,0-0.004,0.002-0.007,0.002c-1.035-0.026-2.043-0.052-2.984-0.076c-4.095-0.106-8.386-0.234-13.347-0.398
		c0.58-0.238,1.149-0.501,1.676-0.839c0.626-0.4,1.225-0.883,1.756-1.414c0.194-0.09,0.385-0.188,0.55-0.321
		c0.397-0.32,0.761-0.748,0.943-1.222c0.089-0.234,0.206-0.467,0.309-0.698c0.107-0.241,0.129-0.497,0.179-0.752
		c0.096-0.495,0.08-0.984,0.055-1.48c-0.012-0.237-0.076-0.476-0.118-0.708c-0.041-0.229-0.139-0.436-0.18-0.662
		c-0.082-0.452-0.32-0.942-0.58-1.313c-0.047-0.067-0.069-0.142-0.105-0.102c0-0.007,0-0.015,0-0.022
		c-0.738,0.451-1.388,1.03-1.969,1.648c-0.734,0.778-1.311,1.67-1.741,2.619c-0.098,0.222-0.193,0.438-0.292,0.661
		c-0.106,0.248-0.177,0.504-0.263,0.758c-0.072,0.213-0.18,0.491-0.19,0.714c-0.011,0.244-0.039,0.493-0.107,0.73
		c0.537-0.093,1.076-0.107,1.572-0.354c0.248-0.123,0.472-0.232,0.704-0.386c0.243-0.162,0.431-0.367,0.614-0.59
		c0.661-0.806,0.887-1.832,1.251-2.779c0.133-0.347,0.219-0.717,0.286-1.093c0.023,0.251,0.034,0.503,0.022,0.754
		c-0.044,0.97-0.116,1.971-0.57,2.863c-0.105,0.206-0.225,0.396-0.355,0.58c-0.014,0.016-0.026,0.032-0.04,0.048
		c-0.252,0.285-0.532,0.549-0.821,0.797c-0.168,0.144-0.342,0.278-0.515,0.415c-0.035,0.017-0.07,0.035-0.105,0.055
		c-0.088,0.051-0.261,0.08-0.323,0.15c0.058-0.012,0.113-0.002,0.168,0.004c-0.281,0.21-0.572,0.406-0.883,0.578
		c-1.253,0.692-2.553,1.208-4.004,1.26c-1.265-0.043-2.559-0.087-3.923-0.135v0c-10.564-0.381-21.593-0.846-33.503-1.41
		c0.518-0.176,1.026-0.368,1.5-0.617c0.629-0.33,1.232-0.727,1.767-1.167c0.195-0.072,0.387-0.151,0.552-0.261
		c0.399-0.264,0.768-0.62,0.953-1.019c0.091-0.197,0.21-0.393,0.315-0.587c0.109-0.203,0.133-0.42,0.185-0.635
		c0.101-0.418,0.088-0.835,0.068-1.256c-0.01-0.201-0.072-0.406-0.112-0.604c-0.039-0.195-0.136-0.374-0.175-0.567
		c-0.078-0.386-0.312-0.807-0.57-1.128c-0.047-0.058-0.068-0.122-0.104-0.089c0-0.006,0-0.013,0-0.019
		c-0.743,0.368-1.398,0.846-1.985,1.36c-0.741,0.647-1.325,1.394-1.763,2.191c-0.1,0.187-0.197,0.368-0.297,0.556
		c-0.108,0.209-0.18,0.425-0.269,0.639c-0.074,0.18-0.184,0.414-0.196,0.603c-0.013,0.208-0.043,0.418-0.113,0.619
		c0.538-0.069,1.077-0.07,1.575-0.27c0.249-0.1,0.474-0.189,0.707-0.315c0.245-0.133,0.434-0.303,0.619-0.489
		c0.668-0.671,0.902-1.539,1.274-2.336c0.136-0.292,0.225-0.605,0.295-0.923c0.021,0.214,0.029,0.428,0.016,0.642
		c-0.052,0.824-0.132,1.673-0.594,2.421c-0.107,0.173-0.229,0.332-0.36,0.485c-0.014,0.013-0.027,0.027-0.041,0.04
		c-0.254,0.237-0.537,0.455-0.828,0.66c-0.169,0.119-0.344,0.229-0.517,0.342c-0.036,0.014-0.071,0.029-0.106,0.046
		c-0.088,0.041-0.262,0.064-0.324,0.121c0.058-0.009,0.113,0,0.168,0.006c-0.283,0.173-0.576,0.335-0.888,0.475
		c-1.064,0.478-2.165,0.839-3.355,0.952c-1.513-0.073-3.032-0.146-4.574-0.222c-10.4-0.511-21.372-1.095-33.323-1.771
		c0.46-0.136,0.911-0.286,1.334-0.476c0.63-0.282,1.234-0.623,1.771-1.003c0.195-0.061,0.387-0.128,0.553-0.222
		c0.4-0.226,0.77-0.535,0.957-0.885c0.092-0.172,0.212-0.344,0.317-0.513c0.11-0.177,0.135-0.368,0.187-0.557
		c0.102-0.368,0.091-0.735,0.072-1.108c-0.009-0.178-0.071-0.36-0.11-0.535c-0.039-0.173-0.135-0.332-0.173-0.503
		c-0.077-0.342-0.31-0.718-0.567-1.005c-0.046-0.052-0.068-0.109-0.104-0.081c0-0.005,0-0.011,0-0.017
		c-0.745,0.31-1.402,0.724-1.991,1.167c-0.743,0.56-1.33,1.21-1.77,1.908c-0.1,0.164-0.198,0.323-0.299,0.487
		c-0.109,0.183-0.182,0.373-0.27,0.561c-0.074,0.158-0.185,0.363-0.198,0.53c-0.014,0.183-0.044,0.369-0.115,0.545
		c0.538-0.053,1.077-0.046,1.576-0.216c0.249-0.085,0.474-0.159,0.708-0.267c0.245-0.113,0.435-0.26,0.621-0.422
		c0.67-0.582,0.908-1.345,1.282-2.042c0.137-0.255,0.227-0.53,0.298-0.81c0.021,0.189,0.028,0.379,0.014,0.567
		c-0.055,0.727-0.138,1.475-0.602,2.128c-0.107,0.151-0.23,0.29-0.361,0.423c-0.014,0.011-0.027,0.023-0.041,0.034
		c-0.255,0.205-0.538,0.394-0.83,0.57c-0.17,0.102-0.345,0.197-0.518,0.294c-0.036,0.012-0.071,0.025-0.106,0.039
		c-0.088,0.035-0.262,0.052-0.325,0.102c0.058-0.007,0.113,0.002,0.168,0.008c-0.283,0.148-0.576,0.286-0.889,0.406
		c-0.938,0.357-1.901,0.64-2.93,0.76c-1.648-0.094-3.308-0.189-4.995-0.286v0l-33.066-1.971c0.37-0.095,0.735-0.197,1.079-0.324
		c0.628-0.233,1.231-0.517,1.765-0.836c0.195-0.05,0.387-0.105,0.552-0.184c0.399-0.189,0.768-0.449,0.953-0.747
		c0.091-0.146,0.21-0.292,0.315-0.436c0.109-0.15,0.133-0.314,0.185-0.475c0.1-0.313,0.088-0.628,0.068-0.947
		c-0.01-0.152-0.072-0.308-0.112-0.458c-0.039-0.148-0.136-0.285-0.175-0.431c-0.078-0.293-0.313-0.615-0.572-0.862
		c-0.047-0.044-0.068-0.093-0.105-0.069c0-0.005,0-0.01,0-0.014c-0.744,0.263-1.4,0.611-1.987,0.985
		c-0.741,0.472-1.325,1.021-1.762,1.611c-0.1,0.138-0.196,0.273-0.296,0.412c-0.108,0.154-0.18,0.315-0.268,0.474
		c-0.073,0.133-0.183,0.307-0.195,0.449c-0.013,0.156-0.042,0.313-0.112,0.462c0.537-0.039,1.077-0.028,1.574-0.167
		c0.249-0.07,0.473-0.131,0.706-0.221c0.244-0.094,0.433-0.218,0.619-0.354c0.667-0.49,0.902-1.139,1.273-1.732
		c0.136-0.217,0.225-0.451,0.295-0.689c0.021,0.161,0.03,0.323,0.016,0.484c-0.052,0.62-0.132,1.258-0.593,1.812
		c-0.107,0.128-0.229,0.245-0.36,0.357c-0.014,0.009-0.027,0.019-0.04,0.029c-0.254,0.173-0.536,0.331-0.827,0.478
		c-0.169,0.085-0.344,0.164-0.517,0.245c-0.036,0.01-0.071,0.02-0.106,0.032c-0.088,0.029-0.262,0.042-0.324,0.084
		c0.058-0.006,0.113,0.003,0.168,0.009c-0.283,0.123-0.575,0.238-0.887,0.336c-0.804,0.253-1.632,0.448-2.5,0.559l-5.417-0.323
		l-0.03,0.501l0.03-0.502l-32.816-1.937c0.277-0.059,0.557-0.116,0.818-0.191c0.624-0.182,1.223-0.406,1.753-0.659
		c0.194-0.039,0.385-0.082,0.55-0.144c0.396-0.15,0.761-0.357,0.943-0.595c0.089-0.117,0.206-0.234,0.309-0.349
		c0.107-0.121,0.129-0.252,0.179-0.382c0.096-0.252,0.08-0.507,0.055-0.764c-0.012-0.123-0.076-0.249-0.119-0.37
		c-0.041-0.12-0.14-0.23-0.181-0.348c-0.082-0.236-0.321-0.497-0.584-0.696c-0.046-0.035-0.071-0.059-0.106-0.043
		c0-0.008,0.001-0.016,0-0.024c-0.741,0.21-1.393,0.49-1.975,0.79c-0.735,0.378-1.311,0.817-1.74,1.288l-0.29,0.328
		c-0.106,0.123-0.175,0.252-0.261,0.378c-0.071,0.106-0.178,0.244-0.188,0.358c-0.011,0.124-0.038,0.25-0.105,0.369
		c0.537-0.028,1.076-0.016,1.572-0.125c0.248-0.054,0.471-0.102,0.703-0.173c0.243-0.074,0.43-0.173,0.614-0.281
		c0.66-0.391,0.886-0.912,1.25-1.388c0.133-0.174,0.219-0.362,0.286-0.554c0.024,0.13,0.034,0.261,0.023,0.39
		c-0.043,0.499-0.115,1.013-0.568,1.456c-0.105,0.103-0.225,0.196-0.355,0.286c-0.014,0.008-0.026,0.016-0.04,0.023
		c-0.252,0.137-0.532,0.263-0.821,0.379c-0.168,0.068-0.342,0.13-0.514,0.194c-0.035,0.008-0.07,0.016-0.105,0.025
		c-0.088,0.023-0.261,0.032-0.323,0.065c0.058-0.004,0.113,0.003,0.168,0.008c-0.281,0.097-0.571,0.187-0.882,0.263
		c-0.636,0.156-1.284,0.288-1.957,0.377l-5.944-0.351l-0.029,0.488l0.027-0.488c-9.73-0.54-20.861-1.132-32.185-1.604
		c0.05-0.01,0.105-0.016,0.154-0.027c0.619-0.136,1.211-0.299,1.733-0.486c0.193-0.029,0.384-0.061,0.548-0.107
		c0.392-0.111,0.752-0.265,0.927-0.441c0.086-0.087,0.2-0.173,0.3-0.259c0.104-0.09,0.122-0.187,0.169-0.283
		c0.09-0.187,0.067-0.375,0.036-0.564c-0.015-0.091-0.083-0.183-0.128-0.272c-0.045-0.088-0.146-0.169-0.19-0.255
		c-0.088-0.174-0.334-0.363-0.602-0.507c-0.047-0.025-0.073-0.042-0.107-0.031c-0.001-0.006,0-0.012,0-0.018
		c-0.737,0.163-1.382,0.372-1.956,0.596c-0.726,0.285-1.29,0.61-1.706,0.956l-0.281,0.241c-0.102,0.09-0.168,0.184-0.25,0.277
		c-0.069,0.078-0.172,0.179-0.178,0.261c-0.007,0.09-0.031,0.182-0.095,0.268c0.536-0.023,1.075-0.016,1.568-0.098
		c0.246-0.041,0.469-0.077,0.699-0.13c0.241-0.056,0.426-0.128,0.606-0.208c0.65-0.288,0.862-0.672,1.213-1.024
		c0.128-0.129,0.21-0.268,0.271-0.41c0.027,0.096,0.041,0.191,0.033,0.287c-0.03,0.368-0.088,0.747-0.531,1.074
		c-0.102,0.076-0.22,0.145-0.347,0.211c-0.013,0.006-0.026,0.011-0.039,0.017c-0.248,0.102-0.525,0.194-0.81,0.279
		c-0.166,0.05-0.338,0.096-0.508,0.144c-0.034,0.006-0.067,0.012-0.105,0.019c-0.087,0.017-0.26,0.024-0.321,0.049
		c0.057-0.003,0.113,0.002,0.168,0.005c-0.278,0.072-0.566,0.139-0.874,0.196c-0.349,0.064-0.704,0.121-1.063,0.172
		c-2.275-0.092-4.554-0.181-6.831-0.262c-7.835-0.274-14.307-0.43-20.367-0.489c-3.872-0.033-7.111-0.029-10.192,0.014
		c-0.171,0.003-0.348,0.007-0.52,0.01c0.252-0.055,0.477-0.115,0.702-0.175c0.193-0.027,0.383-0.056,0.545-0.092
		c0.387-0.086,0.739-0.19,0.905-0.306c0.082-0.056,0.192-0.114,0.287-0.17c0.1-0.059,0.113-0.119,0.155-0.18
		c0.081-0.118,0.049-0.232,0.008-0.347c-0.019-0.055-0.092-0.108-0.142-0.161c-0.049-0.052-0.154-0.096-0.203-0.147
		c-0.097-0.102-0.353-0.206-0.629-0.28c-0.048-0.013-0.075-0.022-0.109-0.013c-0.001-0.004,0-0.007-0.001-0.011
		c-0.731,0.14-1.367,0.309-1.931,0.475c-0.712,0.211-1.26,0.435-1.658,0.662l-0.269,0.157c-0.097,0.058-0.158,0.117-0.235,0.176
		c-0.064,0.049-0.162,0.113-0.164,0.162c-0.002,0.053-0.021,0.108-0.08,0.162c0.534-0.039,1.074-0.061,1.562-0.133
		c0.226-0.036,0.424-0.068,0.692-0.111c0.238-0.045,0.419-0.098,0.596-0.155c0.635-0.207,0.828-0.45,1.162-0.683
		c0.122-0.086,0.196-0.174,0.251-0.263c0.032,0.057,0.051,0.115,0.047,0.173c-0.012,0.224-0.051,0.456-0.477,0.678
		c-0.099,0.051-0.213,0.099-0.337,0.145c-0.013,0.004-0.026,0.008-0.039,0.012c-0.243,0.074-0.515,0.143-0.796,0.209
		c-0.165,0.038-0.336,0.074-0.505,0.111c-0.032,0.005-0.063,0.01-0.099,0.015c-0.086,0.014-0.259,0.027-0.318,0.044
		c0.072-0.002,0.116-0.003,0.166-0.004c-0.134,0.027-0.28,0.051-0.42,0.076c-2.711,0.052-5.527,0.128-8.341,0.289v0
		c-3.969,0.204-7.202,0.491-10.178,0.904c-3.492,0.514-6.88,1.1-9.959,2.629l-9.713,5.401c0.321-0.263,0.619-0.517,0.886-0.756
		c0.153-0.103,0.304-0.206,0.427-0.304c0.308-0.244,0.575-0.488,0.673-0.656c0.048-0.083,0.122-0.177,0.183-0.264
		c0.064-0.09,0.049-0.147,0.06-0.214c0.021-0.131-0.06-0.214-0.15-0.295c-0.043-0.039-0.135-0.058-0.206-0.085
		c-0.07-0.026-0.19-0.028-0.26-0.055c-0.139-0.054-0.431-0.059-0.731-0.037c-0.053,0.004-0.083,0.004-0.111,0.023
		c-0.003-0.003-0.004-0.007-0.007-0.01c-0.633,0.358-1.156,0.723-1.6,1.085c-0.56,0.458-0.941,0.905-1.172,1.317l-0.152,0.286
		c-0.053,0.107-0.073,0.201-0.106,0.301c-0.028,0.084-0.076,0.202-0.047,0.262c0.032,0.066,0.051,0.141,0.032,0.231
		c0.461-0.269,0.938-0.52,1.341-0.803c0.185-0.132,0.348-0.249,0.567-0.405c0.192-0.145,0.329-0.272,0.46-0.401
		c0.472-0.462,0.527-0.767,0.723-1.106c0.072-0.123,0.098-0.231,0.106-0.332c0.058,0.041,0.104,0.087,0.13,0.141
		c0.1,0.211,0.176,0.434-0.104,0.812c-0.064,0.087-0.144,0.179-0.233,0.274c-0.01,0.009-0.02,0.019-0.03,0.028
		c-0.184,0.171-0.395,0.352-0.614,0.537c-0.122,0.102-0.249,0.208-0.374,0.313c-0.033,0.023-0.067,0.048-0.104,0.075
		c-0.07,0.052-0.219,0.139-0.263,0.184c0.05-0.03,0.098-0.051,0.148-0.076c-0.215,0.177-0.44,0.359-0.685,0.545
		c-0.098,0.075-0.2,0.151-0.3,0.226l-6.571,3.654l0.475,0.854l17.775-9.884c1.602-0.795,3.319-1.322,5.1-1.722
		c0.037,0.041,0.08,0.08,0.168,0.11c0.222,0.072,0.548,0.124,1.036,0.175c0.193,0.017,0.354,0.04,0.59,0.05
		c0.21,0.013,0.439,0.027,0.656,0.04c1.449-0.391,2.065-0.735,1.365-0.941c-0.039-0.01-0.102-0.016-0.15-0.024
		c0.016-0.011,0.012-0.022-0.03-0.031c-0.042-0.008-0.1-0.015-0.163-0.021c0.356-0.055,0.713-0.11,1.071-0.162
		c2.944-0.409,6.151-0.694,10.092-0.896l-0.025-0.488l0.028,0.488c3.44-0.197,6.902-0.267,10.152-0.322
		c3.072-0.042,6.304-0.046,10.168-0.014c1.895,0.018,3.839,0.048,5.844,0.086c0.573,0.116,1.079,0.256,1.572,0.404
		c0.276,0.083,0.541,0.171,0.78,0.264c0.165,0.114,0.274,0.234,0.356,0.354c0.101,0.15,0.086,0.301,0.013,0.445
		c-0.039,0.078-0.068,0.156-0.136,0.231c-0.068,0.073-0.151,0.144-0.21,0.219c-0.009,0.011-0.027,0.022-0.047,0.032
		c0.04-0.126,0.045-0.253-0.002-0.378c-0.054-0.144-0.057-0.283-0.155-0.426c-0.096-0.141-0.133-0.286-0.363-0.419
		c-0.219-0.127-0.506-0.242-0.859-0.342c-0.194-0.052-0.386-0.104-0.565-0.152c-0.12-0.029-0.203-0.039-0.339-0.058
		c-0.112-0.015-0.207-0.042-0.332-0.046c-0.05,0.062-0.107,0.144-0.06,0.209c0.022,0.031-0.015,0.065-0.009,0.096
		c0.006,0.034-0.012,0.067-0.005,0.101c0.027,0.143,0.058,0.282,0.16,0.425c0.2,0.281,0.509,0.563,0.979,0.838
		c0.187,0.11,0.342,0.219,0.574,0.325c0.227,0.104,0.435,0.216,0.646,0.325c1.538-0.294,2.204-0.942,1.553-1.535
		c-0.037-0.034-0.098-0.062-0.144-0.094c0.019-0.019,0.016-0.043-0.023-0.073c-0.14-0.108-0.44-0.218-0.679-0.309
		c-0.388-0.149-0.853-0.282-1.335-0.407c4.008,0.084,8.309,0.208,13.13,0.377c8.496,0.3,17.043,0.693,25.153,1.105
		c0.329,0.089,0.653,0.185,0.972,0.286c0.585,0.186,1.093,0.406,1.59,0.637c0.271,0.126,0.532,0.26,0.766,0.4
		c0.159,0.17,0.262,0.349,0.337,0.526c0.093,0.222,0.069,0.446-0.011,0.658c-0.043,0.115-0.076,0.231-0.149,0.341
		c-0.072,0.108-0.16,0.213-0.223,0.323c-0.01,0.016-0.028,0.032-0.049,0.048c0.047-0.186,0.059-0.375,0.018-0.56
		c-0.047-0.213-0.042-0.419-0.132-0.632c-0.088-0.209-0.118-0.424-0.341-0.624c-0.212-0.19-0.493-0.365-0.841-0.517
		c-0.191-0.08-0.38-0.159-0.557-0.233c-0.118-0.045-0.201-0.06-0.336-0.091c-0.111-0.026-0.204-0.069-0.33-0.077
		c-0.054,0.093-0.115,0.213-0.072,0.312c0.02,0.047-0.019,0.097-0.014,0.145c0.005,0.051-0.015,0.101-0.011,0.152
		c0.019,0.215,0.042,0.425,0.135,0.641c0.184,0.427,0.478,0.848,0.934,1.26c0.181,0.164,0.33,0.326,0.557,0.483
		c0.222,0.154,0.425,0.321,0.63,0.481c1.559-0.443,2.261-1.384,1.64-2.264c-0.036-0.05-0.095-0.093-0.139-0.14
		c0.02-0.028,0.019-0.063-0.019-0.108c-0.135-0.16-0.429-0.325-0.663-0.464c-0.548-0.324-1.237-0.617-1.943-0.871
		c-0.025-0.009-0.054-0.016-0.08-0.025c4.82,0.248,9.475,0.501,13.841,0.744v0l24.619,1.453c0.506,0.156,1,0.329,1.48,0.526
		c0.58,0.237,1.083,0.52,1.575,0.815c0.269,0.161,0.527,0.332,0.757,0.511c0.155,0.218,0.253,0.449,0.324,0.678
		c0.088,0.287,0.058,0.577-0.028,0.853c-0.046,0.15-0.082,0.3-0.158,0.444c-0.075,0.142-0.166,0.279-0.232,0.422
		c-0.01,0.021-0.029,0.042-0.051,0.062c0.051-0.242,0.069-0.487,0.033-0.727c-0.041-0.276-0.031-0.543-0.116-0.819
		c-0.083-0.27-0.107-0.549-0.325-0.806c-0.208-0.244-0.484-0.469-0.828-0.664c-0.181-0.103-0.358-0.203-0.552-0.299
		c-0.117-0.057-0.2-0.077-0.334-0.116c-0.11-0.032-0.203-0.087-0.328-0.097c-0.057,0.121-0.121,0.279-0.081,0.408
		c0.019,0.061-0.021,0.126-0.018,0.189c0.003,0.067-0.018,0.132-0.015,0.198c0.013,0.281,0.03,0.553,0.118,0.834
		c0.173,0.555,0.456,1.099,0.902,1.628c0.177,0.21,0.323,0.419,0.546,0.62c0.219,0.197,0.418,0.409,0.619,0.613
		c1.575-0.601,2.301-1.828,1.702-2.958c-0.034-0.065-0.093-0.119-0.136-0.179c0.02-0.037,0.02-0.081-0.017-0.139
		c-0.131-0.206-0.421-0.417-0.652-0.594c-0.541-0.415-1.223-0.79-1.922-1.115c-0.146-0.068-0.309-0.121-0.463-0.183l14.231,0.84l0,0
		l24.103,1.437c0.689,0.215,1.345,0.488,1.983,0.797c0.578,0.279,1.078,0.613,1.567,0.961c0.267,0.191,0.523,0.392,0.752,0.605
		c0.153,0.261,0.249,0.538,0.317,0.814c0.085,0.345,0.052,0.695-0.038,1.031c-0.048,0.182-0.086,0.365-0.163,0.54
		c-0.077,0.173-0.169,0.341-0.237,0.515c-0.01,0.026-0.03,0.052-0.051,0.077c0.054-0.294,0.074-0.591,0.041-0.88
		c-0.038-0.332-0.025-0.656-0.107-0.987c-0.08-0.325-0.101-0.662-0.317-0.968c-0.205-0.292-0.479-0.559-0.822-0.789
		c-0.18-0.121-0.356-0.24-0.549-0.352c-0.116-0.067-0.199-0.09-0.333-0.135c-0.11-0.037-0.202-0.103-0.327-0.113
		c-0.058,0.148-0.124,0.341-0.086,0.497c0.018,0.074-0.023,0.154-0.021,0.23c0.002,0.081-0.02,0.16-0.017,0.241
		c0.01,0.341,0.024,0.672,0.108,1.011c0.167,0.67,0.444,1.325,0.884,1.955c0.175,0.25,0.318,0.5,0.54,0.738
		c0.217,0.233,0.414,0.485,0.613,0.727c1.586-0.768,2.326-2.259,1.738-3.61c-0.034-0.077-0.091-0.142-0.134-0.214
		c0.021-0.045,0.021-0.099-0.015-0.167c-0.129-0.246-0.417-0.496-0.646-0.706c-0.537-0.492-1.215-0.935-1.912-1.318
		c-0.258-0.142-0.538-0.26-0.815-0.381l14.594,0.87l0.029-0.487l-0.028,0.487c8.417,0.487,16.32,0.926,23.873,1.329
		c0.775,0.244,1.509,0.57,2.217,0.952c0.578,0.311,1.078,0.687,1.567,1.079c0.267,0.215,0.524,0.442,0.752,0.682
		c0.153,0.297,0.248,0.612,0.316,0.927c0.085,0.394,0.051,0.796-0.038,1.182c-0.048,0.209-0.086,0.42-0.164,0.622
		c-0.077,0.2-0.169,0.394-0.238,0.596c-0.01,0.03-0.03,0.06-0.052,0.089c0.055-0.338,0.075-0.678,0.042-1.009
		c-0.038-0.38-0.025-0.751-0.106-1.13c-0.08-0.371-0.101-0.757-0.316-1.105c-0.205-0.331-0.479-0.633-0.822-0.891
		c-0.18-0.136-0.356-0.27-0.549-0.396c-0.116-0.076-0.199-0.1-0.333-0.15c-0.11-0.041-0.202-0.115-0.327-0.124
		c-0.058,0.171-0.125,0.394-0.086,0.572c0.018,0.085-0.023,0.177-0.021,0.264c0.002,0.093-0.02,0.184-0.018,0.277
		c0.009,0.391,0.023,0.772,0.107,1.16c0.166,0.767,0.442,1.514,0.883,2.229c0.175,0.284,0.318,0.567,0.54,0.836
		c0.217,0.263,0.414,0.549,0.614,0.821c1.59-0.915,2.332-2.637,1.743-4.172c-0.034-0.088-0.091-0.161-0.134-0.242
		c0.021-0.052,0.021-0.113-0.015-0.192c-0.129-0.279-0.417-0.56-0.647-0.797c-0.537-0.554-1.215-1.053-1.912-1.482
		c-0.294-0.182-0.611-0.335-0.931-0.486c5.052,0.267,9.947,0.517,14.722,0.752c8.275,0.407,16.094,0.765,23.613,1.083
		c0.878,0.267,1.702,0.658,2.495,1.132c0.58,0.346,1.083,0.768,1.575,1.21c0.268,0.242,0.526,0.498,0.757,0.771
		c0.155,0.339,0.252,0.701,0.322,1.061c0.087,0.452,0.056,0.915-0.031,1.36c-0.047,0.241-0.084,0.484-0.16,0.718
		c-0.076,0.23-0.167,0.455-0.234,0.687c-0.01,0.034-0.03,0.069-0.051,0.103c0.053-0.389,0.071-0.781,0.036-1.161
		c-0.04-0.437-0.029-0.863-0.113-1.298c-0.082-0.425-0.105-0.869-0.323-1.265c-0.207-0.377-0.483-0.719-0.828-1.01
		c-0.181-0.153-0.358-0.304-0.552-0.444c-0.117-0.085-0.2-0.111-0.334-0.166c-0.11-0.045-0.203-0.128-0.328-0.137
		c-0.057,0.197-0.123,0.454-0.083,0.657c0.019,0.097-0.022,0.203-0.019,0.303l-0.016,0.318c0.012,0.448,0.027,0.884,0.114,1.328
		c0.171,0.877,0.452,1.729,0.897,2.544c0.177,0.324,0.322,0.648,0.545,0.953c0.219,0.3,0.418,0.626,0.62,0.937
		c1.586-1.065,2.317-3.059,1.719-4.819c-0.034-0.101-0.092-0.184-0.136-0.277c0.021-0.06,0.02-0.131-0.016-0.22
		c-0.131-0.32-0.421-0.639-0.652-0.907c-0.54-0.629-1.222-1.189-1.922-1.668c-0.338-0.232-0.699-0.43-1.068-0.616
		c5.079,0.211,10.022,0.404,14.867,0.579l0.018-0.488l-0.017,0.488c8.172,0.286,14.451,0.481,20.357,0.636
		c0.952,0.025,1.971,0.051,3.018,0.077c0.978,0.283,1.885,0.763,2.762,1.343c0.585,0.388,1.094,0.861,1.593,1.357
		c0.272,0.271,0.534,0.559,0.769,0.865c0.16,0.386,0.263,0.8,0.338,1.214c0.094,0.518,0.07,1.053-0.011,1.571
		c-0.043,0.28-0.077,0.562-0.15,0.835c-0.072,0.269-0.161,0.532-0.225,0.804c-0.01,0.04-0.029,0.081-0.05,0.121
		c0.047-0.452,0.06-0.905,0.019-1.342c-0.047-0.503-0.042-0.996-0.132-1.494c-0.089-0.488-0.118-1-0.342-1.45
		c-0.213-0.429-0.494-0.816-0.843-1.141c-0.184-0.171-0.363-0.341-0.559-0.499c-0.118-0.095-0.201-0.123-0.337-0.184
		c-0.111-0.05-0.205-0.143-0.33-0.15c-0.055,0.231-0.117,0.531-0.074,0.765c0.02,0.112-0.019,0.237-0.015,0.353l-0.012,0.37
		c0.018,0.52,0.039,1.026,0.132,1.538c0.183,1.012,0.476,1.993,0.934,2.919c0.182,0.368,0.332,0.736,0.56,1.08
		c0.224,0.337,0.428,0.705,0.635,1.055c1.576-1.311,2.277-3.628,1.652-5.633c-0.036-0.115-0.095-0.208-0.14-0.314
		c0.02-0.07,0.018-0.151-0.02-0.253c-0.136-0.364-0.431-0.722-0.666-1.024c-0.55-0.708-1.241-1.335-1.947-1.87
		c-0.386-0.295-0.799-0.546-1.224-0.776c4.568,0.11,9.764,0.222,15.027,0.295l0,0c7.946,0.122,15.477,0.183,22.715,0.183
		c0.228,0,0.451-0.001,0.679-0.001c0.984,0.255,1.902,0.706,2.792,1.249c0.595,0.363,1.116,0.813,1.628,1.282
		c0.279,0.256,0.549,0.529,0.792,0.819c0.17,0.371,0.284,0.772,0.37,1.173c0.107,0.502,0.097,1.026,0.03,1.536
		c-0.036,0.276-0.062,0.553-0.129,0.825c-0.066,0.267-0.147,0.53-0.204,0.8c-0.009,0.04-0.027,0.081-0.047,0.121
		c0.035-0.445,0.036-0.889-0.016-1.316c-0.06-0.49-0.068-0.973-0.171-1.458c-0.101-0.475-0.144-0.975-0.379-1.408
		c-0.224-0.412-0.516-0.781-0.872-1.089c-0.188-0.162-0.372-0.323-0.571-0.471c-0.121-0.089-0.205-0.114-0.342-0.169
		c-0.112-0.045-0.208-0.134-0.334-0.136c-0.049,0.231-0.103,0.532-0.055,0.763c0.023,0.11-0.013,0.236-0.006,0.351l-0.003,0.367
		c0.031,0.516,0.065,1.016,0.171,1.52c0.209,0.995,0.527,1.949,1.01,2.832c0.192,0.351,0.351,0.704,0.589,1.027
		c0.233,0.316,0.447,0.663,0.663,0.992c1.544-1.397,2.185-3.684,1.507-5.601c-0.039-0.11-0.101-0.198-0.148-0.3
		c0.018-0.069,0.014-0.148-0.026-0.246c-0.145-0.348-0.45-0.687-0.693-0.974c-0.568-0.672-1.275-1.266-1.995-1.775
		c-0.389-0.275-0.803-0.508-1.227-0.722c5.13-0.012,10.127-0.054,15.016-0.128l0,0c6.444-0.087,13.106-0.248,20.37-0.491
		l3.274-0.131c0.894,0.185,1.744,0.491,2.571,0.864c0.606,0.273,1.141,0.62,1.666,0.979c0.287,0.197,0.565,0.406,0.817,0.631
		c0.181,0.295,0.307,0.616,0.405,0.939c0.123,0.404,0.129,0.832,0.077,1.254c-0.028,0.228-0.045,0.456-0.103,0.683
		c-0.057,0.223-0.131,0.444-0.179,0.668c-0.007,0.033-0.024,0.068-0.043,0.103c0.022-0.367,0.009-0.731-0.057-1.076
		c-0.075-0.397-0.098-0.793-0.216-1.183c-0.116-0.383-0.174-0.79-0.423-1.133c-0.237-0.326-0.539-0.614-0.906-0.85
		c-0.193-0.124-0.381-0.248-0.586-0.361c-0.123-0.068-0.208-0.085-0.347-0.123c-0.114-0.032-0.212-0.101-0.338-0.097
		c-0.042,0.193-0.087,0.445-0.031,0.634c0.026,0.09-0.006,0.196,0.005,0.291l0.009,0.305c0.047,0.425,0.097,0.839,0.218,1.249
		c0.239,0.811,0.587,1.58,1.097,2.277c0.202,0.277,0.373,0.556,0.62,0.805c0.242,0.243,0.467,0.512,0.693,0.765
		c1.5-1.268,2.07-3.15,1.333-4.676c-0.042-0.087-0.107-0.157-0.157-0.237c0.016-0.057,0.01-0.122-0.034-0.199
		c-0.156-0.276-0.471-0.536-0.722-0.759c-0.589-0.521-1.314-0.975-2.049-1.363c-0.347-0.184-0.716-0.337-1.09-0.481l4.675-0.187
		c1.104-0.058,2.206-0.112,3.309-0.166c2.29-0.112,4.579-0.225,6.866-0.376v0c3.265-0.185,6.59-0.406,10.161-0.676
		c2.371-0.161,4.777-0.369,7.104-0.57c1.018-0.089,2.035-0.177,3.061-0.262l2.798-0.273c0.462-0.045,0.936-0.093,1.403-0.138
		c0.552,0.07,1.094,0.159,1.624,0.265c0.61,0.121,1.15,0.296,1.68,0.46c0.29,0.092,0.571,0.191,0.826,0.302
		c0.186,0.161,0.318,0.343,0.423,0.528c0.131,0.232,0.146,0.492,0.103,0.756c-0.023,0.143-0.035,0.285-0.087,0.431
		c-0.052,0.144-0.12,0.289-0.163,0.434c-0.007,0.021-0.022,0.045-0.04,0.069c0.013-0.228-0.007-0.449-0.08-0.653
		c-0.083-0.234-0.114-0.474-0.24-0.7c-0.123-0.222-0.19-0.465-0.445-0.649c-0.242-0.176-0.549-0.319-0.919-0.432
		c-0.203-0.06-0.403-0.118-0.591-0.173c-0.124-0.032-0.209-0.035-0.348-0.047c-0.114-0.01-0.214-0.046-0.339-0.032
		c-0.037,0.126-0.076,0.289-0.016,0.403c0.028,0.055-0.001,0.124,0.011,0.183c0.013,0.063,0.003,0.129,0.016,0.192
		c0.057,0.264,0.116,0.521,0.246,0.767c0.257,0.487,0.62,0.933,1.141,1.307c0.207,0.149,0.383,0.302,0.633,0.421
		c0.246,0.117,0.474,0.252,0.704,0.375c1.457-1.007,1.984-2.197,1.221-3.03c-0.044-0.048-0.109-0.083-0.161-0.125
		c0.014-0.036,0.007-0.075-0.038-0.116c-0.161-0.15-0.479-0.273-0.734-0.383c-0.597-0.258-1.327-0.46-2.068-0.644
		c-0.151-0.038-0.316-0.062-0.473-0.094c1.349-0.136,2.703-0.279,4.044-0.439c3.002-0.316,6.045-0.708,8.987-1.086l1.131-0.146
		l-0.062-0.484l0.069,0.483l2.254-0.319c2.568-0.363,5.226-0.737,7.822-1.184c2.888-0.45,5.806-0.993,8.628-1.52l6.825-1.314
		c0.037,0.047,0.081,0.092,0.179,0.129c0.226,0.085,0.559,0.15,1.052,0.187c0.196,0.015,0.36,0.035,0.601,0.041
		c0.215,0.01,0.449,0.02,0.672,0.03C484.509,24.884,485.089,24.453,484.382,24.302z M36.643,23.995
		c-0.03,0.042-0.051,0.083-0.11,0.129c-0.058,0.045-0.133,0.092-0.182,0.135c-0.008,0.007-0.024,0.014-0.043,0.023
		c0.026-0.064,0.019-0.123-0.04-0.172c-0.067-0.056-0.083-0.119-0.192-0.167c-0.107-0.047-0.158-0.106-0.396-0.125
		c-0.066-0.005-0.149-0.006-0.226-0.008c0.22-0.039,0.441-0.076,0.662-0.113c0.031-0.001,0.058-0.002,0.089-0.002
		c0.172,0.022,0.291,0.057,0.381,0.098C36.701,23.844,36.7,23.916,36.643,23.995z M483.63,24.713
		c-0.03,0.043-0.049,0.084-0.109,0.13c-0.059,0.046-0.133,0.093-0.183,0.138c-0.008,0.007-0.024,0.015-0.043,0.023
		c0.025-0.064,0.016-0.123-0.044-0.171c-0.069-0.055-0.087-0.117-0.199-0.164c-0.11-0.045-0.162-0.104-0.403-0.119
		c-0.081-0.005-0.181-0.005-0.278-0.006l0.601-0.116c0.071-0.003,0.135-0.005,0.208-0.008c0.175,0.02,0.296,0.053,0.389,0.093
		C483.684,24.562,483.685,24.634,483.63,24.713z"/>
	<path class="st1" d="M63.207,26.015c1.381-1.944,1.052-4.584-0.679-6.141c1.122-2.04,0.563-4.642-1.381-6.022
		c-1.944-1.381-4.585-1.052-6.141,0.679c-2.04-1.122-4.642-0.563-6.022,1.381c-1.381,1.944-1.052,4.585,0.679,6.141
		c-1.122,2.04-0.563,4.642,1.381,6.022c1.944,1.381,4.584,1.052,6.141-0.679C59.225,28.518,61.826,27.959,63.207,26.015z"/>
	<path class="st2" d="M96.972,27.042c1.056-1.486,0.804-3.505-0.519-4.695c0.858-1.56,0.43-3.548-1.056-4.604
		c-1.486-1.056-3.505-0.804-4.695,0.519c-1.56-0.858-3.548-0.43-4.604,1.056c-1.056,1.486-0.804,3.505,0.519,4.695
		c-0.858,1.56-0.43,3.548,1.056,4.604c1.486,1.056,3.505,0.804,4.695-0.519C93.928,28.956,95.917,28.528,96.972,27.042z"/>
	<path class="st2" d="M196.445,33.135c1.056-1.486,0.804-3.505-0.519-4.695c0.858-1.56,0.43-3.548-1.056-4.604
		c-1.486-1.056-3.505-0.804-4.695,0.519c-1.56-0.858-3.548-0.43-4.604,1.056c-1.056,1.486-0.804,3.505,0.519,4.695
		c-0.858,1.56-0.43,3.548,1.056,4.604s3.505,0.804,4.695-0.519C193.401,35.049,195.389,34.621,196.445,33.135z"/>
	<path class="st2" d="M363.21,36.157c1.056-1.486,0.804-3.505-0.519-4.695c0.858-1.56,0.43-3.548-1.056-4.604
		c-1.486-1.056-3.505-0.804-4.695,0.519c-1.56-0.858-3.548-0.43-4.604,1.056c-1.056,1.486-0.804,3.505,0.519,4.695
		c-0.858,1.56-0.43,3.548,1.056,4.604c1.486,1.056,3.505,0.804,4.695-0.519C360.166,38.071,362.155,37.644,363.21,36.157z"/>
	<path class="st2" d="M498.546,26.702c1.056-1.486,0.804-3.505-0.519-4.695c0.858-1.56,0.43-3.548-1.056-4.604
		c-1.486-1.056-3.505-0.804-4.695,0.519c-1.56-0.858-3.548-0.43-4.604,1.056c-1.056,1.486-0.804,3.505,0.519,4.695
		c-0.858,1.56-0.43,3.548,1.056,4.604s3.505,0.804,4.695-0.519C495.502,28.616,497.49,28.188,498.546,26.702z"/>
	<path class="st1" d="M124.753,24.671c-0.226,3.11,1.932,5.839,4.923,6.406c0.129,3.042,2.518,5.571,5.628,5.797
		c3.11,0.226,5.839-1.932,6.406-4.923c3.042-0.129,5.571-2.518,5.797-5.628c0.226-3.11-1.932-5.839-4.923-6.406
		c-0.129-3.042-2.518-5.571-5.628-5.797c-3.11-0.226-5.839,1.932-6.406,4.923C127.508,19.172,124.979,21.561,124.753,24.671z"/>
	<path class="st1" d="M260.499,37.659c1.566-1.146,1.991-3.269,1.055-4.916c1.391-1.287,1.628-3.439,0.482-5.005
		c-1.146-1.566-3.269-1.991-4.916-1.055c-1.287-1.391-3.439-1.628-5.005-0.482c-1.566,1.146-1.991,3.269-1.055,4.916
		c-1.391,1.287-1.628,3.439-0.482,5.005c1.146,1.566,3.269,1.991,4.916,1.055C256.78,38.568,258.933,38.805,260.499,37.659z"/>
	<path class="st1" d="M452.535,23.099c-1.595-2.953-5.133-4.182-8.176-2.965c-1.877-2.686-5.509-3.599-8.463-2.004
		c-2.953,1.595-4.182,5.133-2.965,8.176c-2.686,1.877-3.599,5.509-2.004,8.463c1.595,2.953,5.133,4.182,8.176,2.965
		c1.877,2.686,5.509,3.599,8.463,2.004c2.953-1.595,4.182-5.133,2.965-8.176C453.217,29.684,454.129,26.052,452.535,23.099z"/>
</g>
</svg>
