<?xml version="1.0" encoding="utf-8"?>
<!-- Generator: Adobe Illustrator 27.9.0, SVG Export Plug-In . SVG Version: 6.00 Build 0)  -->
<svg version="1.1" xmlns="http://www.w3.org/2000/svg" xmlns:xlink="http://www.w3.org/1999/xlink" x="0px" y="0px"
	 viewBox="0 0 503.272 50.91" style="enable-background:new 0 0 503.272 50.91;" xml:space="preserve">
<style type="text/css">
	.st0{display:none;}
	.st1{display:inline;fill:#04385A;}
	.st2{display:inline;}
	.st3{fill:#04385A;}
</style>
<g id="Guides">
</g>
<g id="Layer_3" class="st0">
	<path class="st1" d="M260.842,35.892c-1.428-2.045-4.27-1.521-5.609,0.375c10.26,1.503-3.141,12.554-8.729,8.868
		c-3.175-1.19-5.257-10.164-1.63-10.806c17.915-3.174,9.934-16.309,9.071-17.349c2.644,3.185,2.911,10.627,7.921,10.466
		c0.294-0.166-0.129-0.347-0.308-0.381c0.473,0.093,1.386,0.729,1.886,0.195c0.014-0.166-1.071-0.4-1.186-0.412
		c-4.747,0.553-4.739-13.917-8.552-13.803c1.167-0.671,1.585,0.814,2.282,0.82c-2.067-2.567,0.973-0.35,0.39,1.24
		c0.035,0.985,1.1,1.796,1.949,1.161c-0.514,0.08-0.918-0.322-0.809-0.831c-0.004-1.28,1.658,1.944,3.582,0.817
		c-1.614,0.032-2.288-2.313-2.616-4.084c1.217,0.897,3.217,1.447,1.165-0.254c-0.2-2.126-2.215-2.293-3.574-3.237
		c0.842,0.45,2.468,0.721,3.258,0.169c-1.658-0.103-2.24-2.31-3.979-2.235c-0.084-0.266,0.797-2.26-0.645-1.865
		c0.838,0.031,0.284,1.178-0.393,0.901c-1.384-1.057-3.162-3.886-4.862-1.477c-2.227-1.183-2.337,1.481-2.355,2.966
		c-1.421,1.463,1.779,5.044,1.763,3.478c0.009,0.905,0.292,1.301,0.733,1.486c0.196,2.711-3.615-0.132-3.811,3.42
		c-0.889,3.325-2.296,6.324-3.31,9.616c-0.331,1.766-2.176,1.433-3.523,1.93c-0.942,0.405,0.537,0.36,0.867,0.291
		c3.24,1.061,4.232-3.146,5.58-5.338c0.884-1.422,1.298-2.986,2.018-4.829c-0.929,2.418,0.06,3.131,0.59,3.821
		c2.486,5.912-15.361,7.352-11.107,18.326c4.253,10.973,15.625,8.976,19.23,6.062c3.566-2.478,4.149-9.257,9.687-8.036
		C269.593,38.493,264.286,32.36,260.842,35.892z M253.306,13.088c-0.964,0.449-1.518,0.049-1.56-0.717
		C252.274,12.46,252.814,12.647,253.306,13.088z M247.448,17.109c0.062-0.156,0.128-0.315,0.202-0.477
		C247.574,16.798,247.508,16.956,247.448,17.109z"/>
	<g class="st2">
		<path class="st3" d="M0.301,29.528c16.437-8.151,40.8-12.784,64.458-15.117c6.925-0.619,17.872-1.805,24.228-0.126
			c4.865,1.537,3.211,4.574,3.962,6.848c0.6,4.241,7.906,6.082,16.508,6.738c8.08,0.645,16.357,0.524,24.522,0.306
			c21.846-0.703,43.395-2.628,64.809-4.618c5.354-0.512,10.698-1.043,16.036-1.588c2.894-0.305,17.316-1.791,12.181,0.909
			c4.902-2.743-9.704-1.024-12.12-0.794c-5.33,0.563-10.667,1.111-16.014,1.642c-10.695,1.057-21.431,2.042-32.242,2.844
			c-18.834,1.284-38.217,2.808-57.238,1.453c-8.681-0.689-16.103-2.594-16.651-6.883c-0.282-1.217-0.17-2.44-0.422-3.65
			c-0.303-3.01-5.147-3.975-11.278-3.934c-8.176,0.034-16.294,0.976-24.166,1.887C35.985,18.067,15.218,22.413,0.301,29.528
			L0.301,29.528z"/>
		<path class="st3" d="M106.063,17.421c0.481,4.081,5.468,6.985,14.821,7.517c8.228,0.532,16.589-0.164,24.701-0.816
			c-4.045,0.433-8.131,0.807-12.275,1.026C119.632,25.95,106.328,24.712,106.063,17.421L106.063,17.421z"/>
		<path class="st3" d="M29.619,24.113c10.234-3.126,31.548-7.403,43.952-7.116c4.058,0.124,7.144,1.703,8.535,3.301
			c2.475,2.744-0.578,6.452-7.343,7.223c-5.179,0.685-11.679-0.708-12.382-3.23c-0.407-1.188,0.506-2.484,2.568-3.284
			c4.432-1.782,12.536-0.094,10.361,2.662c-0.844,1.182-4.268,1.738-6.56,1.014c4.058,0.984,7.909-0.901,6.222-2.72
			c-1.524-1.653-6.894-1.957-9.687-0.785c-6.547,3.037,0.901,7.161,9.347,6.126c8.009-0.907,10.365-5.784,5.373-8.485
			c-1.571-0.913-3.76-1.699-6.453-1.733c-5.236-0.137-10.397,0.562-15.357,1.24C48.289,19.799,38.43,21.685,29.619,24.113
			L29.619,24.113z"/>
		<path class="st3" d="M89.579,31.038c16.699,1.378,33.847,1.411,50.683,0.508c14.68-0.627,29.632-2.337,44.372-1.131
			c2.025,0.229,4.27,0.518,5.957,0.995c-7.793-1.622-16.655-1.265-24.989-0.977c-8.439,0.358-16.853,0.885-25.309,1.243
			C123.48,32.414,106.031,32.853,89.579,31.038L89.579,31.038z"/>
	</g>
	<g class="st2">
		<path class="st3" d="M503.272,29.528c-16.437-8.151-40.8-12.784-64.458-15.117c-6.925-0.619-17.872-1.805-24.228-0.126
			c-4.865,1.537-3.211,4.574-3.962,6.848c-0.6,4.241-7.906,6.082-16.508,6.738c-8.08,0.645-16.357,0.524-24.522,0.306
			c-21.846-0.703-43.395-2.628-64.809-4.618c-5.354-0.512-10.698-1.043-16.036-1.588c-2.894-0.305-17.316-1.791-12.181,0.909
			c-4.902-2.743,9.704-1.024,12.12-0.794c5.33,0.563,10.667,1.111,16.014,1.642c10.695,1.057,21.431,2.042,32.242,2.844
			c18.834,1.284,38.217,2.808,57.238,1.453c8.681-0.689,16.103-2.594,16.651-6.883c0.282-1.217,0.17-2.44,0.422-3.65
			c0.303-3.01,5.147-3.975,11.278-3.934c8.176,0.034,16.294,0.976,24.166,1.887C467.588,18.067,488.354,22.413,503.272,29.528
			L503.272,29.528z"/>
		<path class="st3" d="M397.51,17.421c-0.481,4.081-5.468,6.985-14.821,7.517c-8.228,0.532-16.589-0.164-24.702-0.816
			c4.045,0.433,8.131,0.807,12.275,1.026C383.94,25.95,397.244,24.712,397.51,17.421L397.51,17.421z"/>
		<path class="st3" d="M473.953,24.113c-10.234-3.126-31.548-7.403-43.952-7.116c-4.058,0.124-7.144,1.703-8.535,3.301
			c-2.475,2.744,0.578,6.452,7.343,7.223c5.179,0.685,11.679-0.708,12.382-3.23c0.407-1.188-0.506-2.484-2.568-3.284
			c-4.432-1.782-12.536-0.094-10.361,2.662c0.844,1.182,4.268,1.738,6.56,1.014c-4.059,0.984-7.909-0.901-6.222-2.72
			c1.525-1.653,6.894-1.957,9.687-0.785c6.547,3.037-0.901,7.161-9.347,6.126c-8.009-0.907-10.365-5.784-5.373-8.485
			c1.571-0.913,3.76-1.699,6.453-1.733c5.236-0.137,10.397,0.562,15.357,1.24C455.284,19.799,465.142,21.685,473.953,24.113
			L473.953,24.113z"/>
		<path class="st3" d="M413.993,31.038c-16.699,1.378-33.847,1.411-50.683,0.508c-14.68-0.627-29.632-2.337-44.372-1.131
			c-2.025,0.229-4.27,0.518-5.957,0.995c7.793-1.622,16.655-1.265,24.989-0.977c8.439,0.358,16.853,0.885,25.309,1.243
			C380.092,32.414,397.541,32.853,413.993,31.038L413.993,31.038z"/>
	</g>
</g>
<g id="Layer_4">
	<g>
		<path class="st3" d="M212.372,22.042c-5.808,0.59-11.821,1.189-17.889,1.768c-9.792,0.784-19.669,1.709-29.575,2.508
			c-1.555,0.11-3.111,0.221-4.64,0.32c-17.37,1.016-34.847,2.252-52.219,0.822c-4.345-0.576-13.618-1.272-14.776-6.373
			c-0.443-1.411-0.02-3.237-0.781-4.682c-0.506-1.164-1.921-1.955-3.933-2.474c-0.199-0.054-0.403-0.107-0.621-0.156
			c-10.243-2.22-33.92,1.789-39.834,2.442c-16.328,2.569-32.804,5.896-47.725,13.275c-0.014,0.007-0.029,0.013-0.043,0.02
			c0.008-0.003,0.015-0.007,0.023-0.01c-0.005,0.003-0.01,0.005-0.015,0.007c-0.013,0.007-0.028,0.013-0.041,0.019
			c0.005-0.002,0.01-0.004,0.014-0.006c-0.016,0.008-0.032,0.015-0.048,0.023c14.615-6.586,30.293-9.877,46.027-12.368
			c7.867-1.212,15.784-2.129,23.713-2.794c5.893-0.343,11.943-1,17.772,0.091c10.465,2.218-4.786,11.174,19.944,13.772
			c28.881,2.096,58.337-1.424,87.131-3.859c5.798-0.495,11.573-1.187,17.361-1.771c5.015-0.394,10.116-1.438,15.131-0.873
			c0.164,0.035,0.319,0.103,0.406,0.169c0.055,0.052,0.039,0.066-0.036,0.196c-0.189,0.229-0.519,0.414-0.813,0.594
			c0,0,0.196,0.361,0.196,0.361c0.002-0.001,0.003-0.002,0.005-0.003l0,0c0.006-0.004,0.009-0.007,0.015-0.01
			C232.966,19.458,214.54,21.883,212.372,22.042z"/>
		<path class="st3" d="M106.063,17.421c0,0.002,0,0.004,0.001,0.006c0,0.011,0.002,0.022,0.003,0.033
			c0,0.001,0.001,0.002,0.001,0.004c0,0.001,0,0.001,0,0.002c0-0.002-0.001-0.003-0.001-0.005c0.285,7.404,12.55,7.995,18.086,8.256
			c6.298,0.311,15.102-0.801,21.448-1.391l0.001,0v0c0.002,0,0.004,0,0.005,0c0,0-0.038-0.404-0.038-0.404
			c-0.002,0-0.004,0-0.006,0.001c-0.017,0.001-10.697,0.744-10.697,0.744c-1.209,0.052-2.861,0.147-4.757,0.217
			c-1.931,0.016-3.862-0.013-5.792-0.104c-5.88-0.366-16.499-0.338-18.256-7.395C106.06,17.396,106.063,17.408,106.063,17.421
			C106.063,17.421,106.063,17.421,106.063,17.421z M106.505,18.993c-0.204-0.453-0.341-0.927-0.413-1.417
			C106.182,18.08,106.323,18.551,106.505,18.993z"/>
		<polygon class="st3" points="106.066,17.458 106.066,17.46 106.066,17.459 		"/>
		<path class="st3" d="M80.908,18.856c-3.771-2.579-8.517-2.303-12.843-2.059c-12.44,1.008-24.714,3.239-36.699,6.804
			c-0.605,0.172-1.187,0.342-1.732,0.509c-0.017,0.005-0.034,0.01-0.05,0.015c12.403-3.02,24.854-5.352,37.53-6.483
			c4.092-0.188,8.518-0.749,12.257,1.271c1.689,0.811,3.566,2.451,2.572,4.426c-2.822,4.546-12.771,4.516-17.097,2.309
			c-2.426-1.243-2.104-2.832,0.185-3.964c2.718-1.232,6.246-1.228,8.99-0.072c0.836,0.393,1.558,1.304,0.66,2.045
			c-1.587,1.227-3.965,1.236-5.88,0.819l-0.115,0.412c0.005,0.001,0.01,0.002,0.014,0.003l0,0.001
			c0.005,0.001,0.011,0.002,0.017,0.003c1.075,0.309,2.191,0.367,3.284,0.264c1.092-0.132,2.226-0.337,3.157-1.068
			c1.158-0.984,0.719-2.28-0.508-2.88c-1.937-0.912-4.13-1.223-6.277-1.046c-0.263,0.02-0.524,0.049-0.784,0.087
			c-0.125,0.017-0.249,0.035-0.373,0.055c-0.024,0.004-0.048,0.01-0.073,0.015c-0.739,0.128-1.467,0.305-2.168,0.546
			c-1.427,0.505-3.426,1.913-2.623,3.676c1.39,2.449,4.808,2.807,7.336,3.21c3.993,0.557,14.432-0.496,13.407-6.298
			C82.756,20.342,81.828,19.511,80.908,18.856z"/>
		<path class="st3" d="M190.633,31.209c-0.003-0.001-0.005-0.001-0.008-0.001c-3.734-0.93-7.551-1.13-11.352-1.253
			c-1.597-0.055-3.196-0.081-4.796-0.072c-11.465-0.033-22.912,0.942-34.357,1.36c-16.885,0.878-33.673,0.864-50.578-0.207
			c16.818,2.135,33.713,1.71,50.588,1.035c14.708-0.354,36.044-3.07,50.419-0.458l0.098-0.399
			C190.642,31.211,190.638,31.21,190.633,31.209L190.633,31.209z"/>
		<path class="st3" d="M433.565,14.383c7.929,0.665,15.846,1.581,23.713,2.794c15.733,2.491,31.413,5.782,46.027,12.368
			c-0.016-0.008-0.031-0.015-0.047-0.022c0.004,0.002,0.009,0.004,0.013,0.006c-0.012-0.006-0.026-0.012-0.038-0.018
			c-0.006-0.003-0.013-0.006-0.019-0.009c0.008,0.004,0.015,0.007,0.023,0.01c-0.014-0.007-0.029-0.013-0.043-0.02
			c-14.923-7.379-31.397-10.706-47.725-13.275c-8.212-1.23-16.467-2.154-24.748-2.787c-4.695-0.143-17.084-1.601-19.641,2.975
			c-0.762,1.445-0.337,3.271-0.781,4.682c-1.165,5.096-10.404,5.795-14.777,6.373c-17.372,1.43-34.849,0.194-52.219-0.822
			c-1.527-0.099-3.081-0.209-4.632-0.319c-9.879-0.797-19.73-1.719-29.502-2.502c-6.087-0.581-12.124-1.182-17.97-1.775
			c-1.147-0.042-20.783-2.665-14.75,1.005c0.007,0.004,0.011,0.008,0.018,0.012l0,0c0.002,0.001,0.003,0.002,0.005,0.003
			l0.196-0.361c-0.293-0.181-0.623-0.365-0.813-0.594c-0.075-0.13-0.091-0.143-0.036-0.196c0.088-0.066,0.242-0.133,0.406-0.169
			c5.015-0.565,10.114,0.479,15.131,0.873c5.788,0.584,11.563,1.276,17.361,1.771c28.779,2.435,58.261,5.956,87.13,3.859
			c24.72-2.591,9.492-11.57,19.945-13.772C421.621,13.383,427.674,14.04,433.565,14.383z"/>
		<polygon class="st3" points="397.507,17.458 397.507,17.459 397.507,17.459 		"/>
		<path class="st3" d="M357.971,24.324c0,0,0.003,0,0.003,0c6.302,0.589,15.179,1.705,21.446,1.391
			c5.53-0.258,17.811-0.858,18.086-8.257c0,0.002-0.001,0.004-0.001,0.006c0-0.001,0-0.001,0-0.002c0-0.001,0.001-0.003,0.001-0.004
			c0-0.012,0.002-0.023,0.003-0.035c0-0.001,0-0.002,0-0.003c0,0,0,0,0,0c0-0.013,0.003-0.025,0.003-0.038
			c-1.765,7.062-12.371,7.026-18.256,7.395c-1.922,0.091-3.845,0.12-5.768,0.104c-1.908-0.071-3.568-0.166-4.781-0.218
			l-10.698-0.744v0c-0.002,0-0.004,0-0.005-0.001c0,0-0.038,0.404-0.038,0.403C357.968,24.324,357.97,24.324,357.971,24.324
			L357.971,24.324z M397.068,18.991c0.182-0.442,0.322-0.912,0.412-1.414C397.408,18.066,397.272,18.539,397.068,18.991z"/>
		<path class="st3" d="M424.202,18.911c3.738-2.02,8.166-1.459,12.257-1.271c12.676,1.131,25.128,3.463,37.53,6.483
			c-8.366-2.691-16.882-4.398-25.492-5.809c-6.061-0.895-12.163-1.774-18.312-1.608c-0.018,0-0.036,0-0.053,0
			c-0.017,0-0.035,0.003-0.052,0.003c-0.381,0.011-0.762,0.012-1.144,0.032c-9.455,0.969-12.546,8.49-1.606,10.763
			c4.254,0.672,9.031,0.615,12.803-1.688c0.935-0.599,1.639-1.87,1.063-2.949c-1.287-1.904-3.536-2.554-5.807-2.688
			c-0.843-0.077-1.7-0.065-2.543,0.03c-0.255,0.018-0.507,0.039-0.751,0.063c-1.535,0.3-3.652,0.535-4.332,2.209
			c-0.231,1.963,2.353,2.518,3.811,2.677c1.093,0.104,2.209,0.045,3.285-0.264c0.005-0.001,0.01-0.002,0.015-0.003l0-0.001
			c0.005-0.001,0.01-0.002,0.014-0.003c0,0-0.115-0.412-0.115-0.412c-1.915,0.417-4.293,0.408-5.88-0.819
			c-0.9-0.741-0.175-1.653,0.66-2.045c2.745-1.156,6.273-1.16,8.99,0.072c2.3,1.137,2.602,2.724,0.185,3.964
			c-4.371,2.204-14.232,2.248-17.097-2.31C420.633,21.363,422.515,19.721,424.202,18.911z"/>
		<path class="st3" d="M363.453,31.242c-11.445-0.418-22.892-1.393-34.357-1.36c-1.599-0.008-3.197,0.017-4.794,0.072
			c-3.802,0.123-7.619,0.323-11.354,1.253c-0.003,0.001-0.005,0.001-0.008,0.001l0,0c-0.005,0.001-0.009,0.002-0.014,0.003
			c0,0,0.098,0.399,0.098,0.398c14.456-2.613,35.645,0.105,50.419,0.459c16.875,0.675,33.771,1.099,50.588-1.035
			C397.125,32.106,380.338,32.12,363.453,31.242z"/>
	</g>
	<g>
		<path class="st3" d="M283.602,31.736c-3.067,0-5.808-0.987-6.984-2.513c-0.169-0.22-0.567-0.363-1.008-0.363
			c-0.441,0-0.839,0.143-1.008,0.363c-1.176,1.527-3.917,2.513-6.984,2.513c-3.066,0-5.808-0.987-6.984-2.513
			c-0.169-0.22-0.567-0.363-1.008-0.363c-0.441,0-0.839,0.143-1.008,0.363c-1.176,1.527-3.918,2.513-6.984,2.513
			c-3.067,0-5.808-0.987-6.984-2.513c-0.169-0.22-0.567-0.363-1.008-0.363c-0.441,0-0.839,0.143-1.008,0.363
			c-1.176,1.527-3.918,2.513-6.984,2.513c-3.066,0-5.807-0.987-6.983-2.513c-0.169-0.219-0.567-0.363-1.008-0.363
			c-0.441,0-0.839,0.143-1.008,0.363c-1.176,1.527-3.918,2.513-6.984,2.513c-0.603,0-1.092,0.263-1.092,0.588
			s0.489,0.588,1.092,0.588c3.238,0,6.196-0.854,7.992-2.245c1.796,1.391,4.753,2.245,7.992,2.245c3.239,0,6.196-0.854,7.992-2.245
			c1.796,1.391,4.754,2.245,7.992,2.245c3.239,0,6.196-0.854,7.992-2.245c1.796,1.391,4.754,2.245,7.992,2.245
			s6.196-0.854,7.992-2.245c1.796,1.391,4.754,2.245,7.992,2.245c0.603,0,1.092-0.263,1.092-0.588
			C284.694,31.999,284.205,31.736,283.602,31.736z"/>
		<path class="st3" d="M235.65,37.646c1.796,1.391,4.753,2.245,7.992,2.245c3.238,0,6.196-0.854,7.992-2.245
			c1.796,1.391,4.753,2.245,7.992,2.245s6.196-0.854,7.992-2.245c1.796,1.391,4.754,2.245,7.992,2.245
			c0.603,0,1.092-0.263,1.092-0.588c0-0.325-0.489-0.588-1.092-0.588c-3.066,0-5.808-0.987-6.984-2.513
			c-0.169-0.22-0.567-0.363-1.008-0.363c-0.441,0-0.839,0.143-1.008,0.363c-1.176,1.527-3.918,2.513-6.984,2.513
			c-3.067,0-5.808-0.987-6.983-2.513c-0.169-0.22-0.567-0.363-1.008-0.363c-0.441,0-0.839,0.143-1.008,0.363
			c-1.176,1.527-3.918,2.513-6.984,2.513s-5.808-0.987-6.984-2.513c-0.169-0.22-0.567-0.363-1.008-0.363
			c-0.441,0-0.839,0.143-1.008,0.363c-1.176,1.527-3.918,2.513-6.984,2.513c-0.603,0-1.092,0.263-1.092,0.588
			c0,0.325,0.489,0.588,1.092,0.588C230.896,39.892,233.854,39.038,235.65,37.646z"/>
		<path class="st3" d="M236.643,10.512c-0.158-0.011-0.313,0.042-0.431,0.147c-0.118,0.105-0.189,0.253-0.197,0.411
			c-0.011,0.232-0.018,0.466-0.018,0.701c0,6.963,5.143,12.709,11.717,13.102c0.181,0.042,1.135,0.306,1.769,1.329
			c0.723,1.167,0.778,2.877,0.164,5.084c-0.087,0.313,0.096,0.637,0.409,0.725c0.053,0.015,0.106,0.022,0.158,0.022
			c0.258,0,0.494-0.17,0.567-0.431c0.711-2.553,0.605-4.588-0.315-6.047c-0.975-1.547-2.507-1.834-2.572-1.845
			c-0.023-0.004-0.046-0.007-0.07-0.008c-5.973-0.335-10.651-5.575-10.651-11.93c0-0.012,0-0.024,0-0.036
			c6.526,0.61,12.139,3.78,14.744,8.361c0.161,0.282,0.52,0.381,0.802,0.221c0.282-0.161,0.381-0.52,0.221-0.802
			C250.063,14.452,243.817,11.003,236.643,10.512z"/>
		<path class="st3" d="M262.2,8.018c-0.212,0.008-0.403,0.13-0.5,0.319c-0.819,1.593-2.524,2.279-4.499,3.074
			c-1.933,0.778-4.124,1.66-5.789,3.605c-0.211,0.247-0.183,0.618,0.064,0.829c0.247,0.212,0.618,0.183,0.829-0.064
			c1.478-1.727,3.439-2.516,5.335-3.279c1.746-0.703,3.411-1.373,4.509-2.715c0.509,1.21,1.21,3.553,0.529,6.229
			c-0.777,3.052-3.119,5.712-6.96,7.907c-0.141,0.081-0.243,0.217-0.281,0.376s-0.007,0.326,0.083,0.461
			c1.007,1.511,1.57,3.257,1.72,5.338c0.022,0.31,0.281,0.546,0.586,0.546c0.014,0,0.029,0,0.043-0.002
			c0.324-0.023,0.568-0.305,0.544-0.629c-0.146-2.023-0.679-3.829-1.585-5.378c3.817-2.303,6.167-5.102,6.989-8.329
			c1.111-4.363-1.004-7.862-1.094-8.009C262.612,8.117,262.41,8.01,262.2,8.018z"/>
	</g>
</g>
</svg>
