<?xml version="1.0" encoding="utf-8"?>
<!-- Generator: Adobe Illustrator 27.9.0, SVG Export Plug-In . SVG Version: 6.00 Build 0)  -->
<svg version="1.1" xmlns="http://www.w3.org/2000/svg" xmlns:xlink="http://www.w3.org/1999/xlink" x="0px" y="0px"
	 viewBox="0 0 503.272 50.91" style="enable-background:new 0 0 503.272 50.91;" xml:space="preserve">
<style type="text/css">
	.st0{display:none;}
	.st1{display:inline;fill:#04385A;}
	.st2{display:inline;}
	.st3{fill:#04385A;}
	.st4{fill:#231F20;}
</style>
<g id="Guides">
</g>
<g id="Layer_3" class="st0">
	<path class="st1" d="M260.842,35.892c-1.428-2.045-4.27-1.521-5.609,0.375c10.26,1.503-3.141,12.554-8.729,8.868
		c-3.175-1.19-5.257-10.164-1.63-10.806c17.915-3.174,9.934-16.309,9.071-17.349c2.644,3.185,2.911,10.627,7.921,10.466
		c0.294-0.166-0.129-0.347-0.308-0.381c0.473,0.093,1.386,0.729,1.886,0.195c0.014-0.166-1.071-0.4-1.186-0.412
		c-4.747,0.553-4.739-13.917-8.552-13.803c1.167-0.671,1.585,0.814,2.282,0.82c-2.067-2.567,0.973-0.35,0.39,1.24
		c0.035,0.985,1.1,1.796,1.949,1.161c-0.514,0.08-0.918-0.322-0.809-0.831c-0.004-1.28,1.658,1.944,3.582,0.817
		c-1.614,0.032-2.288-2.313-2.616-4.084c1.217,0.897,3.217,1.447,1.165-0.254c-0.2-2.126-2.215-2.293-3.574-3.237
		c0.842,0.45,2.468,0.721,3.258,0.169c-1.658-0.103-2.24-2.31-3.979-2.235c-0.084-0.266,0.797-2.26-0.645-1.865
		c0.838,0.031,0.284,1.178-0.393,0.901c-1.384-1.057-3.162-3.886-4.862-1.477c-2.227-1.183-2.337,1.481-2.355,2.966
		c-1.421,1.463,1.779,5.044,1.763,3.478c0.009,0.905,0.292,1.301,0.733,1.486c0.196,2.711-3.615-0.132-3.811,3.42
		c-0.889,3.325-2.296,6.324-3.31,9.616c-0.331,1.766-2.176,1.433-3.523,1.93c-0.942,0.405,0.537,0.36,0.867,0.291
		c3.24,1.061,4.232-3.146,5.58-5.338c0.884-1.422,1.298-2.986,2.018-4.829c-0.929,2.418,0.06,3.131,0.59,3.821
		c2.486,5.912-15.361,7.352-11.107,18.326c4.253,10.973,15.625,8.976,19.23,6.062c3.566-2.478,4.149-9.257,9.687-8.036
		C269.593,38.493,264.286,32.36,260.842,35.892z M253.306,13.088c-0.964,0.449-1.518,0.049-1.56-0.717
		C252.274,12.46,252.814,12.647,253.306,13.088z M247.448,17.109c0.062-0.156,0.128-0.315,0.202-0.477
		C247.574,16.798,247.508,16.956,247.448,17.109z"/>
	<g class="st2">
		<path class="st3" d="M0.301,29.528c16.437-8.151,40.8-12.784,64.458-15.117c6.925-0.619,17.872-1.805,24.228-0.126
			c4.865,1.537,3.211,4.574,3.962,6.848c0.6,4.241,7.906,6.082,16.508,6.738c8.08,0.645,16.357,0.524,24.522,0.306
			c21.846-0.703,43.395-2.628,64.809-4.618c5.354-0.512,10.698-1.043,16.036-1.588c2.894-0.305,17.316-1.791,12.181,0.909
			c4.902-2.743-9.704-1.024-12.12-0.794c-5.33,0.563-10.667,1.111-16.014,1.642c-10.695,1.057-21.431,2.042-32.242,2.844
			c-18.834,1.284-38.217,2.808-57.238,1.453c-8.681-0.689-16.103-2.594-16.651-6.883c-0.282-1.217-0.17-2.44-0.422-3.65
			c-0.303-3.01-5.147-3.975-11.278-3.934c-8.176,0.034-16.294,0.976-24.166,1.887C35.985,18.067,15.218,22.413,0.301,29.528
			L0.301,29.528z"/>
		<path class="st3" d="M106.063,17.421c0.481,4.081,5.468,6.985,14.821,7.517c8.228,0.532,16.589-0.164,24.701-0.816
			c-4.045,0.433-8.131,0.807-12.275,1.026C119.632,25.95,106.328,24.712,106.063,17.421L106.063,17.421z"/>
		<path class="st3" d="M29.619,24.113c10.234-3.126,31.548-7.403,43.952-7.116c4.058,0.124,7.144,1.703,8.535,3.301
			c2.475,2.744-0.578,6.452-7.343,7.223c-5.179,0.685-11.679-0.708-12.382-3.23c-0.407-1.188,0.506-2.484,2.568-3.284
			c4.432-1.782,12.536-0.094,10.361,2.662c-0.844,1.182-4.268,1.738-6.56,1.014c4.058,0.984,7.909-0.901,6.222-2.72
			c-1.524-1.653-6.894-1.957-9.687-0.785c-6.547,3.037,0.901,7.161,9.347,6.126c8.009-0.907,10.365-5.784,5.373-8.485
			c-1.571-0.913-3.76-1.699-6.453-1.733c-5.236-0.137-10.397,0.562-15.357,1.24C48.289,19.799,38.43,21.685,29.619,24.113
			L29.619,24.113z"/>
		<path class="st3" d="M89.579,31.038c16.699,1.378,33.847,1.411,50.683,0.508c14.68-0.627,29.632-2.337,44.372-1.131
			c2.025,0.229,4.27,0.518,5.957,0.995c-7.793-1.622-16.655-1.265-24.989-0.977c-8.439,0.358-16.853,0.885-25.309,1.243
			C123.48,32.414,106.031,32.853,89.579,31.038L89.579,31.038z"/>
	</g>
	<g class="st2">
		<path class="st3" d="M503.272,29.528c-16.437-8.151-40.8-12.784-64.458-15.117c-6.925-0.619-17.872-1.805-24.228-0.126
			c-4.865,1.537-3.211,4.574-3.962,6.848c-0.6,4.241-7.906,6.082-16.508,6.738c-8.08,0.645-16.357,0.524-24.522,0.306
			c-21.846-0.703-43.395-2.628-64.809-4.618c-5.354-0.512-10.698-1.043-16.036-1.588c-2.894-0.305-17.316-1.791-12.181,0.909
			c-4.902-2.743,9.704-1.024,12.12-0.794c5.33,0.563,10.667,1.111,16.014,1.642c10.695,1.057,21.431,2.042,32.242,2.844
			c18.834,1.284,38.217,2.808,57.238,1.453c8.681-0.689,16.103-2.594,16.651-6.883c0.282-1.217,0.17-2.44,0.422-3.65
			c0.303-3.01,5.147-3.975,11.278-3.934c8.176,0.034,16.294,0.976,24.166,1.887C467.588,18.067,488.354,22.413,503.272,29.528
			L503.272,29.528z"/>
		<path class="st3" d="M397.51,17.421c-0.481,4.081-5.468,6.985-14.821,7.517c-8.228,0.532-16.589-0.164-24.702-0.816
			c4.045,0.433,8.131,0.807,12.275,1.026C383.94,25.95,397.244,24.712,397.51,17.421L397.51,17.421z"/>
		<path class="st3" d="M473.953,24.113c-10.234-3.126-31.548-7.403-43.952-7.116c-4.058,0.124-7.144,1.703-8.535,3.301
			c-2.475,2.744,0.578,6.452,7.343,7.223c5.179,0.685,11.679-0.708,12.382-3.23c0.407-1.188-0.506-2.484-2.568-3.284
			c-4.432-1.782-12.536-0.094-10.361,2.662c0.844,1.182,4.268,1.738,6.56,1.014c-4.059,0.984-7.909-0.901-6.222-2.72
			c1.525-1.653,6.894-1.957,9.687-0.785c6.547,3.037-0.901,7.161-9.347,6.126c-8.009-0.907-10.365-5.784-5.373-8.485
			c1.571-0.913,3.76-1.699,6.453-1.733c5.236-0.137,10.397,0.562,15.357,1.24C455.284,19.799,465.142,21.685,473.953,24.113
			L473.953,24.113z"/>
		<path class="st3" d="M413.993,31.038c-16.699,1.378-33.847,1.411-50.683,0.508c-14.68-0.627-29.632-2.337-44.372-1.131
			c-2.025,0.229-4.27,0.518-5.957,0.995c7.793-1.622,16.655-1.265,24.989-0.977c8.439,0.358,16.853,0.885,25.309,1.243
			C380.092,32.414,397.541,32.853,413.993,31.038L413.993,31.038z"/>
	</g>
</g>
<g id="Layer_4">
	<g>
		<path class="st4" d="M9.392,26.551C9.392,26.551,9.392,26.551,9.392,26.551c-0.164-0.279-0.347-0.639-0.557-1.055
			c-0.446-0.882-1.001-1.981-1.65-2.798c-0.599-0.755-1.13-1.087-1.958-1.23c-1.778-0.306-3.264,0.548-3.914,1.009
			c0.494,0.71,0.881,1.464,1.256,2.198c0.254,0.496,0.495,0.965,0.765,1.419c0.594,1.001,1.581,1.801,1.952,2.102
			c0.079,0.064,0.134,0.11,0.161,0.135c0.045,0.043,0.094,0.083,0.142,0.123c0.001,0.001,0.002,0.003,0.003,0.004
			c1.215,1.042,3.322,1.63,5.645,0.187C10.695,28.152,9.844,27.315,9.392,26.551z"/>
		<path class="st4" d="M2.637,26.622c-0.286-0.481-0.544-0.984-0.794-1.472c-0.361-0.705-0.739-1.427-1.199-2.088
			c-0.573,0.731-0.872,2.207-0.437,3.444c0.535,1.52,1.97,2.226,4.079,2.031l0.001,0C3.789,28.094,3.117,27.427,2.637,26.622z"/>
		<path class="st4" d="M16.183,26.545C16.183,26.545,16.183,26.545,16.183,26.545c-0.164-0.279-0.347-0.639-0.557-1.055
			c-0.446-0.882-1.001-1.981-1.65-2.798c-0.599-0.755-1.13-1.088-1.958-1.23c-0.024-0.004-0.046,0.003-0.069-0.001v-0.001
			c-1.742-0.268-3.196,0.563-3.837,1.016l-0.007,0.002c0.574,0.817,1.061,1.761,1.46,2.548c0.199,0.393,0.374,0.741,0.526,0.998
			c0.447,0.756,1.395,1.639,1.858,2.049v0.001c0.046,0.038,0.092,0.086,0.128,0.115c0.079,0.064,0.134,0.11,0.161,0.135
			c0.045,0.042,0.094,0.083,0.142,0.123c0.001,0.001,0.002,0.003,0.003,0.004c1.215,1.042,3.322,1.63,5.644,0.187
			C17.486,28.146,16.635,27.309,16.183,26.545z"/>
		<path class="st4" d="M22.975,26.545C22.975,26.545,22.975,26.545,22.975,26.545c-0.164-0.279-0.347-0.639-0.557-1.055
			c-0.446-0.882-1.001-1.981-1.65-2.798c-0.599-0.755-1.13-1.088-1.958-1.23c-0.024-0.004-0.046,0.003-0.069-0.001v0.001
			c-1.742-0.268-3.197,0.555-3.837,1.009l-0.007,0.002c0.574,0.817,1.061,1.761,1.46,2.548c0.199,0.393,0.374,0.741,0.526,0.998
			c0.447,0.756,1.395,1.664,1.859,2.073v-0.017c0.046,0.038,0.092,0.086,0.128,0.115c0.079,0.064,0.134,0.11,0.161,0.135
			c0.045,0.042,0.094,0.083,0.142,0.123c0.001,0.001,0.002,0.003,0.003,0.004c1.215,1.042,3.322,1.63,5.644,0.187
			C24.277,28.146,23.427,27.309,22.975,26.545z"/>
		<path class="st4" d="M29.766,26.545C29.766,26.545,29.766,26.545,29.766,26.545c-0.164-0.279-0.347-0.639-0.557-1.055
			c-0.446-0.882-1.001-1.981-1.65-2.798c-0.599-0.755-1.13-1.088-1.958-1.23c-0.024-0.004-0.046,0.003-0.069-0.001v0.001
			c-1.742-0.268-3.197,0.555-3.837,1.009l-0.007,0.002c0.574,0.817,1.061,1.761,1.46,2.548c0.199,0.393,0.374,0.741,0.526,0.998
			c0.447,0.756,1.395,1.664,1.859,2.073v-0.017c0.046,0.038,0.092,0.086,0.128,0.115c0.079,0.064,0.134,0.11,0.161,0.135
			c0.045,0.042,0.094,0.083,0.142,0.123c0.001,0.001,0.002,0.003,0.003,0.004c1.215,1.042,3.322,1.63,5.644,0.187
			C31.069,28.146,30.218,27.309,29.766,26.545z"/>
		<path class="st4" d="M36.558,26.545C36.558,26.545,36.558,26.545,36.558,26.545c-0.164-0.279-0.347-0.639-0.557-1.055
			c-0.446-0.882-1.001-1.981-1.651-2.798c-0.599-0.755-1.13-1.088-1.958-1.23c-0.024-0.004-0.046,0.003-0.069-0.001v0.001
			c-1.742-0.268-3.197,0.555-3.837,1.009l-0.007,0.002c0.574,0.817,1.061,1.761,1.46,2.548c0.199,0.393,0.374,0.741,0.526,0.998
			c0.447,0.756,1.395,1.664,1.859,2.073v-0.017c0.046,0.038,0.092,0.086,0.128,0.115c0.079,0.064,0.134,0.11,0.161,0.135
			c0.045,0.042,0.094,0.083,0.142,0.123c0.001,0.001,0.002,0.003,0.003,0.004c1.215,1.042,3.322,1.63,5.644,0.187
			C37.86,28.146,37.01,27.309,36.558,26.545z"/>
		<path class="st4" d="M43.349,26.545C43.349,26.545,43.349,26.545,43.349,26.545c-0.164-0.279-0.347-0.639-0.557-1.055
			c-0.446-0.882-1.001-1.981-1.651-2.798c-0.599-0.755-1.13-1.088-1.958-1.23c-0.024-0.004-0.046,0.003-0.069-0.001v0.001
			c-1.742-0.268-3.197,0.555-3.837,1.009l-0.007,0.002c0.574,0.817,1.061,1.761,1.46,2.548c0.199,0.393,0.374,0.741,0.526,0.998
			c0.447,0.756,1.395,1.664,1.859,2.073v-0.017c0.046,0.038,0.092,0.086,0.128,0.115c0.079,0.064,0.134,0.11,0.161,0.135
			c0.045,0.042,0.094,0.083,0.142,0.123c0.001,0.001,0.002,0.003,0.003,0.004c1.215,1.042,3.322,1.63,5.644,0.187
			C44.652,28.146,43.801,27.309,43.349,26.545z"/>
		<path class="st4" d="M50.141,26.545C50.141,26.545,50.141,26.545,50.141,26.545c-0.164-0.279-0.347-0.639-0.557-1.055
			c-0.446-0.882-1.001-1.981-1.651-2.798c-0.599-0.755-1.13-1.088-1.958-1.23c-0.024-0.004-0.046,0.003-0.069-0.001v0.001
			c-1.742-0.268-3.197,0.555-3.837,1.009l-0.007,0.002c0.574,0.817,1.061,1.761,1.46,2.548c0.199,0.393,0.374,0.741,0.526,0.998
			c0.447,0.756,1.395,1.664,1.859,2.073v-0.017c0.046,0.038,0.092,0.086,0.128,0.115c0.079,0.064,0.134,0.11,0.161,0.135
			c0.045,0.042,0.094,0.083,0.142,0.123c0.001,0.001,0.002,0.003,0.003,0.004c1.215,1.042,3.322,1.63,5.644,0.187
			C51.443,28.146,50.593,27.309,50.141,26.545z"/>
		<path class="st4" d="M56.932,26.545C56.932,26.545,56.932,26.545,56.932,26.545c-0.164-0.279-0.347-0.639-0.557-1.055
			c-0.446-0.882-1.001-1.981-1.651-2.798c-0.599-0.755-1.13-1.088-1.958-1.23c-0.024-0.004-0.046,0.003-0.069-0.001v0.001
			c-1.742-0.268-3.197,0.555-3.837,1.009l-0.007,0.002c0.574,0.817,1.061,1.761,1.46,2.548c0.199,0.393,0.374,0.741,0.526,0.998
			c0.447,0.756,1.395,1.664,1.859,2.073v-0.017c0.046,0.038,0.092,0.086,0.128,0.115c0.079,0.064,0.134,0.11,0.161,0.135
			c0.045,0.042,0.094,0.083,0.142,0.123c0.001,0.001,0.002,0.003,0.003,0.004c1.215,1.042,3.322,1.63,5.644,0.187
			C58.235,28.146,57.384,27.309,56.932,26.545z"/>
		<path class="st4" d="M63.723,26.545C63.723,26.545,63.723,26.545,63.723,26.545c-0.164-0.279-0.347-0.639-0.557-1.055
			c-0.446-0.882-1.001-1.981-1.65-2.798c-0.599-0.755-1.13-1.088-1.958-1.23c-0.024-0.004-0.046,0.003-0.069-0.001v0.001
			c-1.742-0.268-3.197,0.555-3.837,1.009l-0.007,0.002c0.574,0.817,1.061,1.761,1.46,2.548c0.199,0.393,0.374,0.741,0.526,0.998
			c0.447,0.756,1.395,1.664,1.859,2.073v-0.017c0.046,0.038,0.092,0.086,0.128,0.115c0.079,0.064,0.134,0.11,0.161,0.135
			c0.045,0.042,0.094,0.083,0.142,0.123c0.001,0.001,0.002,0.003,0.003,0.004c1.215,1.042,3.322,1.63,5.644,0.187
			C65.026,28.146,64.175,27.309,63.723,26.545z"/>
		<path class="st4" d="M70.515,26.545C70.515,26.545,70.515,26.545,70.515,26.545c-0.164-0.279-0.347-0.639-0.557-1.055
			c-0.446-0.882-1.001-1.981-1.65-2.798c-0.599-0.755-1.13-1.088-1.958-1.23c-0.024-0.004-0.046,0.003-0.069-0.001v0.001
			c-1.742-0.268-3.197,0.555-3.837,1.009l-0.007,0.002c0.574,0.817,1.061,1.761,1.46,2.548c0.199,0.393,0.374,0.741,0.526,0.998
			c0.447,0.756,1.395,1.664,1.859,2.073v-0.017c0.046,0.038,0.092,0.086,0.128,0.115c0.079,0.064,0.134,0.11,0.161,0.135
			c0.045,0.042,0.094,0.083,0.142,0.123c0.001,0.001,0.002,0.003,0.003,0.004c1.215,1.042,3.322,1.63,5.644,0.187
			C71.817,28.146,70.967,27.309,70.515,26.545z"/>
		<path class="st4" d="M77.306,26.545C77.306,26.545,77.306,26.545,77.306,26.545c-0.164-0.279-0.347-0.639-0.557-1.055
			c-0.446-0.882-1.001-1.981-1.65-2.798c-0.599-0.755-1.13-1.088-1.958-1.23c-0.024-0.004-0.046,0.003-0.069-0.001v0.001
			c-1.742-0.268-3.197,0.555-3.837,1.009l-0.007,0.002c0.574,0.817,1.061,1.761,1.46,2.548c0.199,0.393,0.374,0.741,0.526,0.998
			c0.447,0.756,1.395,1.664,1.859,2.073v-0.017c0.046,0.038,0.092,0.086,0.128,0.115c0.079,0.064,0.134,0.11,0.161,0.135
			c0.045,0.042,0.094,0.083,0.142,0.123c0.001,0.001,0.002,0.003,0.003,0.004c1.215,1.042,3.322,1.63,5.644,0.187
			C78.609,28.146,77.758,27.309,77.306,26.545z"/>
		<path class="st4" d="M84.098,26.545C84.098,26.545,84.098,26.545,84.098,26.545c-0.164-0.279-0.347-0.639-0.557-1.055
			c-0.446-0.882-1.001-1.981-1.65-2.798c-0.599-0.755-1.13-1.088-1.958-1.23c-0.024-0.004-0.046,0.003-0.069-0.001v0.001
			c-1.742-0.268-3.197,0.555-3.837,1.009l-0.007,0.002c0.574,0.817,1.061,1.761,1.46,2.548c0.199,0.393,0.374,0.741,0.526,0.998
			c0.447,0.756,1.395,1.664,1.859,2.073v-0.017c0.046,0.038,0.092,0.086,0.128,0.115c0.079,0.064,0.134,0.11,0.161,0.135
			c0.045,0.042,0.094,0.083,0.142,0.123c0.001,0.001,0.002,0.003,0.003,0.004c1.215,1.042,3.322,1.63,5.644,0.187
			C85.4,28.146,84.55,27.309,84.098,26.545z"/>
		<path class="st4" d="M90.889,26.545C90.889,26.545,90.889,26.545,90.889,26.545c-0.164-0.279-0.347-0.639-0.557-1.055
			c-0.446-0.882-1.001-1.981-1.65-2.798c-0.599-0.755-1.13-1.088-1.958-1.23c-0.024-0.004-0.046,0.003-0.069-0.001v0.001
			c-1.742-0.268-3.197,0.555-3.837,1.009l-0.007,0.002c0.574,0.817,1.061,1.761,1.46,2.548c0.199,0.393,0.374,0.741,0.526,0.998
			c0.447,0.756,1.395,1.664,1.859,2.073v-0.017c0.046,0.038,0.092,0.086,0.128,0.115c0.079,0.064,0.134,0.11,0.161,0.135
			c0.045,0.042,0.094,0.083,0.142,0.123c0.001,0.001,0.002,0.003,0.003,0.004c1.215,1.042,3.322,1.63,5.644,0.187
			C92.192,28.146,91.341,27.309,90.889,26.545z"/>
		<path class="st4" d="M97.681,26.545C97.681,26.545,97.681,26.545,97.681,26.545c-0.164-0.279-0.347-0.639-0.557-1.055
			c-0.446-0.882-1.001-1.981-1.651-2.798c-0.599-0.755-1.13-1.088-1.958-1.23c-0.024-0.004-0.046,0.003-0.069-0.001v0.001
			c-1.742-0.268-3.197,0.555-3.837,1.009l-0.007,0.002c0.574,0.817,1.061,1.761,1.46,2.548c0.199,0.393,0.374,0.741,0.526,0.998
			c0.447,0.756,1.395,1.664,1.859,2.073v-0.017c0.046,0.038,0.092,0.086,0.128,0.115c0.079,0.064,0.134,0.11,0.161,0.135
			c0.045,0.042,0.094,0.083,0.142,0.123c0.001,0.001,0.002,0.003,0.003,0.004c1.215,1.042,3.322,1.63,5.644,0.187
			C98.983,28.146,98.133,27.309,97.681,26.545z"/>
		<path class="st4" d="M104.472,26.545C104.472,26.545,104.472,26.545,104.472,26.545c-0.164-0.279-0.347-0.639-0.557-1.055
			c-0.446-0.882-1.001-1.981-1.651-2.798c-0.599-0.755-1.13-1.088-1.958-1.23c-0.024-0.004-0.046,0.003-0.069-0.001v0.001
			c-1.742-0.268-3.197,0.555-3.837,1.009l-0.007,0.002c0.574,0.817,1.061,1.761,1.46,2.548c0.199,0.393,0.374,0.741,0.526,0.998
			c0.447,0.756,1.395,1.664,1.859,2.073v-0.017c0.046,0.038,0.092,0.086,0.128,0.115c0.079,0.064,0.134,0.11,0.161,0.135
			c0.045,0.042,0.094,0.083,0.142,0.123c0.001,0.001,0.002,0.003,0.003,0.004c1.215,1.042,3.322,1.63,5.644,0.187
			C105.775,28.146,104.924,27.309,104.472,26.545z"/>
		<path class="st4" d="M111.263,26.545C111.263,26.545,111.263,26.545,111.263,26.545c-0.164-0.279-0.347-0.639-0.557-1.055
			c-0.446-0.882-1.001-1.981-1.651-2.798c-0.599-0.755-1.13-1.088-1.958-1.23c-0.024-0.004-0.046,0.003-0.069-0.001v0.001
			c-1.742-0.268-3.197,0.555-3.837,1.009l-0.007,0.002c0.574,0.817,1.061,1.761,1.46,2.548c0.199,0.393,0.374,0.741,0.526,0.998
			c0.447,0.756,1.395,1.664,1.859,2.073v-0.017c0.046,0.038,0.092,0.086,0.128,0.115c0.079,0.064,0.134,0.11,0.161,0.135
			c0.045,0.042,0.094,0.083,0.142,0.123c0.001,0.001,0.002,0.003,0.003,0.004c1.215,1.042,3.322,1.63,5.644,0.187
			C112.566,28.146,111.715,27.309,111.263,26.545z"/>
		<path class="st4" d="M118.055,26.545C118.055,26.545,118.055,26.545,118.055,26.545c-0.164-0.279-0.347-0.639-0.557-1.055
			c-0.446-0.882-1.001-1.981-1.651-2.798c-0.599-0.755-1.13-1.088-1.958-1.23c-0.024-0.004-0.046,0.003-0.069-0.001v0.001
			c-1.742-0.268-3.197,0.555-3.837,1.009l-0.007,0.002c0.574,0.817,1.061,1.761,1.46,2.548c0.199,0.393,0.374,0.741,0.526,0.998
			c0.447,0.756,1.395,1.664,1.859,2.073v-0.017c0.046,0.038,0.092,0.086,0.128,0.115c0.079,0.064,0.134,0.11,0.161,0.135
			c0.045,0.042,0.094,0.083,0.142,0.123c0.001,0.001,0.002,0.003,0.003,0.004c1.215,1.042,3.322,1.63,5.644,0.187
			C119.357,28.146,118.507,27.309,118.055,26.545z"/>
		<path class="st4" d="M124.846,26.545C124.846,26.545,124.846,26.545,124.846,26.545c-0.164-0.279-0.347-0.639-0.557-1.055
			c-0.446-0.882-1.001-1.981-1.65-2.798c-0.599-0.755-1.13-1.088-1.958-1.23c-0.024-0.004-0.046,0.003-0.069-0.001v0.001
			c-1.742-0.268-3.197,0.555-3.837,1.009l-0.007,0.002c0.574,0.817,1.061,1.761,1.46,2.548c0.199,0.393,0.374,0.741,0.526,0.998
			c0.447,0.756,1.395,1.664,1.859,2.073v-0.017c0.046,0.038,0.092,0.086,0.128,0.115c0.079,0.064,0.134,0.11,0.161,0.135
			c0.045,0.042,0.094,0.083,0.142,0.123c0.001,0.001,0.002,0.003,0.003,0.004c1.215,1.042,3.322,1.63,5.644,0.187
			C126.149,28.146,125.298,27.309,124.846,26.545z"/>
		<path class="st4" d="M131.638,26.545C131.638,26.545,131.638,26.545,131.638,26.545c-0.164-0.279-0.347-0.639-0.557-1.055
			c-0.446-0.882-1.001-1.981-1.65-2.798c-0.599-0.755-1.13-1.088-1.958-1.23c-0.024-0.004-0.046,0.003-0.069-0.001v0.001
			c-1.742-0.268-3.197,0.555-3.837,1.009l-0.007,0.002c0.574,0.817,1.061,1.761,1.46,2.548c0.199,0.393,0.374,0.741,0.526,0.998
			c0.447,0.756,1.395,1.664,1.859,2.073v-0.017c0.046,0.038,0.092,0.086,0.128,0.115c0.079,0.064,0.134,0.11,0.161,0.135
			c0.045,0.042,0.094,0.083,0.142,0.123c0.001,0.001,0.002,0.003,0.003,0.004c1.215,1.042,3.322,1.63,5.644,0.187
			C132.94,28.146,132.09,27.309,131.638,26.545z"/>
		<path class="st4" d="M138.429,26.545C138.429,26.545,138.429,26.545,138.429,26.545c-0.164-0.279-0.347-0.639-0.557-1.055
			c-0.446-0.882-1.001-1.981-1.65-2.798c-0.599-0.755-1.13-1.088-1.958-1.23c-0.024-0.004-0.046,0.003-0.069-0.001v0.001
			c-1.742-0.268-3.197,0.555-3.837,1.009l-0.007,0.002c0.574,0.817,1.061,1.761,1.46,2.548c0.199,0.393,0.374,0.741,0.526,0.998
			c0.447,0.756,1.395,1.664,1.859,2.073v-0.017c0.046,0.038,0.092,0.086,0.128,0.115c0.079,0.064,0.134,0.11,0.161,0.135
			c0.045,0.042,0.094,0.083,0.142,0.123c0.001,0.001,0.002,0.003,0.003,0.004c1.215,1.042,3.322,1.63,5.644,0.187
			C139.732,28.146,138.881,27.309,138.429,26.545z"/>
		<path class="st4" d="M145.221,26.545C145.221,26.545,145.221,26.545,145.221,26.545c-0.164-0.279-0.347-0.639-0.557-1.055
			c-0.446-0.882-1.001-1.981-1.65-2.798c-0.599-0.755-1.13-1.088-1.958-1.23c-0.024-0.004-0.046,0.003-0.069-0.001v0.001
			c-1.742-0.268-3.197,0.555-3.837,1.009l-0.007,0.002c0.574,0.817,1.061,1.761,1.46,2.548c0.199,0.393,0.374,0.741,0.526,0.998
			c0.447,0.756,1.395,1.664,1.859,2.073v-0.017c0.046,0.038,0.092,0.086,0.128,0.115c0.079,0.064,0.134,0.11,0.161,0.135
			c0.045,0.042,0.094,0.083,0.142,0.123c0.001,0.001,0.002,0.003,0.003,0.004c1.215,1.042,3.322,1.63,5.644,0.187
			C146.523,28.146,145.673,27.309,145.221,26.545z"/>
		<path class="st4" d="M152.012,26.545C152.012,26.545,152.012,26.545,152.012,26.545c-0.164-0.279-0.347-0.639-0.557-1.055
			c-0.446-0.882-1.001-1.981-1.65-2.798c-0.599-0.755-1.13-1.088-1.958-1.23c-0.024-0.004-0.046,0.003-0.069-0.001v0.001
			c-1.742-0.268-3.197,0.555-3.837,1.009l-0.007,0.002c0.574,0.817,1.061,1.761,1.46,2.548c0.199,0.393,0.374,0.741,0.526,0.998
			c0.447,0.756,1.395,1.664,1.859,2.073v-0.017c0.046,0.038,0.092,0.086,0.128,0.115c0.079,0.064,0.134,0.11,0.161,0.135
			c0.045,0.042,0.094,0.083,0.142,0.123c0.001,0.001,0.002,0.003,0.003,0.004c1.215,1.042,3.322,1.63,5.644,0.187
			C153.315,28.146,152.464,27.309,152.012,26.545z"/>
		<path class="st4" d="M158.803,26.545C158.803,26.545,158.803,26.545,158.803,26.545c-0.164-0.279-0.347-0.639-0.557-1.055
			c-0.446-0.882-1.001-1.981-1.651-2.798c-0.599-0.755-1.13-1.088-1.958-1.23c-0.024-0.004-0.046,0.003-0.069-0.001v0.001
			c-1.742-0.268-3.197,0.555-3.837,1.009l-0.007,0.002c0.574,0.817,1.061,1.761,1.46,2.548c0.199,0.393,0.374,0.741,0.526,0.998
			c0.447,0.756,1.395,1.664,1.859,2.073v-0.017c0.046,0.038,0.092,0.086,0.128,0.115c0.079,0.064,0.134,0.11,0.161,0.135
			c0.045,0.042,0.094,0.083,0.142,0.123c0.001,0.001,0.002,0.003,0.003,0.004c1.215,1.042,3.322,1.63,5.644,0.187
			C160.106,28.146,159.256,27.309,158.803,26.545z"/>
		<path class="st4" d="M165.595,26.545C165.595,26.545,165.595,26.545,165.595,26.545c-0.164-0.279-0.347-0.639-0.557-1.055
			c-0.446-0.882-1.001-1.981-1.651-2.798c-0.599-0.755-1.13-1.088-1.958-1.23c-0.024-0.004-0.046,0.003-0.069-0.001v0.001
			c-1.742-0.268-3.197,0.555-3.837,1.009l-0.007,0.002c0.574,0.817,1.061,1.761,1.46,2.548c0.199,0.393,0.374,0.741,0.526,0.998
			c0.447,0.756,1.395,1.664,1.859,2.073v-0.017c0.046,0.038,0.092,0.086,0.128,0.115c0.079,0.064,0.134,0.11,0.161,0.135
			c0.045,0.042,0.094,0.083,0.142,0.123c0.001,0.001,0.002,0.003,0.003,0.004c1.215,1.042,3.322,1.63,5.644,0.187
			C166.898,28.146,166.047,27.309,165.595,26.545z"/>
		<path class="st4" d="M172.386,26.545C172.386,26.545,172.386,26.545,172.386,26.545c-0.164-0.279-0.347-0.639-0.557-1.055
			c-0.446-0.882-1.001-1.981-1.651-2.798c-0.599-0.755-1.13-1.088-1.958-1.23c-0.024-0.004-0.046,0.003-0.069-0.001v0.001
			c-1.742-0.268-3.197,0.555-3.837,1.009l-0.007,0.002c0.574,0.817,1.061,1.761,1.46,2.548c0.199,0.393,0.374,0.741,0.526,0.998
			c0.447,0.756,1.395,1.664,1.859,2.073v-0.017c0.046,0.038,0.092,0.086,0.128,0.115c0.079,0.064,0.134,0.11,0.161,0.135
			c0.045,0.042,0.094,0.083,0.142,0.123c0.001,0.001,0.002,0.003,0.003,0.004c1.215,1.042,3.322,1.63,5.644,0.187
			C173.689,28.146,172.838,27.309,172.386,26.545z"/>
		<path class="st4" d="M179.178,26.545C179.178,26.545,179.178,26.545,179.178,26.545c-0.164-0.279-0.347-0.639-0.557-1.055
			c-0.446-0.882-1.001-1.981-1.65-2.798c-0.599-0.755-1.13-1.088-1.958-1.23c-0.024-0.004-0.046,0.003-0.069-0.001v0.001
			c-1.742-0.268-3.197,0.555-3.837,1.009l-0.007,0.002c0.574,0.817,1.061,1.761,1.46,2.548c0.199,0.393,0.374,0.741,0.526,0.998
			c0.447,0.756,1.395,1.664,1.859,2.073v-0.017c0.046,0.038,0.092,0.086,0.128,0.115c0.079,0.064,0.134,0.11,0.161,0.135
			c0.045,0.042,0.094,0.083,0.142,0.123c0.001,0.001,0.002,0.003,0.003,0.004c1.215,1.042,3.322,1.63,5.644,0.187
			C180.48,28.146,179.63,27.309,179.178,26.545z"/>
		<path class="st4" d="M185.969,26.545C185.969,26.545,185.969,26.545,185.969,26.545c-0.164-0.279-0.347-0.639-0.557-1.055
			c-0.446-0.882-1.001-1.981-1.65-2.798c-0.599-0.755-1.13-1.088-1.958-1.23c-0.024-0.004-0.046,0.003-0.069-0.001v0.001
			c-1.742-0.268-3.197,0.555-3.837,1.009l-0.007,0.002c0.574,0.817,1.061,1.761,1.46,2.548c0.199,0.393,0.374,0.741,0.526,0.998
			c0.447,0.756,1.395,1.664,1.859,2.073v-0.017c0.046,0.038,0.092,0.086,0.128,0.115c0.079,0.064,0.134,0.11,0.161,0.135
			c0.045,0.042,0.094,0.083,0.142,0.123c0.001,0.001,0.002,0.003,0.003,0.004c1.215,1.042,3.322,1.63,5.644,0.187
			C187.272,28.146,186.421,27.309,185.969,26.545z"/>
		<path class="st4" d="M192.761,26.545C192.761,26.545,192.761,26.545,192.761,26.545c-0.164-0.279-0.347-0.639-0.557-1.055
			c-0.446-0.882-1.001-1.981-1.65-2.798c-0.599-0.755-1.13-1.088-1.958-1.23c-0.024-0.004-0.046,0.003-0.069-0.001v0.001
			c-1.742-0.268-3.197,0.555-3.837,1.009l-0.007,0.002c0.574,0.817,1.061,1.761,1.46,2.548c0.199,0.393,0.374,0.741,0.526,0.998
			c0.447,0.756,1.395,1.664,1.859,2.073v-0.017c0.046,0.038,0.092,0.086,0.128,0.115c0.079,0.064,0.134,0.11,0.161,0.135
			c0.045,0.042,0.094,0.083,0.142,0.123c0.001,0.001,0.002,0.003,0.003,0.004c1.215,1.042,3.322,1.63,5.644,0.187
			C194.063,28.146,193.213,27.309,192.761,26.545z"/>
		<path class="st4" d="M199.552,26.545C199.552,26.545,199.552,26.545,199.552,26.545c-0.164-0.279-0.347-0.639-0.557-1.055
			c-0.446-0.882-1.001-1.981-1.65-2.798c-0.599-0.755-1.13-1.088-1.958-1.23c-0.024-0.004-0.046,0.003-0.069-0.001v0.001
			c-1.742-0.268-3.197,0.555-3.837,1.009l-0.007,0.002c0.574,0.817,1.061,1.761,1.46,2.548c0.199,0.393,0.374,0.741,0.526,0.998
			c0.447,0.756,1.395,1.664,1.859,2.073v-0.017c0.046,0.038,0.092,0.086,0.128,0.115c0.079,0.064,0.134,0.11,0.161,0.135
			c0.045,0.042,0.094,0.083,0.142,0.123c0.001,0.001,0.002,0.003,0.003,0.004c1.215,1.042,3.322,1.63,5.644,0.187
			C200.855,28.146,200.004,27.309,199.552,26.545z"/>
		<path class="st4" d="M206.344,26.545C206.344,26.545,206.344,26.545,206.344,26.545c-0.164-0.279-0.347-0.639-0.557-1.055
			c-0.446-0.882-1.001-1.981-1.65-2.798c-0.599-0.755-1.13-1.088-1.958-1.23c-0.024-0.004-0.046,0.003-0.069-0.001v0.001
			c-1.742-0.268-3.197,0.555-3.837,1.009l-0.007,0.002c0.574,0.817,1.061,1.761,1.46,2.548c0.199,0.393,0.374,0.741,0.526,0.998
			c0.447,0.756,1.395,1.664,1.859,2.073v-0.017c0.046,0.038,0.092,0.086,0.128,0.115c0.079,0.064,0.134,0.11,0.161,0.135
			c0.045,0.042,0.094,0.083,0.142,0.123c0.001,0.001,0.002,0.003,0.003,0.004c1.215,1.042,3.322,1.63,5.644,0.187
			C207.646,28.146,206.796,27.309,206.344,26.545z"/>
		<path class="st4" d="M223.008,24.577c-0.551-1.573-2.064-2.276-4.293-2.014l-0.009,0.001c0.547,0.796,1.013,1.701,1.396,2.46
			c0.204,0.402,0.38,0.75,0.529,1.001c0.449,0.76,1.414,1.658,1.876,2.065C223.118,27.391,223.456,25.856,223.008,24.577z"/>
		<path class="st4" d="M219.933,26.551c-0.165-0.28-0.348-0.641-0.559-1.059c-0.445-0.882-1-1.979-1.649-2.795
			c-0.599-0.755-1.13-1.087-1.958-1.23c-1.777-0.306-3.264,0.548-3.914,1.009l-0.007,0.002c0.574,0.817,1.061,1.761,1.46,2.548
			c0.199,0.393,0.374,0.741,0.526,0.998c0.542,0.917,1.832,2.032,2.086,2.247c0.007,0.006,0.013,0.011,0.019,0.016
			c0.016,0.013,0.027,0.022,0.028,0.023c0.001,0.001,0.001,0.002,0.002,0.003c0.006,0.005,0.016,0.014,0.021,0.018
			c1.187,1.12,3.374,1.814,5.789,0.313C221.236,28.152,220.385,27.315,219.933,26.551z"/>
		<path class="st4" d="M213.134,26.551C213.134,26.551,213.134,26.551,213.134,26.551c-0.164-0.279-0.347-0.639-0.557-1.055
			c-0.446-0.882-1.001-1.981-1.65-2.798c-0.599-0.755-1.13-1.087-1.958-1.23c-0.023-0.004-0.045-0.003-0.069-0.007v0.001
			c-1.742-0.268-3.197,0.555-3.837,1.009l-0.007,0.002c0.574,0.817,1.061,1.761,1.46,2.548c0.199,0.393,0.374,0.741,0.526,0.998
			c0.447,0.756,1.395,1.664,1.859,2.073v0c0.046,0.038,0.092,0.076,0.128,0.104c0.079,0.064,0.134,0.11,0.161,0.135
			c0.045,0.042,0.094,0.083,0.142,0.123c0.001,0.001,0.002,0.003,0.003,0.004c1.215,1.042,3.322,1.63,5.644,0.187
			C214.437,28.152,213.586,27.315,213.134,26.551z"/>
	</g>
	<g>
		<path class="st4" d="M289.451,26.551C289.451,26.551,289.451,26.551,289.451,26.551c-0.164-0.279-0.347-0.639-0.557-1.055
			c-0.446-0.882-1.001-1.981-1.65-2.798c-0.599-0.755-1.13-1.087-1.958-1.23c-1.778-0.306-3.264,0.548-3.914,1.009
			c0.494,0.71,0.881,1.464,1.256,2.198c0.254,0.496,0.495,0.965,0.765,1.419c0.594,1.001,1.581,1.801,1.952,2.102
			c0.079,0.064,0.134,0.11,0.16,0.135c0.045,0.043,0.094,0.083,0.142,0.123c0.001,0.001,0.002,0.003,0.003,0.004
			c1.215,1.042,3.322,1.63,5.645,0.187C290.753,28.152,289.903,27.315,289.451,26.551z"/>
		<path class="st4" d="M282.696,26.622c-0.286-0.481-0.544-0.984-0.794-1.472c-0.361-0.705-0.739-1.427-1.199-2.088
			c-0.573,0.731-0.872,2.207-0.437,3.444c0.535,1.52,1.97,2.226,4.079,2.031l0.001,0C283.847,28.094,283.175,27.427,282.696,26.622z
			"/>
		<path class="st4" d="M296.242,26.545C296.242,26.545,296.242,26.545,296.242,26.545c-0.164-0.279-0.347-0.639-0.557-1.055
			c-0.446-0.882-1.001-1.981-1.651-2.798c-0.599-0.755-1.13-1.088-1.958-1.23c-0.024-0.004-0.046,0.003-0.069-0.001v-0.001
			c-1.742-0.268-3.196,0.563-3.837,1.016l-0.007,0.002c0.574,0.817,1.061,1.761,1.46,2.548c0.199,0.393,0.374,0.741,0.526,0.998
			c0.447,0.756,1.395,1.639,1.858,2.049v0.001c0.046,0.038,0.092,0.086,0.128,0.115c0.079,0.064,0.134,0.11,0.161,0.135
			c0.045,0.042,0.094,0.083,0.142,0.123c0.001,0.001,0.002,0.003,0.003,0.004c1.215,1.042,3.322,1.63,5.644,0.187
			C297.544,28.146,296.694,27.309,296.242,26.545z"/>
		<path class="st4" d="M303.033,26.545C303.033,26.545,303.033,26.545,303.033,26.545c-0.164-0.279-0.347-0.639-0.557-1.055
			c-0.446-0.882-1.001-1.981-1.65-2.798c-0.599-0.755-1.13-1.088-1.958-1.23c-0.024-0.004-0.046,0.003-0.069-0.001v0.001
			c-1.742-0.268-3.197,0.555-3.837,1.009l-0.007,0.002c0.574,0.817,1.061,1.761,1.46,2.548c0.199,0.393,0.374,0.741,0.526,0.998
			c0.447,0.756,1.395,1.664,1.859,2.073v-0.017c0.046,0.038,0.092,0.086,0.128,0.115c0.079,0.064,0.134,0.11,0.161,0.135
			c0.045,0.042,0.094,0.083,0.142,0.123c0.001,0.001,0.002,0.003,0.003,0.004c1.215,1.042,3.322,1.63,5.644,0.187
			C304.336,28.146,303.485,27.309,303.033,26.545z"/>
		<path class="st4" d="M309.824,26.545C309.824,26.545,309.824,26.545,309.824,26.545c-0.164-0.279-0.347-0.639-0.557-1.055
			c-0.446-0.882-1.001-1.981-1.65-2.798c-0.599-0.755-1.13-1.088-1.958-1.23c-0.024-0.004-0.046,0.003-0.069-0.001v0.001
			c-1.742-0.268-3.197,0.555-3.837,1.009l-0.007,0.002c0.574,0.817,1.061,1.761,1.46,2.548c0.199,0.393,0.374,0.741,0.526,0.998
			c0.447,0.756,1.395,1.664,1.859,2.073v-0.017c0.046,0.038,0.092,0.086,0.128,0.115c0.079,0.064,0.134,0.11,0.161,0.135
			c0.045,0.042,0.094,0.083,0.142,0.123c0.001,0.001,0.002,0.003,0.003,0.004c1.215,1.042,3.322,1.63,5.644,0.187
			C311.127,28.146,310.276,27.309,309.824,26.545z"/>
		<path class="st4" d="M316.616,26.545C316.616,26.545,316.616,26.545,316.616,26.545c-0.164-0.279-0.347-0.639-0.557-1.055
			c-0.446-0.882-1.001-1.981-1.65-2.798c-0.599-0.755-1.13-1.088-1.958-1.23c-0.024-0.004-0.046,0.003-0.069-0.001v0.001
			c-1.742-0.268-3.197,0.555-3.837,1.009l-0.007,0.002c0.574,0.817,1.061,1.761,1.46,2.548c0.199,0.393,0.374,0.741,0.526,0.998
			c0.447,0.756,1.395,1.664,1.859,2.073v-0.017c0.046,0.038,0.092,0.086,0.128,0.115c0.079,0.064,0.134,0.11,0.161,0.135
			c0.045,0.042,0.094,0.083,0.142,0.123c0.001,0.001,0.002,0.003,0.003,0.004c1.215,1.042,3.322,1.63,5.644,0.187
			C317.918,28.146,317.068,27.309,316.616,26.545z"/>
		<path class="st4" d="M323.407,26.545C323.407,26.545,323.407,26.545,323.407,26.545c-0.164-0.279-0.347-0.639-0.557-1.055
			c-0.446-0.882-1.001-1.981-1.65-2.798c-0.599-0.755-1.13-1.088-1.958-1.23c-0.024-0.004-0.046,0.003-0.069-0.001v0.001
			c-1.742-0.268-3.197,0.555-3.837,1.009l-0.007,0.002c0.574,0.817,1.061,1.761,1.46,2.548c0.199,0.393,0.374,0.741,0.526,0.998
			c0.447,0.756,1.395,1.664,1.859,2.073v-0.017c0.046,0.038,0.092,0.086,0.128,0.115c0.079,0.064,0.134,0.11,0.161,0.135
			c0.045,0.042,0.094,0.083,0.142,0.123c0.001,0.001,0.002,0.003,0.003,0.004c1.215,1.042,3.322,1.63,5.644,0.187
			C324.71,28.146,323.859,27.309,323.407,26.545z"/>
		<path class="st4" d="M330.199,26.545C330.199,26.545,330.199,26.545,330.199,26.545c-0.164-0.279-0.347-0.639-0.557-1.055
			c-0.446-0.882-1.001-1.981-1.65-2.798c-0.599-0.755-1.13-1.088-1.958-1.23c-0.024-0.004-0.046,0.003-0.069-0.001v0.001
			c-1.742-0.268-3.197,0.555-3.837,1.009l-0.007,0.002c0.574,0.817,1.061,1.761,1.46,2.548c0.199,0.393,0.374,0.741,0.526,0.998
			c0.447,0.756,1.395,1.664,1.859,2.073v-0.017c0.046,0.038,0.092,0.086,0.128,0.115c0.079,0.064,0.134,0.11,0.161,0.135
			c0.045,0.042,0.094,0.083,0.142,0.123c0.001,0.001,0.002,0.003,0.003,0.004c1.215,1.042,3.322,1.63,5.644,0.187
			C331.501,28.146,330.651,27.309,330.199,26.545z"/>
		<path class="st4" d="M336.99,26.545C336.99,26.545,336.99,26.545,336.99,26.545c-0.164-0.279-0.347-0.639-0.557-1.055
			c-0.446-0.882-1.001-1.981-1.65-2.798c-0.599-0.755-1.13-1.088-1.958-1.23c-0.024-0.004-0.046,0.003-0.069-0.001v0.001
			c-1.742-0.268-3.197,0.555-3.837,1.009l-0.007,0.002c0.574,0.817,1.061,1.761,1.46,2.548c0.199,0.393,0.374,0.741,0.526,0.998
			c0.447,0.756,1.395,1.664,1.859,2.073v-0.017c0.046,0.038,0.092,0.086,0.128,0.115c0.079,0.064,0.134,0.11,0.161,0.135
			c0.045,0.042,0.094,0.083,0.142,0.123c0.001,0.001,0.002,0.003,0.003,0.004c1.215,1.042,3.322,1.63,5.644,0.187
			C338.293,28.146,337.442,27.309,336.99,26.545z"/>
		<path class="st4" d="M343.782,26.545C343.782,26.545,343.782,26.545,343.782,26.545c-0.164-0.279-0.347-0.639-0.557-1.055
			c-0.446-0.882-1.001-1.981-1.651-2.798c-0.599-0.755-1.13-1.088-1.958-1.23c-0.024-0.004-0.046,0.003-0.069-0.001v0.001
			c-1.742-0.268-3.197,0.555-3.837,1.009l-0.007,0.002c0.574,0.817,1.061,1.761,1.46,2.548c0.199,0.393,0.374,0.741,0.526,0.998
			c0.447,0.756,1.395,1.664,1.859,2.073v-0.017c0.046,0.038,0.092,0.086,0.128,0.115c0.079,0.064,0.134,0.11,0.161,0.135
			c0.045,0.042,0.094,0.083,0.142,0.123c0.001,0.001,0.002,0.003,0.003,0.004c1.215,1.042,3.322,1.63,5.644,0.187
			C345.084,28.146,344.234,27.309,343.782,26.545z"/>
		<path class="st4" d="M350.573,26.545C350.573,26.545,350.573,26.545,350.573,26.545c-0.164-0.279-0.347-0.639-0.557-1.055
			c-0.446-0.882-1.001-1.981-1.651-2.798c-0.599-0.755-1.13-1.088-1.958-1.23c-0.024-0.004-0.046,0.003-0.069-0.001v0.001
			c-1.742-0.268-3.197,0.555-3.837,1.009l-0.007,0.002c0.574,0.817,1.061,1.761,1.46,2.548c0.199,0.393,0.374,0.741,0.526,0.998
			c0.447,0.756,1.395,1.664,1.859,2.073v-0.017c0.046,0.038,0.092,0.086,0.128,0.115c0.079,0.064,0.134,0.11,0.161,0.135
			c0.045,0.042,0.094,0.083,0.142,0.123c0.001,0.001,0.002,0.003,0.003,0.004c1.215,1.042,3.322,1.63,5.644,0.187
			C351.876,28.146,351.025,27.309,350.573,26.545z"/>
		<path class="st4" d="M357.365,26.545C357.365,26.545,357.365,26.545,357.365,26.545c-0.164-0.279-0.347-0.639-0.557-1.055
			c-0.446-0.882-1.001-1.981-1.651-2.798c-0.599-0.755-1.13-1.088-1.958-1.23c-0.024-0.004-0.046,0.003-0.069-0.001v0.001
			c-1.742-0.268-3.197,0.555-3.837,1.009l-0.007,0.002c0.574,0.817,1.061,1.761,1.46,2.548c0.199,0.393,0.374,0.741,0.526,0.998
			c0.447,0.756,1.395,1.664,1.859,2.073v-0.017c0.046,0.038,0.092,0.086,0.128,0.115c0.079,0.064,0.134,0.11,0.161,0.135
			c0.045,0.042,0.094,0.083,0.142,0.123c0.001,0.001,0.002,0.003,0.003,0.004c1.215,1.042,3.322,1.63,5.644,0.187
			C358.667,28.146,357.817,27.309,357.365,26.545z"/>
		<path class="st4" d="M364.156,26.545C364.156,26.545,364.156,26.545,364.156,26.545c-0.164-0.279-0.347-0.639-0.557-1.055
			c-0.446-0.882-1.001-1.981-1.651-2.798c-0.599-0.755-1.13-1.088-1.958-1.23c-0.024-0.004-0.046,0.003-0.069-0.001v0.001
			c-1.742-0.268-3.197,0.555-3.837,1.009l-0.007,0.002c0.574,0.817,1.061,1.761,1.46,2.548c0.199,0.393,0.374,0.741,0.526,0.998
			c0.447,0.756,1.395,1.664,1.859,2.073v-0.017c0.046,0.038,0.092,0.086,0.128,0.115c0.079,0.064,0.134,0.11,0.161,0.135
			c0.045,0.042,0.094,0.083,0.142,0.123c0.001,0.001,0.002,0.003,0.003,0.004c1.215,1.042,3.322,1.63,5.644,0.187
			C365.459,28.146,364.608,27.309,364.156,26.545z"/>
		<path class="st4" d="M370.947,26.545C370.947,26.545,370.947,26.545,370.947,26.545c-0.164-0.279-0.347-0.639-0.557-1.055
			c-0.446-0.882-1.001-1.981-1.65-2.798c-0.599-0.755-1.13-1.088-1.958-1.23c-0.024-0.004-0.046,0.003-0.069-0.001v0.001
			c-1.742-0.268-3.197,0.555-3.837,1.009l-0.007,0.002c0.574,0.817,1.061,1.761,1.46,2.548c0.199,0.393,0.374,0.741,0.526,0.998
			c0.447,0.756,1.395,1.664,1.859,2.073v-0.017c0.046,0.038,0.092,0.086,0.128,0.115c0.079,0.064,0.134,0.11,0.161,0.135
			c0.045,0.042,0.094,0.083,0.142,0.123c0.001,0.001,0.002,0.003,0.003,0.004c1.215,1.042,3.322,1.63,5.644,0.187
			C372.25,28.146,371.399,27.309,370.947,26.545z"/>
		<path class="st4" d="M377.739,26.545C377.739,26.545,377.739,26.545,377.739,26.545c-0.164-0.279-0.347-0.639-0.557-1.055
			c-0.446-0.882-1.001-1.981-1.65-2.798c-0.599-0.755-1.13-1.088-1.958-1.23c-0.024-0.004-0.046,0.003-0.069-0.001v0.001
			c-1.742-0.268-3.197,0.555-3.837,1.009l-0.007,0.002c0.574,0.817,1.061,1.761,1.46,2.548c0.199,0.393,0.374,0.741,0.526,0.998
			c0.447,0.756,1.395,1.664,1.859,2.073v-0.017c0.046,0.038,0.092,0.086,0.128,0.115c0.079,0.064,0.134,0.11,0.161,0.135
			c0.045,0.042,0.094,0.083,0.142,0.123c0.001,0.001,0.002,0.003,0.003,0.004c1.215,1.042,3.322,1.63,5.644,0.187
			C379.041,28.146,378.191,27.309,377.739,26.545z"/>
		<path class="st4" d="M384.53,26.545C384.53,26.545,384.53,26.545,384.53,26.545c-0.164-0.279-0.347-0.639-0.557-1.055
			c-0.446-0.882-1.001-1.981-1.65-2.798c-0.599-0.755-1.13-1.088-1.958-1.23c-0.024-0.004-0.046,0.003-0.069-0.001v0.001
			c-1.742-0.268-3.197,0.555-3.837,1.009l-0.007,0.002c0.574,0.817,1.061,1.761,1.46,2.548c0.199,0.393,0.374,0.741,0.526,0.998
			c0.447,0.756,1.395,1.664,1.859,2.073v-0.017c0.046,0.038,0.092,0.086,0.128,0.115c0.079,0.064,0.134,0.11,0.161,0.135
			c0.045,0.042,0.094,0.083,0.142,0.123c0.001,0.001,0.002,0.003,0.003,0.004c1.215,1.042,3.322,1.63,5.644,0.187
			C385.833,28.146,384.982,27.309,384.53,26.545z"/>
		<path class="st4" d="M391.322,26.545C391.322,26.545,391.322,26.545,391.322,26.545c-0.164-0.279-0.347-0.639-0.557-1.055
			c-0.446-0.882-1.001-1.981-1.65-2.798c-0.599-0.755-1.13-1.088-1.958-1.23c-0.024-0.004-0.046,0.003-0.069-0.001v0.001
			c-1.742-0.268-3.197,0.555-3.837,1.009l-0.007,0.002c0.574,0.817,1.061,1.761,1.46,2.548c0.199,0.393,0.374,0.741,0.526,0.998
			c0.447,0.756,1.395,1.664,1.859,2.073v-0.017c0.046,0.038,0.092,0.086,0.128,0.115c0.079,0.064,0.134,0.11,0.161,0.135
			c0.045,0.042,0.094,0.083,0.142,0.123c0.001,0.001,0.002,0.003,0.003,0.004c1.215,1.042,3.322,1.63,5.644,0.187
			C392.624,28.146,391.774,27.309,391.322,26.545z"/>
		<path class="st4" d="M398.113,26.545C398.113,26.545,398.113,26.545,398.113,26.545c-0.164-0.279-0.347-0.639-0.557-1.055
			c-0.446-0.882-1.001-1.981-1.65-2.798c-0.599-0.755-1.13-1.088-1.958-1.23c-0.024-0.004-0.046,0.003-0.069-0.001v0.001
			c-1.742-0.268-3.197,0.555-3.837,1.009l-0.007,0.002c0.574,0.817,1.061,1.761,1.46,2.548c0.199,0.393,0.374,0.741,0.526,0.998
			c0.447,0.756,1.395,1.664,1.859,2.073v-0.017c0.046,0.038,0.092,0.086,0.128,0.115c0.079,0.064,0.134,0.11,0.161,0.135
			c0.045,0.042,0.094,0.083,0.142,0.123c0.001,0.001,0.002,0.003,0.003,0.004c1.215,1.042,3.322,1.63,5.644,0.187
			C399.416,28.146,398.565,27.309,398.113,26.545z"/>
		<path class="st4" d="M404.905,26.545C404.905,26.545,404.905,26.545,404.905,26.545c-0.164-0.279-0.347-0.639-0.557-1.055
			c-0.446-0.882-1.001-1.981-1.651-2.798c-0.599-0.755-1.13-1.088-1.958-1.23c-0.024-0.004-0.046,0.003-0.069-0.001v0.001
			c-1.742-0.268-3.197,0.555-3.837,1.009l-0.007,0.002c0.574,0.817,1.061,1.761,1.46,2.548c0.199,0.393,0.374,0.741,0.526,0.998
			c0.447,0.756,1.395,1.664,1.859,2.073v-0.017c0.046,0.038,0.092,0.086,0.128,0.115c0.079,0.064,0.134,0.11,0.161,0.135
			c0.045,0.042,0.094,0.083,0.142,0.123c0.001,0.001,0.002,0.003,0.003,0.004c1.215,1.042,3.322,1.63,5.644,0.187
			C406.207,28.146,405.357,27.309,404.905,26.545z"/>
		<path class="st4" d="M411.696,26.545C411.696,26.545,411.696,26.545,411.696,26.545c-0.164-0.279-0.347-0.639-0.557-1.055
			c-0.446-0.882-1.001-1.981-1.651-2.798c-0.599-0.755-1.13-1.088-1.958-1.23c-0.024-0.004-0.046,0.003-0.069-0.001v0.001
			c-1.742-0.268-3.197,0.555-3.837,1.009l-0.007,0.002c0.574,0.817,1.061,1.761,1.46,2.548c0.199,0.393,0.374,0.741,0.526,0.998
			c0.447,0.756,1.395,1.664,1.859,2.073v-0.017c0.046,0.038,0.092,0.086,0.128,0.115c0.079,0.064,0.134,0.11,0.161,0.135
			c0.045,0.042,0.094,0.083,0.142,0.123c0.001,0.001,0.002,0.003,0.003,0.004c1.215,1.042,3.322,1.63,5.644,0.187
			C412.999,28.146,412.148,27.309,411.696,26.545z"/>
		<path class="st4" d="M418.487,26.545C418.487,26.545,418.487,26.545,418.487,26.545c-0.164-0.279-0.347-0.639-0.557-1.055
			c-0.446-0.882-1.001-1.981-1.651-2.798c-0.599-0.755-1.13-1.088-1.958-1.23c-0.024-0.004-0.046,0.003-0.069-0.001v0.001
			c-1.742-0.268-3.197,0.555-3.837,1.009l-0.007,0.002c0.574,0.817,1.061,1.761,1.46,2.548c0.199,0.393,0.374,0.741,0.526,0.998
			c0.447,0.756,1.395,1.664,1.859,2.073v-0.017c0.046,0.038,0.092,0.086,0.128,0.115c0.079,0.064,0.134,0.11,0.161,0.135
			c0.045,0.042,0.094,0.083,0.142,0.123c0.001,0.001,0.002,0.003,0.003,0.004c1.215,1.042,3.322,1.63,5.644,0.187
			C419.79,28.146,418.939,27.309,418.487,26.545z"/>
		<path class="st4" d="M425.279,26.545C425.279,26.545,425.279,26.545,425.279,26.545c-0.164-0.279-0.347-0.639-0.557-1.055
			c-0.446-0.882-1.001-1.981-1.651-2.798c-0.599-0.755-1.13-1.088-1.958-1.23c-0.024-0.004-0.046,0.003-0.069-0.001v0.001
			c-1.742-0.268-3.197,0.555-3.837,1.009l-0.007,0.002c0.574,0.817,1.061,1.761,1.46,2.548c0.199,0.393,0.374,0.741,0.526,0.998
			c0.447,0.756,1.395,1.664,1.859,2.073v-0.017c0.046,0.038,0.092,0.086,0.128,0.115c0.079,0.064,0.134,0.11,0.161,0.135
			c0.045,0.042,0.094,0.083,0.142,0.123c0.001,0.001,0.002,0.003,0.003,0.004c1.215,1.042,3.322,1.63,5.644,0.187
			C426.581,28.146,425.731,27.309,425.279,26.545z"/>
		<path class="st4" d="M432.07,26.545C432.07,26.545,432.07,26.545,432.07,26.545c-0.164-0.279-0.347-0.639-0.557-1.055
			c-0.446-0.882-1.001-1.981-1.65-2.798c-0.599-0.755-1.13-1.088-1.958-1.23c-0.024-0.004-0.046,0.003-0.069-0.001v0.001
			c-1.742-0.268-3.197,0.555-3.837,1.009l-0.007,0.002c0.574,0.817,1.061,1.761,1.46,2.548c0.199,0.393,0.374,0.741,0.526,0.998
			c0.447,0.756,1.395,1.664,1.859,2.073v-0.017c0.046,0.038,0.092,0.086,0.128,0.115c0.079,0.064,0.134,0.11,0.161,0.135
			c0.045,0.042,0.094,0.083,0.142,0.123c0.001,0.001,0.002,0.003,0.003,0.004c1.215,1.042,3.322,1.63,5.644,0.187
			C433.373,28.146,432.522,27.309,432.07,26.545z"/>
		<path class="st4" d="M438.862,26.545C438.862,26.545,438.862,26.545,438.862,26.545c-0.164-0.279-0.347-0.639-0.557-1.055
			c-0.446-0.882-1.001-1.981-1.65-2.798c-0.599-0.755-1.13-1.088-1.958-1.23c-0.024-0.004-0.046,0.003-0.069-0.001v0.001
			c-1.742-0.268-3.197,0.555-3.837,1.009l-0.007,0.002c0.574,0.817,1.061,1.761,1.46,2.548c0.199,0.393,0.374,0.741,0.526,0.998
			c0.447,0.756,1.395,1.664,1.859,2.073v-0.017c0.046,0.038,0.092,0.086,0.128,0.115c0.079,0.064,0.134,0.11,0.161,0.135
			c0.045,0.042,0.094,0.083,0.142,0.123c0.001,0.001,0.002,0.003,0.003,0.004c1.215,1.042,3.322,1.63,5.644,0.187
			C440.164,28.146,439.314,27.309,438.862,26.545z"/>
		<path class="st4" d="M445.653,26.545C445.653,26.545,445.653,26.545,445.653,26.545c-0.164-0.279-0.347-0.639-0.557-1.055
			c-0.446-0.882-1.001-1.981-1.65-2.798c-0.599-0.755-1.13-1.088-1.958-1.23c-0.024-0.004-0.046,0.003-0.069-0.001v0.001
			c-1.742-0.268-3.197,0.555-3.837,1.009l-0.007,0.002c0.574,0.817,1.061,1.761,1.46,2.548c0.199,0.393,0.374,0.741,0.526,0.998
			c0.447,0.756,1.395,1.664,1.859,2.073v-0.017c0.046,0.038,0.092,0.086,0.128,0.115c0.079,0.064,0.134,0.11,0.161,0.135
			c0.045,0.042,0.094,0.083,0.142,0.123c0.001,0.001,0.002,0.003,0.003,0.004c1.215,1.042,3.322,1.63,5.644,0.187
			C446.956,28.146,446.105,27.309,445.653,26.545z"/>
		<path class="st4" d="M452.445,26.545C452.445,26.545,452.445,26.545,452.445,26.545c-0.164-0.279-0.347-0.639-0.557-1.055
			c-0.446-0.882-1.001-1.981-1.65-2.798c-0.599-0.755-1.13-1.088-1.958-1.23c-0.024-0.004-0.046,0.003-0.069-0.001v0.001
			c-1.742-0.268-3.197,0.555-3.837,1.009l-0.007,0.002c0.574,0.817,1.061,1.761,1.46,2.548c0.199,0.393,0.374,0.741,0.526,0.998
			c0.447,0.756,1.395,1.664,1.859,2.073v-0.017c0.046,0.038,0.092,0.086,0.128,0.115c0.079,0.064,0.134,0.11,0.161,0.135
			c0.045,0.042,0.094,0.083,0.142,0.123c0.001,0.001,0.002,0.003,0.003,0.004c1.215,1.042,3.322,1.63,5.644,0.187
			C453.747,28.146,452.897,27.309,452.445,26.545z"/>
		<path class="st4" d="M459.236,26.545C459.236,26.545,459.236,26.545,459.236,26.545c-0.164-0.279-0.347-0.639-0.557-1.055
			c-0.446-0.882-1.001-1.981-1.65-2.798c-0.599-0.755-1.13-1.088-1.958-1.23c-0.024-0.004-0.046,0.003-0.069-0.001v0.001
			c-1.742-0.268-3.197,0.555-3.837,1.009l-0.007,0.002c0.574,0.817,1.061,1.761,1.46,2.548c0.199,0.393,0.374,0.741,0.526,0.998
			c0.447,0.756,1.395,1.664,1.859,2.073v-0.017c0.046,0.038,0.092,0.086,0.128,0.115c0.079,0.064,0.134,0.11,0.161,0.135
			c0.045,0.042,0.094,0.083,0.142,0.123c0.001,0.001,0.002,0.003,0.003,0.004c1.215,1.042,3.322,1.63,5.644,0.187
			C460.539,28.146,459.688,27.309,459.236,26.545z"/>
		<path class="st4" d="M466.027,26.545C466.027,26.545,466.027,26.545,466.027,26.545c-0.164-0.279-0.347-0.639-0.557-1.055
			c-0.446-0.882-1.001-1.981-1.651-2.798c-0.599-0.755-1.13-1.088-1.958-1.23c-0.024-0.004-0.046,0.003-0.069-0.001v0.001
			c-1.742-0.268-3.197,0.555-3.837,1.009l-0.007,0.002c0.574,0.817,1.061,1.761,1.46,2.548c0.199,0.393,0.374,0.741,0.526,0.998
			c0.447,0.756,1.395,1.664,1.859,2.073v-0.017c0.046,0.038,0.092,0.086,0.128,0.115c0.079,0.064,0.134,0.11,0.161,0.135
			c0.045,0.042,0.094,0.083,0.142,0.123c0.001,0.001,0.002,0.003,0.003,0.004c1.215,1.042,3.322,1.63,5.644,0.187
			C467.33,28.146,466.48,27.309,466.027,26.545z"/>
		<path class="st4" d="M472.819,26.545C472.819,26.545,472.819,26.545,472.819,26.545c-0.164-0.279-0.347-0.639-0.557-1.055
			c-0.446-0.882-1.001-1.981-1.651-2.798c-0.599-0.755-1.13-1.088-1.958-1.23c-0.024-0.004-0.046,0.003-0.069-0.001v0.001
			c-1.742-0.268-3.197,0.555-3.837,1.009l-0.007,0.002c0.574,0.817,1.061,1.761,1.46,2.548c0.199,0.393,0.374,0.741,0.526,0.998
			c0.447,0.756,1.395,1.664,1.859,2.073v-0.017c0.046,0.038,0.092,0.086,0.128,0.115c0.079,0.064,0.134,0.11,0.161,0.135
			c0.045,0.042,0.094,0.083,0.142,0.123c0.001,0.001,0.002,0.003,0.003,0.004c1.215,1.042,3.322,1.63,5.644,0.187
			C474.122,28.146,473.271,27.309,472.819,26.545z"/>
		<path class="st4" d="M479.61,26.545C479.61,26.545,479.61,26.545,479.61,26.545c-0.164-0.279-0.347-0.639-0.557-1.055
			c-0.446-0.882-1.001-1.981-1.651-2.798c-0.599-0.755-1.13-1.088-1.958-1.23c-0.024-0.004-0.046,0.003-0.069-0.001v0.001
			c-1.742-0.268-3.197,0.555-3.837,1.009l-0.007,0.002c0.574,0.817,1.061,1.761,1.46,2.548c0.199,0.393,0.374,0.741,0.526,0.998
			c0.447,0.756,1.395,1.664,1.859,2.073v-0.017c0.046,0.038,0.092,0.086,0.128,0.115c0.079,0.064,0.134,0.11,0.161,0.135
			c0.045,0.042,0.094,0.083,0.142,0.123c0.001,0.001,0.002,0.003,0.003,0.004c1.215,1.042,3.322,1.63,5.644,0.187
			C480.913,28.146,480.062,27.309,479.61,26.545z"/>
		<path class="st4" d="M486.402,26.545C486.402,26.545,486.402,26.545,486.402,26.545c-0.164-0.279-0.347-0.639-0.557-1.055
			c-0.446-0.882-1.001-1.981-1.651-2.798c-0.599-0.755-1.13-1.088-1.958-1.23c-0.024-0.004-0.046,0.003-0.069-0.001v0.001
			c-1.742-0.268-3.197,0.555-3.837,1.009l-0.007,0.002c0.574,0.817,1.061,1.761,1.46,2.548c0.199,0.393,0.374,0.741,0.526,0.998
			c0.447,0.756,1.395,1.664,1.859,2.073v-0.017c0.046,0.038,0.092,0.086,0.128,0.115c0.079,0.064,0.134,0.11,0.161,0.135
			c0.045,0.042,0.094,0.083,0.142,0.123c0.001,0.001,0.002,0.003,0.003,0.004c1.215,1.042,3.322,1.63,5.644,0.187
			C487.704,28.146,486.854,27.309,486.402,26.545z"/>
		<path class="st4" d="M503.067,24.577c-0.551-1.573-2.064-2.276-4.293-2.014l-0.009,0.001c0.547,0.796,1.013,1.701,1.396,2.46
			c0.204,0.402,0.38,0.75,0.529,1.001c0.449,0.76,1.414,1.658,1.876,2.065C503.176,27.391,503.514,25.856,503.067,24.577z"/>
		<path class="st4" d="M499.991,26.551c-0.165-0.28-0.348-0.641-0.559-1.059c-0.445-0.882-1-1.979-1.649-2.795
			c-0.599-0.755-1.13-1.087-1.958-1.23c-1.777-0.306-3.264,0.548-3.914,1.009l-0.007,0.002c0.574,0.817,1.061,1.761,1.46,2.548
			c0.199,0.393,0.374,0.741,0.526,0.998c0.542,0.917,1.832,2.032,2.086,2.247c0.008,0.006,0.013,0.011,0.019,0.016
			c0.016,0.013,0.027,0.022,0.028,0.023c0.001,0.001,0.001,0.002,0.002,0.003c0.006,0.005,0.016,0.014,0.021,0.018
			c1.187,1.12,3.374,1.814,5.789,0.313C501.294,28.152,500.443,27.315,499.991,26.551z"/>
		<path class="st4" d="M493.193,26.551C493.193,26.551,493.193,26.551,493.193,26.551c-0.164-0.279-0.347-0.639-0.557-1.055
			c-0.446-0.882-1.001-1.981-1.65-2.798c-0.599-0.755-1.13-1.087-1.958-1.23c-0.023-0.004-0.045-0.003-0.069-0.007v0.001
			c-1.742-0.268-3.197,0.555-3.837,1.009l-0.007,0.002c0.574,0.817,1.061,1.761,1.46,2.548c0.199,0.393,0.374,0.741,0.526,0.998
			c0.447,0.756,1.395,1.664,1.859,2.073v0c0.046,0.038,0.092,0.076,0.128,0.104c0.079,0.064,0.134,0.11,0.161,0.135
			c0.045,0.042,0.094,0.083,0.142,0.123c0.001,0.001,0.002,0.003,0.003,0.004c1.215,1.042,3.322,1.63,5.644,0.187
			C494.495,28.152,493.645,27.315,493.193,26.551z"/>
	</g>
	<g>
		<path class="st4" d="M271.931,33.288c-0.257-0.093-0.833-0.564-1.097-0.283c-0.322,0.341-0.645,0.679-0.966,1.02
			c-0.327,0.347-0.552,0.777-0.869,1.113c-0.47,0.499-0.659,0.451-0.485,1.182c0.246,1.038-0.857,1.088-1.464,1.696
			c-0.894,0.895-2.286,1.146-3.3,1.861c-0.838,0.591-1.88,0.924-2.826,1.306c-0.527,0.213-0.952,0.571-1.53,0.684
			c-0.669,0.131-1.269,0.414-1.913,0.616c-1.004,0.316-2.605,0.788-3.508,0.008c-0.535-0.462-0.73-2.122-0.574-2.766
			c0.108-0.444,0.046-0.884,0.046-1.337c0-0.421-0.186-0.925-0.09-1.332c0.112-0.481-0.161-0.874-0.061-1.334
			c0.114-0.521-0.096-0.978-0.064-1.507c0.114-1.869-0.064-3.724-0.123-5.589c-0.028-0.897-0.038-1.773-0.066-2.672
			c-0.031-0.978-0.191-1.935-0.154-2.917c0.034-0.905-0.003-1.778-0.095-2.67c-0.097-0.943,0.106-1.893-0.017-2.848
			c-0.104-0.814-0.198-1.868-0.09-2.673c0.058-0.435-0.022-0.9-0.007-1.34c0.025-0.744,0.467-0.308,1.025-0.435
			c0.417-0.095,0.879-0.139,1.308-0.125c0.402,0.013,0.927-0.152,1.311-0.034c0.871,0.265,1.894-0.18,2.795-0.016
			c0.435,0.079,0.855-0.162,1.309-0.123c0.438,0.038,0.874-0.045,1.314-0.005c0.247,0.023,1.09-0.246,1.13,0.157
			c0.047,0.468,0.184,0.971,0.188,1.433c0.004,0.521,0.079,0.709,0.645,0.561c0.507-0.132,0.798,0.075,0.731-0.571
			c-0.047-0.451,0.196-0.814,0.103-1.276c-0.083-0.415,0.226-1.052,0.279-1.494c0.051-0.422,0.053-0.851,0.104-1.278
			c0.046-0.384-0.868-0.273-1.095-0.273c-0.323,0-0.603,0.76-0.718,0.991c-0.243,0.489-0.582,0.517-1.124,0.489
			c-1.831-0.094-3.658-0.185-5.493-0.333c-0.887-0.071-1.739-0.03-2.628-0.139c-0.314-0.038-0.956,0.072-1.223-0.097
			c-0.179-0.114-0.07-1.071,0.123-1.156c2.119-0.934,2.22-4.051,0.111-5.094c-0.988-0.489-2.109-0.302-2.919,0.355
			c-0.995,0.807-1.319,2.267-0.748,3.411c0.226,0.452,0.67,0.738,1.022,1.077c0.38,0.367,0.468,0.344,0.487,0.899
			c0.02,0.553-0.064,0.533-0.578,0.624c-0.512,0.09-1.038,0.07-1.555,0.097c-0.891,0.046-1.755,0.113-2.625,0.158
			c-0.434,0.022-0.874-0.023-1.318,0c-0.52,0.027-1.022,0.192-1.555,0.122c-0.631-0.084-1.997,0.465-2.536,0.041
			c-0.298-0.235-0.542-0.555-0.824-0.81c-0.089-0.08-0.265-0.426-0.406-0.426c-0.315,0-0.6,0.125-0.915,0.125
			c-0.42,0,0.302,2.152,0.298,2.509c-0.006,0.481,0.054,0.964,0.11,1.441c0.086,0.723,0.362,0.651,1.008,0.603
			c0.573-0.043,0.479-0.26,0.531-0.776c0.04-0.404,0.058-0.811,0.099-1.215c0.026-0.262,2.316-0.131,2.624-0.071
			c0.863,0.168,1.756-0.113,2.622,0.097c0.891,0.216,1.962-0.004,2.868,0.025c0.231,0.008,0.422,0.117,0.653,0.125
			c0.246,0.008,0.416-0.149,0.662-0.141c0.455,0.015,0.798,0.087,0.8,0.548c0.005,0.908,0.074,1.953-0.071,2.842
			c-0.142,0.872-0.01,1.79-0.123,2.668c-0.122,0.945-0.079,1.962-0.109,2.916c-0.027,0.878,0.016,1.781-0.012,2.672
			c-0.027,0.87-0.319,2.079-0.105,2.917c0.1,0.391,0.118,0.942-0.008,1.337c-0.145,0.451-0.047,0.87-0.067,1.335
			c-0.039,0.901-0.221,1.962-0.112,2.843c0.112,0.9-0.133,1.78-0.044,2.672c0.044,0.447-0.045,0.89,0.011,1.338
			c0.031,0.246-0.021,0.438-0.097,0.666c-0.11,0.327,0.064,0.597,0.054,0.918c-0.028,0.884-0.138,1.779-0.164,2.673
			c-0.02,0.983-1.146,1.922-2.117,1.541c-1.163-0.456-2.541-0.344-3.661-0.968c-1.1-0.612-2.39-0.863-3.523-1.404
			c-1.932-0.922-3.694-2.092-5.431-3.292c-0.526-0.364-0.459-0.488-0.207-1.01c0.272-0.565-0.261-0.679-0.576-1.014
			c-0.321-0.341-0.644-0.68-0.965-1.02c-0.184-0.195-0.795-1.197-1.018-1.147c-0.173,0.039-0.932,0.217-1.019,0.379
			c-0.137,0.254,0.146,0.938,0.256,1.165c0.203,0.416,0.144,0.855,0.382,1.267c0.117,0.203,0.136,0.419,0.158,0.644
			c0.035,0.351,0.288,0.519,0.384,0.833c0.103,0.339,0.538,0.049,0.771,0.311c0.299,0.335,0.584,0.656,0.903,0.974
			c0.69,0.688,1.365,1.495,2.154,2.079c1.702,1.262,3.332,2.619,5.146,3.701c0.443,0.265,1.012,0.298,1.399,0.684
			c0.43,0.429,1.02,0.591,1.562,0.851c0.389,0.187,0.986,0.599,1.406,0.665c0.54,0.086,0.934,0.414,1.471,0.513
			c0.493,0.09,1.245,0.338,1.679,0.586c0.406,0.232,0.902,0.239,1.279,0.511c0.377,0.273,0.734,0.59,1.007,0.969
			c0.435,0.603,0.467,0.354,0.923-0.184c0.36-0.425,0.547-0.671,1.065-0.922c0.489-0.237,1.06-0.225,1.532-0.469
			c0.466-0.241,0.953-0.416,1.468-0.521c0.641-0.131,1.122-0.572,1.731-0.758c1.001-0.305,2.264-0.87,3.089-1.519
			c0.968-0.761,2.3-1.175,3.19-2.029c0.43-0.412,0.951-0.699,1.422-1.063c0.365-0.281,0.666-0.575,1.015-0.864
			c0.872-0.721,2.021-1.427,2.69-2.347c0.205-0.282,0.653-0.913,1.052-0.916c0.411-0.004,0.772-0.722,0.784-1.081
			C271.244,35.983,272.264,33.408,271.931,33.288C271.56,33.154,272.031,33.324,271.931,33.288z M251.666,8.67
			c-1.729-0.049-1.703-2.89,0-2.938C253.448,5.782,253.445,8.619,251.666,8.67C251.412,8.663,251.92,8.663,251.666,8.67z"/>
	</g>
</g>
</svg>
