<?xml version="1.0" encoding="utf-8"?>
<!-- Generator: Adobe Illustrator 27.9.0, SVG Export Plug-In . SVG Version: 6.00 Build 0)  -->
<svg version="1.1" xmlns="http://www.w3.org/2000/svg" xmlns:xlink="http://www.w3.org/1999/xlink" x="0px" y="0px"
	 viewBox="0 0 503.272 50.91" style="enable-background:new 0 0 503.272 50.91;" xml:space="preserve">
<style type="text/css">
	.st0{display:none;}
	.st1{display:inline;fill:#04385A;}
	.st2{display:inline;}
	.st3{fill:#04385A;}
	.st4{fill:#4466D5;}
	.st5{fill:#4E65D0;}
	.st6{fill:#FE4970;}
	.st7{fill:#E2AB2A;}
	.st8{fill:#FF7E3F;}
	.st9{fill:#CB9B48;}
	.st10{fill:#A79F5E;}
	.st11{fill:#E95273;}
	.st12{fill:#DE517D;}
	.st13{fill:#FA4B70;}
	.st14{fill:#CF5E76;}
	.st15{fill:#DC5874;}
	.st16{fill:#F24C74;}
	.st17{fill:#2E70DA;}
	.st18{fill:#9E7683;}
	.st19{fill:#BB746D;}
	.st20{fill:#F65F61;}
	.st21{fill:#966D96;}
	.st22{fill:#A5757D;}
	.st23{fill:#2F71D9;}
	.st24{fill:#CF6474;}
	.st25{fill:#DE6965;}
	.st26{fill:#CD726A;}
	.st27{fill:#7C67AC;}
	.st28{fill:#6F6BB0;}
	.st29{fill:#D69447;}
	.st30{fill:#CF7464;}
	.st31{fill:#2E6AE0;}
	.st32{fill:#B56F79;}
	.st33{fill:#E15673;}
	.st34{fill:#CD5F76;}
	.st35{fill:#696AB3;}
	.st36{fill:#E57359;}
	.st37{fill:#5375BC;}
	.st38{fill:#DB6866;}
	.st39{fill:#D16A6D;}
	.st40{fill:#7D68A7;}
	.st41{fill:#6767B9;}
	.st42{fill:#7B6AAA;}
	.st43{fill:#BC6678;}
	.st44{fill:#9F6A89;}
	.st45{fill:#966D8C;}
	.st46{fill:#F4D93D;}
	.st47{fill:#F8AC19;}
	.st48{fill:#E69539;}
	.st49{fill:#4070CE;}
	.st50{fill:#FDBB08;}
	.st51{fill:#F7AC1A;}
	.st52{fill:#B06289;}
</style>
<g id="Guides">
</g>
<g id="Layer_3" class="st0">
	<path class="st1" d="M260.842,35.892c-1.428-2.045-4.27-1.521-5.609,0.375c10.26,1.503-3.141,12.554-8.729,8.868
		c-3.175-1.19-5.257-10.164-1.63-10.806c17.915-3.174,9.934-16.309,9.071-17.349c2.644,3.185,2.911,10.627,7.921,10.466
		c0.294-0.166-0.129-0.347-0.308-0.381c0.473,0.093,1.386,0.729,1.886,0.195c0.014-0.166-1.071-0.4-1.186-0.412
		c-4.747,0.553-4.739-13.917-8.552-13.803c1.167-0.671,1.585,0.814,2.282,0.82c-2.067-2.567,0.973-0.35,0.39,1.24
		c0.035,0.985,1.1,1.796,1.949,1.161c-0.514,0.08-0.918-0.322-0.809-0.831c-0.004-1.28,1.658,1.944,3.582,0.817
		c-1.614,0.032-2.288-2.313-2.616-4.084c1.217,0.897,3.217,1.447,1.165-0.254c-0.2-2.126-2.215-2.293-3.574-3.237
		c0.842,0.45,2.468,0.721,3.258,0.169c-1.658-0.103-2.24-2.31-3.979-2.235c-0.084-0.266,0.797-2.26-0.645-1.865
		c0.838,0.031,0.284,1.178-0.393,0.901c-1.384-1.057-3.162-3.886-4.862-1.477c-2.227-1.183-2.337,1.481-2.355,2.966
		c-1.421,1.463,1.779,5.044,1.763,3.478c0.009,0.905,0.292,1.301,0.733,1.486c0.196,2.711-3.615-0.132-3.811,3.42
		c-0.889,3.325-2.296,6.324-3.31,9.616c-0.331,1.766-2.176,1.433-3.523,1.93c-0.942,0.405,0.537,0.36,0.867,0.291
		c3.24,1.061,4.232-3.146,5.58-5.338c0.884-1.422,1.298-2.986,2.018-4.829c-0.929,2.418,0.06,3.131,0.59,3.821
		c2.486,5.912-15.361,7.352-11.107,18.326c4.253,10.973,15.625,8.976,19.23,6.062c3.566-2.478,4.149-9.257,9.687-8.036
		C269.593,38.493,264.286,32.36,260.842,35.892z M253.306,13.088c-0.964,0.449-1.518,0.049-1.56-0.717
		C252.274,12.46,252.814,12.647,253.306,13.088z M247.448,17.109c0.062-0.156,0.128-0.315,0.202-0.477
		C247.574,16.798,247.508,16.956,247.448,17.109z"/>
	<g class="st2">
		<path class="st3" d="M0.301,29.528c16.437-8.151,40.8-12.784,64.458-15.117c6.925-0.619,17.872-1.805,24.228-0.126
			c4.865,1.537,3.211,4.574,3.962,6.848c0.6,4.241,7.906,6.082,16.508,6.738c8.08,0.645,16.357,0.524,24.522,0.306
			c21.846-0.703,43.395-2.628,64.809-4.618c5.354-0.512,10.698-1.043,16.036-1.588c2.894-0.305,17.316-1.791,12.181,0.909
			c4.902-2.743-9.704-1.024-12.12-0.794c-5.33,0.563-10.667,1.111-16.014,1.642c-10.695,1.057-21.431,2.042-32.242,2.844
			c-18.834,1.284-38.217,2.808-57.238,1.453c-8.681-0.689-16.103-2.594-16.651-6.883c-0.282-1.217-0.17-2.44-0.422-3.65
			c-0.303-3.01-5.147-3.975-11.278-3.934c-8.176,0.034-16.294,0.976-24.166,1.887C35.985,18.067,15.218,22.413,0.301,29.528
			L0.301,29.528z"/>
		<path class="st3" d="M106.063,17.421c0.481,4.081,5.468,6.985,14.821,7.517c8.228,0.532,16.589-0.164,24.701-0.816
			c-4.045,0.433-8.131,0.807-12.275,1.026C119.632,25.95,106.328,24.712,106.063,17.421L106.063,17.421z"/>
		<path class="st3" d="M29.619,24.113c10.234-3.126,31.548-7.403,43.952-7.116c4.058,0.124,7.144,1.703,8.535,3.301
			c2.475,2.744-0.578,6.452-7.343,7.223c-5.179,0.685-11.679-0.708-12.382-3.23c-0.407-1.188,0.506-2.484,2.568-3.284
			c4.432-1.782,12.536-0.094,10.361,2.662c-0.844,1.182-4.268,1.738-6.56,1.014c4.058,0.984,7.909-0.901,6.222-2.72
			c-1.524-1.653-6.894-1.957-9.687-0.785c-6.547,3.037,0.901,7.161,9.347,6.126c8.009-0.907,10.365-5.784,5.373-8.485
			c-1.571-0.913-3.76-1.699-6.453-1.733c-5.236-0.137-10.397,0.562-15.357,1.24C48.289,19.799,38.43,21.685,29.619,24.113
			L29.619,24.113z"/>
		<path class="st3" d="M89.579,31.038c16.699,1.378,33.847,1.411,50.683,0.508c14.68-0.627,29.632-2.337,44.372-1.131
			c2.025,0.229,4.27,0.518,5.957,0.995c-7.793-1.622-16.655-1.265-24.989-0.977c-8.439,0.358-16.853,0.885-25.309,1.243
			C123.48,32.414,106.031,32.853,89.579,31.038L89.579,31.038z"/>
	</g>
	<g class="st2">
		<path class="st3" d="M503.272,29.528c-16.437-8.151-40.8-12.784-64.458-15.117c-6.925-0.619-17.872-1.805-24.228-0.126
			c-4.865,1.537-3.211,4.574-3.962,6.848c-0.6,4.241-7.906,6.082-16.508,6.738c-8.08,0.645-16.357,0.524-24.522,0.306
			c-21.846-0.703-43.395-2.628-64.809-4.618c-5.354-0.512-10.698-1.043-16.036-1.588c-2.894-0.305-17.316-1.791-12.181,0.909
			c-4.902-2.743,9.704-1.024,12.12-0.794c5.33,0.563,10.667,1.111,16.014,1.642c10.695,1.057,21.431,2.042,32.242,2.844
			c18.834,1.284,38.217,2.808,57.238,1.453c8.681-0.689,16.103-2.594,16.651-6.883c0.282-1.217,0.17-2.44,0.422-3.65
			c0.303-3.01,5.147-3.975,11.278-3.934c8.176,0.034,16.294,0.976,24.166,1.887C467.588,18.067,488.354,22.413,503.272,29.528
			L503.272,29.528z"/>
		<path class="st3" d="M397.51,17.421c-0.481,4.081-5.468,6.985-14.821,7.517c-8.228,0.532-16.589-0.164-24.702-0.816
			c4.045,0.433,8.131,0.807,12.275,1.026C383.94,25.95,397.244,24.712,397.51,17.421L397.51,17.421z"/>
		<path class="st3" d="M473.953,24.113c-10.234-3.126-31.548-7.403-43.952-7.116c-4.058,0.124-7.144,1.703-8.535,3.301
			c-2.475,2.744,0.578,6.452,7.343,7.223c5.179,0.685,11.679-0.708,12.382-3.23c0.407-1.188-0.506-2.484-2.568-3.284
			c-4.432-1.782-12.536-0.094-10.361,2.662c0.844,1.182,4.268,1.738,6.56,1.014c-4.059,0.984-7.909-0.901-6.222-2.72
			c1.525-1.653,6.894-1.957,9.687-0.785c6.547,3.037-0.901,7.161-9.347,6.126c-8.009-0.907-10.365-5.784-5.373-8.485
			c1.571-0.913,3.76-1.699,6.453-1.733c5.236-0.137,10.397,0.562,15.357,1.24C455.284,19.799,465.142,21.685,473.953,24.113
			L473.953,24.113z"/>
		<path class="st3" d="M413.993,31.038c-16.699,1.378-33.847,1.411-50.683,0.508c-14.68-0.627-29.632-2.337-44.372-1.131
			c-2.025,0.229-4.27,0.518-5.957,0.995c7.793-1.622,16.655-1.265,24.989-0.977c8.439,0.358,16.853,0.885,25.309,1.243
			C380.092,32.414,397.541,32.853,413.993,31.038L413.993,31.038z"/>
	</g>
</g>
<g id="Layer_4">
	<g id="_x12_105553315576576_-714784128_99">
		<path class="st4" d="M26.757,25.104L26.757,25.104c-0.69,0.622-1.753,0.567-2.375-0.123l-6.008-6.662
			c-0.622-0.69-0.567-1.753,0.123-2.375l0,0c0.69-0.622,1.753-0.567,2.375,0.123l6.008,6.662
			C27.502,23.418,27.447,24.481,26.757,25.104z"/>
	</g>
	<g id="_x12_105553315576576_-798733184_99">
		<path class="st5" d="M28.762,26.45L28.762,26.45c0.865,1.182,0.608,2.841-0.574,3.706l-11.414,8.352
			c-1.182,0.865-2.841,0.608-3.706-0.574l0,0c-0.865-1.182-0.608-2.841,0.574-3.706l11.414-8.352
			C26.238,25.011,27.897,25.268,28.762,26.45z"/>
	</g>
	<g id="_x12_105553315576576_1867054976_99">
		<path class="st6" d="M44.737,22.408L44.737,22.408c1.441,0.451,2.243,1.984,1.792,3.425l-4.354,13.912
			c-0.451,1.441-1.984,2.243-3.425,1.792h0c-1.441-0.451-2.243-1.984-1.792-3.425L41.312,24.2
			C41.763,22.759,43.297,21.957,44.737,22.408z"/>
	</g>
	<g id="_x12_105553315576576_699064704_99">
		<path class="st7" d="M63.769,36.239L63.769,36.239c-0.763,1.206-2.359,1.564-3.565,0.801L48.563,29.67
			c-1.206-0.763-1.564-2.359-0.801-3.565v0c0.763-1.206,2.359-1.564,3.565-0.801l11.642,7.369
			C64.173,33.437,64.532,35.033,63.769,36.239z"/>
	</g>
	<g id="_x12_105553315576576_1031667584_99">
		<path class="st8" d="M67.084,13.099L67.084,13.099c0.599,1.502-0.132,3.204-1.634,3.804l-14.5,5.786
			c-1.502,0.599-3.204-0.132-3.804-1.634l0,0c-0.599-1.502,0.132-3.204,1.634-3.804l14.5-5.786
			C64.782,10.866,66.485,11.597,67.084,13.099z"/>
	</g>
	<g id="_x12_105553315576576_1201326976_99">
		<path class="st9" d="M77.664,29.533L77.664,29.533c-1.242,0.494-2.65-0.113-3.144-1.355L69.749,16.18
			c-0.494-1.242,0.113-2.65,1.355-3.144l0,0c1.242-0.494,2.65,0.113,3.144,1.355l4.771,11.998
			C79.513,27.631,78.907,29.039,77.664,29.533z"/>
	</g>
	<g id="_x12_105553315576576_1570678400_99">
		<path class="st10" d="M67.608,31.722L67.608,31.722c0.246-1.117,1.351-1.822,2.468-1.576l10.785,2.379
			c1.117,0.246,1.822,1.351,1.576,2.468l0,0c-0.246,1.117-1.351,1.822-2.468,1.576L69.184,34.19
			C68.067,33.944,67.362,32.839,67.608,31.722z"/>
	</g>
	<g id="_x12_105553315576576_1867054464_83">
		<path class="st11" d="M99.612,20.978L99.612,20.978c-1.568-0.465-2.462-2.114-1.996-3.681l4.494-15.141
			c0.465-1.568,2.114-2.462,3.681-1.996l0,0c1.568,0.465,2.462,2.114,1.996,3.681l-4.494,15.141
			C102.828,20.549,101.18,21.443,99.612,20.978z"/>
	</g>
	<g id="_x12_105553315576576_2085349248_90">
		<path class="st12" d="M146.117,24.486L146.117,24.486c-0.777-1.732-0.003-3.765,1.729-4.542l16.723-7.502
			c1.732-0.777,3.765-0.003,4.542,1.729v0c0.777,1.732,0.003,3.765-1.729,4.542l-16.723,7.502
			C148.928,26.992,146.894,26.218,146.117,24.486z"/>
	</g>
	<g id="_x12_105553315576576_1850277760_95">
		<path class="st13" d="M172.138,47.095L172.138,47.095c-1.523,1.142-3.683,0.833-4.824-0.69L156.289,31.7
			c-1.142-1.523-0.833-3.683,0.69-4.824v0c1.523-1.142,3.683-0.833,4.824,0.69l11.025,14.704
			C173.97,43.793,173.661,45.953,172.138,47.095z"/>
	</g>
	<g id="_x12_105553315576576_1867054976_62">
		<path class="st14" d="M136.745,19.107L136.745,19.107c-1.239,1.298-3.296,1.345-4.594,0.106L119.618,7.244
			c-1.298-1.239-1.345-3.296-0.106-4.594v0c1.239-1.298,3.296-1.345,4.594-0.106l12.533,11.969
			C137.937,15.753,137.985,17.81,136.745,19.107z"/>
	</g>
	<g id="_x12_105553315576576_1850277760_72">
		<path class="st15" d="M117.727,41.014L117.727,41.014c0.232,1.45-0.755,2.813-2.205,3.045l-14,2.239
			c-1.45,0.232-2.813-0.755-3.045-2.205l0,0c-0.232-1.45,0.755-2.813,2.205-3.045l14-2.239
			C116.132,38.577,117.496,39.564,117.727,41.014z"/>
	</g>
	<g id="_x12_105553315576576_1917450112_95">
		<path class="st16" d="M91.132,34.669L91.132,34.669c-1.19-0.449-1.791-1.778-1.342-2.969l4.338-11.495
			c0.449-1.19,1.778-1.791,2.969-1.342l0,0c1.19,0.449,1.791,1.778,1.342,2.969l-4.338,11.495
			C93.652,34.518,92.323,35.119,91.132,34.669z"/>
	</g>
	<g id="_x12_105553315576576_-529652096_92">
		<path class="st17" d="M197.376,29.732L197.376,29.732c-0.146-1.299,0.788-2.47,2.087-2.616l12.541-1.409
			c1.299-0.146,2.47,0.789,2.616,2.087v0c0.146,1.299-0.788,2.47-2.087,2.616l-12.541,1.409
			C198.693,31.965,197.522,31.031,197.376,29.732z"/>
	</g>
	<g id="_x12_105553315576576_-2089767808_67">
		<path class="st18" d="M263.007,38.141L263.007,38.141c-0.81,0.52-1.888,0.285-2.407-0.525l-5.021-7.819
			c-0.52-0.81-0.285-1.888,0.525-2.407v0c0.81-0.52,1.888-0.285,2.407,0.525l5.021,7.819
			C264.052,36.543,263.817,37.621,263.007,38.141z"/>
	</g>
	<g id="_x12_105553315576576_1466300800_48">
		<path class="st19" d="M266.675,33.498L266.675,33.498c-0.28-1.045,0.34-2.12,1.385-2.4l10.093-2.705
			c1.045-0.28,2.12,0.34,2.4,1.385v0c0.28,1.045-0.34,2.12-1.385,2.4l-10.093,2.705C268.029,35.163,266.955,34.543,266.675,33.498z"
			/>
	</g>
	<g id="_x12_105553315576576_1616771200_98">
		<path class="st20" d="M198.711,20.207L198.711,20.207c-0.069,1.993-1.741,3.552-3.734,3.483l-19.244-0.67
			c-1.993-0.069-3.552-1.741-3.483-3.734v0c0.069-1.993,1.741-3.552,3.734-3.483l19.244,0.67
			C197.221,16.542,198.78,18.214,198.711,20.207z"/>
	</g>
	<g id="_x12_105553315576576_-1771334016_95">
		<path class="st21" d="M190.254,33.21L190.254,33.21c-1.814-0.382-2.975-2.163-2.592-3.977l3.694-17.518
			c0.382-1.814,2.163-2.974,3.977-2.592v0c1.814,0.382,2.975,2.163,2.592,3.977l-3.694,17.518
			C193.849,32.432,192.068,33.592,190.254,33.21z"/>
	</g>
	<g id="_x12_105553315576576_2053947008_59">
		<path class="st22" d="M276.275,49.385L276.275,49.385c-1.22-0.077-2.146-1.128-2.069-2.347l0.743-11.777
			c0.077-1.22,1.128-2.146,2.347-2.069v0c1.22,0.077,2.146,1.128,2.069,2.347l-0.743,11.777
			C278.545,48.535,277.494,49.462,276.275,49.385z"/>
	</g>
	<g id="_x12_105553315576576_-630182528_98">
		<path class="st23" d="M336.301,22.085L336.301,22.085c-1.615,0.028-2.947-1.258-2.975-2.873l-0.273-15.596
			c-0.028-1.615,1.258-2.947,2.873-2.975v0c1.615-0.028,2.947,1.258,2.975,2.873l0.273,15.596
			C339.203,20.724,337.917,22.056,336.301,22.085z"/>
	</g>
	<g id="_x12_105553315576576_1885135488_80">
		<path class="st24" d="M359.978,36.985L359.978,36.985c-1.261-0.264-2.07-1.501-1.806-2.762l2.55-12.181
			c0.264-1.261,1.501-2.07,2.762-1.806v0c1.261,0.264,2.07,1.501,1.806,2.762l-2.55,12.181
			C362.476,36.441,361.239,37.249,359.978,36.985z"/>
	</g>
	<g id="_x12_105553315576576_1583543168_81">
		<path class="st25" d="M381.985,26.938L381.985,26.938c-1.753,0.33-3.441-0.824-3.771-2.577l-3.185-16.927
			c-0.33-1.753,0.824-3.441,2.577-3.771v0c1.753-0.33,3.441,0.824,3.771,2.577l3.185,16.927
			C384.892,24.92,383.738,26.608,381.985,26.938z"/>
	</g>
	<g id="_x12_105553315576576_1701763456_85">
		<path class="st26" d="M306.087,47.611L306.087,47.611c-1.801,0.25-3.464-1.007-3.714-2.807l-2.417-17.39
			c-0.25-1.801,1.007-3.464,2.807-3.714h0c1.801-0.25,3.464,1.007,3.714,2.807l2.417,17.39
			C309.145,45.698,307.888,47.36,306.087,47.611z"/>
	</g>
	<g id="_x12_105553315576576_-1335657600_91">
		<path class="st27" d="M233.133,26.956L233.133,26.956c0.111-0.878,0.912-1.499,1.79-1.388l8.475,1.071
			c0.878,0.111,1.499,0.912,1.388,1.79v0c-0.111,0.878-0.912,1.499-1.79,1.388l-8.475-1.071
			C233.644,28.634,233.022,27.833,233.133,26.956z"/>
	</g>
	<g id="_x12_105553315576576_-1217959040_85">
		<path class="st28" d="M222.948,44.315L222.948,44.315c-0.206-1.449,0.802-2.791,2.251-2.997l13.993-1.99
			c1.449-0.206,2.791,0.802,2.997,2.251v0c0.206,1.449-0.802,2.791-2.251,2.997l-13.993,1.99
			C224.496,46.772,223.154,45.765,222.948,44.315z"/>
	</g>
	<g id="_x12_105553315576576_1150605184_97">
		<path class="st29" d="M326.461,45.78L326.461,45.78c-1.052-0.917-1.161-2.512-0.244-3.564l8.853-10.156
			c0.917-1.052,2.512-1.161,3.564-0.244v0c1.052,0.917,1.161,2.512,0.244,3.564l-8.853,10.156
			C329.108,46.587,327.512,46.697,326.461,45.78z"/>
	</g>
	<g id="_x12_105553315576576_1466887552_71">
		<path class="st30" d="M301.566,39.372L301.566,39.372c-0.585,1.359-2.161,1.986-3.52,1.401l-13.122-5.651
			c-1.359-0.585-1.986-2.161-1.401-3.52l0,0c0.585-1.359,2.161-1.986,3.52-1.401l13.122,5.651
			C301.524,36.437,302.151,38.013,301.566,39.372z"/>
	</g>
	<g id="_x12_105553315576576_-496424064_97">
		<path class="st31" d="M222.228,12.872L222.228,12.872c1.034-0.505,2.281-0.076,2.786,0.957l4.876,9.981
			c0.505,1.034,0.076,2.281-0.957,2.786v0c-1.034,0.505-2.281,0.076-2.786-0.957l-4.876-9.981
			C220.766,14.624,221.195,13.377,222.228,12.872z"/>
	</g>
	<g id="_x12_105553315576576_1952894848_66">
		<path class="st32" d="M253.955,45.234L253.955,45.234c-0.018-1.743,1.38-3.17,3.123-3.188l16.828-0.174
			c1.743-0.018,3.17,1.38,3.188,3.123v0c0.018,1.743-1.38,3.17-3.122,3.188l-16.828,0.174
			C255.4,48.374,253.973,46.976,253.955,45.234z"/>
	</g>
	<g id="_x12_105553315576576_1867054976_76">
		<path class="st33" d="M310.356,16.014L310.356,16.014c-1.105,1.119-2.908,1.129-4.027,0.024L295.526,5.363
			c-1.119-1.105-1.129-2.908-0.024-4.027v0c1.105-1.119,2.908-1.129,4.027-0.024l10.803,10.674
			C311.451,13.092,311.461,14.895,310.356,16.014z"/>
	</g>
	<g id="_x12_105553315576576_1850212224_60">
		<path class="st34" d="M276.402,13.251L276.402,13.251c0.193,1.046-0.499,2.051-1.545,2.244l-10.102,1.864
			c-1.046,0.193-2.051-0.499-2.244-1.545v0c-0.193-1.046,0.499-2.051,1.545-2.244l10.102-1.864
			C275.205,11.513,276.209,12.205,276.402,13.251z"/>
	</g>
	<g id="_x12_105553315576576_-933273984_70">
		<path class="st35" d="M411.288,48.561L411.288,48.561c-0.297-1.284,0.503-2.565,1.787-2.861l12.396-2.865
			c1.284-0.297,2.565,0.503,2.861,1.787v0c0.297,1.284-0.503,2.565-1.787,2.861l-12.396,2.865
			C412.866,50.645,411.585,49.845,411.288,48.561z"/>
	</g>
	<g id="_x12_105553315576576_1433529472_92">
		<path class="st36" d="M495.565,45.859L495.565,45.859c-1.049-0.283-1.669-1.362-1.387-2.411l2.73-10.126
			c0.283-1.049,1.362-1.669,2.411-1.387v0c1.049,0.283,1.669,1.362,1.387,2.411l-2.73,10.126
			C497.693,45.52,496.614,46.141,495.565,45.859z"/>
	</g>
	<g id="_x12_105553315576576_-1049408128_90">
		<path class="st37" d="M461.902,25.976L461.902,25.976c-0.737,0.86-2.033,0.96-2.893,0.223l-8.309-7.121
			c-0.86-0.737-0.96-2.033-0.223-2.893v0c0.737-0.86,2.033-0.96,2.893-0.223l8.309,7.121
			C462.539,23.82,462.639,25.115,461.902,25.976z"/>
	</g>
	<g id="_x12_105553315576576_1566570880_75">
		<path class="st38" d="M445.235,39.565L445.235,39.565c-0.185-1.484,0.868-2.838,2.352-3.023l14.334-1.789
			c1.484-0.185,2.838,0.868,3.023,2.352v0c0.185,1.484-0.868,2.838-2.352,3.023l-14.334,1.789
			C446.774,42.102,445.42,41.049,445.235,39.565z"/>
	</g>
	<g id="_x12_105553315576576_1751507328_82">
		<path class="st39" d="M497.984,15.875L497.984,15.875c-0.246,0.964-1.228,1.546-2.192,1.3l-9.311-2.38
			c-0.964-0.246-1.546-1.228-1.3-2.192v0c0.246-0.964,1.228-1.546,2.192-1.3l9.311,2.38C497.648,13.93,498.23,14.911,497.984,15.875
			z"/>
	</g>
	<g id="_x12_105553315576576_-1235453312_70">
		<path class="st40" d="M391.496,49.259L391.496,49.259c-0.69,0.674-1.795,0.661-2.469-0.028l-6.51-6.661
			c-0.674-0.69-0.661-1.795,0.028-2.469l0,0c0.69-0.674,1.795-0.661,2.469,0.028l6.51,6.661
			C392.199,47.48,392.186,48.585,391.496,49.259z"/>
	</g>
	<g id="_x12_105553315576576_-983539584_82">
		<path class="st41" d="M407.77,41.201L407.77,41.201c-0.849,0.423-1.879,0.078-2.302-0.77l-4.085-8.194
			c-0.423-0.849-0.078-1.879,0.77-2.302v0c0.849-0.423,1.879-0.078,2.302,0.77l4.085,8.194
			C408.964,39.747,408.619,40.778,407.77,41.201z"/>
	</g>
	<g id="_x12_105553315576576_-1352304256_86">
		<path class="st42" d="M469.593,5.42L469.593,5.42c-0.164,1.985-1.906,3.461-3.891,3.297l-19.17-1.585
			c-1.985-0.164-3.461-1.906-3.297-3.891v0c0.164-1.985,1.906-3.461,3.891-3.297l19.17,1.585
			C468.281,1.692,469.757,3.435,469.593,5.42z"/>
	</g>
	<g id="_x12_105553315576576_1867054976_47">
		<path class="st43" d="M373.876,44.027L373.876,44.027c-0.81-0.408-1.136-1.394-0.728-2.204l3.936-7.821
			c0.408-0.81,1.395-1.136,2.204-0.728v0c0.81,0.408,1.136,1.394,0.728,2.204l-3.936,7.821
			C375.673,44.108,374.686,44.434,373.876,44.027z"/>
	</g>
	<g id="_x12_105553315576576_-1840071040_49">
		<path class="st44" d="M418.61,27.08L418.61,27.08c-0.014-1.241,0.98-2.259,2.222-2.273l11.987-0.138
			c1.241-0.014,2.259,0.98,2.273,2.222v0c0.014,1.241-0.98,2.259-2.222,2.273l-11.987,0.138
			C419.642,29.316,418.624,28.321,418.61,27.08z"/>
	</g>
	<g id="_x12_105553315576576_-1739149440_46">
		<path class="st45" d="M418.816,13.831L418.816,13.831c-0.258,1.64-1.796,2.76-3.436,2.502l-15.836-2.491
			c-1.64-0.258-2.76-1.796-2.502-3.436v0c0.258-1.64,1.796-2.76,3.436-2.502l15.835,2.491
			C417.954,10.653,419.074,12.191,418.816,13.831z"/>
	</g>
	<g id="_x12_105553315576576_-1840071040_43">
		<path class="st46" d="M416.682,23.465L416.682,23.465c0.015,1.026-0.804,1.869-1.83,1.885l-9.905,0.147
			c-1.026,0.015-1.869-0.804-1.885-1.83v0c-0.015-1.026,0.804-1.869,1.83-1.885l9.905-0.147
			C415.823,21.621,416.667,22.44,416.682,23.465z"/>
	</g>
	<g id="_x12_105553315576576_313393024_94">
		<path class="st47" d="M466.441,35.517L466.441,35.517c0.887-0.931,2.361-0.966,3.292-0.079l8.99,8.568
			c0.931,0.887,0.966,2.361,0.079,3.292l0,0c-0.887,0.931-2.361,0.966-3.292,0.079l-8.99-8.568
			C465.589,37.922,465.553,36.448,466.441,35.517z"/>
	</g>
	<g id="_x12_105553315576576_798487168_88">
		<path class="st48" d="M479.932,17.855L479.932,17.855c0.056,0.878-0.61,1.635-1.488,1.691l-8.477,0.543
			c-0.878,0.056-1.635-0.61-1.691-1.488v0c-0.056-0.878,0.61-1.635,1.488-1.691l8.477-0.543
			C479.118,16.311,479.876,16.977,479.932,17.855z"/>
	</g>
	<g id="_x12_105553315576576_-781304704_95">
		<path class="st49" d="M455.117,25.623L455.117,25.623c-0.711,1.214-2.271,1.622-3.485,0.911l-11.723-6.864
			c-1.214-0.711-1.622-2.271-0.911-3.485v0c0.711-1.214,2.271-1.622,3.485-0.911l11.724,6.864
			C455.419,22.849,455.827,24.409,455.117,25.623z"/>
	</g>
	<g id="_x12_105553315576576_96272256_98">
		<path class="st50" d="M473.165,28.96L473.165,28.96c0.264-0.614,0.975-0.897,1.589-0.633l5.926,2.548
			c0.614,0.264,0.897,0.975,0.633,1.589v0c-0.264,0.614-0.975,0.897-1.589,0.633l-5.926-2.548
			C473.185,30.285,472.901,29.574,473.165,28.96z"/>
	</g>
	<g id="_x12_105553315576576_296681344_93">
		<path class="st51" d="M471.622,27.608L471.622,27.608c-0.583-0.079-0.992-0.616-0.913-1.199l0.763-5.633
			c0.079-0.583,0.616-0.992,1.199-0.913l0,0c0.583,0.079,0.992,0.616,0.913,1.199l-0.763,5.633
			C472.742,27.279,472.205,27.687,471.622,27.608z"/>
	</g>
	<g id="_x12_105553315576576_-1940471424_73">
		<path class="st52" d="M429.489,37.85L429.489,37.85c-0.619-1.176-0.167-2.631,1.009-3.249l11.357-5.974
			c1.176-0.619,2.631-0.167,3.249,1.009v0c0.619,1.176,0.167,2.631-1.009,3.249l-11.357,5.974
			C431.562,39.478,430.108,39.026,429.489,37.85z"/>
	</g>
</g>
</svg>
