<?xml version="1.0" encoding="utf-8"?>
<!-- Generator: Adobe Illustrator 27.9.0, SVG Export Plug-In . SVG Version: 6.00 Build 0)  -->
<svg version="1.1" xmlns="http://www.w3.org/2000/svg" xmlns:xlink="http://www.w3.org/1999/xlink" x="0px" y="0px"
	 viewBox="0 0 503.272 50.91" style="enable-background:new 0 0 503.272 50.91;" xml:space="preserve">
<style type="text/css">
	.st0{display:none;}
	.st1{display:inline;}
	.st2{fill:#F8F8FF;}
	.st3{fill:#133859;}
	.st4{fill:#9CD9D3;stroke:#133859;stroke-width:2;stroke-miterlimit:10;}
	.st5{fill:#000B6E;}
</style>
<g id="Guides" class="st0">
</g>
<g id="Default" class="st0">
	<g class="st1">
		<path class="st2" d="M502.841,28.497H10.907c-1.457,0-2.855-0.391-3.886-1.088l-5.759-3.893c-0.602-0.407-0.176-1.103,0.676-1.103
			h491.755l10,5.508C503.693,28.239,503.312,28.497,502.841,28.497z"/>
		<path class="st3" d="M503.272,27.511c0.753,0.542,0.469,0.986-0.631,0.986h-1.948c-1.1,0-2.616-0.444-3.369-0.986l-6.653-4.113
			c-0.753-0.542-0.469-0.986,0.631-0.986h1.948c1.1,0,2.616,0.444,3.369,0.986L503.272,27.511z M494.35,27.511
			c0.753,0.542,0.469,0.986-0.631,0.986h-1.947c-1.1,0-2.616-0.444-3.369-0.986l-6.653-4.113c-0.753-0.542-0.469-0.986,0.631-0.986
			h1.947c1.1,0,2.616,0.444,3.369,0.986L494.35,27.511z M485.429,27.511c0.753,0.542,0.469,0.986-0.631,0.986h-1.948
			c-1.1,0-2.616-0.444-3.369-0.986l-6.653-4.113c-0.753-0.542-0.469-0.986,0.631-0.986h1.948c1.1,0,2.616,0.444,3.369,0.986
			L485.429,27.511z M476.507,27.511c0.753,0.542,0.469,0.986-0.631,0.986h-1.947c-1.1,0-2.616-0.444-3.369-0.986l-6.653-4.113
			c-0.753-0.542-0.469-0.986,0.631-0.986h1.947c1.1,0,2.616,0.444,3.369,0.986L476.507,27.511z M467.586,27.511
			c0.753,0.542,0.469,0.986-0.631,0.986h-1.947c-1.1,0-2.616-0.444-3.369-0.986l-6.653-4.113c-0.753-0.542-0.469-0.986,0.631-0.986
			h1.947c1.1,0,2.616,0.444,3.369,0.986L467.586,27.511z M458.665,27.511c0.753,0.542,0.469,0.986-0.631,0.986h-1.948
			c-1.1,0-2.616-0.444-3.369-0.986l-6.653-4.113c-0.753-0.542-0.469-0.986,0.631-0.986h1.948c1.1,0,2.616,0.444,3.369,0.986
			L458.665,27.511z M449.744,27.511c0.753,0.542,0.469,0.986-0.631,0.986h-1.947c-1.1,0-2.616-0.444-3.369-0.986l-6.653-4.113
			c-0.753-0.542-0.469-0.986,0.631-0.986h1.947c1.1,0,2.616,0.444,3.369,0.986L449.744,27.511z M440.823,27.511
			c0.753,0.542,0.469,0.986-0.631,0.986h-1.948c-1.1,0-2.616-0.444-3.369-0.986l-6.653-4.113c-0.753-0.542-0.469-0.986,0.631-0.986
			h1.948c1.1,0,2.616,0.444,3.369,0.986L440.823,27.511z M431.901,27.511c0.753,0.542,0.469,0.986-0.631,0.986h-1.947
			c-1.1,0-2.616-0.444-3.369-0.986l-6.653-4.113c-0.753-0.542-0.469-0.986,0.631-0.986h1.947c1.1,0,2.616,0.444,3.369,0.986
			L431.901,27.511z M422.98,27.511c0.753,0.542,0.469,0.986-0.631,0.986h-1.947c-1.1,0-2.616-0.444-3.369-0.986l-6.653-4.113
			c-0.753-0.542-0.469-0.986,0.631-0.986h1.947c1.1,0,2.616,0.444,3.369,0.986L422.98,27.511z M414.058,27.511
			c0.753,0.542,0.469,0.986-0.631,0.986h-1.947c-1.1,0-2.616-0.444-3.369-0.986l-6.653-4.113c-0.753-0.542-0.469-0.986,0.631-0.986
			h1.947c1.1,0,2.616,0.444,3.369,0.986L414.058,27.511z M405.137,27.511c0.753,0.542,0.469,0.986-0.631,0.986h-1.947
			c-1.1,0-2.616-0.444-3.369-0.986l-6.653-4.113c-0.753-0.542-0.469-0.986,0.631-0.986h1.947c1.1,0,2.616,0.444,3.369,0.986
			L405.137,27.511z M396.216,27.511c0.753,0.542,0.469,0.986-0.631,0.986h-1.948c-1.1,0-2.616-0.444-3.369-0.986l-6.653-4.113
			c-0.753-0.542-0.469-0.986,0.631-0.986h1.948c1.1,0,2.616,0.444,3.369,0.986L396.216,27.511z M387.294,27.511
			c0.753,0.542,0.469,0.986-0.631,0.986h-1.947c-1.1,0-2.616-0.444-3.369-0.986l-6.653-4.113c-0.753-0.542-0.469-0.986,0.631-0.986
			h1.947c1.1,0,2.616,0.444,3.369,0.986L387.294,27.511z M378.373,27.511c0.753,0.542,0.469,0.986-0.631,0.986h-1.947
			c-1.1,0-2.616-0.444-3.369-0.986l-6.653-4.113c-0.753-0.542-0.469-0.986,0.631-0.986h1.947c1.1,0,2.616,0.444,3.369,0.986
			L378.373,27.511z M369.452,27.511c0.753,0.542,0.469,0.986-0.631,0.986h-1.947c-1.1,0-2.616-0.444-3.369-0.986l-6.653-4.113
			c-0.753-0.542-0.469-0.986,0.631-0.986h1.947c1.1,0,2.616,0.444,3.369,0.986L369.452,27.511z M360.531,27.511
			c0.753,0.542,0.469,0.986-0.631,0.986h-1.947c-1.1,0-2.616-0.444-3.369-0.986l-6.653-4.113c-0.753-0.542-0.469-0.986,0.631-0.986
			h1.947c1.1,0,2.616,0.444,3.369,0.986L360.531,27.511z M351.61,27.511c0.753,0.542,0.469,0.986-0.631,0.986h-1.948
			c-1.1,0-2.616-0.444-3.369-0.986l-6.653-4.113c-0.753-0.542-0.469-0.986,0.631-0.986h1.948c1.1,0,2.616,0.444,3.369,0.986
			L351.61,27.511z M342.688,27.511c0.753,0.542,0.469,0.986-0.631,0.986h-1.947c-1.1,0-2.616-0.444-3.369-0.986l-6.653-4.113
			c-0.753-0.542-0.469-0.986,0.631-0.986h1.947c1.1,0,2.616,0.444,3.369,0.986L342.688,27.511z M333.767,27.511
			c0.753,0.542,0.469,0.986-0.631,0.986h-1.947c-1.1,0-2.616-0.444-3.369-0.986l-6.653-4.113c-0.753-0.542-0.469-0.986,0.631-0.986
			h1.947c1.1,0,2.616,0.444,3.369,0.986L333.767,27.511z M324.845,27.511c0.753,0.542,0.469,0.986-0.631,0.986h-1.947
			c-1.1,0-2.616-0.444-3.369-0.986l-6.653-4.113c-0.753-0.542-0.469-0.986,0.631-0.986h1.947c1.1,0,2.616,0.444,3.369,0.986
			L324.845,27.511z M315.924,27.511c0.753,0.542,0.469,0.986-0.631,0.986h-1.947c-1.1,0-2.616-0.444-3.369-0.986l-6.653-4.113
			c-0.753-0.542-0.469-0.986,0.631-0.986h1.947c1.1,0,2.616,0.444,3.369,0.986L315.924,27.511z M307.003,27.511
			c0.753,0.542,0.469,0.986-0.631,0.986h-1.948c-1.1,0-2.616-0.444-3.369-0.986l-6.653-4.113c-0.753-0.542-0.469-0.986,0.631-0.986
			h1.948c1.1,0,2.616,0.444,3.369,0.986L307.003,27.511z M298.081,27.511c0.753,0.542,0.469,0.986-0.631,0.986h-1.947
			c-1.1,0-2.616-0.444-3.369-0.986l-6.653-4.113c-0.753-0.542-0.469-0.986,0.631-0.986h1.947c1.1,0,2.616,0.444,3.369,0.986
			L298.081,27.511z M289.161,27.511c0.753,0.542,0.469,0.986-0.631,0.986h-1.948c-1.1,0-2.616-0.444-3.369-0.986l-6.653-4.113
			c-0.753-0.542-0.469-0.986,0.631-0.986h1.948c1.1,0,2.616,0.444,3.369,0.986L289.161,27.511z M280.239,27.511
			c0.753,0.542,0.469,0.986-0.631,0.986h-1.947c-1.1,0-2.616-0.444-3.369-0.986l-6.653-4.113c-0.753-0.542-0.469-0.986,0.631-0.986
			h1.947c1.1,0,2.616,0.444,3.369,0.986L280.239,27.511z M271.318,27.511c0.753,0.542,0.469,0.986-0.631,0.986h-1.948
			c-1.1,0-2.616-0.444-3.369-0.986l-6.653-4.113c-0.753-0.542-0.469-0.986,0.631-0.986h1.948c1.1,0,2.616,0.444,3.369,0.986
			L271.318,27.511z M262.396,27.511c0.753,0.542,0.469,0.986-0.631,0.986h-1.947c-1.1,0-2.616-0.444-3.369-0.986l-6.653-4.113
			c-0.753-0.542-0.469-0.986,0.631-0.986h1.947c1.1,0,2.616,0.444,3.369,0.986L262.396,27.511z M253.475,27.511
			c0.753,0.542,0.469,0.986-0.631,0.986h-1.947c-1.1,0-2.616-0.444-3.369-0.986l-6.653-4.113c-0.753-0.542-0.469-0.986,0.631-0.986
			h1.947c1.1,0,2.616,0.444,3.369,0.986L253.475,27.511z M244.554,27.511c0.753,0.542,0.469,0.986-0.631,0.986h-1.948
			c-1.1,0-2.616-0.444-3.369-0.986l-6.653-4.113c-0.753-0.542-0.469-0.986,0.631-0.986h1.948c1.1,0,2.616,0.444,3.369,0.986
			L244.554,27.511z M235.633,27.511c0.753,0.542,0.469,0.986-0.631,0.986h-1.948c-1.1,0-2.616-0.444-3.369-0.986l-6.653-4.113
			c-0.753-0.542-0.469-0.986,0.631-0.986h1.948c1.1,0,2.616,0.444,3.369,0.986L235.633,27.511z M226.711,27.511
			c0.753,0.542,0.469,0.986-0.631,0.986h-1.948c-1.1,0-2.616-0.444-3.369-0.986l-6.653-4.113c-0.753-0.542-0.469-0.986,0.631-0.986
			h1.948c1.1,0,2.616,0.444,3.369,0.986L226.711,27.511z M217.79,27.511c0.753,0.542,0.469,0.986-0.631,0.986h-1.947
			c-1.1,0-2.616-0.444-3.369-0.986l-6.653-4.113c-0.753-0.542-0.469-0.986,0.631-0.986h1.947c1.1,0,2.616,0.444,3.369,0.986
			L217.79,27.511z M208.869,27.511c0.753,0.542,0.469,0.986-0.631,0.986h-1.947c-1.1,0-2.616-0.444-3.369-0.986l-6.653-4.113
			c-0.753-0.542-0.469-0.986,0.631-0.986h1.947c1.1,0,2.616,0.444,3.369,0.986L208.869,27.511z M199.947,27.511
			c0.753,0.542,0.469,0.986-0.631,0.986h-1.947c-1.1,0-2.616-0.444-3.369-0.986l-6.653-4.113c-0.753-0.542-0.469-0.986,0.631-0.986
			h1.947c1.1,0,2.616,0.444,3.369,0.986L199.947,27.511z M191.026,27.511c0.753,0.542,0.469,0.986-0.631,0.986h-1.948
			c-1.1,0-2.616-0.444-3.369-0.986l-6.653-4.113c-0.753-0.542-0.469-0.986,0.631-0.986h1.948c1.1,0,2.616,0.444,3.369,0.986
			L191.026,27.511z M182.105,27.511c0.753,0.542,0.469,0.986-0.631,0.986h-1.948c-1.1,0-2.616-0.444-3.369-0.986l-6.653-4.113
			c-0.753-0.542-0.469-0.986,0.631-0.986h1.948c1.1,0,2.616,0.444,3.369,0.986L182.105,27.511z M173.184,27.511
			c0.753,0.542,0.469,0.986-0.631,0.986h-1.948c-1.1,0-2.616-0.444-3.369-0.986l-6.653-4.113c-0.753-0.542-0.469-0.986,0.631-0.986
			h1.948c1.1,0,2.616,0.444,3.369,0.986L173.184,27.511z M164.262,27.511c0.753,0.542,0.469,0.986-0.631,0.986h-1.947
			c-1.1,0-2.616-0.444-3.369-0.986l-6.653-4.113c-0.753-0.542-0.469-0.986,0.631-0.986h1.947c1.1,0,2.616,0.444,3.369,0.986
			L164.262,27.511z M155.341,27.511c0.753,0.542,0.469,0.986-0.631,0.986h-1.947c-1.1,0-2.616-0.444-3.369-0.986l-6.653-4.113
			c-0.753-0.542-0.469-0.986,0.631-0.986h1.947c1.1,0,2.616,0.444,3.369,0.986L155.341,27.511z M146.42,27.511
			c0.753,0.542,0.469,0.986-0.631,0.986h-1.948c-1.1,0-2.616-0.444-3.369-0.986l-6.653-4.113c-0.753-0.542-0.469-0.986,0.631-0.986
			h1.948c1.1,0,2.616,0.444,3.369,0.986L146.42,27.511z M137.498,27.511c0.753,0.542,0.469,0.986-0.631,0.986h-1.948
			c-1.1,0-2.616-0.444-3.369-0.986l-6.653-4.113c-0.753-0.542-0.469-0.986,0.631-0.986h1.948c1.1,0,2.616,0.444,3.369,0.986
			L137.498,27.511z M128.577,27.511c0.753,0.542,0.469,0.986-0.631,0.986h-1.948c-1.1,0-2.616-0.444-3.369-0.986l-6.653-4.113
			c-0.753-0.542-0.469-0.986,0.631-0.986h1.948c1.1,0,2.616,0.444,3.369,0.986L128.577,27.511z M119.656,27.511
			c0.753,0.542,0.469,0.986-0.631,0.986h-1.947c-1.1,0-2.616-0.444-3.369-0.986l-6.653-4.113c-0.753-0.542-0.469-0.986,0.631-0.986
			h1.947c1.1,0,2.616,0.444,3.369,0.986L119.656,27.511z M110.734,27.511c0.753,0.542,0.469,0.986-0.631,0.986h-1.947
			c-1.1,0-2.616-0.444-3.369-0.986l-6.653-4.113c-0.753-0.542-0.469-0.986,0.631-0.986h1.947c1.1,0,2.616,0.444,3.369,0.986
			L110.734,27.511z M101.813,27.511c0.753,0.542,0.469,0.986-0.631,0.986h-1.948c-1.1,0-2.616-0.444-3.369-0.986l-6.653-4.113
			c-0.753-0.542-0.469-0.986,0.631-0.986h1.948c1.1,0,2.616,0.444,3.369,0.986L101.813,27.511z M92.892,27.511
			c0.753,0.542,0.469,0.986-0.631,0.986h-1.948c-1.1,0-2.616-0.444-3.369-0.986l-6.653-4.113c-0.753-0.542-0.469-0.986,0.631-0.986
			h1.948c1.1,0,2.616,0.444,3.369,0.986L92.892,27.511z M83.971,27.511c0.753,0.542,0.469,0.986-0.631,0.986h-1.948
			c-1.1,0-2.616-0.444-3.369-0.986l-6.653-4.113c-0.753-0.542-0.469-0.986,0.631-0.986h1.948c1.1,0,2.616,0.444,3.369,0.986
			L83.971,27.511z M75.049,27.511c0.753,0.542,0.469,0.986-0.631,0.986h-1.947c-1.1,0-2.616-0.444-3.369-0.986l-6.653-4.113
			c-0.753-0.542-0.469-0.986,0.631-0.986h1.947c1.1,0,2.616,0.444,3.369,0.986L75.049,27.511z M66.128,27.511
			c0.753,0.542,0.469,0.986-0.631,0.986H63.55c-1.1,0-2.616-0.444-3.369-0.986l-6.653-4.113c-0.753-0.542-0.469-0.986,0.631-0.986
			h1.947c1.1,0,2.616,0.444,3.369,0.986L66.128,27.511z M57.207,27.511c0.753,0.542,0.469,0.986-0.631,0.986h-1.948
			c-1.1,0-2.616-0.444-3.369-0.986l-6.653-4.113c-0.753-0.542-0.469-0.986,0.631-0.986h1.948c1.1,0,2.616,0.444,3.369,0.986
			L57.207,27.511z M48.286,27.511c0.753,0.542,0.469,0.986-0.631,0.986h-1.948c-1.1,0-2.616-0.444-3.369-0.986l-6.653-4.113
			c-0.753-0.542-0.469-0.986,0.631-0.986h1.948c1.1,0,2.616,0.444,3.369,0.986L48.286,27.511z M39.364,27.511
			c0.753,0.542,0.469,0.986-0.631,0.986h-1.948c-1.1,0-2.616-0.444-3.369-0.986l-6.653-4.113c-0.753-0.542-0.469-0.986,0.631-0.986
			h1.948c1.1,0,2.616,0.444,3.369,0.986L39.364,27.511z M30.443,27.511c0.753,0.542,0.469,0.986-0.631,0.986h-1.947
			c-1.1,0-2.616-0.444-3.369-0.986l-6.653-4.113c-0.753-0.542-0.469-0.986,0.631-0.986h1.947c1.1,0,2.616,0.444,3.369,0.986
			L30.443,27.511z M21.521,27.511c0.753,0.542,0.469,0.986-0.631,0.986h-1.947c-1.1,0-2.616-0.444-3.369-0.986l-6.653-4.113
			c-0.753-0.542-0.469-0.986,0.631-0.986H11.5c1.1,0,2.616,0.444,3.369,0.986L21.521,27.511z M12.601,27.511
			c0.753,0.542,0.469,0.986-0.631,0.986h-1.948c-1.1,0-2.616-0.444-3.369-0.986L0,23.398c-0.753-0.542-0.469-0.986,0.631-0.986
			h1.948c1.1,0,2.616,0.444,3.369,0.986L12.601,27.511z"/>
	</g>
	<g class="st1">
		<circle class="st4" cx="251.636" cy="25.455" r="17.293"/>
		<g>
			<polygon class="st3" points="256.528,25.455 259.419,17.672 251.636,20.563 243.853,17.672 246.744,25.455 243.853,33.238 
				251.636,30.347 259.419,33.238 			"/>
			<g>
				<polygon class="st3" points="251.636,10.444 246.919,20.737 251.636,25.455 				"/>
				<polygon class="st3" points="251.636,40.466 256.353,30.172 251.636,25.455 				"/>
				<polygon class="st3" points="246.919,25.455 236.625,25.455 246.919,30.172 251.636,25.455 				"/>
				<polygon class="st3" points="256.353,20.737 251.636,25.455 256.353,25.455 266.647,25.455 				"/>
			</g>
			<g>
				<polygon class="st2" points="251.719,10.826 256.253,20.72 251.719,25.254 				"/>
				<polygon class="st2" points="247.018,30.19 251.553,25.656 251.553,40.083 				"/>
				<polygon class="st2" points="237.007,25.372 246.901,20.838 251.435,25.372 				"/>
				<polygon class="st2" points="251.837,25.538 266.264,25.538 256.371,30.072 				"/>
			</g>
			<path class="st3" d="M256.353,20.737l-4.717-10.293l-4.717,10.293l-10.293,4.717l10.293,4.717l4.717,10.293l4.717-10.293
				l10.293-4.717L256.353,20.737z M256.389,20.937l9.493,4.351h-9.529h-4.315L256.389,20.937z M251.803,11.208l4.351,9.493
				l-4.351,4.351V11.208z M251.469,11.208v13.844l-4.351-4.351L251.469,11.208z M246.883,20.937l4.351,4.351h-4.315h-9.529
				L246.883,20.937z M246.883,29.972l-9.493-4.351h9.529h4.315L246.883,29.972z M251.469,39.701l-4.351-9.493l4.351-4.351V39.701z
				 M251.803,39.701V25.858l4.351,4.351L251.803,39.701z M256.389,29.972l-4.351-4.351h4.315h9.529L256.389,29.972z"/>
		</g>
	</g>
</g>
<g id="Layer_3">
	<g>
		<path class="st5" d="M0,30.856c8.345-14.532,17.977-5.909,28.739-0.168c3.327,1.332,6.944-0.626,7.893-4.086
			c0.121-0.443,0.181-0.859,0.185-1.244c0.022-2.153-3.073-2.653-3.912-0.67c-0.626,1.479-2.43,2.142-3.553,0.703
			c-3.288-4.212,2.442-9.187,7.684-8.123c3.701,0.646,6.471,3.586,6.766,7.18c0.531,6.486-5.611,12.13-12.21,10.877
			C20.971,32.331,10.908,21.649,0,30.856z"/>
		<path class="st5" d="M45.113,24.923c-0.382-4.341-2.537-6.999-6.19-8.389c1.078-2.173,2.406-2.323,3.99-1.495
			C45.569,16.428,46.639,20.691,45.113,24.923z"/>
	</g>
	<g>
		<path class="st5" d="M45.746,30.856c8.345-14.532,17.977-5.909,28.739-0.168c3.327,1.332,6.944-0.626,7.893-4.086
			c0.121-0.443,0.181-0.859,0.185-1.244c0.022-2.153-3.073-2.653-3.912-0.67c-0.626,1.479-2.43,2.142-3.553,0.703
			c-3.288-4.212,2.442-9.187,7.684-8.123c3.701,0.646,6.471,3.586,6.766,7.18c0.531,6.486-5.611,12.13-12.21,10.877
			C66.717,32.331,56.653,21.649,45.746,30.856z"/>
		<path class="st5" d="M90.859,24.923c-0.382-4.341-2.537-6.999-6.19-8.389c1.078-2.173,2.406-2.323,3.99-1.495
			C91.315,16.428,92.385,20.691,90.859,24.923z"/>
	</g>
	<g>
		<path class="st5" d="M91.492,30.856c8.345-14.532,17.977-5.909,28.739-0.168c3.327,1.332,6.944-0.626,7.893-4.086
			c0.121-0.443,0.181-0.859,0.185-1.244c0.022-2.153-3.073-2.653-3.912-0.67c-0.626,1.479-2.43,2.142-3.553,0.703
			c-3.288-4.212,2.442-9.187,7.684-8.123c3.701,0.646,6.471,3.586,6.766,7.18c0.531,6.486-5.611,12.13-12.21,10.877
			C112.463,32.331,102.399,21.649,91.492,30.856z"/>
		<path class="st5" d="M136.605,24.923c-0.382-4.341-2.537-6.999-6.19-8.389c1.078-2.173,2.406-2.323,3.99-1.495
			C137.061,16.428,138.131,20.691,136.605,24.923z"/>
	</g>
	<g>
		<path class="st5" d="M137.237,30.856c8.345-14.532,17.977-5.909,28.739-0.168c3.327,1.332,6.944-0.626,7.893-4.086
			c0.121-0.443,0.181-0.859,0.185-1.244c0.022-2.153-3.073-2.653-3.912-0.67c-0.626,1.479-2.43,2.142-3.553,0.703
			c-3.288-4.212,2.442-9.187,7.684-8.123c3.701,0.646,6.471,3.586,6.766,7.18c0.531,6.486-5.611,12.13-12.21,10.877
			C158.208,32.331,148.145,21.649,137.237,30.856z"/>
		<path class="st5" d="M182.351,24.923c-0.382-4.341-2.537-6.999-6.19-8.389c1.078-2.173,2.406-2.323,3.99-1.495
			C182.807,16.428,183.876,20.691,182.351,24.923z"/>
	</g>
	<g>
		<path class="st5" d="M182.983,30.856c8.345-14.532,17.977-5.909,28.739-0.168c3.327,1.332,6.944-0.626,7.893-4.086
			c0.121-0.443,0.181-0.859,0.185-1.244c0.022-2.153-3.073-2.653-3.912-0.67c-0.626,1.479-2.43,2.142-3.553,0.703
			c-3.288-4.212,2.442-9.187,7.684-8.123c3.701,0.646,6.471,3.586,6.766,7.18c0.531,6.486-5.611,12.13-12.21,10.877
			C203.954,32.331,193.891,21.649,182.983,30.856z"/>
		<path class="st5" d="M228.096,24.923c-0.382-4.341-2.537-6.999-6.19-8.389c1.078-2.173,2.406-2.323,3.99-1.495
			C228.552,16.428,229.622,20.691,228.096,24.923z"/>
	</g>
	<g>
		<path class="st5" d="M228.729,30.856c8.345-14.532,17.977-5.909,28.739-0.168c3.327,1.332,6.944-0.626,7.893-4.086
			c0.121-0.443,0.181-0.859,0.185-1.244c0.022-2.153-3.073-2.653-3.912-0.67c-0.626,1.479-2.43,2.142-3.553,0.703
			c-3.288-4.212,2.442-9.187,7.684-8.123c3.701,0.646,6.471,3.586,6.766,7.18c0.531,6.486-5.611,12.13-12.21,10.877
			C249.7,32.331,239.637,21.649,228.729,30.856z"/>
		<path class="st5" d="M273.842,24.923c-0.382-4.341-2.537-6.999-6.19-8.389c1.078-2.173,2.406-2.323,3.99-1.495
			C274.298,16.428,275.368,20.691,273.842,24.923z"/>
	</g>
	<g>
		<path class="st5" d="M274.475,30.856c8.345-14.532,17.977-5.909,28.739-0.168c3.327,1.332,6.944-0.626,7.893-4.086
			c0.121-0.443,0.181-0.859,0.185-1.244c0.022-2.153-3.073-2.653-3.912-0.67c-0.626,1.479-2.43,2.142-3.553,0.703
			c-3.288-4.212,2.442-9.187,7.684-8.123c3.701,0.646,6.471,3.586,6.766,7.18c0.531,6.486-5.611,12.13-12.21,10.877
			C295.446,32.331,285.382,21.649,274.475,30.856z"/>
		<path class="st5" d="M319.588,24.923c-0.382-4.341-2.537-6.999-6.19-8.389c1.078-2.173,2.406-2.323,3.99-1.495
			C320.044,16.428,321.114,20.691,319.588,24.923z"/>
	</g>
	<g>
		<path class="st5" d="M320.22,30.856c8.345-14.532,17.977-5.909,28.739-0.168c3.327,1.332,6.944-0.626,7.893-4.086
			c0.121-0.443,0.181-0.859,0.185-1.244c0.022-2.153-3.073-2.653-3.912-0.67c-0.626,1.479-2.43,2.142-3.553,0.703
			c-3.288-4.212,2.442-9.187,7.684-8.123c3.701,0.646,6.471,3.586,6.766,7.18c0.531,6.486-5.611,12.13-12.21,10.877
			C341.192,32.331,331.128,21.649,320.22,30.856z"/>
		<path class="st5" d="M365.334,24.923c-0.382-4.341-2.537-6.999-6.19-8.389c1.078-2.173,2.406-2.323,3.99-1.495
			C365.79,16.428,366.86,20.691,365.334,24.923z"/>
	</g>
	<g>
		<path class="st5" d="M365.966,30.856c8.345-14.532,17.977-5.909,28.739-0.168c3.327,1.332,6.944-0.626,7.893-4.086
			c0.121-0.443,0.181-0.859,0.185-1.244c0.022-2.153-3.073-2.653-3.912-0.67c-0.626,1.479-2.43,2.142-3.553,0.703
			c-3.288-4.212,2.442-9.187,7.684-8.123c3.701,0.646,6.471,3.586,6.766,7.18c0.531,6.486-5.611,12.13-12.21,10.877
			C386.937,32.331,376.874,21.649,365.966,30.856z"/>
		<path class="st5" d="M411.079,24.923c-0.382-4.341-2.537-6.999-6.19-8.389c1.078-2.173,2.406-2.323,3.99-1.495
			C411.535,16.428,412.605,20.691,411.079,24.923z"/>
	</g>
	<g>
		<path class="st5" d="M411.712,30.856c8.345-14.532,17.977-5.909,28.739-0.168c3.327,1.332,6.944-0.626,7.893-4.086
			c0.121-0.443,0.181-0.859,0.185-1.244c0.022-2.153-3.073-2.653-3.912-0.67c-0.626,1.479-2.43,2.142-3.553,0.703
			c-3.288-4.212,2.442-9.187,7.684-8.123c3.701,0.646,6.471,3.586,6.766,7.18c0.531,6.486-5.611,12.13-12.21,10.877
			C432.683,32.331,422.62,21.649,411.712,30.856z"/>
		<path class="st5" d="M456.825,24.923c-0.382-4.341-2.537-6.999-6.19-8.389c1.078-2.173,2.406-2.323,3.99-1.495
			C457.281,16.428,458.351,20.691,456.825,24.923z"/>
	</g>
	<g>
		<path class="st5" d="M457.458,30.856c8.345-14.532,17.977-5.909,28.739-0.168c3.327,1.332,6.944-0.626,7.893-4.086
			c0.121-0.443,0.181-0.859,0.185-1.244c0.022-2.153-3.073-2.653-3.912-0.67c-0.626,1.479-2.43,2.142-3.553,0.703
			c-3.288-4.212,2.442-9.187,7.684-8.123c3.701,0.646,6.471,3.586,6.766,7.18c0.531,6.486-5.611,12.13-12.21,10.877
			C478.429,32.331,468.366,21.649,457.458,30.856z"/>
		<path class="st5" d="M502.571,24.923c-0.382-4.341-2.537-6.999-6.19-8.389c1.078-2.173,2.406-2.323,3.99-1.495
			C503.027,16.428,504.097,20.691,502.571,24.923z"/>
	</g>
</g>
</svg>
