<?xml version="1.0" encoding="utf-8"?>
<!-- Generator: Adobe Illustrator 27.9.0, SVG Export Plug-In . SVG Version: 6.00 Build 0)  -->
<svg version="1.1" xmlns="http://www.w3.org/2000/svg" xmlns:xlink="http://www.w3.org/1999/xlink" x="0px" y="0px"
	 viewBox="0 0 503.272 50.91" style="enable-background:new 0 0 503.272 50.91;" xml:space="preserve">
<style type="text/css">
	.st0{display:none;}
	.st1{opacity:0.85;}
	.st2{fill:rgba(0,0,0,0.25);}
	.st3{fill:rgba(0,0,0,0.45);}
	.st4{fill:rgba(0,0,0,0.45);}
	.st5{fill:rgba(0,0,0,0.65);}
	.st6{fill:rgba(0,0,0,0.75);}
	.st7{fill:rgba(0,0,0,0.35);}
	.st8{fill:rgba(0,0,0,0.45);}
	.st9{fill:rgba(0,0,0,0.75);}
</style>
<g id="Guides" class="st0">
</g>
<g id="Layer_3">
	<g class="st1">
		<g class="st1">
			<g>
				<path class="st2" d="M194.431,14.362c-2.058-0.115-4.283-0.201-6.499-0.383l0.128-1.388c-0.487-0.341-1.515-0.219-2.366-0.212
					c-1.563,0.36-0.782,1.105-0.999,1.628c-1.065,0.413-2.294,0.768-3.366,1.183c-0.515,0.026-2.104,0.036-4.499,0.033
					c-2.394-0.003-5.553-0.175-9.258-0.298c-1.844-0.094-3.847-0.09-5.9-0.28c-2.059-0.162-4.216-0.333-6.439-0.508
					c-4.468-0.251-9.081-0.954-13.718-1.52c-1.167-0.148-2.334-0.296-3.497-0.444c-1.257-0.172-2.51-0.343-3.753-0.513
					c-2.489-0.339-4.943-0.673-7.327-0.998c-1.193-0.158-2.369-0.314-3.522-0.467c-1.159-0.124-2.296-0.245-3.406-0.364
					c-2.222-0.235-4.338-0.46-6.312-0.669c-3.943-0.459-7.352-0.65-9.896-0.845c-2.546-0.181-4.236-0.29-4.786-0.302
					c-2.894-0.271-5.811-0.395-8.716-0.629c-0.34-0.187-0.681-0.37-0.837-0.547l0.204-1.384c3.43,0.516,5.498,0.237,7.256-0.19
					c1.749-0.382,3.184-0.915,5.321-0.93c1.05,0.224,3.151,0.475,6.039,0.748c2.893,0.247,6.538,0.72,10.724,1.122
					c2.087,0.231,4.32,0.392,6.624,0.701c2.308,0.286,4.713,0.584,7.184,0.89c1.235,0.151,2.487,0.304,3.751,0.459
					c0.632,0.077,1.267,0.154,1.905,0.232c0.584,0.065,1.17,0.13,1.758,0.195c2.307,0.252,4.643,0.507,6.981,0.763
					c1.17,0.129,2.339,0.258,3.506,0.387c1.184,0.074,2.364,0.149,3.538,0.223c2.35,0.146,4.671,0.29,6.934,0.431
					c2.251,0.187,4.51,0.162,6.651,0.237c2.148,0.058,4.207,0.114,6.148,0.166c3.891,0.093,7.367,0.026,10.09,0.087
					c2.73,0.042,4.742,0.111,5.811,0.175c1.865,0.172,3.739,0.285,5.611,0.398c1.139,0.776,2.107,1.613,3.08,2.392
					C197.196,14.082,195.986,14.205,194.431,14.362z"/>
			</g>
			<g>
				<path class="st3" d="M184.696,14.007c0.217-0.523-0.564-1.268,0.999-1.628c0.851-0.007,1.879-0.129,2.366,0.212l-0.128,1.388
					C186.911,13.988,185.716,13.998,184.696,14.007z"/>
			</g>
			<g>
				<path class="st2" d="M15.447,40.719c-0.46,0.266-0.868,0.464-1.228,0.606c-0.326,0.149-0.577,0.246-0.809,0.287
					c-0.454,0.085-0.754-0.031-0.88-0.287c-0.126-0.257-0.075-0.655,0.183-1.149c0.129-0.247,0.309-0.518,0.544-0.807
					c0.253-0.283,0.602-0.566,0.99-0.864c0.163,0.004,0.49,0.013,0.653,0.017C15.082,39.253,15.264,39.986,15.447,40.719z"/>
			</g>
			<g>
				<path class="st3" d="M14.9,38.522c-0.471,0.714-0.174,1.222-0.111,1.628c0.033,0.203,0.009,0.379-0.19,0.538
					c-0.196,0.16-0.6,0.297-1.161,0.462c-0.095-0.305-0.261-0.596-0.165-0.999C13.342,39.739,13.782,39.246,14.9,38.522z"/>
			</g>
			<g>
				<path class="st4" d="M470.466,41.126c-2.721-0.114-5.441-0.21-8.164-0.271c-3.166,0.477-6.154,1.004-9.287,1.558
					c-0.594-0.503-1.354-1.016-2.116-1.518c1.582-1.359-1.907-1.785-2.705-3.219c-2.222,0.072-4.441,0.143-6.654,0.31
					c0.055-0.401,0.103-0.747,0.158-1.15c3.766-0.288,5.801-0.122,8.108,0.351c2.781-0.32,5.385-0.419,6.602,0.415
					c2.926-0.016,6.03-0.032,9.131-0.049c0.51,0.048,1.016,0.097,1.529,0.145c0.716,0.702,1.424,1.425,2.12,2.191
					C469.62,40.284,470.05,40.678,470.466,41.126z"/>
			</g>
			<g>
				<path class="st2" d="M453.016,42.412c-1.016-0.014-2.204,0.039-3.218,0.098c-3.473-0.436-7.437-0.742-9.374-1.266
					c-8.168-0.41-16.477-0.981-24.43-0.753c-3.938,0.111-7.841,0.465-10.952,1.145c-0.369,0.087-0.802,0.16-1.122,0.256
					l-0.968,0.277l-0.241,0.067l-0.173,0.07l-0.35,0.133l-0.356,0.122l-0.549,0.248c-1.552,0.721-3.513,1.82-5.992,3.128
					c-1.252,0.532-2.632,1.097-4.163,1.645c-0.763,0.274-1.57,0.542-2.41,0.798c-0.837,0.243-1.689,0.452-2.54,0.666
					c-3.401,0.812-6.903,1.249-10.31,1.245c-6.88,0.07-13.369-1.348-19.595-3.416c2.776,0.424,5.631,0.796,8.864,1.011
					c4.182,0.647,9.592,1.043,15.457,0.075c0.725-0.101,1.467-0.295,2.201-0.452c0.735-0.177,1.471-0.32,2.201-0.569
					c1.454-0.457,2.94-0.939,4.289-1.552c2.697-1.191,4.853-2.516,6.582-3.735c2.709-1.341,4.769-2.137,5.821-2.3
					c0.804-0.134,1.466-0.299,2.336-0.397c0.409-0.059,0.812-0.118,1.212-0.176c0.433-0.049,0.862-0.098,1.29-0.146
					c3.45-0.403,7.12-0.837,12.132-2.059c0.975-0.056,2.113-0.121,3.09-0.176c3.876,0.997,6.228,1.913,9.46,1.154
					c0.04-0.404,0.075-0.752,0.109-1.1c1.667-0.019,3.184,0.011,4.854,0.021c-0.005,0.057-0.015,0.173-0.02,0.231
					c1.51,0.034,3.19,0.071,4.873,0.108c0.168,0.005,0.507,0.016,0.674,0.022c-0.055,0.403-0.103,0.749-0.158,1.15
					c2.214-0.167,4.432-0.238,6.654-0.31c0.798,1.434,4.287,1.86,2.705,3.219C451.662,41.396,452.422,41.909,453.016,42.412z"/>
			</g>
			<g>
				<path class="st4" d="M431.207,37.552c-3.232,0.759-5.583-0.157-9.46-1.154c3.274-0.082,6.406-0.064,9.568,0.055
					C431.282,36.8,431.248,37.148,431.207,37.552z"/>
			</g>
			<g>
				<path class="st4" d="M418.658,36.574c-5.011,1.222-8.682,1.656-12.132,2.059c-0.428,0.048-0.857,0.097-1.29,0.146
					c-0.4,0.058-0.804,0.117-1.212,0.176c-0.87,0.099-1.532,0.264-2.336,0.397c-1.052,0.163-3.112,0.96-5.821,2.3
					c-1.729,1.219-3.884,2.544-6.582,3.735c-1.35,0.613-2.835,1.094-4.289,1.552c-0.731,0.249-1.466,0.392-2.201,0.569
					c-0.734,0.157-1.476,0.351-2.201,0.452c-5.865,0.968-11.275,0.572-15.457-0.075c-3.233-0.214-6.089-0.587-8.864-1.011
					c-0.766-0.176-1.334-0.306-1.906-0.437c-0.42-0.565-0.79-1.144-1.365-1.763c-3.919,0.158-7.881-1.937-10.264-1.868
					c-3.023-1.029-6.126-1.881-9.141-2.797c-0.809-0.211-1.598-0.417-2.368-0.618c-0.384-0.105-0.764-0.209-1.139-0.312
					c-0.382-0.082-0.759-0.163-1.132-0.244c-1.494-0.32-2.918-0.648-4.292-0.978c-1.374-0.342-2.697-0.671-3.988-0.992
					c-1.294-0.316-2.54-0.695-3.81-0.905c-2.524-0.489-4.989-0.947-7.534-1.325c-1.274-0.181-2.562-0.375-3.899-0.484
					c-1.343-0.077-2.724-0.126-4.159-0.139c-6.078-1.602-16.836-0.984-24.482-1.915l-5.701,0.039l-2.637,0.537
					c-4.682,0.103-9.407,0.206-14.132,0.309c-4.752,0.186-9.503,0.373-14.213,0.557c-0.15-0.398-0.481-0.727-0.807-1.115
					l2.714-1.533c1.562,0.044,2.804-0.247,4.204-0.427c1.927-0.09,3.849-0.179,5.772-0.268c3.151-0.168,6.11-0.22,9.245-0.325
					c1.995,0.027,3.948,0.054,5.88,0.081c1.929,0.043,3.828,0.14,5.727,0.207c1.257-0.49,2.361-0.921,3.62-1.412
					c1.39-0.009,2.613-0.017,4.174-0.028c1.436,1.077,5.503,0.484,8.198,1.073c1.57-0.071,3.32-0.162,4.883-0.156
					c1.863,0.291,3.898,0.609,5.755,0.899c2.241,0.581,3.468,1.196,4.616,1.64c0.574,0.222,1.127,0.401,1.778,0.511
					c0.645,0.14,1.384,0.219,2.337,0.211c2.13,0.533,3.138-0.108,5.016,0.047c5.426,1.267,4.145,0.09,5.715,0.094
					c2.18,0.373,4.358,0.746,6.533,1.119c1.761,0.594,3.179,0.981,4.43,1.267c1.256,0.267,2.302,0.594,3.374,0.825l5.41,1.283
					c0.247,0.297,0.315,0.609,0.537,0.957c1.015,0.147,2.186,0.316,3.203,0.463c3.753,1.124,7.528,2.292,11.467,3.383
					c0.56,0.618,0.943,1.187,1.346,1.751c2.36,0.735,3.482,0.723,4.136,0.577c0.661-0.149,0.926-0.474,1.751-0.477
					c1.164,0.216,2.556,0.422,3.772,0.575c0.204,0.024,0.596,0.092,1.01,0.126c2.22,0.397,4.495,0.751,6.896,0.88
					c2.617,0.01,5.348-0.27,8.072-0.74c1.367-0.294,2.736-0.543,4.09-0.98c1.353-0.383,2.729-0.838,3.978-1.354
					c1.733-0.388,3.366-0.83,4.864-1.243c1.564-0.778,3.127-1.555,4.531-2.254c0.574-0.231,1.103-0.424,1.621-0.609
					c0.414-0.103,0.808-0.204,1.202-0.32c0.921-0.2,1.861-0.418,2.959-0.579c2.11-0.514,4.476-0.942,6.954-1.248
					c0.994-0.025,2.014-0.035,3.046-0.039c1.017-0.02,2.058-0.017,3.104-0.006C417.704,36.418,418.18,36.497,418.658,36.574z"/>
			</g>
			<g>
				<path class="st4" d="M402.672,16.479c-0.385,0.139-0.578,0.296-0.959,0.432c-2.584,0.824-4.983,1.608-7.219,2.429
					c-1.116,0.455-2.313,0.964-3.238,1.438c-0.915,0.478-1.743,0.968-2.489,1.484c-1.103,0.223-2.311,0.515-3.306,0.685
					c-1.508,0.687-2.376,1.275-3.236,1.827c-0.611,0.379-1.21,0.668-1.782,0.975c-0.566,0.072-1.163,0.148-1.761,0.223
					c-0.615,0.019-1.215,0.05-1.786,0.044c0.299-0.88,0.547-1.771,0.743-2.687c0.424-0.072,0.791-0.24,1.175-0.359
					c0.381-0.123,0.756-0.247,1.117-0.408c0.747-0.323,1.559-0.729,2.453-1.209c2.01-0.798,4.258-1.89,7.082-3.151
					c0.394-0.178,0.689-0.357,1.031-0.559c0.353-0.204,0.672-0.414,0.985-0.629c0.611-0.413,1.255-0.926,1.988-1.306
					c0.97-0.406,1.844-0.705,2.64-0.892c0.768-0.151,1.478-0.217,2.175-0.22c1.413-0.035,2.677,0.334,4.32,0.715
					c0.005,0.115,0.011,0.232,0.013,0.291L402.672,16.479z"/>
			</g>
			<g>
				<path class="st5" d="M445.475,22.858c-0.934,0.301-1.863,0.624-2.622,1.002c-5.046,0.819-7.199,1.323-11.227,1.493
					c-2.061-0.283-3.573-0.424-4.855-0.431c-1.283-0.022-2.336,0.083-3.48,0.308l-0.036,0.521c-1.909,0.06-3.811,0.182-5.711,0.299
					c-0.338-0.147-0.679-0.293-0.845-0.455c-3.113-0.018-6.037,0.152-9.135,0.422c-1.37,0.169-2.746,0.266-4.107,0.449
					c-0.499,0.228-1,0.421-1.649,0.66c-0.505,0.129-1.003,0.256-1.5,0.383c-0.543,0.152-1.053,0.369-1.578,0.552
					c-0.518,0.196-1.055,0.357-1.546,0.595l-1.498,0.664c-0.5,0.25-0.998,0.508-1.493,0.777c-3.434-0.844-4.1,1.94-6.097,2.687
					c-1.053,0.623-2.158,1.159-3.283,1.588c-1.121,0.446-2.281,0.698-3.365,0.965c-2.205,0.42-4.215,0.538-5.815,0.595
					c-0.98,0.047-2.001,0.073-3.02,0.014c-1.019-0.013-2.032-0.12-3.001-0.195c-0.972-0.038-1.937-0.17-2.906-0.251
					c-0.963-0.13-1.926-0.251-2.883-0.406c0.405-0.817-0.879-1.206-2.472-1.608c-1.595-0.399-3.511-0.834-4.367-1.516
					c-0.767-0.433-1.545-0.797-2.325-1.184c-1.517-0.411-3.202-0.867-4.893-1.325c-1.462-0.109-2.295,0.561-4.396-0.319
					c-0.492-0.659-1.21-1.237-1.912-1.882c-1.734-0.409-3.291-0.778-4.935-1.465c-0.523-0.123-1.049-0.247-1.565-0.369
					c-0.962,0.052-1.904,0.103-2.868,0.155c-1.443-0.746-3.09-1.369-4.747-2.021c-0.547-0.034-1.107-0.011-1.665,0.01l-5.505-1.106
					c-0.92-0.171-1.838-0.385-2.763-0.515l-2.78-0.369c-0.71-0.08-1.599-0.181-2.485-0.281l0.319-1.359
					c-1.801-0.901-4.432-1.489-7.513-1.661c0.083-0.398,0.153-0.738,0.236-1.137c1.088,0.05,2.371,0.108,3.464,0.158
					c4.64,0.695,5.776-0.164,7.958,0.025c0.353,0.04,0.538,0.062,0.901,0.103c1.009,0.376,2.192,0.921,3.191,1.369
					c3.832,1.059,5.945,0.246,8.955,0.35c0.536,0.091,1.077,0.183,1.802,0.307c2.396,0.848,4.971,1.76,7.371,2.61
					c1.066,0.252,2.31,0.545,3.378,0.798c2.988,1.084,4.931,1.736,6.358,1.983c1.424,0.269,2.259,0.209,2.838,0.159
					c0.815,0.286,1.583,0.604,2.208,0.891c1.024,0.629,1.858,1.252,2.887,1.862c2.933,1.22,4.054-0.16,6.408,0.193
					c0.759,0.2,1.478,0.391,2.197,0.581c0.717,0.175,1.425,0.316,2.184,0.484c0.653,0.247,1.348,0.458,2.078,0.688
					c0.728,0.188,1.475,0.381,2.222,0.575c1.373-0.04,1.827-1.009,3.562-0.92c0.894,0.23,1.794,0.43,2.879,0.54
					c1.614-0.297,1.744-0.616,1.773-1.02c0.038-0.403-0.013-0.814,1.262-1.448c0.833-0.337,1.832-0.795,2.725-1.227
					c-0.021-0.055-0.061-0.165-0.102-0.274c0.921-0.458,1.997-0.994,2.917-1.451c0.106-0.765,0.043-1.446,0.166-2.215
					c0.746-0.516,1.574-1.006,2.489-1.484c0.924-0.474,2.122-0.984,3.238-1.438c2.236-0.821,4.635-1.605,7.219-2.429l0.178,2.267
					c0.394,0.095,0.59,0.232,0.979,0.328c0.957,0.023,1.884,0.075,2.63,0.117c-0.836,1.651-4.19,1.431-5.915,2.942
					c-0.309,0.556-0.598,1.108-0.699,1.612c0.586,0.208,1.172,0.474,1.918,0.641c0.785-0.186,1.622-0.308,2.458-0.428
					c0.835-0.129,1.67-0.232,2.462-0.293c4.031-0.682,7.906-1.074,11.958-1.359c1.573,0.083,2.305-0.421,3.389-0.774
					c-0.216-0.741-1.835-1.038-3.22-1.377c-1.383-0.331-2.54-0.673-1.785-1.607c6.638,0.21,10.338,0.417,14.632,0.253
					c3.355,0.26,6.69,0.607,10.03,0.915l2.657,0.088c0.639,0.482,1.451,0.971,2.261,1.473
					C445.587,22.109,445.535,22.457,445.475,22.858z"/>
			</g>
			<g>
				<path class="st6" d="M355.005,32.308c-1.902-0.37-3.96-0.871-5.868-1.282c-1.015-0.281-2.204-0.61-3.22-0.891
					c-0.468-0.251-0.955-0.449-1.425-0.669c-2.002-0.663-3.838-1.271-5.671-1.877c-1.687-0.516-3.854-0.733-4.917-1.457
					c-1.081-0.402-2.143-0.687-3.211-0.955c-1.069-0.272-2.139-0.544-3.251-0.827c-1.434-0.146-2.856-0.291-4.292-0.438
					c0.382,0.645,0.743,1.253,1.122,1.894l-0.143,0.503c0.569,0.566,0.961,1.1,1.35,1.637c-0.581,0.135-1.143,0.217-1.878,0.265
					c-1.034-0.176-2.237-0.382-3.27-0.558c-1.368-0.272-2.765-0.361-4.153-0.539c-0.45-0.342-0.901-0.683-1.368-0.969
					c-2.63-0.219-5.086-0.422-7.716-0.641c-0.16-0.076-0.486-0.23-0.649-0.307c-0.675-0.16-1.174-0.308-1.693-0.399
					c-4.882,0.494-7.142,0.345-9.417,0.197c-1.018-1.371-3.506-1.324-4.959-1.004c-1.595,0.018-3.364,0.09-4.962,0.166
					c0.134,0.35,0.437,0.707,0.555,1.112c-0.22,0.342-0.625,0.736-0.844,1.079c-2.101,0.025-4.031,0.024-5.971,0.186
					c-2.345,0.65-4.219,0.316-6.024,0.849c-1.036-0.157-2.236-0.34-3.264-0.496c-1.069,0.18-2.305,0.351-3.369,0.57
					c-0.512-0.158-1.025-0.316-1.704-0.468c-1.573,0.048-3.326,0.101-4.902,0.149c-1.237,0.219-2.301,0.408-3.54,0.628
					c-4.174-0.207-6.298,0.219-7.473-0.489c-1.4,0.065-2.807,0.13-4.207,0.195c-0.558,0.546-1.124,1.151-1.679,1.754l-2.632,0.133
					c0.043-0.698,0.082-1.334,0.121-1.974c-0.879,0.048-1.582,0.086-2.461,0.134c-1.288,1.111-4.253,0.983-6.886,1.185
					c-0.201,0.414-0.572,0.783-0.77,1.198c-1.76,0.176-3.53,0.353-5.111,0.511c-1.752,0.016-3.329,0.03-5.084,0.046
					c-0.353,0.077-0.533,0.201-0.892,0.281c-3.519,0.175-7.217,0.36-10.919,0.544c-0.898,0.331-1.803,0.663-2.705,0.995
					c-0.688-0.199-1.558-0.33-2.428-0.463c-1.411,0.075-2.825,0.097-4.24,0.151c-1.409-0.011-2.817-0.084-4.223-0.154
					c-2.293,0.007-4.401-0.011-6.696-0.039c0.038-0.405,0.071-0.754,0.11-1.157c1.831-0.718,4.998-0.844,6.702-0.196
					c1.966-0.418,4.115-0.875,6.08-1.293c-1.216-0.246-2.249-0.455-3.458-0.699c-4.258,0.562-6.82,0.236-9.426-0.288
					c-2.608-0.548-5.255-1.233-9.706-1.31c1.491-0.879,4.576-0.269,6.031-0.861c4.205,0.005,8.408-0.174,12.612-0.301
					c0.712-0.138,1.594-0.283,2.478-0.368c0.059-0.812,0.122-1.681,0.18-2.494c-1.738-0.059-3.298-0.125-5.039-0.128
					c-4.233,0.765-5.628,0.715-6.594-0.093c-1.948,0.372-4.077,0.778-6.026,1.15c-1.864-0.446-0.754-1.091-2.262-1.597
					c-0.521,0.004-1.043,0.009-1.733,0.014c-0.916-0.255-19.322-0.768-37.091-3.607c-1.114-0.161-2.228-0.322-3.337-0.482
					c-1.166-0.181-2.327-0.36-3.48-0.539c-2.307-0.357-4.58-0.71-6.784-1.051c-4.402-0.737-8.567-1.179-12.161-1.662
					c-1.799-0.233-3.459-0.448-4.943-0.641c-1.486-0.186-2.804-0.299-3.907-0.426c-2.209-0.239-3.574-0.407-3.811-0.48
					c-1.76-0.339-3.533-0.623-5.126-0.895c-1.773-0.267-3.376-0.468-5.151-0.764c-2.785-0.231-5.52,0.118-7.92,0.254
					c-2.407,0.189-4.48,0.126-5.983-1.034c1.323-0.4,2.462-0.744,3.602-1.089c2.691,0.337,3.719-0.541,4.487-0.803
					c2.434-0.385,1.858-1.444,3.894-1.552c2.905,0.234,5.822,0.358,8.716,0.629c1.03,0.411,2.232,0.891,3.264,1.303
					c-0.055,0.177,1.113,0.43,3.199,0.738c1.043,0.154,2.316,0.322,3.781,0.501c1.46,0.205,3.111,0.438,4.916,0.692
					c1.804,0.244,3.761,0.508,5.836,0.788c2.076,0.263,4.265,0.554,6.521,0.929c2.259,0.349,4.597,0.711,6.979,1.079
					c2.378,0.364,4.854,0.749,7.049,1.048c9.029,1.411,18.338,2.277,25.588,2.711c3.633,0.202,6.728,0.374,9.005,0.501
					c2.287,0.099,3.761,0.135,4.119,0.197c4.239,0.6,2.18-1.116,5.128-1.431c1.566-0.197,3.288-0.352,5.031-0.586
					c0.694-0.022,1.558-0.049,2.418-0.076c1.901,0.014,3.962,0.03,5.86,0.045c1.284,1.283,2.448,1.906,4.733,1.513
					c1.727,0.092,3.461,0.182,5.013,0.343c-0.902,0.504-1.631,1.001-2.533,1.507c-0.873,0.041-1.744,0.082-2.62,0.123
					c-2.519,1.258-1.345,1.84-0.869,2.523c1.579-0.166,3.327-0.349,4.913-0.516c3.15-0.15,6.296-0.3,9.27-0.442
					c0.698,0.077,1.046,0.115,1.739,0.192c1.034,0.236,2.243,0.459,3.284,0.633c2.292-0.298,3.721-0.84,4.29-1.623
					c1.913,0.126,3.834,0.194,5.937,0.255c1.267-0.648,3.039-1.034,4.975-1.082c1.22,0.166,2.251,0.399,3.47,0.622
					c1.948-0.402,3.913-0.771,5.87-1.096c1.398,0.108,2.801,0.216,4.202,0.325c3.687,0.122,2.555-1.398,5.221-1.623
					c1.94,0.033,3.888,0.066,6.01,0.102c-0.989,1.248-1.97,2.491-2.947,3.677c3.595-0.862,6.223-0.655,9.299,0.294
					c1.059-0.034,2.299-0.023,3.354-0.037c0.54-0.118,1.078-0.181,1.796-0.301c1.573,0.163,3.318,0.324,5.058,0.542
					c0.045-0.405,0.083-0.751,0.122-1.097c1.441-0.228,2.7-0.457,4.315-0.576c0.062-0.518,2.682-0.108,5.003-0.166
					c0.047-0.346,0.102-0.75,0.148-1.095l4.308-0.161c1.438-0.06,2.877-0.137,4.325-0.135c1.739,0.4,3.469,0.801,5.013,1.191
					c1.831-0.18,3.495-0.344,5.322-0.524c2.804,0.443,5.611,1.01,8.412,1.478c0.886,0.1,1.775,0.201,2.485,0.281l2.78,0.369
					c0.925,0.13,1.843,0.344,2.763,0.515l5.505,1.106c0.558-0.021,1.118-0.044,1.665-0.01c1.657,0.651,3.305,1.275,4.747,2.021
					c0.963-0.052,1.906-0.103,2.868-0.155c0.517,0.122,1.043,0.246,1.565,0.369c1.644,0.686,3.2,1.056,4.935,1.465
					c0.702,0.645,1.42,1.222,1.912,1.882c5.089,0.507,7.099,1.073,9.289,1.644c0.78,0.387,1.558,0.751,2.325,1.184
					C356.207,32.074,355.618,32.163,355.005,32.308z"/>
			</g>
			<g>
				<path class="st4" d="M350.001,22.327c-1.194,0.15-2.117,0.392-2.982,0.535c-0.884,0.155-1.742,0.228-2.814,0.001
					c-1.068-0.252-2.313-0.546-3.378-0.798c0.202-0.547,0.383-1.039,0.584-1.584c2.369,0.399,4.652,0.7,6.98,1.103
					C349.037,21.882,349.518,22.134,350.001,22.327z"/>
			</g>
			<g>
				<path class="st7" d="M316.203,16.53c-1.452-0.164-2.897-0.327-4.343-0.489l-4.401-0.233c-1.464-0.038-2.925-0.025-4.385-0.038
					c-1.988-0.128-4.153-0.267-6.136-0.395l-2.983-0.192l-2.971-0.078c-0.772-0.84-1.569-1.707-2.34-2.545
					c-1.68,0.304-3.549,0.664-5.401,0.967c-0.782,0.444-1.742,0.883-2.705,1.321c-1.788,0.013-3.397,0.024-5.188,0.036
					c-0.177-0.058-0.519-0.17-0.864-0.283c-3.634,0.435-7.436,0.772-11.199,1.331c-0.336-0.221-0.492-0.389-0.838-0.554
					c-2.29-0.218-4.409-0.442-6.709-0.601c-1.821,0.507-3.439,1.004-5.244,1.606c-1.899-0.608-3.985-1.145-5.891-1.694
					c1.811-0.663,3.619-1.268,5.257-1.923c1.947,0.088,4.054,0.146,6.007,0.332c2.881-0.322,5.752-0.584,8.638-0.845
					c1.429-0.045,2.853-0.097,4.299-0.095c0.938-0.353,1.703-0.766,2.64-1.118c1.808-0.013,3.431-0.025,5.205,0.252
					c1.804,0.063,3.396,0.109,5.207,0.295c2.354,0.136,4.516,0.262,6.868,0.398c1.441,0.09,2.884,0.181,4.329,0.272
					c1.442,0.075,2.903,0.259,4.356,0.365c3.101,0.16,6.16,0.317,9.221,0.474c3.067,0.226,6.145,0.56,9.262,0.839
					c0.158,0.136,0.495,0.289,0.846,0.387L316.203,16.53z"/>
			</g>
			<g>
				<path class="st4" d="M310.649,17.301c-1.093-0.05-2.376-0.108-3.464-0.158c-1.366-0.456-2.744-0.917-4.111-1.373
					c1.46,0.014,2.921,0,4.385,0.038l4.401,0.233C311.884,16.741,310.222,16.729,310.649,17.301z"/>
			</g>
			<g>
				<path class="st4" d="M305.731,19.823c-1.827,0.18-3.49,0.344-5.322,0.524c-1.544-0.39-3.274-0.791-5.013-1.191
					c-1.448-0.001-2.887,0.076-4.325,0.135l-4.308,0.161l-6.32-0.845l-6.322-0.65c0.372-0.176,0.747-0.351,0.952-0.584
					c1.967-0.066,4.112-0.222,6.089-0.256c2.538-0.17,5.246-0.276,7.781-0.385c2.46,0.409,5.079,0.844,7.529,1.391
					c2.839,0.281,5.685,0.562,8.527,0.843C305.806,19.48,305.766,19.65,305.731,19.823z"/>
			</g>
			<g>
				<path class="st4" d="M289.025,16.154c-2.492-0.23-5.159-0.476-7.651-0.706c-0.333-0.241-0.673-0.423-0.834-0.599
					c0.963-0.438,1.923-0.877,2.705-1.321c1.852-0.302,3.721-0.662,5.401-0.967c0.77,0.838,1.567,1.705,2.34,2.545
					C290.212,15.434,289.615,15.821,289.025,16.154z"/>
			</g>
			<g>
				<path class="st4" d="M245.183,19.407c-1.957,0.325-3.921,0.694-5.87,1.096c-1.218-0.222-2.25-0.456-3.47-0.622
					c-1.936,0.047-3.708,0.434-4.975,1.082c-2.104-0.06-4.024-0.129-5.937-0.255c-0.569,0.783-1.998,1.325-4.29,1.623
					c-1.041-0.174-2.249-0.397-3.284-0.633c-0.693-0.076-1.041-0.115-1.739-0.192c0.018-0.29,0.033-0.523,0.051-0.813
					c5.211-2.428,12.523-2.192,19.539-1.936c1.966-0.569,3.927-1.138,5.891-1.706c3.188-0.148,6.196-0.288,9.383-0.436
					c-0.008,0.115-0.016,0.232-0.02,0.29C248.651,17.762,246.99,18.55,245.183,19.407z"/>
			</g>
			<g>
				<path class="st4" d="M228.387,33.89l-0.027,0.522l-4.272,1.103c-1.059,0.057-2.29,0.124-3.348,0.181
					c-1.583,0.03-0.409,1.01-5.138,0.802c-0.53,0.025-1.064,0.051-1.772,0.085c-1.949,0.015-3.888,0.029-5.831,0.044l-2.592-0.746
					c-1.597,0.078-3.362,0.164-4.97,0.205c-3.569,0.289-6.969,0.57-10.371,0.91c-2.837-0.159-5.678-0.319-8.52-0.478
					c-0.586,0.04-5.642,0.105-12.983-0.236c-1.832-0.069-3.804-0.144-5.881-0.223c-2.082-0.158-4.27-0.323-6.528-0.494
					c-2.255-0.176-4.581-0.357-6.941-0.54c-2.359-0.293-4.753-0.589-7.148-0.886c-2.379-0.301-4.757-0.603-7.101-0.9
					c-2.262-0.312-4.49-0.619-6.651-0.917c-2.163-0.297-4.258-0.585-6.253-0.859c-1.999-0.216-3.898-0.422-5.661-0.613
					c-3.528-0.364-6.517-0.716-8.698-0.88c-2.181-0.154-3.552-0.238-3.838-0.227c-0.875,0.003-1.758,0.063-2.645,0.125
					c-4.636-0.58-9.283-0.855-13.946-1.185c0.078-0.575,0.148-1.095,0.225-1.67c2.971,0.045,6.121,0.016,9.101,0.019
					c2.248,0.256,4.492,0.511,6.743,0.71c0.489-0.034,5.349,0.232,12.365,1.028c1.754,0.184,3.644,0.383,5.636,0.593
					c1.99,0.229,4.076,0.54,6.232,0.824c4.316,0.584,8.841,1.222,13.612,1.787c2.359,0.29,4.719,0.581,7.043,0.867
					c2.326,0.274,4.62,0.379,6.845,0.568c2.226,0.167,4.383,0.329,6.434,0.483c2.052,0.152,3.993,0.164,5.799,0.244
					c3.609,0.119,6.663,0.234,8.872,0.269c2.204-0.008,3.57-0.03,3.818-0.068c0.872,0.265,1.724,0.524,2.59,0.786
					c2.404-0.03,4.815-0.028,7.217-0.083l7.191-0.231c1.226,0.134,2.281,0.276,3.505,0.468c0.55-0.25,1.097-0.439,1.636-0.631
					c1.243-0.058,2.304-0.107,3.366-0.156c2.828-0.134,5.831-0.276,8.48-0.401c4.065-0.256,7.933-0.602,11.993-0.932l1.581-0.088
					C228.421,33.31,228.406,33.599,228.387,33.89z"/>
			</g>
			<g>
				<path class="st6" d="M82.615,25.52l-0.169,1.387c-1.414,0.171-2.829,0.34-4.243,0.566l-4.176-0.012
					c-1.391,0.014-2.779,0.071-4.171,0.104c-1.89-0.228-3.955-0.478-5.851-0.707c-2.278,0.389-1.136,1.563-4.232,1.391
					c-2.584-0.14-0.265-1.547-3.232-1.199c-2.251-0.179-3.319,0.623-5.915,0.979c-0.006,0.35-0.013,0.757-0.019,1.106
					c-1.905,0.378-3.799,0.753-5.686,1.127c-0.859,0.107-1.711,0.213-2.568,0.32c-2.047,0.433-4.272,0.851-6.452,1.468
					c0.002,0.057,0.008,0.174,0.01,0.232c-1.002,0.438-2.156,0.943-3.155,1.381c-2.515,0.416-5.167,0.935-7.12,1.665
					c-0.682-0.132-1.206-0.304-1.735-0.474c0.425-0.665,0.895-1.347,1.377-2.022c0.489-0.656,0.983-1.313,1.441-1.964
					c0.306-0.473,0.617-0.887,0.753-1.327c0.325-0.24,0.485-0.449,0.813-0.693c0.849-0.283,1.529-0.542,2.389-0.762
					c1.743-0.104,3.31-0.18,5.049-0.222c0.53,0.267,1.062,0.533,1.761,0.829c1.891-0.489,3.796-0.884,5.699-1.303
					c2.251-0.023,4.511,0.101,6.759,0.18c0.723-1.459,0.741-2.04,0.755-2.623c0.707-0.239,1.239-0.461,1.768-0.684
					c4.202,0.011,5.787-0.133,6.033-1.499c3.214-0.881,4.673-1.514,6.79-1.491c6.026-0.098,6.582,1.405,9.215,1.449
					c1.38,0.294,2.755,0.587,4.132,0.88c2.459,0.028,5.1-0.034,7.524,0.301C85.017,24.425,83.732,25.011,82.615,25.52z"/>
			</g>
			<g>
				<path class="st4" d="M78.083,28.57c-1.709,1.326-4.789,1.06-7.526,0.884c-1.129,1.13-3.682,0.852-5.051,0.714
					c-2.204,0.63-4.732,1.067-6.9,1.203c-2.163,0.163-3.961,0.085-4.637,0.012c0.531-0.754,1.072-1.407,1.614-2.08
					c1.386-0.081,2.765-0.162,4.148-0.243c1.899-0.107,3.969-0.255,5.877-0.281c1.05-0.12,2.26-0.259,3.315-0.38
					c0.37-0.299,0.563-0.535,0.934-0.834c1.392-0.033,2.78-0.09,4.171-0.104l4.176,0.012C78.146,27.994,78.114,28.283,78.083,28.57z
					"/>
			</g>
			<g>
				<path class="st4" d="M56.636,7.59c1.864-0.4,0.078-1.222,5.393-0.609C60.171,7.148,58.493,7.362,56.636,7.59z"/>
			</g>
			<g>
				<path class="st4" d="M48.158,32.142c-1.882,0.378-3.483,0.829-4.724,1.325c-1.241,0.496-2.116,1.056-2.518,1.776
					c-1.006,0.184-2.177,0.431-3.16,0.724c-1.658,0.264-3.311,0.527-4.797,0.764l0.034,0.522c-2.629,0.352-5.35,1.219-6.246,2.091
					c-2.605,1.003-4.04,0.325-6.076,0.606c-0.592-0.671-1.203-1.397-1.977-2.017c2.284-0.892,4.576-1.539,6.97-2.374
					c-0.007-0.057-0.02-0.171-0.027-0.231c1.952-0.73,4.604-1.249,7.12-1.665c1-0.437,2.153-0.942,3.155-1.381
					c1.874,0.142,3.928,0.349,5.796,0.592c3.053-0.262,0.322-1.205,3.213-1.796C45.94,31.4,47.14,31.773,48.158,32.142z"/>
			</g>
			<g>
				<path class="st2" d="M457.194,23.75c-1.6,0.006-3.371,0.002-5.136-0.044c-0.049,0.286-0.099,0.571-0.148,0.859
					c-1.371,0.788,2.035,0.523,2.288,2.054c-1.39-0.082-2.782-0.164-4.177-0.247c-0.824-0.336-1.653-0.614-2.44-1.224
					c-1.514-0.413-3.201-0.898-4.727-1.289c0.759-0.379,1.688-0.701,2.622-1.002c2.284,0.092,4.392,0.2,6.674,0.332
					c0.099-0.574,0.198-1.146,0.287-1.664c1.759,0.116,3.523,0.232,5.108,0.336c1.821-0.222,5.761-0.189,6.804,0.836
					c1.194,1.145-2.793,0.575-2.95,1.371L457.194,23.75z"/>
			</g>
			<g>
				<path class="st2" d="M443.386,20.236l-2.657-0.088c-3.34-0.308-6.675-0.655-10.03-0.915c-0.359,0.059-0.732,0.178-0.922,0.294
					c-3.183-0.204-6.201-0.288-9.419-0.302c-1.803,0.232-2.105-0.829-4.291-0.245c-0.527-0.365-1.062-0.67-1.774-1.02
					c4.79-1.724,8.447-1.637,14.942-1.781c1.406,0.285,2.819,0.546,4.215,0.853c1.277-0.162,3.306-0.561,4.308,0.047
					c-2.163,1.41,3.168,0.396,4.13,1.199c0.813,0.547,1.618,1.15,2.242,1.75C443.945,20.08,443.571,20.184,443.386,20.236z"/>
			</g>
			<g>
				<path class="st2" d="M402.605,15.313c-1.643-0.381-2.907-0.75-4.32-0.715c-0.697,0.003-1.407,0.069-2.175,0.22
					c-0.796,0.187-1.67,0.486-2.64,0.892c-0.733,0.381-1.378,0.893-1.988,1.306c-0.312,0.216-0.631,0.426-0.985,0.629
					c-0.342,0.202-0.637,0.381-1.031,0.559c0.394-0.178,0.689-0.357,1.031-0.559c0.353-0.204,0.672-0.414,0.985-0.629
					c0.611-0.413,1.255-0.926,1.988-1.306c0.97-0.406,1.844-0.705,2.64-0.892c0.768-0.151,1.478-0.217,2.175-0.22
					C399.698,14.563,400.961,14.932,402.605,15.313z"/>
			</g>
			<g>
				<path class="st2" d="M402.618,15.604c-0.003-0.059-0.008-0.175-0.013-0.291C402.61,15.428,402.616,15.545,402.618,15.604z"/>
			</g>
			<g>
				<path class="st2" d="M377.639,23.331c-0.197,0.916-0.444,1.807-0.743,2.687c-2.538,0.345-5.118,0.252-7.84-0.045
					c-0.979-0.668-2.623-1.14-4.394-1.505c-1.751-0.331-3.636-0.543-4.879-0.389c-3.415-0.525-4.458-0.297-5.764-0.643l-4.017-1.11
					c-0.483-0.193-0.964-0.445-1.61-0.743c-4.572-1.65-9.346-3.19-14.068-4.789c-2.897-0.574-5.785-1.146-8.683-1.72l-4.45-0.487
					c-1.483-0.126-2.966-0.175-4.447-0.266c-0.352-0.098-0.689-0.251-0.846-0.387c-3.118-0.279-6.195-0.613-9.262-0.839
					c-3.061-0.158-6.121-0.315-9.221-0.474c-1.453-0.106-2.913-0.29-4.356-0.365c-1.444-0.091-2.887-0.181-4.329-0.272
					c-2.352-0.136-4.514-0.262-6.868-0.398c-1.811-0.185-3.403-0.232-5.207-0.295c-1.774-0.277-3.397-0.265-5.205-0.252
					c-0.938,0.352-1.702,0.765-2.64,1.118c-1.446-0.002-2.871,0.05-4.299,0.095c-2.886,0.261-5.757,0.523-8.638,0.845
					c-1.952-0.186-4.06-0.245-6.007-0.332c-1.638,0.655-3.445,1.261-5.257,1.923c-1.421,0.126-2.85,0.304-4.274,0.491
					c-2.291,0.125-4.404,0.241-6.692,0.366c-5.084-0.303-7.012-0.255-8.428,0.169c-4.55,0.242-8.923,0.474-13.47,0.716
					c-1.879-0.471-3.751-0.94-5.635-1.413c2.305-0.746,4.929-1.214,8.397-1.207c1.422-0.54,2.675-1.072,4.278-1.624
					c2.46-0.25,5.41-0.064,7.568-1.28c2.433,0.273-0.315,2.506,4.115,1.745c1.579,0.085,0.382-0.486,1.62-0.668
					c2.828-0.231,5.658-0.463,8.481-0.694c1.6-0.017,2.46,0.406,3.505,0.648c1.428-0.067,2.67-0.126,4.267-0.201
					c0.04-0.58,0.075-1.101,0.115-1.681c-1.769-0.098-3.537-0.196-5.126-0.284c0.213-0.529,0.592-0.953,0.982-1.435
					c2.138-0.099,3.567-0.165,4.992-0.231c1.397,0.398,2.787,0.738,4.179,1.194c2.908-0.559,6.136-0.481,8.987-0.542
					c2.85-0.065,5.33-0.254,6.808-1.285c4.465,0.85,8.567-0.448,12.458-2.017c16.888,0.135,34.194,1.366,51.434,4.684
					c2.157,0.311,4.301,0.876,6.447,1.367l6.433,1.516l3.208,0.765l2.995,0.826l5.621,1.537c7.158,1.936,13.237,2.898,17.229,2.287
					c0.145,0.565,0.378,1.062,0.636,1.615c-0.527,0.206-0.936,0.472-1.302,0.696c-0.371,0.216-0.652,0.452-0.854,0.702
					c-0.4,0.505-0.496,1.034-0.333,1.611c0.524-0.014,1.086,0.002,1.659,0.017c0.543-0.038,1.125-0.024,1.68-0.063
					c0.353-0.688,0.809-1.308,1.161-1.968c0.68,0.129,1.347,0.311,2.084,0.355c0.749,0.059,1.592,0.045,2.549-0.048
					c-0.894,0.48-1.706,0.886-2.453,1.209c-0.36,0.161-0.735,0.285-1.117,0.408C378.43,23.091,378.063,23.258,377.639,23.331z"/>
			</g>
			<g>
				<path class="st2" d="M342.737,42.808c2.384-0.069,6.345,2.025,10.264,1.868c0.575,0.618,0.945,1.197,1.365,1.763
					c-2.291-0.726-4.039-0.711-5.836-0.976C346.763,45.199,344.933,44.644,342.737,42.808z"/>
			</g>
			<g>
				<path class="st2" d="M267.639,34.074c-2.97,0.408-7.292,0.525-11.749,0.646c-4.471,0.165-9.091,0.385-12.589,0.859
					c-2.141,1.021-2.939-0.367-4.878-0.034c-1.563-0.089-2.782-0.197-4.172-0.296c-0.351,0.019-0.701,0.039-0.876,0.048
					c-1.954,0.569-4.23,0.808-9.288,0.218l4.272-1.103l0.027-0.522c2.454-0.076,5.073-0.104,7.521-0.12
					c1.398-0.076,2.803-0.152,4.202-0.228c4.709-0.185,9.461-0.371,14.213-0.557c4.725-0.103,9.449-0.207,14.132-0.309l2.637-0.537
					l5.701-0.039c7.646,0.93,18.405,0.313,24.482,1.915c1.435,0.014,2.815,0.062,4.159,0.139c1.337,0.108,2.625,0.302,3.899,0.484
					c2.546,0.378,5.011,0.836,7.534,1.325c1.27,0.21,2.516,0.589,3.81,0.905c1.29,0.321,2.614,0.65,3.988,0.992
					c1.374,0.33,2.798,0.658,4.292,0.978c0.373,0.08,0.751,0.161,1.132,0.244c0.375,0.103,0.755,0.207,1.139,0.312
					c0.77,0.201,1.559,0.407,2.368,0.618c-1.231-0.212-2.432-0.432-3.606-0.661c-1.195-0.163-2.366-0.323-3.516-0.48
					c-2.297-0.336-4.506-0.705-6.66-1.096c-2.138-0.449-4.292-0.644-6.389-0.972c-2.104-0.316-4.182-0.628-6.259-0.94l-1.562-0.236
					l-1.582-0.16c-1.057-0.104-2.118-0.208-3.185-0.313c-2.136-0.204-4.303-0.396-6.528-0.563c-2.225-0.162-4.539-0.146-6.92-0.171
					c-2.387,0.005-4.848,0.008-7.434,0.146c-1.696-0.163-4.898,0.9-4.95-0.256C272.436,34.271,270.038,34.162,267.639,34.074z"/>
			</g>
			<g>
				<path class="st2" d="M220.74,35.696c-1.583,0.03-0.409,1.01-5.138,0.802C220.332,36.706,219.157,35.726,220.74,35.696z"/>
			</g>
			<g>
				<path class="st2" d="M208,36.626c1.943-0.015,3.882-0.029,5.831-0.044C211.882,36.597,209.943,36.612,208,36.626z"/>
			</g>
			<g>
				<path class="st2" d="M101.218,29.866c-5.237-0.12-8.999,0.392-12.316,0.863c-1.654,0.253-3.206,0.49-4.776,0.73
					c-1.566,0.272-3.152,0.517-4.89,0.699c-1.521,0.154-3.089,0.267-4.68,0.363c-1.592,0.095-3.198,0.259-4.809,0.379
					c-3.219,0.259-6.439,0.512-9.422,1.104c-3.233,0.371-5.602,0.059-8.124,0.035c-1.86,0.168-3.763,0.34-5.665,0.512
					c-1.887,0.232-3.774,0.465-5.619,0.692c0.402-0.719,1.277-1.279,2.518-1.776c1.241-0.496,2.841-0.947,4.724-1.325
					c1.878-0.245,3.935-0.514,5.811-0.759c0.676,0.072,2.473,0.151,4.637-0.012c2.168-0.135,4.696-0.572,6.9-1.203
					c1.37,0.138,3.922,0.416,5.051-0.714c2.737,0.176,5.816,0.442,7.526-0.884c0.172,0.001,0.518,0.003,0.863,0.004
					c2.252,0.077,4.313,0.156,6.553,0.338c0.535-0.1,1.07-0.196,1.774-0.231C91.935,29.011,96.583,29.286,101.218,29.866z"/>
			</g>
			<g>
				<path class="st2" d="M78.887,6.091c-0.183-0.001-0.552-0.002-0.923-0.003l0.228-1.906c2.223,0.005,3.335,0.008,4.443,0.01
					c1.636,0.222,2.889,0.547,4.317,0.889C84.333,5.308,81.692,5.764,78.887,6.091z"/>
			</g>
			<g>
				<path class="st2" d="M37.756,35.967c-1.492,0.122-0.28,1.041-4.763,1.286l-0.034-0.522
					C34.445,36.494,36.098,36.231,37.756,35.967z"/>
			</g>
			<g>
				<path class="st7" d="M481.06,38.526c-0.439,1.064-0.771,2.42-7.285,2.392c-1.047,0.059-2.254,0.088-3.309,0.208
					c-0.415-0.448-0.845-0.842-1.277-1.237c-0.695-0.767-1.403-1.49-2.12-2.191c1.375,0.017,2.738,0.109,4.114,0.133
					C475.181,37.759,478.051,38.109,481.06,38.526z"/>
			</g>
			<g>
				<path class="st7" d="M465.54,37.552c-3.101,0.017-6.206,0.033-9.131,0.049c-1.217-0.835-3.821-0.736-6.602-0.415
					c-0.185,0.106-0.543,0.2-0.723,0.25c-0.355,0.097-0.705,0.135-0.889,0.239l-6.496-0.84c-0.167-0.005-0.505-0.016-0.674-0.022
					c-4.017-1.604-3.673-0.378-4.853-0.339c-1.67-0.01-3.188-0.04-4.854-0.021c-3.162-0.118-6.294-0.136-9.568-0.055
					c-0.977,0.056-2.115,0.121-3.09,0.176c-0.478-0.078-0.954-0.156-1.434-0.176c-1.102-1.145-4.66-0.477-6.151,0.045
					c-2.478,0.306-4.844,0.734-6.954,1.248c-0.41-0.016-0.786-0.023-1.131-0.023c-0.34,0.002-0.596,0.031-0.859,0.052
					c-0.492,0.053-0.966,0.107-1.22,0.207c-0.28,0.094-0.5,0.195-0.688,0.298c-0.188,0.103-0.333,0.197-0.562,0.355
					c-0.527,0.246-0.926,0.433-1.322,0.618c-1.404,0.699-2.967,1.476-4.531,2.254c-1.497,0.413-3.13,0.855-4.864,1.243
					c1-0.649,1.887-1.366,2.715-2.072c1.746-0.819,3.301-1.626,4.722-2.331c0.709-0.352,1.39-0.688,2.029-0.982
					c0.315-0.144,0.655-0.306,0.921-0.408l0.765-0.291c1.083-0.42,2.425-0.796,3.675-1.096c0.681-0.103,1.426-0.133,2.119-0.187
					c0.691-0.058,1.421-0.075,2.194-0.08c1.738-0.132,2.752-0.319,3.443-0.555c0.696-0.23,1.143-0.427,1.865-0.444
					c0.966-0.332,1.927-0.613,3.091-0.868c1.298,0.179,2.604,0.38,3.919,0.604c6.886,0.073,13.128-0.985,19.265,0.303
					c1.699,0.054,3.227,0.103,4.929,0.157c2.733,0.044,5.474,0.089,8.218,0.134c0.957,0.467,2.091,0.889,3.035,1.357
					C459.044,36.34,463.435,36.001,465.54,37.552z"/>
			</g>
			<g>
				<path class="st7" d="M412.656,17.88c-1.305,1.406-4.749,1.145-7.156,1.743c-0.746-0.041-1.672-0.094-2.63-0.117
					c-0.39-0.096-0.586-0.233-0.979-0.328l-0.178-2.267c0.382-0.136,0.574-0.293,0.959-0.432
					C406.201,16.715,409.38,17.262,412.656,17.88z"/>
			</g>
			<g>
				<path class="st7" d="M385.786,26.202c-0.893,0.431-1.893,0.89-2.725,1.227c-0.718,0.23-1.408,0.372-2.105,0.454
					c-0.176-0.73-0.337-1.402-0.513-2.133c0.572-0.307,1.171-0.597,1.782-0.975c1.039,0.507,2.296,0.821,3.459,1.154
					C385.725,26.038,385.766,26.147,385.786,26.202z"/>
			</g>
			<g>
				<path class="st5" d="M500.921,37.942c-0.519,0.052-1.034,0.1-1.691,0.114c-1.406-0.4-2.964-0.843-4.369-1.242
					c-0.057,0.754,0.041,1.541-0.025,2.294c-2.742-0.485-5.938-0.117-8.592-1.222c-1.718-0.036-3.462,0.004-5.044,0.077
					c-1.087-0.494-1.999-1.034-2.935-1.501c-3.036-0.382-6.092-0.748-8.987-1.038c-5.55-0.051-11.007-0.504-16.465-0.843
					c-2.744-0.045-5.485-0.089-8.218-0.134c-1.702-0.054-3.23-0.103-4.929-0.157c-6.136-1.288-12.379-0.23-19.265-0.303
					c-1.315-0.224-2.621-0.425-3.919-0.604c-2.932-1.628-5.063-0.432-6.95-0.059c-1.109,0.04-2.042,0.093-3.138,0.211
					c-3.979-0.609-5.388,0.474-5.446,1.321c-0.385,0.127-0.823,0.23-1.257,0.423c-0.996,0.376-2.368,1.072-3.756,1.823
					c-1.408,0.755-2.925,1.607-4.615,2.467c-0.806,0.112-1.409,0.195-2.013,0.279c0.809-1.559,0.206-1.417-0.388-1.343
					c-2.235,0.757-3.978,2.192-4.55,2.828c-1.34,0.618-2.837,1.038-4.394,1.447c-0.777,0.159-1.571,0.305-2.373,0.44
					c-0.802,0.137-1.598,0.179-2.401,0.253c-3.194,0.215-6.297-0.02-8.818-0.514c-1.096-0.133-2.193-0.353-3.303-0.551
					c-1.077-0.243-2.171-0.469-3.173-0.736c-2.502-0.85-4.457-0.319-5.621-0.366c-1.406-0.462-2.771-0.946-4.156-1.374
					c-3.127-0.793-3.196-2.083-6.9-3.043c-2.336-0.967-2.272,0.295-3.425,0.021c-2.121-0.561-4.222-1.177-6.162-1.757
					c-0.801-0.281-1.601-0.561-2.38-0.834c-0.782-0.267-1.562-0.454-2.29-0.675c-2.085-0.119-1.343,0.943-3.503,0.516
					c-2.175-0.372-4.353-0.745-6.533-1.119c-1.849-0.267-3.723-0.438-5.587-0.662c-1.15-0.307-2.129-0.591-3.271-0.954
					c0.049-0.226,0.111-0.511,0.173-0.793c-2.152-0.563-3.368-0.622-4.253-0.554c-0.891,0.101-1.451,0.297-2.305,0.212
					c-0.346-0.022-0.518-0.033-0.858-0.055c-4.718-1.813-7.485-1.069-9.115-0.596c-1.563-0.006-3.312,0.085-4.883,0.156
					c-2.695-0.589-6.762,0.004-8.198-1.073c-1.562,0.01-2.785,0.018-4.174,0.028c-1.197-0.173-2.226-0.323-3.424-0.496
					c-2.271,0.029-4.352-0.002-6.628,0.075c-1.759,0.233-3.345,0.444-5.102,0.677c-1.559-0.114-3.295-0.241-5.024-0.367
					c-1.412,0.207-2.822,0.454-4.232,0.689c-1.927,0.09-3.852,0.181-5.775,0.271c-1.213-0.118-2.256-0.242-3.29-0.37
					c0.556-0.603,1.121-1.208,1.679-1.754c1.4-0.065,2.806-0.13,4.207-0.195c1.176,0.707,3.299,0.282,7.473,0.489
					c1.24-0.22,2.304-0.409,3.54-0.628c1.576-0.048,3.329-0.101,4.902-0.149c0.679,0.152,1.191,0.31,1.704,0.468
					c1.064-0.219,2.301-0.39,3.369-0.57c1.028,0.156,2.228,0.339,3.264,0.496c1.805-0.533,3.679-0.199,6.024-0.849
					c1.941-0.162,3.87-0.162,5.971-0.186c0.219-0.343,0.625-0.737,0.844-1.079c-0.118-0.405-0.42-0.762-0.555-1.112
					c1.598-0.076,3.367-0.147,4.962-0.166c1.453-0.321,3.94-0.368,4.959,1.004c2.275,0.148,4.536,0.297,9.417-0.197
					c0.52,0.09,1.018,0.239,1.693,0.399c0.163,0.077,0.489,0.231,0.649,0.307c2.631,0.219,5.086,0.422,7.716,0.641
					c0.467,0.286,0.918,0.627,1.368,0.969c1.387,0.178,2.784,0.267,4.153,0.539c1.033,0.176,2.236,0.381,3.27,0.558
					c0.735-0.048,1.297-0.131,1.878-0.265c0.487,0.201,0.968,0.4,1.641,0.573c0.404,0.436,0.822,0.887,1.226,1.323
					c1.132-0.157,2.455-0.34,3.587-0.498c1.082,0.613,1.968,1.239,3.037,1.848c3.207,0.765,6.405,1.527,9.612,2.292
					c1.08,0.128,2.325,0.275,3.406,0.402c1.16,0.385,2.149,0.772,3.297,1.209c-0.02,0.052-0.063,0.16-0.084,0.214
					c1.504,0.526,3.192,1.084,4.748,1.525c0.939,0.039,1.874,0.078,2.816,0.118c0.967,0.544,2.085,1.174,3.068,1.727
					c4.007,0.709,8.363,1.204,12.66,0.979c1.996-0.56,4.261-1.197,5.675-0.682c0.637-0.117,1.261-0.233,1.879-0.347
					c0.614-0.154,1.221-0.307,1.828-0.459c1.226-0.279,2.423-0.696,3.605-1.123c2.288-1.163,4.031-1.914,5.735-2.601
					c0.848-0.345,1.674-0.68,2.512-1.044c0.409-0.185,0.83-0.376,1.27-0.576c0.437-0.213,0.817-0.357,1.25-0.583
					c0.597-0.198,1.316-0.346,2.014-0.513c0.68-0.183,1.427-0.308,2.115-0.454c0.946,0.041,1.782,0.351,3.812-0.229
					c0.799-0.327,1.594-0.652,2.369-0.97c0.801-0.29,1.581-0.571,2.322-0.839c1.001,0.21,2.182,0.462,3.174,0.758
					c2.172-0.208,4.362-0.368,6.569-0.483c1.371-0.379,2.759-0.694,4.147-1.045c0.833,0.258,1.502,0.544,2.333,0.813
					c1.358,0.019,2.723,0.125,4.082,0.236c-0.24,0.63,1.996,0.502,4.056,0.531c1.918-0.277,4.017-0.453,5.953-0.693
					c1.886,0.119,3.767,0.295,5.65,0.505c2.284-0.196,3.213,0.572,4.862,1.061c1.949-0.229,4.088-0.502,6.053-0.698
					c0.509,0.097,1.002,0.251,1.492,0.403c4.49,1.233,5.022,0.303,6.718,0.577c0.173,0.017,0.517,0.05,0.862,0.083
					c0.102,0.359,0.378,0.732,0.463,1.147c1.68,0.338,3.354,0.691,4.851,1.027c1.158-2.024,4.424-0.135,6.908-0.28
					c3.139,2.92,9.015,1.21,15.32,2.413c0.084-0.277,0.152-0.5,0.237-0.778c2.289,0.512,4.698,1.146,6.798,1.817
					C501.247,37.068,501.103,37.452,500.921,37.942z"/>
			</g>
			<g>
				<path class="st8" d="M413.391,34.25c-0.722,0.017-1.169,0.214-1.865,0.444c-0.69,0.235-1.705,0.423-3.443,0.555
					c-0.773,0.004-1.503,0.022-2.194,0.08c-0.693,0.054-1.438,0.085-2.119,0.187c-1.25,0.3-2.593,0.676-3.675,1.096l-0.765,0.291
					c-0.266,0.102-0.606,0.264-0.921,0.408c-0.639,0.295-1.321,0.63-2.029,0.982c-1.421,0.706-2.977,1.513-4.722,2.331
					c-0.828,0.706-1.715,1.423-2.715,2.072c-1.249,0.516-2.625,0.971-3.978,1.354c-1.354,0.437-2.723,0.687-4.09,0.98
					c-2.724,0.469-5.454,0.75-8.072,0.74c-2.401-0.129-4.676-0.483-6.896-0.88c-0.414-0.035-0.807-0.102-1.01-0.126
					c-1.216-0.153-2.608-0.358-3.772-0.575c-3.357-1.075-4.905-1.659-6.126-2.172c-0.255,0.177-0.678,0.249-1.107,0.321
					c-3.939-1.091-7.714-2.258-11.467-3.383c-0.81-0.668-1.793-1.374-2.618-2.045c1.153,0.273,1.089-0.989,3.425-0.021
					c3.704,0.959,3.773,2.25,6.9,3.043c1.385,0.427,2.75,0.911,4.156,1.374c1.164,0.047,3.119-0.483,5.621,0.366
					c1.002,0.267,2.096,0.492,3.173,0.736c1.11,0.198,2.207,0.419,3.303,0.551c2.521,0.494,5.624,0.729,8.818,0.514
					c0.803-0.075,1.599-0.116,2.401-0.253c0.802-0.134,1.596-0.281,2.373-0.44c1.557-0.408,3.053-0.829,4.394-1.447
					c0.573-0.636,2.315-2.071,4.55-2.828c0.594-0.074,1.197-0.216,0.388,1.343c0.604-0.084,1.207-0.167,2.013-0.279
					c1.689-0.86,3.207-1.712,4.615-2.467c1.388-0.75,2.76-1.447,3.756-1.823c0.434-0.194,0.872-0.297,1.257-0.423
					c0.058-0.847,1.467-1.93,5.446-1.321c1.096-0.117,2.029-0.171,3.138-0.211c1.887-0.374,4.018-1.569,6.95,0.059
					C415.318,33.637,414.358,33.919,413.391,34.25z"/>
			</g>
			<g>
				<path class="st7" d="M372.803,45.77c-2.401-0.129-4.676-0.483-6.896-0.88C368.127,45.287,370.402,45.64,372.803,45.77z"/>
			</g>
			<g>
				<path class="st7" d="M361.125,44.188c-0.824,0.003-1.089,0.328-1.751,0.477c-0.654,0.146-1.777,0.158-4.136-0.577
					c-0.403-0.564-0.787-1.133-1.346-1.751c0.429-0.073,0.852-0.145,1.107-0.321C356.219,42.529,357.768,43.113,361.125,44.188z"/>
			</g>
			<g>
				<path class="st7" d="M364.904,27.951c-2.354-0.353-3.476,1.027-6.408-0.193c-1.029-0.61-1.862-1.233-2.887-1.862
					c-0.625-0.287-1.392-0.605-2.208-0.891c-0.579,0.05-1.414,0.11-2.838-0.159c-1.428-0.247-3.371-0.899-6.358-1.983
					c1.072,0.228,1.93,0.155,2.814-0.001c0.865-0.143,1.788-0.385,2.982-0.535l4.017,1.11c1.306,0.346,2.349,0.118,5.764,0.643
					c0.377,0.854,0.956,1.717,1.51,2.593L364.904,27.951z"/>
			</g>
			<g>
				<path class="st7" d="M342.424,38.955c-1.017-0.147-2.188-0.316-3.203-0.463c-0.222-0.348-0.29-0.659-0.537-0.957
					c0.429-0.195,0.692-0.431,1.122-0.625C340.632,37.581,341.614,38.288,342.424,38.955z"/>
			</g>
			<g>
				<path class="st8" d="M341.411,20.482c-3.121,0.039-5.34-0.799-7.883-1.249c-0.018,0.056-0.054,0.167-0.072,0.222
					c-0.725-0.124-1.265-0.216-1.802-0.307c-1.222,0.26-2.613,0.49-3.818,0.756c-1.368-0.467-3.22-0.738-4.952-1.09
					c-0.867-0.176-1.704-0.373-2.44-0.625c-0.737-0.225-1.374-0.487-1.836-0.863c-2.182-0.189-3.318,0.67-7.958-0.025
					c-0.428-0.571,1.235-0.56,1.211-1.26c1.445,0.163,2.891,0.326,4.343,0.489l0.539-2.208c1.481,0.091,2.964,0.14,4.447,0.266
					l4.45,0.487c2.898,0.574,5.787,1.146,8.683,1.72c4.722,1.599,9.497,3.139,14.068,4.789
					C346.063,21.182,343.78,20.88,341.411,20.482z"/>
			</g>
			<g>
				<path class="st7" d="M340.827,22.065c-2.4-0.85-4.975-1.762-7.371-2.61c0.018-0.055,0.054-0.167,0.072-0.222
					c2.544,0.45,4.762,1.288,7.883,1.249C341.21,21.027,341.028,21.519,340.827,22.065z"/>
			</g>
			<g>
				<path class="st7" d="M318.938,33.04c-1.57-0.004-0.289,1.174-5.715-0.094c-1.878-0.155-2.886,0.486-5.016-0.047
					c-0.953,0.008-1.692-0.072-2.337-0.211c-0.65-0.11-1.204-0.289-1.778-0.511c-1.147-0.444-2.374-1.059-4.616-1.64
					c1.064-0.096,2.297-0.207,3.359-0.303c0.34,0.022,0.512,0.033,0.858,0.055c0.893,0.333,1.614,0.535,2.225,0.657
					c0.608,0.142,1.104,0.215,1.554,0.246c0.9,0.066,1.61,0.002,2.607,0.231c1.142,0.363,2.121,0.647,3.271,0.954
					C315.215,32.602,317.089,32.773,318.938,33.04z"/>
			</g>
			<g>
				<path class="st7" d="M274.583,30.151c-0.526,0.003-1.047,0.006-1.736,0.011c-1.899-0.067-3.798-0.164-5.727-0.207
					c-1.932-0.027-3.885-0.053-5.88-0.081c-3.135,0.106-6.094,0.158-9.245,0.325c-1.923,0.089-3.845,0.179-5.772,0.268
					c-1.4,0.18-2.642,0.471-4.204,0.427l-2.714,1.533c0.326,0.388,0.657,0.717,0.807,1.115c-1.399,0.076-2.804,0.152-4.202,0.228
					c-2.449,0.016-5.067,0.044-7.521,0.12c-0.334-0.271-0.491-0.554-0.83-0.824l-1.581,0.088c-4.06,0.331-7.928,0.676-11.993,0.932
					c1.309-1.157,2.364-1.217,5.223-2.185c1.751,0.084,3.323,0.16,5.073,0.244c0.207-0.532,0.592-1.132,0.973-1.731
					c1.581-0.158,3.351-0.335,5.111-0.511l9.997-0.543l2.632-0.133c1.035,0.128,2.078,0.252,3.29,0.37
					c1.923-0.09,3.847-0.181,5.775-0.271c1.41-0.235,2.82-0.483,4.232-0.689c1.729,0.126,3.465,0.253,5.024,0.367
					c1.758-0.233,3.343-0.443,5.102-0.677c2.276-0.077,4.357-0.046,6.628-0.075c1.198,0.174,2.227,0.323,3.424,0.496
					C275.722,29.219,275.148,29.684,274.583,30.151z"/>
			</g>
			<g>
				<path class="st7" d="M254.605,18.108c-2.665,0.225-1.534,1.745-5.221,1.623c-1.401-0.108-2.804-0.217-4.202-0.325
					c1.807-0.857,3.469-1.644,5.278-2.502C251.839,17.305,253.223,17.707,254.605,18.108z"/>
			</g>
			<g>
				<path class="st8" d="M224.278,32.146c-1.75-0.084-3.322-0.16-5.073-0.244c-1.462,1.134-7.073,0.891-5.223,2.185
					c-2.649,0.125-5.652,0.267-8.48,0.401c-1.062,0.049-2.123,0.098-3.366,0.156c-1.032-0.406-2.22-0.875-3.26-1.284
					c-0.571,0.483-1.135,0.963-1.882,1.448l-7.191,0.231c-2.401,0.054-4.813,0.053-7.217,0.083c-0.866-0.263-1.718-0.522-2.59-0.786
					c-0.248,0.038-1.614,0.06-3.818,0.068c-2.209-0.036-5.263-0.15-8.872-0.269c-1.806-0.079-3.747-0.092-5.799-0.244
					c-2.051-0.154-4.208-0.316-6.434-0.483c-2.225-0.19-4.519-0.295-6.845-0.568c-2.324-0.286-4.684-0.577-7.043-0.867
					c-4.771-0.565-9.296-1.204-13.612-1.787c-2.156-0.284-4.242-0.595-6.232-0.824c-1.992-0.209-3.882-0.408-5.636-0.593
					c-7.016-0.796-11.876-1.062-12.365-1.028c-2.251-0.198-4.495-0.454-6.743-0.71c1.349-0.727,2.527-1.464,3.901-2.248
					c0.284,0.023,1.664,0.135,3.866,0.313c1.1,0.092,2.405,0.201,3.882,0.324c1.476,0.128,3.118,0.342,4.898,0.536
					c1.779,0.202,3.694,0.42,5.711,0.649c1.008,0.115,2.042,0.232,3.096,0.352c1.052,0.148,2.125,0.298,3.216,0.451
					c4.376,0.612,8.948,1.311,13.645,1.922c2.35,0.307,4.7,0.613,7.016,0.915c1.16,0.151,2.31,0.301,3.448,0.449
					c1.141,0.097,2.268,0.193,3.379,0.288c2.224,0.184,4.378,0.363,6.428,0.533c2.052,0.178,4.001,0.34,5.81,0.39
					c7.239,0.32,12.271,0.541,12.842,0.483c0.852,0.281,1.71,0.562,2.386,0.845c4.337-0.732,5.971-1.152,7.942-1.458
					c2.296,0.028,4.403,0.046,6.696,0.039c1.406,0.07,2.814,0.143,4.223,0.154c1.414-0.054,2.829-0.075,4.24-0.151
					c0.869,0.133,1.74,0.264,2.428,0.463c0.902-0.332,1.807-0.665,2.705-0.995c3.702-0.185,7.401-0.369,10.919-0.544
					c0.359-0.08,0.539-0.203,0.892-0.281c1.755-0.016,3.332-0.03,5.084-0.046C224.87,31.014,224.486,31.614,224.278,32.146z"/>
			</g>
			<g>
				<path class="st7" d="M200.501,35.275c-1.224-0.192-2.278-0.334-3.505-0.468c0.746-0.485,1.311-0.964,1.882-1.448
					c1.04,0.409,2.228,0.878,3.26,1.284C201.598,34.835,201.051,35.025,200.501,35.275z"/>
			</g>
			<g>
				<path class="st7" d="M87.272,28.681c-0.704,0.034-1.239,0.13-1.774,0.231c-2.24-0.182-4.301-0.261-6.553-0.338
					c-0.345-0.002-0.691-0.004-0.863-0.004c0.032-0.287,0.063-0.576,0.12-1.096c1.414-0.226,2.828-0.395,4.243-0.566
					c1.569-0.015,3.307,0.038,5.051,0.104C87.42,27.586,87.35,28.106,87.272,28.681z"/>
			</g>
			<g>
				<path class="st7" d="M89.465,6.837c-2.8,0.251-5.413,0.566-8.026,0.935c-0.911-0.099-1.812-0.196-2.719-0.295l0.167-1.387
					c2.805-0.326,5.447-0.783,8.065-1.01c0.91,0.086,1.817,0.23,2.716,0.374L89.465,6.837z"/>
			</g>
			<g>
				<path class="st7" d="M53.969,31.383c-1.876,0.245-3.933,0.514-5.811,0.759c-1.018-0.369-2.218-0.743-3.238-1.065
					c-1.862,1.863-4.393,1.886-5.752,2.111c-1.033-0.349-3.052-0.285-3.257-0.907c-0.003-0.058-0.008-0.175-0.01-0.232
					c2.18-0.617,4.405-1.035,6.452-1.468c0.857-0.107,1.709-0.213,2.568-0.32c1.887-0.374,3.781-0.749,5.686-1.127
					c1.719,0.091,3.427,0.061,4.976,0.169C55.041,29.976,54.5,30.629,53.969,31.383z"/>
			</g>
			<g>
				<path class="st7" d="M16.034,26.549c1.674,1.38-2.199,3.225-1.057,4.397c-0.133,0.225-0.45,0.478-0.742,0.769
					c-0.166,0.058-0.499,0.174-0.831,0.29c-1.034,0.193-2.092,0.326-3.292,0.636c-0.91,0.375-1.662,0.65-2.289,0.844
					c-0.622,0.213-1.108,0.413-1.51,0.493c-0.801,0.181-1.231,0.06-1.482-0.224c-0.521-0.555-0.222-1.827-1.158-2.32
					c0.769-0.701,1.53-1.431,2.196-1.997c0.656-0.536,1.294-1.057,1.969-1.609c1.071,0.015,2.052,0.216,3.051,0.34l2.134-0.745
					l2.126-0.619C15.327,26.753,15.68,26.651,16.034,26.549z"/>
			</g>
			<g>
				<path class="st7" d="M7.867,23.658c-0.773,0.096-1.661,0.363-2.513,0.584l-1.293,0.35c-0.438,0.123-0.833,0.202-1.396,0.444
					c0.157-0.446-0.184-0.698,0.117-1.25c0.234-0.484,1.06-1.245,3.482-2.501C8.957,21.737,11.269,22.279,7.867,23.658z"/>
			</g>
			<g>
				<path class="st5" d="M288.944,16.732c-2.535,0.109-5.243,0.215-7.781,0.385c-1.976,0.034-4.122,0.19-6.089,0.256
					c0.09-0.811,0.18-1.619,0.277-2.489c1.792-0.013,3.4-0.024,5.188-0.036c0.161,0.177,0.502,0.358,0.834,0.599
					c2.492,0.23,5.159,0.476,7.651,0.706C288.969,16.556,288.96,16.617,288.944,16.732z"/>
			</g>
			<g>
				<path class="st5" d="M286.615,20.547c-2.321,0.058-4.941-0.353-5.003,0.166c-1.615,0.119-2.874,0.349-4.315,0.576
					c-4.186-0.493-5.837,0.039-5.18,0.555c-0.717,0.12-1.255,0.182-1.796,0.301c-1.055,0.014-2.295,0.004-3.354,0.037
					c-3.076-0.949-5.704-1.156-9.299-0.294c0.977-1.186,1.959-2.43,2.947-3.677c0.708-0.021,1.597-0.048,2.482-0.074
					c3.715-0.152,7.462-0.156,11.024-0.179l6.322,0.65l6.32,0.845C286.716,19.796,286.662,20.201,286.615,20.547z"/>
			</g>
			<g>
				<path class="st5" d="M250.481,16.615c-3.187,0.148-6.194,0.288-9.383,0.436c-0.139-0.63-0.453-1.252-0.765-1.872
					c1.423-0.187,2.853-0.365,4.274-0.491c1.906,0.549,3.991,1.087,5.891,1.694C250.493,16.441,250.485,16.557,250.481,16.615z"/>
			</g>
			<g>
				<path class="st5" d="M240.36,29.36l-9.997,0.543c0.198-0.415,0.569-0.784,0.77-1.198c2.633-0.203,5.598-0.074,6.886-1.185
					c0.879-0.048,1.582-0.086,2.461-0.134C240.441,28.026,240.402,28.662,240.36,29.36z"/>
			</g>
			<g>
				<path class="st8" d="M241.098,17.051c-1.963,0.569-3.925,1.137-5.891,1.706c-7.015-0.256-14.327-0.492-19.539,1.936
					c-0.018,0.291-0.033,0.523-0.051,0.813c-2.973,0.142-6.12,0.292-9.27,0.442c0.023-0.348,0.049-0.754,0.072-1.103
					c-0.49-0.336-1.004-0.69-1.496-1.028c0.902-0.506,1.631-1.003,2.533-1.507c-1.552-0.161-3.286-0.251-5.013-0.343
					c0.055-0.813,0.115-1.684,0.17-2.497c-1.588,0.377-3.327,0.696-4.903,0.984c-1.898-0.014-3.959-0.03-5.86-0.045
					c0.921-0.723,1.837-1.389,2.58-2.047c1.555-0.157,2.765-0.28,4.151-0.42c1.522,0.412,2.69,0.848,4.054,1.237
					c1.215-0.056,2.257-0.105,3.472-0.161c1.884,0.472,3.756,0.942,5.635,1.413c-0.018,0.288-0.037,0.581-0.052,0.813
					c5.21-0.012,9.425,0.017,13.475-0.716c0.013-0.232,0.03-0.523,0.047-0.812c1.416-0.425,3.344-0.473,8.428-0.169
					c2.288-0.125,4.401-0.241,6.692-0.366C240.645,15.799,240.959,16.421,241.098,17.051z"/>
			</g>
			<g>
				<path class="st5" d="M225.166,16.527c-4.05,0.733-8.264,0.704-13.475,0.716c0.015-0.232,0.034-0.525,0.052-0.813
					c4.547-0.242,8.92-0.474,13.47-0.716C225.196,16.004,225.18,16.295,225.166,16.527z"/>
			</g>
			<g>
				<path class="st5" d="M224.931,20.708c-0.569,0.783-1.998,1.325-4.29,1.623c-1.041-0.174-2.249-0.397-3.284-0.633
					c1.034,0.236,2.243,0.459,3.284,0.633C222.933,22.032,224.362,21.491,224.931,20.708z"/>
			</g>
			<g>
				<path class="st5" d="M206.349,21.948c-1.586,0.167-3.334,0.35-4.913,0.516c-0.476-0.683-1.65-1.265,0.869-2.523
					c0.876-0.041,1.747-0.082,2.62-0.123c0.492,0.338,1.007,0.692,1.496,1.028C206.398,21.194,206.371,21.6,206.349,21.948z"/>
			</g>
			<g>
				<path class="st9" d="M194.876,30.424c-1.705-0.648-4.871-0.522-6.702,0.196c-2.649,0.024-5.127,0.046-7.774,0.069
					c-0.198-0.003-1.507-0.026-3.651-0.064c-2.143-0.041-5.124-0.225-8.655-0.378c-1.764-0.086-3.668-0.178-5.675-0.275
					c-2.004-0.172-4.112-0.353-6.29-0.541c-2.174-0.189-4.417-0.384-6.694-0.582c-2.267-0.302-4.569-0.609-6.87-0.916
					c-4.605-0.594-9.174-1.254-13.477-1.891c-2.153-0.314-4.238-0.618-6.22-0.907c-1.989-0.237-3.874-0.461-5.622-0.669
					c-3.501-0.405-6.451-0.746-8.575-0.991c-2.13-0.189-3.431-0.304-3.628-0.322c-1.516,0.543-3.032,1.086-4.545,1.629
					c-1.194-0.256-2.224-0.477-3.42-0.733c-3.518-0.099-7.224-0.075-10.919-0.146c-2.424-0.336-5.065-0.274-7.524-0.301
					c-1.377-0.293-2.752-0.586-4.132-0.88c-2.633-0.044-3.189-1.546-9.215-1.449c-2.117-0.023-3.577,0.61-6.79,1.491
					c-0.246,1.367-1.831,1.51-6.033,1.499c-0.528,0.223-1.061,0.445-1.768,0.684c-0.014,0.582-0.032,1.163-0.755,2.623
					c-2.248-0.079-4.508-0.203-6.759-0.18c-1.903,0.419-3.809,0.813-5.699,1.303c-0.699-0.296-1.231-0.563-1.761-0.829
					c-1.739,0.042-3.306,0.118-5.049,0.222c0.847-0.707,1.667-1.392,2.513-2.099c1.901-0.761,3.805-1.584,5.745-2.262
					c1.201-1.311,5.48-2.952,2.62-3.936c0.529-0.715,1.087-1.468,1.616-2.184c-0.901-0.411-1.624-0.902-2.541-1.603
					c-0.544,0.068-1.085,0.135-1.816,0.227c-0.92-0.64-1.663-1.306-2.595-1.945c1.46-0.55,2.943-1.109,4.406-1.661
					c0.545-0.43,1.122-0.885,1.667-1.315c1.3-0.587,2.416-1.01,3.718-1.486c2.414-0.33,4.645-0.675,7.054-0.917
					c0.565-0.267,1.129-0.473,1.882-0.691c0.562-0.207,1.128-0.416,1.694-0.625c1.437,0.452,2.89,0.91,4.332,1.364
					c0.361,0.095,0.719,0.189,0.902,0.237c2.041-0.384,4.264-0.653,6.317-1.007c1.757-0.161,3.518-0.327,5.275-0.449
					c1.755-0.086,3.507-0.172,5.258-0.258c0.907,0.098,1.807,0.196,2.719,0.295c1.606,0.352,3.384,0.747,4.969,1.164
					c-0.768,0.262-1.796,1.14-4.487,0.803c-1.139,0.344-2.279,0.689-3.602,1.089c1.503,1.16,3.576,1.223,5.983,1.034
					c2.4-0.136,5.135-0.484,7.92-0.254c1.775,0.296,3.378,0.497,5.151,0.764c1.593,0.272,3.365,0.556,5.126,0.895
					c0.237,0.073,1.602,0.24,3.811,0.48c1.103,0.127,2.421,0.241,3.907,0.426c1.484,0.192,3.144,0.408,4.943,0.641
					c3.594,0.483,7.76,0.924,12.161,1.662c2.203,0.341,4.476,0.693,6.784,1.051c1.153,0.179,2.314,0.358,3.48,0.539
					c1.11,0.16,2.224,0.321,3.337,0.482c17.769,2.839,36.175,3.352,37.091,3.607c0.69-0.006,1.212-0.01,1.733-0.014
					c1.508,0.506,0.399,1.152,2.262,1.597c1.95-0.372,4.078-0.778,6.026-1.15c0.966,0.808,2.361,0.858,6.594,0.093
					c1.741,0.003,3.301,0.069,5.039,0.128c-0.059,0.812-0.122,1.682-0.18,2.494c-0.883,0.085-1.766,0.23-2.478,0.368
					c-4.204,0.126-8.407,0.306-12.612,0.301c-1.454,0.592-4.54-0.018-6.031,0.861c4.452,0.077,7.098,0.762,9.706,1.31
					c2.606,0.524,5.168,0.85,9.426,0.288c1.209,0.245,2.242,0.453,3.458,0.699C198.991,29.549,196.842,30.006,194.876,30.424z"/>
			</g>
			<g>
				<path class="st5" d="M202.444,17.967c-2.285,0.392-3.449-0.23-4.733-1.513c1.576-0.288,3.315-0.606,4.903-0.984
					C202.559,16.283,202.499,17.154,202.444,17.967z"/>
			</g>
			<g>
				<path class="st5" d="M191.851,16.409c-0.86,0.027-1.724,0.054-2.418,0.076c-1.743,0.235-3.465,0.39-5.031,0.586
					c-2.949,0.315-0.889,2.031-5.128,1.431c-0.358-0.062-1.832-0.099-4.119-0.197c-2.277-0.127-5.372-0.299-9.005-0.501
					c-7.249-0.433-16.559-1.3-25.588-2.711c-2.195-0.3-4.671-0.684-7.049-1.048c-2.381-0.368-4.72-0.73-6.979-1.079
					c-2.256-0.376-4.445-0.666-6.521-0.929c-2.075-0.28-4.032-0.545-5.836-0.788c-1.805-0.254-3.456-0.486-4.916-0.692
					c-1.465-0.179-2.738-0.347-3.781-0.501c-2.086-0.308-3.254-0.561-3.199-0.738c-1.031-0.412-2.234-0.892-3.264-1.303
					c0.549,0.012,2.24,0.12,4.786,0.302c2.543,0.195,5.953,0.386,9.896,0.845c1.974,0.209,4.09,0.433,6.312,0.669
					c1.11,0.119,2.247,0.24,3.406,0.364c1.154,0.153,2.329,0.309,3.522,0.467c2.384,0.325,4.838,0.659,7.327,0.998
					c1.244,0.17,2.496,0.341,3.753,0.513c1.163,0.148,2.33,0.296,3.497,0.444c4.636,0.566,9.249,1.269,13.718,1.52
					c2.223,0.175,4.38,0.346,6.439,0.508c2.054,0.19,4.056,0.185,5.9,0.28c3.705,0.123,6.863,0.294,9.258,0.298
					c2.394,0.003,3.984-0.006,4.499-0.033c1.072-0.414,2.301-0.77,3.366-1.183c1.02-0.009,2.216-0.019,3.237-0.028
					c2.216,0.182,4.441,0.268,6.499,0.383C193.688,15.02,192.772,15.686,191.851,16.409z"/>
			</g>
			<g>
				<path class="st5" d="M188.064,31.777c-1.971,0.306-3.606,0.726-7.942,1.458c-0.676-0.283-1.534-0.564-2.386-0.845
					c0.945-0.528,1.898-1.115,2.664-1.701c2.648-0.024,5.125-0.046,7.774-0.069C188.136,31.023,188.103,31.372,188.064,31.777z"/>
			</g>
			<g>
				<path class="st5" d="M100.499,24.783c-1.374,0.784-2.552,1.521-3.901,2.248c-2.98-0.003-6.13,0.026-9.101-0.019
					c-1.744-0.066-3.482-0.119-5.051-0.104l0.169-1.387c1.116-0.509,2.402-1.095,3.545-1.617c3.695,0.07,7.4,0.047,10.919,0.146
					C98.274,24.306,99.305,24.527,100.499,24.783z"/>
			</g>
			<g>
				<path class="st5" d="M61.87,9.19c-0.183-0.048-0.541-0.142-0.902-0.237c-2.012-0.247-4.022-0.493-6.027-0.739
					c0.562-0.207,1.128-0.416,1.694-0.625c1.858-0.227,3.536-0.442,5.393-0.609c0.554,0.024,1.097,0.137,1.827,0.228
					C63.065,7.871,62.468,8.51,61.87,9.19z"/>
			</g>
			<g>
				<path class="st5" d="M59.731,29.06c-1.383,0.081-2.762,0.162-4.148,0.243c-1.549-0.107-3.257-0.078-4.976-0.169
					c0.006-0.349,0.013-0.755,0.019-1.106c2.596-0.355,3.664-1.158,5.915-0.979c2.967-0.348,0.648,1.059,3.232,1.199
					C59.762,28.482,59.746,28.77,59.731,29.06z"/>
			</g>
			<g>
				<path class="st6" d="M42.288,11.308c-0.545,0.43-1.122,0.885-1.667,1.315c-1.463,0.551-2.946,1.11-4.406,1.661
					c0.933,0.638,1.675,1.304,2.595,1.945c0.732-0.091,1.272-0.159,1.816-0.227c0.917,0.701,1.64,1.192,2.541,1.603
					c-0.529,0.715-1.087,1.469-1.616,2.184c2.86,0.985-1.419,2.625-2.62,3.936c-1.94,0.678-3.845,1.501-5.745,2.262
					c-0.945-1.314-2.377-1.319-1.874-1.925c0.525-0.202,1.049-0.402,1.757-0.574c3.081-0.79,4.047-1.354,4.595-1.815
					c0.548-0.476,0.674-0.9,2.103-1.37c-0.99-0.02-1.979-0.04-2.99-0.061c-1.013-0.004-2.048,0.029-3.129,0.051
					c-0.731-0.177-1.64-0.264-2.558-0.408l-0.044-0.873c2.33-0.824,4.682-1.736,6.856-2.435c-2.182,0.236-4.553,0.676-6.924,1.041
					c-0.212-0.61-0.607-1.188-1.006-1.769c-1.667-0.051-3.547,0.056-5.424,0.129c-3.151,0.586-6.535,1.426-9.753,2.264
					c-0.799-0.01-1.42-0.13-2.041-0.25c0.507-0.63,1.237-1.18,2.161-1.682c0.907-0.467,1.99-0.852,3.237-1.223
					c2.51-0.791,5.569-1.237,9.057-1.877c1.492-0.391,2.979-0.667,4.471-1.031c1.697,0.084,3.57,0.162,5.43,0.302
					c0.541-0.416,1.095-0.894,1.652-1.313c-0.188-0.268-0.565-0.454-0.938-0.699c2.796-0.278,5.413-0.545,8.182-0.647
					C44.705,10.298,43.588,10.722,42.288,11.308z"/>
			</g>
			<g>
				<path class="st5" d="M33.07,23.488c-0.707,0.173-1.232,0.372-1.757,0.574c-1.418,0.205-2.824,0.506-4.236,0.783
					c0.287-0.941,0.402-1.789,0.704-2.673c1.751-0.874,0.611-1.739,3.31-2.288c0.917,0.144,1.826,0.232,2.558,0.408
					c1.081-0.022,2.116-0.056,3.129-0.051c1.011,0.021,2.001,0.041,2.99,0.061c-1.429,0.471-1.555,0.894-2.103,1.37
					C37.117,22.134,36.151,22.698,33.07,23.488z"/>
			</g>
			<g>
				<path class="st5" d="M37.11,12.481c-1.859-0.14-3.733-0.218-5.43-0.302c1.028-0.302,2.051-0.603,3.074-0.903
					c1.022-0.268,2.043-0.537,3.069-0.807c0.373,0.245,0.75,0.431,0.938,0.699C38.204,11.587,37.651,12.065,37.11,12.481z"/>
			</g>
			<g>
				<path class="st5" d="M37.903,16.577c-2.174,0.698-4.526,1.611-6.856,2.435c-0.553-0.144-1.114-0.346-1.859-0.519
					c-5.379-0.132-6.305,2.065-10.343,2.774c-0.492,0.595-0.989,1.131-1.639,1.824c-1.452,0.427-2.906,0.909-4.355,1.372
					c-1.45,0.47-2.943,1.094-4.41,1.625c0.221-0.75,0.454-1.508,0.508-2.201c2.442-1.222,4.783-2.141,6.986-3.087
					c-0.316-0.872-0.82-1.69-1.14-2.559c3.218-0.838,6.602-1.678,9.753-2.264c1.878-0.073,3.757-0.18,5.424-0.129
					c0.399,0.581,0.794,1.16,1.006,1.769C33.35,17.253,35.721,16.813,37.903,16.577z"/>
			</g>
			<g>
				<path class="st5" d="M23.901,34.853c0.529,0.17,1.053,0.341,1.735,0.474c0.007,0.06,0.02,0.174,0.027,0.231
					c-2.394,0.835-4.686,1.482-6.97,2.374c-0.643,0.089-1.247,0.173-1.872,0.26c-0.601,0.103-1.223,0.21-1.921,0.33
					c-0.163-0.004-0.49-0.013-0.653-0.017c0.194-1.17,0.415-2.347,0.681-3.482c1.112-0.331,2.142-0.456,3.132-0.636
					c1.405-0.706,2.874-1.298,4.333-1.869c1.452-0.587,2.895-1.157,4.325-1.651c-0.457,0.651-0.952,1.308-1.441,1.964
					C24.797,33.506,24.326,34.188,23.901,34.853z"/>
			</g>
			<g>
				<path class="st8" d="M33.187,25.987c-0.846,0.707-1.667,1.392-2.513,2.099c-0.86,0.22-1.54,0.479-2.389,0.762
					c-0.328,0.244-0.488,0.453-0.813,0.693c-0.136,0.44-0.447,0.854-0.753,1.327c-1.43,0.494-2.873,1.064-4.325,1.651
					c-1.459,0.571-2.928,1.163-4.333,1.869c-0.991,0.18-2.021,0.305-3.132,0.636c-0.391-1.026-0.96-2.052-1.524-3.018
					c0.332-0.116,0.664-0.232,0.831-0.29c0.292-0.291,0.609-0.543,0.742-0.769c-1.142-1.172,2.731-3.017,1.057-4.397
					c-0.353,0.102-0.707,0.204-0.884,0.255l-2.126,0.619l-2.134,0.745c-1-0.124-1.98-0.325-3.051-0.34
					C8.1,27.21,8.372,26.594,8.442,26.09c1.467-0.532,2.96-1.156,4.41-1.625c1.449-0.463,2.903-0.945,4.355-1.372
					c0.65-0.693,1.147-1.229,1.639-1.824c4.038-0.71,4.964-2.906,10.343-2.774c0.745,0.173,1.306,0.375,1.859,0.519l0.044,0.873
					c-2.7,0.549-1.559,1.414-3.31,2.288c-0.302,0.884-0.417,1.732-0.704,2.673c1.413-0.278,2.818-0.578,4.236-0.783
					C30.81,24.668,32.243,24.674,33.187,25.987z"/>
			</g>
			<g>
				<path class="st5" d="M18.174,23.392c0.729,0.567,0.971,1.043,0.645,1.524c-0.327,0.476-1.225,0.951-2.785,1.633
					c-0.353,0.102-0.707,0.204-0.884,0.255c-0.087-0.516-0.183-1.089-0.27-1.606C15.907,24.618,16.735,23.714,18.174,23.392z"/>
			</g>
			<g>
				<path class="st8" d="M481.06,38.526c-3.22-0.278-6.629-0.503-9.877-0.696c-1.377-0.024-2.74-0.117-4.114-0.133
					c-0.513-0.049-1.019-0.097-1.529-0.145c-2.105-1.551-6.496-1.212-9.691-1.614c-0.944-0.469-2.077-0.891-3.035-1.357
					c5.457,0.34,10.915,0.792,16.465,0.843c2.894,0.29,5.95,0.656,8.987,1.038c0.936,0.467,1.848,1.007,2.935,1.501
					C481.158,38.132,481.116,38.3,481.06,38.526z"/>
			</g>
			<g>
				<path class="st8" d="M452.149,23.19c-2.282-0.132-4.39-0.24-6.674-0.332c0.06-0.401,0.112-0.749,0.172-1.15
					c-0.81-0.502-1.622-0.991-2.261-1.473c0.185-0.052,0.559-0.156,0.744-0.207c0.105,0.466,2.808,0.269,6.766,1.124
					c0.519,0.087,1.024,0.231,1.54,0.374C452.347,22.044,452.248,22.617,452.149,23.19z"/>
			</g>
			<g>
				<path class="st8" d="M444.595,34.447c-1.702-0.054-3.23-0.103-4.929-0.157C441.365,34.343,442.893,34.392,444.595,34.447z"/>
			</g>
			<g>
				<path class="st8" d="M405.724,24.097c-0.792,0.061-1.627,0.164-2.462,0.293c-0.836,0.119-1.673,0.241-2.458,0.428
					c-0.746-0.168-1.333-0.433-1.918-0.641c0.101-0.504,0.39-1.055,0.699-1.612c1.725-1.511,5.079-1.291,5.915-2.942
					c2.407-0.599,5.852-0.337,7.156-1.743c0.545,0,1.089,0.062,1.636,0.08c0.712,0.35,1.247,0.655,1.774,1.02
					c-0.756,0.934,0.401,1.277,1.785,1.607c1.385,0.339,3.004,0.636,3.22,1.377c-1.084,0.353-1.816,0.857-3.389,0.774
					C413.631,23.023,409.755,23.415,405.724,24.097z"/>
			</g>
			<g>
				<path class="st8" d="M388.601,24.477c-0.92,0.458-1.996,0.993-2.917,1.451c-1.163-0.332-2.42-0.647-3.459-1.154
					c0.86-0.552,1.728-1.14,3.236-1.827c0.995-0.17,2.203-0.462,3.306-0.685C388.644,23.032,388.708,23.712,388.601,24.477z"/>
			</g>
			<g>
				<path class="st8" d="M377.148,29.357c-1.735-0.088-2.189,0.88-3.562,0.92c-0.747-0.193-1.494-0.386-2.222-0.575
					c-0.73-0.23-1.425-0.44-2.078-0.688c-0.759-0.168-1.467-0.309-2.184-0.484c-0.719-0.19-1.439-0.38-2.197-0.581l-3.611-1.278
					c-0.553-0.877-1.133-1.739-1.51-2.593c1.243-0.154,3.128,0.057,4.879,0.389c1.771,0.365,3.415,0.837,4.394,1.505
					c2.722,0.296,5.302,0.39,7.84,0.045c0.572,0.006,1.172-0.025,1.786-0.044c0.598-0.076,1.195-0.152,1.761-0.223
					c0.176,0.731,0.338,1.403,0.513,2.133c0.697-0.082,1.387-0.224,2.105-0.454c-1.275,0.634-1.224,1.044-1.262,1.448
					c-0.029,0.404-0.159,0.723-1.773,1.02C378.942,29.787,378.042,29.587,377.148,29.357z"/>
			</g>
			<g>
				<path class="st8" d="M305.731,19.823c-0.308-0.252-0.433-0.548-0.731-0.857c-2.842-0.281-5.688-0.562-8.527-0.843
					c-0.203,0.104-0.573,0.138-0.943,0.229c-2.251-0.648-4.323-1.077-6.586-1.62c0.016-0.115,0.025-0.176,0.081-0.578
					c0.591-0.333,1.187-0.721,1.961-1.049l2.971,0.078l2.983,0.192c1.983,0.128,4.148,0.267,6.136,0.395
					c1.366,0.456,2.744,0.917,4.111,1.373c-0.083,0.399-0.153,0.739-0.236,1.137c3.082,0.172,5.713,0.76,7.513,1.661l-0.319,1.359
					C311.342,20.832,308.535,20.265,305.731,19.823z"/>
			</g>
			<g>
				<path class="st8" d="M310.08,31.425c-1.174-0.22-2.348-0.441-3.543-0.665c-1.198-0.213-2.432-0.345-3.702-0.525
					c0.34,0.022,0.512,0.033,0.858,0.055c0.855,0.084,1.414-0.111,2.305-0.212c0.885-0.067,2.101-0.009,4.253,0.554
					C310.191,30.914,310.129,31.199,310.08,31.425z"/>
			</g>
			<g>
				<path class="st8" d="M275.074,17.374c-0.205,0.233-0.581,0.408-0.952,0.584c-3.561,0.024-7.309,0.027-11.024,0.179
					c-0.886,0.027-1.774,0.053-2.482,0.074c-2.123-0.036-4.071-0.069-6.01-0.102c-1.382-0.401-2.766-0.803-4.144-1.204
					c0.004-0.058,0.012-0.175,0.02-0.29c0.004-0.058,0.013-0.173,0.017-0.232c1.806-0.602,3.423-1.099,5.244-1.606
					c2.3,0.159,4.419,0.384,6.709,0.601c0.346,0.165,0.502,0.333,0.838,0.554c3.763-0.558,7.565-0.895,11.199-1.331
					c0.345,0.113,0.687,0.225,0.864,0.283C275.254,15.754,275.164,16.562,275.074,17.374z"/>
			</g>
			<g>
				<path class="st8" d="M86.408,8.936c-1.585-0.417-3.363-0.812-4.969-1.164c2.614-0.369,5.226-0.683,8.026-0.935
					c0.155,0.177,0.496,0.361,0.837,0.547C88.266,7.493,88.842,8.551,86.408,8.936z"/>
			</g>
			<g>
				<path class="st8" d="M78.72,7.477c-1.751,0.086-3.503,0.172-5.258,0.258c-1.757,0.122-3.518,0.288-5.275,0.449
					c-1.251-0.372-2.326-0.687-3.594-0.997c4.456-0.415,8.926-0.875,13.371-1.099c0.371,0.001,0.74,0.003,0.923,0.003L78.72,7.477z"
					/>
			</g>
			<g>
				<path class="st8" d="M68.923,28.399c-1.055,0.121-2.265,0.26-3.315,0.38c-1.908,0.025-3.978,0.174-5.877,0.281
					c0.015-0.29,0.031-0.578,0.043-0.811c3.095,0.173,1.954-1.001,4.232-1.391c1.896,0.229,3.961,0.479,5.851,0.707
					C69.486,27.864,69.292,28.1,68.923,28.399z"/>
			</g>
			<g>
				<path class="st8" d="M15.936,20.801c-2.203,0.946-4.544,1.865-6.986,3.087c-0.24-0.159-0.658-0.197-1.083-0.23
					c3.402-1.379,1.09-1.921-1.604-2.373c1.152-0.606,2.263-1.19,3.352-1.763c1.106-0.598,2.09-1.028,3.139-1.53
					c0.622,0.12,1.243,0.24,2.041,0.25C15.116,19.111,15.62,19.929,15.936,20.801z"/>
			</g>
			<g>
				<path class="st6" d="M494.374,35.595c-6.305-1.203-12.18,0.506-15.32-2.413c-2.484,0.145-5.75-1.744-6.908,0.28
					c-0.19,0.093-0.559,0.169-0.914,0.191c-1.317-0.407-2.623-0.811-3.938-1.218c-0.085-0.415-0.36-0.788-0.463-1.147
					c-0.345-0.033-0.689-0.067-0.862-0.083c-1.696-0.274-2.228,0.656-6.718-0.577c-0.49-0.152-0.983-0.306-1.492-0.403
					c-1.965,0.197-4.104,0.469-6.053,0.698c-1.65-0.489-2.578-1.257-4.862-1.061c-1.883-0.21-3.764-0.386-5.65-0.505
					c-1.936,0.239-4.035,0.416-5.953,0.693c-2.06-0.029-4.296,0.1-4.056-0.531c-1.359-0.112-2.723-0.217-4.082-0.236
					c-0.831-0.269-1.5-0.555-2.333-0.813c-1.388,0.351-2.777,0.666-4.147,1.045c-2.207,0.115-4.398,0.275-6.569,0.483
					c-0.992-0.296-2.173-0.548-3.174-0.758c-0.741,0.268-1.52,0.55-2.322,0.839c-0.775,0.317-1.57,0.643-2.369,0.97
					c-2.03,0.58-2.866,0.269-3.812,0.229c-0.688,0.146-1.435,0.272-2.115,0.454c-0.698,0.167-1.417,0.314-2.014,0.513
					c-0.433,0.225-0.813,0.37-1.25,0.583c-0.44,0.199-0.861,0.39-1.27,0.576c-0.837,0.364-1.664,0.699-2.512,1.044
					c-1.704,0.687-3.447,1.438-5.735,2.601c-1.183,0.426-2.38,0.844-3.605,1.123c-0.607,0.153-1.214,0.305-1.828,0.459
					c-0.618,0.114-1.242,0.229-1.879,0.347c-1.414-0.515-3.679,0.122-5.675,0.682c-4.297,0.225-8.653-0.27-12.66-0.979
					c-0.983-0.554-2.101-1.183-3.068-1.727c1.506-0.506,3.374-0.363,5.378-0.109c2.006,0.228,4.151,0.612,6.099,0.557
					c0.917,0.031,1.795-0.012,2.672-0.071c0.876-0.03,1.751-0.14,2.671-0.236c1.013-0.01,2.02-0.158,3.058-0.242
					c1.032-0.135,2.092-0.311,3.188-0.558c2.798-0.331,3.104-1.74,6.449-2.959c-0.075-0.221-0.13-0.385-0.187-0.551
					c1.996-0.747,2.663-3.531,6.097-2.687c-1.191,0.764-2.367,1.559-3.556,2.412c2.233-0.526,4.479-1.065,6.52-1.326
					c2.191-1.093,4.73-1.951,7.346-2.63c-0.873-0.458-1.791-1.015-2.695-1.426c0.649-0.239,1.15-0.431,1.649-0.66
					c1.362-0.183,2.737-0.28,4.107-0.449c3.098-0.27,6.021-0.44,9.135-0.422c0.166,0.162,0.507,0.308,0.845,0.455
					c1.899-0.117,3.802-0.239,5.711-0.299l0.036-0.521c1.144-0.225,2.197-0.33,3.48-0.308c1.281,0.007,2.794,0.148,4.855,0.431
					c4.028-0.171,6.181-0.674,11.227-1.493c1.527,0.391,3.214,0.876,4.727,1.289c0.788,0.61,1.616,0.888,2.44,1.224
					c1.395,0.082,2.787,0.164,4.177,0.247c0.496,0.207,0.986,0.411,1.468,0.674c1.906,0.144,3.991,0.301,5.9,0.445
					c2.677,0.746,5.334,1.57,7.969,2.425c4.339,0.324,9.257,1.209,13.299,1.312c2.136,1.291,7.786,1.439,11.777,3.341
					C494.526,35.095,494.458,35.318,494.374,35.595z"/>
			</g>
			<g>
				<path class="st9" d="M388.282,33.335c-3.346,1.219-3.651,2.628-6.449,2.959c-1.096,0.246-2.156,0.422-3.188,0.558
					c-1.038,0.084-2.045,0.231-3.058,0.242c-0.919,0.096-1.795,0.206-2.671,0.236c-0.877,0.059-1.755,0.102-2.672,0.071
					c-1.948,0.056-4.093-0.329-6.099-0.557c-2.004-0.254-3.872-0.397-5.378,0.109c-0.942-0.039-1.877-0.079-2.816-0.118
					c-1.556-0.441-3.244-0.999-4.748-1.525c0.022-0.055,0.064-0.162,0.084-0.214c-1.148-0.437-2.137-0.825-3.297-1.209
					c-0.805-0.823-1.789-1.636-2.592-2.455c-4.145,0.093-9.719-1.186-9.715-2.327c-1.289-0.006-2.398,0.025-3.663-0.037
					c-1.577-0.167-3.337-0.338-4.899-0.549c-0.674-0.173-1.155-0.372-1.641-0.573c-0.389-0.536-0.781-1.071-1.35-1.637l0.143-0.503
					c-0.379-0.64-0.74-1.249-1.122-1.894c1.436,0.146,2.857,0.291,4.292,0.438c1.113,0.283,2.182,0.555,3.251,0.827
					c1.068,0.268,2.129,0.553,3.211,0.955c1.063,0.724,3.23,0.941,4.917,1.457c1.832,0.607,3.669,1.214,5.671,1.877
					c0.47,0.22,0.957,0.418,1.425,0.669c1.016,0.281,2.206,0.61,3.22,0.891c1.908,0.411,3.967,0.912,5.868,1.282
					c0.613-0.145,1.201-0.234,1.978-0.338c0.855,0.681,2.772,1.116,4.367,1.516c1.593,0.402,2.877,0.791,2.472,1.608
					c0.957,0.155,1.921,0.276,2.883,0.406c0.968,0.08,1.933,0.213,2.906,0.251c0.969,0.075,1.981,0.182,3.001,0.195
					c1.019,0.06,2.04,0.033,3.02-0.014c1.6-0.057,3.61-0.175,5.815-0.595c1.084-0.267,2.244-0.519,3.365-0.965
					c1.125-0.429,2.23-0.965,3.283-1.588C388.152,32.95,388.207,33.114,388.282,33.335z"/>
			</g>
			<g>
				<path class="st6" d="M344.584,33.483c-3.207-0.765-6.405-1.527-9.612-2.292c-1.069-0.609-1.956-1.235-3.037-1.848
					c-0.622,0.236-1.263,0.543-1.879,0.789c-0.681-0.116-1.198-0.204-1.709-0.291c-0.404-0.436-0.822-0.887-1.226-1.323
					c1.562,0.211,3.322,0.382,4.899,0.549c1.266,0.061,2.374,0.03,3.663,0.037c-0.004,1.141,5.571,2.419,9.715,2.327
					c0.803,0.819,1.787,1.633,2.592,2.455C346.908,33.758,345.664,33.611,344.584,33.483z"/>
			</g>
			<g>
				<path class="st6" d="M177.736,32.389c-0.571,0.058-5.603-0.163-12.842-0.483c-1.809-0.05-3.758-0.212-5.81-0.39
					c-2.05-0.17-4.204-0.349-6.428-0.533c-1.11-0.095-2.238-0.191-3.379-0.288c-1.138-0.148-2.289-0.298-3.448-0.449
					c-2.316-0.302-4.666-0.609-7.016-0.915c-4.697-0.611-9.269-1.31-13.645-1.922c-1.09-0.153-2.164-0.304-3.216-0.451
					c-1.055-0.12-2.088-0.238-3.096-0.352c-2.017-0.229-3.932-0.447-5.711-0.649c-1.78-0.193-3.422-0.408-4.898-0.536
					c-1.476-0.123-2.782-0.232-3.882-0.324c-2.202-0.178-3.582-0.29-3.866-0.313c-1.194-0.256-2.224-0.477-3.42-0.733
					c2.168-1.312,5.591-0.521,7.965-0.895c0.197,0.017,1.498,0.133,3.628,0.322c2.124,0.245,5.074,0.586,8.575,0.991
					c1.748,0.208,3.633,0.432,5.622,0.669c1.982,0.289,4.067,0.593,6.22,0.907c4.303,0.636,8.872,1.297,13.477,1.891
					c2.301,0.307,4.603,0.614,6.87,0.916c2.278,0.198,4.52,0.393,6.694,0.582c2.177,0.187,4.286,0.368,6.29,0.541
					c2.007,0.097,3.911,0.19,5.675,0.275c3.53,0.153,6.512,0.337,8.655,0.378c2.143,0.038,3.453,0.06,3.651,0.064
					C179.635,31.275,178.681,31.861,177.736,32.389z"/>
			</g>
			<g>
				<path class="st6" d="M61.87,9.19c-0.183-0.048-0.541-0.142-0.902-0.237c0.955-0.587,1.923-1.206,2.887-1.745
					c0.183-0.006,0.553-0.017,0.737-0.022c1.269,0.31,2.343,0.625,3.594,0.997C66.134,8.537,63.911,8.806,61.87,9.19z"/>
			</g>
			<g>
				<path class="st9" d="M441.236,29.069c-1.357-0.219-2.713-0.407-4.068-0.671c-3.823,0.172-6.011-0.214-6.583-1.418
					c0.362-0.177,0.73-0.352,0.92-0.527c4.649,0.335,9.284,0.841,14.085,1.386C444.128,28.227,442.679,28.66,441.236,29.069z"/>
			</g>
			<g>
				<path class="st9" d="M397.157,31.184c-2.041,0.261-4.287,0.8-6.52,1.326c1.189-0.853,2.365-1.649,3.556-2.412
					c0.495-0.269,0.993-0.527,1.493-0.777l1.498-0.664c0.49-0.238,1.028-0.399,1.546-0.595c0.525-0.183,1.036-0.4,1.578-0.552
					c0.498-0.127,0.996-0.254,1.5-0.383c0.903,0.412,1.821,0.969,2.695,1.426C401.886,29.233,399.348,30.09,397.157,31.184z"/>
			</g>
			<g>
				<path class="st9" d="M277.175,22.386c-0.359,0.061-0.727,0.179-0.918,0.297c-1.377-0.279-2.76-0.559-4.14-0.839
					c-0.657-0.515,0.994-1.048,5.18-0.555C277.258,21.635,277.22,21.981,277.175,22.386z"/>
			</g>
			<g>
				<path class="st9" d="M208.464,29.661c-0.864-0.191-1.731-0.323-2.603-0.457c1.326-1.451,5.13-0.646,6.929-1.425
					c0.5,0.339,1.022,0.693,1.516,1.028C212.359,29.072,210.414,29.337,208.464,29.661z"/>
			</g>
			<g>
				<path class="st4" d="M441.024,36.813c-1.684-0.037-3.363-0.075-4.873-0.108c0.005-0.057,0.015-0.173,0.02-0.231
					C437.351,36.435,437.007,35.209,441.024,36.813z"/>
			</g>
			<g>
				<path class="st4" d="M441.698,36.834c-0.167-0.005-0.505-0.016-0.674-0.022C441.192,36.818,441.531,36.829,441.698,36.834z"/>
			</g>
			<g>
				<path class="st2" d="M208,36.626c-1.544,0.618-3.844,0.769-6.109,0.836c-2.272,0.052-4.493,0.051-5.861,0.442
					c-0.753,0.544-2.338,0.249-6.008-0.387c-3.957,0.364-7.293,1.294-12.101,0.998c-0.177-0.067-1.429-0.077-3.528-0.248
					c-2.092-0.137-5.007-0.329-8.474-0.556c-3.456-0.151-7.493-0.634-11.79-1.041c-1.074-0.106-2.166-0.214-3.272-0.324
					c-1.104-0.098-2.222-0.22-3.351-0.402c-2.253-0.327-4.542-0.659-6.834-0.991c-4.664-0.653-8.958-1.361-13.104-2.02
					c-2.07-0.328-4.078-0.647-5.992-0.951c-1.92-0.251-3.745-0.49-5.444-0.712c-3.4-0.434-6.296-0.857-8.429-1.092
					c-2.134-0.226-3.502-0.38-3.842-0.437c0.287-0.011,1.657,0.073,3.838,0.227c2.181,0.164,5.17,0.517,8.698,0.88
					c1.763,0.191,3.661,0.396,5.661,0.613c1.994,0.274,4.09,0.562,6.253,0.859c2.161,0.298,4.389,0.605,6.651,0.917
					c2.344,0.297,4.723,0.599,7.101,0.9c2.394,0.297,4.789,0.594,7.148,0.886c2.361,0.184,4.686,0.365,6.941,0.54
					c2.258,0.171,4.446,0.336,6.528,0.494c2.077,0.079,4.05,0.153,5.881,0.223c7.342,0.341,12.397,0.276,12.983,0.236
					c2.842,0.16,5.684,0.319,8.52,0.478c3.401-0.34,6.801-0.621,10.371-0.91c1.607-0.041,3.373-0.127,4.97-0.205L208,36.626z"/>
			</g>
			<g>
				<path class="st8" d="M339.806,36.91c-0.429,0.195-0.692,0.431-1.122,0.625l-5.41-1.283c-1.072-0.231-2.118-0.558-3.374-0.825
					c-1.251-0.286-2.669-0.674-4.43-1.267c2.161,0.426,1.418-0.635,3.503-0.516c0.728,0.221,1.508,0.408,2.29,0.675
					c0.779,0.273,1.579,0.553,2.38,0.834C335.585,35.733,337.686,36.349,339.806,36.91z"/>
			</g>
			<g>
				<path class="st8" d="M316.742,14.322c-0.352-0.098-0.689-0.251-0.846-0.387C316.054,14.071,316.391,14.224,316.742,14.322z"/>
			</g>
			<g>
				<path class="st8" d="M302.836,30.236c-1.063,0.096-2.295,0.207-3.359,0.303c-1.857-0.29-3.892-0.608-5.755-0.899
					C295.351,29.167,298.118,28.423,302.836,30.236z"/>
			</g>
		</g>
	</g>
</g>
</svg>
